<svg width="87px" height="15px" id="Слой_1" data-name="Слой 1" xmlns="http://www.w3.org/2000/svg" viewBox="0 0 82 13.41"><title>star</title><path d="M0.3,6.08A1,1,0,0,1,.86,4.37l3.39-.49a0.44,0.44,0,0,0,.33-0.24L6.1,0.56a1,1,0,0,1,1.8,0L9.42,3.63a0.44,0.44,0,0,0,.33.24l3.39,0.49a1,1,0,0,1,.56,1.71L11.24,8.47a0.44,0.44,0,0,0-.13.39l0.58,3.38a1,1,0,0,1-1.46,1.06l-3-1.59a0.44,0.44,0,0,0-.41,0l-3,1.59a1,1,0,0,1-1.46-1.06L2.88,8.86a0.44,0.44,0,0,0-.13-0.39ZM3.44,9L2.86,12.33a0.44,0.44,0,0,0,.64.47l3-1.59a1,1,0,0,1,.93,0l3,1.59a0.44,0.44,0,0,0,.64-0.47L10.56,9a1,1,0,0,1,.29-0.89L13.3,5.68a0.44,0.44,0,0,0-.25-0.76L9.67,4.43a1,1,0,0,1-.76-0.55L7.4,0.81a0.44,0.44,0,0,0-.8,0L5.09,3.88a1,1,0,0,1-.76.55l-3.39.49a0.44,0.44,0,0,0-.25.76L3.15,8.07A1,1,0,0,1,3.44,9Z"/><path d="M68.3,6.08a1,1,0,0,1,.56-1.71l3.39-.49a0.44,0.44,0,0,0,.33-0.24L74.1,0.56a1,1,0,0,1,1.8,0l1.52,3.07a0.44,0.44,0,0,0,.33.24l3.39,0.49a1,1,0,0,1,.56,1.71L79.24,8.47a0.44,0.44,0,0,0-.13.39l0.58,3.38a1,1,0,0,1-1.46,1.06l-3-1.59a0.44,0.44,0,0,0-.41,0l-3,1.59a1,1,0,0,1-1.46-1.06l0.58-3.38a0.44,0.44,0,0,0-.13-0.39ZM71.44,9l-0.58,3.38a0.44,0.44,0,0,0,.64.47l3-1.59a1,1,0,0,1,.93,0l3,1.59a0.44,0.44,0,0,0,.64-0.47L78.56,9a1,1,0,0,1,.29-0.89L81.3,5.68a0.44,0.44,0,0,0-.25-0.76l-3.39-.49a1,1,0,0,1-.76-0.55L75.4,0.81a0.44,0.44,0,0,0-.8,0L73.09,3.88a1,1,0,0,1-.76.55l-3.39.49a0.44,0.44,0,0,0-.25.76l2.45,2.39A1,1,0,0,1,71.44,9Z"/><path d="M51.3,6.08a1,1,0,0,1,.56-1.71l3.39-.49a0.44,0.44,0,0,0,.33-0.24L57.1,0.56a1,1,0,0,1,1.8,0l1.52,3.07a0.44,0.44,0,0,0,.33.24l3.39,0.49a1,1,0,0,1,.56,1.71L62.24,8.47a0.44,0.44,0,0,0-.13.39l0.58,3.38a1,1,0,0,1-1.46,1.06l-3-1.59a0.44,0.44,0,0,0-.41,0l-3,1.59a1,1,0,0,1-1.46-1.06l0.58-3.38a0.44,0.44,0,0,0-.13-0.39ZM54.44,9l-0.58,3.38a0.44,0.44,0,0,0,.64.47l3-1.59a1,1,0,0,1,.93,0l3,1.59a0.44,0.44,0,0,0,.64-0.47L61.56,9a1,1,0,0,1,.29-0.89L64.3,5.68a0.44,0.44,0,0,0-.25-0.76l-3.39-.49a1,1,0,0,1-.76-0.55L58.4,0.81a0.44,0.44,0,0,0-.8,0L56.09,3.88a1,1,0,0,1-.76.55l-3.39.49a0.44,0.44,0,0,0-.25.76l2.45,2.39A1,1,0,0,1,54.44,9Z"/><path d="M34.3,6.08a1,1,0,0,1,.56-1.71l3.39-.49a0.44,0.44,0,0,0,.33-0.24L40.1,0.56a1,1,0,0,1,1.8,0l1.52,3.07a0.44,0.44,0,0,0,.33.24l3.39,0.49a1,1,0,0,1,.56,1.71L45.24,8.47a0.44,0.44,0,0,0-.13.39l0.58,3.38a1,1,0,0,1-1.46,1.06l-3-1.59a0.44,0.44,0,0,0-.41,0l-3,1.59a1,1,0,0,1-1.46-1.06l0.58-3.38a0.44,0.44,0,0,0-.13-0.39ZM37.44,9l-0.58,3.38a0.44,0.44,0,0,0,.64.47l3-1.59a1,1,0,0,1,.93,0l3,1.59a0.44,0.44,0,0,0,.64-0.47L44.56,9a1,1,0,0,1,.29-0.89L47.3,5.68a0.44,0.44,0,0,0-.25-0.76l-3.39-.49a1,1,0,0,1-.76-0.55L41.4,0.81a0.44,0.44,0,0,0-.8,0L39.09,3.88a1,1,0,0,1-.76.55l-3.39.49a0.44,0.44,0,0,0-.25.76l2.45,2.39A1,1,0,0,1,37.44,9Z"/><path d="M17.3,6.08a1,1,0,0,1,.56-1.71l3.39-.49a0.44,0.44,0,0,0,.33-0.24L23.1,0.56a1,1,0,0,1,1.8,0l1.52,3.07a0.44,0.44,0,0,0,.33.24l3.39,0.49a1,1,0,0,1,.56,1.71L28.24,8.47a0.44,0.44,0,0,0-.13.39l0.58,3.38a1,1,0,0,1-1.46,1.06l-3-1.59a0.44,0.44,0,0,0-.41,0l-3,1.59a1,1,0,0,1-1.46-1.06l0.58-3.38a0.44,0.44,0,0,0-.13-0.39ZM20.44,9l-0.58,3.38a0.44,0.44,0,0,0,.64.47l3-1.59a1,1,0,0,1,.93,0l3,1.59a0.44,0.44,0,0,0,.64-0.47L27.56,9a1,1,0,0,1,.29-0.89L30.3,5.68a0.44,0.44,0,0,0-.25-0.76l-3.39-.49a1,1,0,0,1-.76-0.55L24.4,0.81a0.44,0.44,0,0,0-.8,0L22.09,3.88a1,1,0,0,1-.76.55l-3.39.49a0.44,0.44,0,0,0-.25.76l2.45,2.39A1,1,0,0,1,20.44,9Z"/></svg>