<svg xmlns="http://www.w3.org/2000/svg" viewBox="0 0 258.969 57.282">
  <defs>
    <style>
      .cls-1 {
        fill: #eb5f0a;
      }
    </style>
  </defs>
  <g id="g3790" transform="translate(-142.482 -106.544)">
    <path id="path3752" class="cls-1" d="M263.555,139.305h5.971V114.231H252.018v3.026c0,10.916-1.316,15.023-5.364,16.536v5.4c1.518-.216,10.828-1.837,10.929-18.049v-1.621h6.173v19.779Z" transform="translate(32.042 2.364)"/>
    <path id="polygon3754" class="cls-1" d="M234.039,139.305h5.971V119.743h10.828v-5.512h-16.8Z" transform="translate(28.162 2.364)"/>
    <path id="path3756" class="cls-1" d="M281.689,114.065h-5.87L266,139.356h6.274l1.822-4.647h9.209l1.822,4.647h6.376Zm-5.87,15.78,2.935-7.89,2.935,7.89Z" transform="translate(37.993 2.314)"/>
    <path id="polygon3758" class="cls-1" d="M310.671,114.231H304.7v25.075h5.667l10.424-14.591v14.591h5.87V114.231h-5.667l-10.322,14.915Z" transform="translate(49.896 2.364)"/>
    <path id="polygon3760" class="cls-1" d="M343.789,129.254V124.39H331.543v-4.215H344.9v-5.944H325.674v25.075H345.1v-5.4H331.543v-4.647Z" transform="translate(56.347 2.364)"/>
    <path id="path3762" class="cls-1" d="M230.586,113.909a12.322,12.322,0,0,0-10.12,5.512h0c-2.631,3.783-6.072,14.158-13.156,14.158a6.443,6.443,0,0,1-6.578-7.241c.3-3.783,3.34-6.593,6.78-6.269a6.071,6.071,0,0,1,4.655,2.81l3.542-5.188a11.58,11.58,0,0,0-7.691-3.783c-6.78-.54-12.549,4.864-13.055,12.1s4.554,13.4,11.334,13.942h1.417a13.977,13.977,0,0,0,8.2-3.026,20.462,20.462,0,0,0,3.846-4.107,12.393,12.393,0,0,0,11.031,7.133c6.78,0,12.245-5.836,12.245-13.078-.2-7.133-5.667-12.97-12.448-12.97m1.822,19.454a5.551,5.551,0,0,1-1.923.324,6.486,6.486,0,0,1-5.87-4.107,7.867,7.867,0,0,1-.506-2.594,6.911,6.911,0,0,1,.506-2.594,6.325,6.325,0,0,1,5.87-4.107,5.984,5.984,0,0,1,1.923.324,6.613,6.613,0,0,1,4.453,6.485,6.408,6.408,0,0,1-4.453,6.269" transform="translate(16.132 2.254)"/>
    <path id="path3764" class="cls-1" d="M302.865,131.6l-.506.54h0a6.061,6.061,0,0,1-4.352,1.729,7.04,7.04,0,0,1,0-14.05,6.3,6.3,0,0,1,4.858,2.378l.2-.216L306,117.657a11.439,11.439,0,0,0-8.3-3.675c-6.679,0-12.043,5.836-12.043,12.861,0,7.133,5.465,12.861,12.043,12.861a11.55,11.55,0,0,0,8.906-4.323Z" transform="translate(44.04 2.288)"/>
    <path id="path3766" class="cls-1" d="M263.645,149.359a3.6,3.6,0,0,1-.1-7.133,3.505,3.505,0,0,1,2.631,1.3l.81-.973a4.4,4.4,0,0,0-7.792,3.134,4.407,4.407,0,0,0,7.894,3.026l-.81-.865a3.405,3.405,0,0,1-2.631,1.513" transform="translate(35.898 10.576)"/>
    <path id="polygon3768" class="cls-1" d="M273.468,141.094h-7.388v1.3h3.036v7.89h1.316v-7.89h3.036Z" transform="translate(38.017 10.627)"/>
    <path id="path3770" class="cls-1" d="M277.755,141.011a3.634,3.634,0,0,0-3.238,2.054v-1.837H273.2v12h1.316v-4.539a4.033,4.033,0,0,0,3.238,1.945c2.024,0,4.048-1.729,4.048-4.756,0-3.134-2.024-4.864-4.048-4.864m-.3,8.214a3.6,3.6,0,0,1,0-7.133c1.619,0,3.036,1.405,3.036,3.567,0,2.27-1.316,3.567-3.036,3.567" transform="translate(40.207 10.602)"/>
    <path id="path3772" class="cls-1" d="M285.173,141.011a7.505,7.505,0,0,0-3.137.757l.4,1.081a5.313,5.313,0,0,1,2.631-.648,2.26,2.26,0,0,1,2.53,2.486v.324a9.028,9.028,0,0,0-2.631-.432c-2.125,0-3.643.973-3.643,3.026a2.978,2.978,0,0,0,3.238,2.918,3.563,3.563,0,0,0,3.036-1.513v1.405h1.214v-5.728a3.74,3.74,0,0,0-.911-2.7,3.569,3.569,0,0,0-2.732-.973m2.429,5.944a2.685,2.685,0,0,1-2.834,2.486,1.921,1.921,0,0,1-2.125-1.837c0-1.081.911-1.837,2.53-1.837a8.313,8.313,0,0,1,2.53.432v.757Z" transform="translate(42.707 10.602)"/>
    <path id="polygon3774" class="cls-1" d="M292.674,144.66l-2.53-3.567h-1.417l3.238,4.539-3.441,4.647h1.518l2.631-3.783,2.631,3.783h1.518l-3.441-4.647,3.238-4.539H295.2Z" transform="translate(44.92 10.627)"/>
    <path id="path3776" class="cls-1" d="M300.02,141.011a4.766,4.766,0,1,0,4.453,4.756,4.586,4.586,0,0,0-4.453-4.756m0,8.322a3.6,3.6,0,1,1,3.137-3.567,3.329,3.329,0,0,1-3.137,3.567" transform="translate(47.087 10.602)"/>
    <path id="path3778" class="cls-1" d="M309.647,145.5a2.12,2.12,0,0,0,1.417-2.054c0-1.405-1.113-2.27-2.834-2.27h-4.149v9.187h4.25c1.923,0,3.137-.973,3.137-2.486a2.316,2.316,0,0,0-1.822-2.378m-4.25-3.242h2.631c1.113,0,1.72.54,1.72,1.3a1.512,1.512,0,0,1-1.72,1.513H305.4Zm2.834,6.809H305.4v-2.918h2.732c1.417,0,2.125.54,2.125,1.405-.1.973-.81,1.513-2.024,1.513" transform="translate(49.705 10.653)"/>
    <path id="path3780" class="cls-1" d="M314.892,141.011a7.506,7.506,0,0,0-3.137.757l.4,1.081a5.313,5.313,0,0,1,2.631-.648,2.26,2.26,0,0,1,2.53,2.486v.324a9.028,9.028,0,0,0-2.631-.432c-2.125,0-3.643.973-3.643,3.026a2.978,2.978,0,0,0,3.238,2.918,3.563,3.563,0,0,0,3.036-1.513v1.405h1.214v-5.728a3.74,3.74,0,0,0-.911-2.7,3.569,3.569,0,0,0-2.732-.973m2.429,5.944a2.685,2.685,0,0,1-2.834,2.486,1.921,1.921,0,0,1-2.125-1.837c0-1.081.911-1.837,2.53-1.837a8.313,8.313,0,0,1,2.53.432v.757Z" transform="translate(51.848 10.602)"/>
    <path id="polygon3782" class="cls-1" d="M320.078,141.094h-1.214v9.187h1.214v-4h4.959v4h1.316v-9.187h-1.316v4h-4.959Z" transform="translate(54.252 10.627)"/>
    <path id="polygon3784" class="cls-1" d="M327.972,150.281l5.06-7.241v7.241h1.316v-9.187h-1.214l-5.161,7.241v-7.241h-1.214v9.187Z" transform="translate(56.68 10.627)"/>
    <path id="path3786" class="cls-1" d="M338.414,141.011c-2.328,0-4.149,2.162-4.149,4.756,0,2.81,1.923,4.756,4.25,4.756a4.276,4.276,0,0,0,3.542-1.729l-.81-.757a3.552,3.552,0,0,1-2.732,1.3,3.077,3.077,0,0,1-3.036-3.026h6.78v-.432c.2-2.7-1.316-4.864-3.846-4.864m-2.732,4.215c.2-1.729,1.316-3.026,2.732-3.026,1.72,0,2.631,1.405,2.732,3.026Z" transform="translate(58.989 10.602)"/>
    <path id="path3788" class="cls-1" d="M184.278,106.652a19.809,19.809,0,0,0-10.424,2.918,19.92,19.92,0,0,0-10.423-3.026c-11.537,0-20.948,10.051-20.948,22.372s9.412,22.373,20.948,22.373a19.92,19.92,0,0,0,10.423-3.026,19.809,19.809,0,0,0,10.424,2.918c11.537,0,20.948-10.051,20.948-22.372,0-12.213-9.412-22.156-20.948-22.156m-27.425,22.264h0a9.677,9.677,0,0,0-.4,2.918c0,5.3,4.048,9.619,9.007,9.619a8.955,8.955,0,0,0,7.792-4.756h0l.1-.108.3-.648,5.465-11.348.1-.216h0a3.392,3.392,0,0,1,3.036-1.945,3.489,3.489,0,0,1,3.34,3.567v.216h0c0,1.513-.708,4.756-5.262,9.619a35.173,35.173,0,0,1-11.132,8.322h0a13.635,13.635,0,0,1-5.87,1.189c-8.5,0-15.382-7.349-15.382-16.428s6.882-16.428,15.382-16.428a13.592,13.592,0,0,1,4.655.757c-5.768,4.972-9.513,10.268-11.132,15.672m33.9.108h0a9.913,9.913,0,0,0,.4-3.026c0-5.3-4.048-9.619-9.007-9.619a9.077,9.077,0,0,0-7.792,4.756h0l-.1.324a.842.842,0,0,0-.2.432l-5.667,11.781a3.253,3.253,0,0,1-2.935,1.837,3.489,3.489,0,0,1-3.34-3.567h0v-.108c0-1.513.81-4.756,5.262-9.727,5.768-6.269,11.031-8.106,11.132-8.106a14.182,14.182,0,0,1,5.971-1.3c8.5,0,15.382,7.349,15.382,16.428s-6.882,16.428-15.382,16.428a14.171,14.171,0,0,1-4.756-.757c5.768-5.08,9.513-10.268,11.031-15.78" transform="translate(0)"/>
  </g>
</svg>
