<svg id="Layer_1" data-name="Layer 1" xmlns="http://www.w3.org/2000/svg" viewBox="0 0 461.01 81.55">
  <defs>
    <style>
      .cls-1 {
        fill: #ffd939;
      }
    </style>
  </defs>
  <title>bg-title</title>
  <g>
    <path class="cls-1" d="M1684.32,1509.94c-0.2-.16-0.29.13,0,0h0Z" transform="translate(-1549.44 -1500.48)"/>
    <path class="cls-1" d="M1835.57,1503.71a0.5,0.5,0,0,0,.15,0c0.11-.85.21-1.59,0.3-2.14Z" transform="translate(-1549.44 -1500.48)"/>
    <path class="cls-1" d="M1859.89,1509l0.15,0.23C1860,1508.74,1860.06,1508.23,1859.89,1509Z" transform="translate(-1549.44 -1500.48)"/>
    <path class="cls-1" d="M1779.51,1511.65c-0.21,0-.33.14-0.41,0.41A1.05,1.05,0,0,1,1779.51,1511.65Z" transform="translate(-1549.44 -1500.48)"/>
    <path class="cls-1" d="M1639.73,1514.48l0.11-.07a5.32,5.32,0,0,1-.26-0.52Z" transform="translate(-1549.44 -1500.48)"/>
    <path class="cls-1" d="M1640.22,1513a1,1,0,0,1-.38,1.38c0.59,1.15,1.18,1.24,1.79.71C1641.62,1513.8,1640.49,1514,1640.22,1513Z" transform="translate(-1549.44 -1500.48)"/>
    <path class="cls-1" d="M1558.86,1518.12l0.24-.53A2.06,2.06,0,0,0,1558.86,1518.12Z" transform="translate(-1549.44 -1500.48)"/>
    <path class="cls-1" d="M1781.9,1576.1a4.39,4.39,0,0,0-.37.31A0.35,0.35,0,0,0,1781.9,1576.1Z" transform="translate(-1549.44 -1500.48)"/>
    <path class="cls-1" d="M1571.63,1519.42l0.14-2.08A12.56,12.56,0,0,0,1571.63,1519.42Z" transform="translate(-1549.44 -1500.48)"/>
    <path class="cls-1" d="M1836,1501.55l0.18-.81A7.25,7.25,0,0,0,1836,1501.55Z" transform="translate(-1549.44 -1500.48)"/>
    <path class="cls-1" d="M1882.37,1510.37a12.49,12.49,0,0,0,.12,1.58l0.06,0Z" transform="translate(-1549.44 -1500.48)"/>
    <path class="cls-1" d="M1995.68,1543.49c0-.26,0-0.53-0.06-0.81l-0.45,1.48A1.15,1.15,0,0,0,1995.68,1543.49Z" transform="translate(-1549.44 -1500.48)"/>
    <path class="cls-1" d="M1913.21,1519.39a7,7,0,0,0,.1-0.72c-0.53-.7-1.92-0.85-3.7-0.77l-0.11,2.56Z" transform="translate(-1549.44 -1500.48)"/>
    <path class="cls-1" d="M1946.93,1579l-3.29-5.14c10.55-2.36,15.47,2.79,24.5-1.36l-0.5,1.12c1.31,1.19,2.06-10.36,16.58,3.75v0.51c0.5-.09.5-1.12,1.51,0.25l-2.51-3.15c1.5-1.29,2.82-3.75,4.82-4.1a5,5,0,0,1,.61,2.45l4.92-.86,1.51,3.32c1.5-1.8.82-8.82,4.84-4.91-1.52-4.87,2-2.92,1.5-5.39,0.2,0.6.66,1.5,1,2.33,2.39-.56,6.89-1.93,8-4.43,0,0-9.36-10.25-11.87-15.45,3.37,1.32.89-.59,0.22-2.23l-0.22,1.21c-2-1.19-2-4.26-3-5.11,0,0.25,0,.55.06,0.85l0.13-.41a2.32,2.32,0,0,1-.07,1.22c0,0.66-.07,1.17-0.62,1l0.1-.32c-0.84.45-2.3,0-2.93-.25v-2.57c-1.5,4.89-10-7.45-12.06-7.62-2-3.24-4.52.8-7-.82-4-.83-2-3.74-4-6-2.52-1.61.51,3-.5,3.16l-3-3.57c1.75-.31.8-1.85,0.48-2.84-2.61-.44-6.71-5.14-7.52,0-3.51-2.45-3.52-4.5-5-4.75,0.5,0.93,1.51,1.78,1.52,2.82-1.41-2.26-.67.56-0.1,1.06-2.15,2.22-11.15-9.33-11.6-3.71v-1c-0.5,4.18.3,8.25-1.2,10.56l-1-1.87-1.51,1.8a3.55,3.55,0,0,1-.51-3c-2.46,1.93-5.88-.37-8.85-0.93l3.15,11.41c-2.51-2.63-7-8-7.54-4.31l-1.51-3.84c-5-7.32-3.51,3.18-5.52,1l-2.53-4.18,2.51,0.07a29.6,29.6,0,0,1-5.52-6.2s0,0.07,0,.11a1.08,1.08,0,0,1,.25.62l-0.35.1c-0.3,2.09-1.62,3.51-3.39,3.38-2.52-.59-4.48,2.49-8.5-1.93l-1,4.27-3-2.54v-3.4c3,0.2,8.51-1.09,12.31-1.27l0.07-1.55c-2.25,0-4.81,1.51-6.3,1.17-0.72-.68-2.58-4.22-1.23-6.51l-1.39,3.33c-7.52.38-7.56,0.54-15.41-3.31l0.68,1.71c-1.56,1-3.11,2-3.54-.78a17.84,17.84,0,0,1-12.65-7l-0.67,4c-1-.22-2.49-6.28-3-0.67l-2.12,1.77c-1.36-.31-2.19,2-3.74-0.32h0c-0.09-.14-0.2-0.29-0.29-0.47,0,0.12,0,.23,0,0.33-3.08-1.77,0,3.59-3.49,1.29-1.13-2.85-1.25,5.09-3,4.17l-1.72-5.75c-3.11-3.3-3.64,2.47-8.15,2.48-2.16-2-3.21-7-1.78-11.3-2,5.27-.9,3.43-3.51,6-0.4-2.17-.12-2.62.45-4.57-2.32-2.54-1.43,2-3.18,1.83-0.51,4.08-1.09,10.58-1.66,10.84l0.68,1.27c-1.85,2.18-3.88,3.2-6,1.15l0.08-2.05-2.29,1-0.14-2.62-3.27.81,0.45,0.71c-0.77.35-3.29,1.25-4.74-.12l0.05-1.46c-4.07-4.55-7.43,1.41-12.2,1.89l0.63-3c-1.62-3-.45,4.58-2.38,3.1l-0.1-3.66c-1.71,4.81-2.2-1-3.38-2.84l0.55,4.79-2.21-1c-2.44-1.59-1.5-6-1.14-8.56l-1.66,3.78-0.32-4.23c-1.21,4.92-1.21-.79-3.34,1.85-0.17-1.6.36-2.52-.36-3.2l-3.5,6,2.11-2.64-0.26,6.18c-2.2,4.69-3-.67-4.55,1.05l1.08-1.84c-2.57,1.5-2.7-1.13-4.15-2.5,0.45,1.15,1.14,2.85.1,3.66-0.76.34-.41-2.17-1.13-2.86-0.17,4.12-2,6.3-3.68,4.36a7.13,7.13,0,0,1,.17-1.53c-0.43.67-.65,1.73-1.39,0.74l0.44-4.58-1.43,4.36c-1-1.25-2.34,2.07-2.21-1l0.54-.92-7.2-1.1-0.1-3.66c-0.71,5-3.92-1.92-3.69,4.37-1.36-3.43-5.35,2.42-4.55-4.67-4.73-.55-7.29,6.27-13,2.82-2-6-7.66-4.07-11.36-4.71-7.22,2.52-11.88,4.78-19.26,6.71-4.44-8.4-11.07,2.89-15.84-1.86l-1.31,3.34c-3.17-5.31-8,1.19-12.47-4a7.13,7.13,0,0,1-1.92,2c0.2,0.16.51,0.79,0.61,2.91-1.27-1.49-3.84.37-3.66-3.86l0.32-.44c0.19-4.23-3.86,2-5.28-1.69l0.78,4.53-2.41-.77,0.64-.87c-10.46,10.07-15.19-4.32-25,4.87,1.3-4.95-1.94,2.6-2.06-2.81-2.48-6.8-4.59,1.47-6.62,3.28a3.52,3.52,0,0,1-.14,1l-3.55-.65c2.12-6.84-2.56,5.67-.61-0.15-9.26-5.11-21.34.1-32.06-2.26l0.47,1.76c-2.72-.34-6.1,1.8-8.16-1s-4.51,4.46-5.31,4.74c-2.26,3-4.32-3-3.35-2.68-2.42.84-4.69,7.08-8,4.4-1.15-5.8-9.15,5.69-9.25-.84l0,0.55c-4.3-4.6-8.35,3.22-13-.94a6.73,6.73,0,0,1,.25-0.92l-9.41,19.81,2.68,21.81,8.16,17.71,22.12-3.84,17.65,6.92,43-2.34,3.07-4.92c8.44,8.6,19.27-1.29,28.36,4.85l0.19-4.24c2.56-.25,2.39,2.38,3,3.11,23.85-.94,48.4-6.58,69.86-1.24,2.07,2.8,8.36,1.15,10,4.11,7-5.18,14.35-5.13,21.33-4.59l-0.26.47,3.29-.82a2,2,0,0,1,.05,1.18c3.71-3.75,9.55,0,14.09,1.48l-0.27.47c26.49,0.77,51.08-7.14,77.34-1.23,12.21,6.91,26.42-2.63,40.43,3.13C1916.07,1584.16,1944.42,1581,1946.93,1579Z" transform="translate(-1549.44 -1500.48)"/>
    <path class="cls-1" d="M1988.65,1573.34l-0.11,0C1988.55,1575.14,1988.71,1574.47,1988.65,1573.34Z" transform="translate(-1549.44 -1500.48)"/>
    <polygon class="cls-1" points="380.65 24.11 380.84 24.15 380.14 21.64 380.65 24.11"/>
    <path class="cls-1" d="M1967.6,1523.11c-1.69-.56-1.76-0.13-1.53.59A1.4,1.4,0,0,0,1967.6,1523.11Z" transform="translate(-1549.44 -1500.48)"/>
    <path class="cls-1" d="M2002.42,1569.94c0.89,0.14.55-.92,0-2.11-0.9.22-1.53,0.32-1.53,0.32C2001.41,1568.58,2001.91,1569.52,2002.42,1569.94Z" transform="translate(-1549.44 -1500.48)"/>
    <path class="cls-1" d="M1998.81,1545.73l0.28-1.45A1.08,1.08,0,0,0,1998.81,1545.73Z" transform="translate(-1549.44 -1500.48)"/>
  </g>
</svg>
