<svg id="Layer_1" data-name="Layer 1" xmlns="http://www.w3.org/2000/svg" viewBox="0 0 183.45 23.2"><defs><style>.cls-1{fill:#f3d239;}</style></defs><title>decor-small</title><path class="cls-1" d="M26.5,5.15L27,5.65A0.5,0.5,0,0,0,26.5,5.15Z"/><path class="cls-1" d="M145.44,5a1,1,0,0,0,.11-0.11A0.17,0.17,0,0,0,145.44,5Z"/><path class="cls-1" d="M44.76,21.82h0c0,0.05-.09.07-0.12,0.13Z"/><path class="cls-1" d="M20.79,20.47c6.29,0.6,8,2.91,14.48,2a64.09,64.09,0,0,0,9.47-.62c1.44-1.8,4,0,5.7-1.53l0.66,1c0.59-.51,1.28-0.86,1.87-0.31l0,0.3c0.88-.77,1.87-0.31,2.31-0.7l0,0.3,1.07-.13-0.18.42a6.06,6.06,0,0,1,4.5-.5l-0.12-1.23c3,1.38,4.06-1.18,6.75.46l0,0.3c3.39-3.26,5.37,2.22,8.87-.87-0.44.39,0.19,0.64,0.15,0.93,1.61-.35,3.33-0.54,3.36-3,1.17,0,1,.76,1.11,1.69,0-1.06,1-1.5,1.93-1.57l-0.42.41,2.63-.36-0.52-2c1.39,0.58.35,2.45,1.69,2l0-1.66c1.93,0.33,3.06,2.84,4.92,4.07,7.75,0.71,16.08-3.53,23.3-.6l0.32,1.25c0.14,1.82,2-2.7,2.27-1l0.84-.83c0.24,0.33.73,0.68,0.32,1.08,0.78,0.07.79-.23,1.35-0.78l0.83,1.13c3.06,0.88,5.66-1.31,8.89-.86,3.87,2.31,11.15.19,15.35-1,5.9-2.72,12.76,4.53,18.8,1.42,0.2,0.26.71-.32,0.7-0.53l5.53,0.26s26.8,0.7,6.44-14.41l0.14-.4c-3-1-4.93-1.18-7,.82-0.33-2.45-2.49-.25-3.19-1l0.07-.2C164,6,162,2.52,160.23,4.21a1,1,0,0,1,.52-0.91c-1.3.31-3.07,0.85-3.17-.57-3.1.37-7.42-.29-9.4,2l0.14-.4c-1.13,1.54-1.46.23-2.73,1A1.27,1.27,0,0,1,145.44,5c-1.23,1.52-3.59.24-4.59,0.88l-0.06-.95-2.45.22,0.92,0.2c-0.32,2.6-1.85-1.63-3.63.05-1.66-.33-3.38,5.41-5.1,4.14-0.82,1.22.73-2-.51-1,0-1.36.58-.85,0.26-1.93-1.21.64-2-1.39-3.48-.47L126.73,5c-1.95,1.93-3.67-1.39-5,.45-2,.87-1.35-3.14-3.44-1.07L117.51,3c-0.89-.23-0.64,1.75-1.63,1.06,0.06-.9-1.25-0.72-0.67-1.57-2.24-1.41-4.56,2-7.51-.38-0.64,1.75-2.13.71-2.61,2-0.08-.76-3-0.12-1.31-1.78a0.22,0.22,0,0,1,.38.19l0.2-1c-1.69-2-3.06,1.08-4.73.78,0.49,0.34,1.15.25,0.71,1l-1.55-.14L99.1,2.2,96.8,1.69l0.32,1.08C96,2.21,95.59.37,94.31,1.91c-0.58.86,1.07,1.46-.12,1.8a23.21,23.21,0,0,0-5.7-2.18c0.18,1.22-.34,1.17-0.87,1.42L87.55,1.9c-2,1.47-.75-2.33-2.78-1.16L84.95,0,84.41,2.21c-1.83,2.1-1-2.2-3,.67,0.81-.18.38,2.33-0.61,1.87l0.25-1c-0.55.22-.73,0.64-1.1,0.43,0.33-.55.17-1.49-0.63-1.31l0.54-1.28L78.31,3.45c-1.18-1.1-3,.28-3.53-1.16,0,0-2.53-.71-3.11.87,0.51-1-.89-1.35-0.49-2.5-0.66,1.11-2.59,2-3.37.84L68,1.36c-2.87-1.21-4.91,1.65-7.48.19,0.12,1.23-1.24.56-.91,2.13C56.91,5.23,54.72.49,53.76,5.34,52.55,5.6,52.33,4.2,51.7,4L52,3.7A15.22,15.22,0,0,1,47.37,4c-0.84.47-1,2.73-2.48,2.18,0.49-.9-0.13-0.73-0.69-0.73,0.36-.14.47-0.47-0.27-1.07a1.5,1.5,0,0,1-.42.59,0.7,0.7,0,0,1,0-.22c-0.94.32-.78,0.6-0.34,0.72a0.91,0.91,0,0,0,.15.56c-1-1.16-2.72.08-2.84-1.46-2.83.36-4.85,1.95-7.21,2.54a1.51,1.51,0,0,1,1-1.8l-1.67.29c0-1.14,1-.66,1.47-0.88-2-1.84-4.1,1.84-6.44.15l-0.48.9L27,5.65a1.76,1.76,0,0,1-.86,1.28c-0.33-1,0-2.29-1.13-2.23-0.91-1-2.6.48-3.79,1,0.64,0.17.44,0.72,0.16,1.07-0.58,0-.91-1-1.36-0.53L19.93,4.91c0.23,1.26-1.51,1.36-1.72,1.91-0.33-1,.9-0.85,1-1.6l-3.47.19c-1.24,1,.22,1.27-0.37,2.44C14.31,8.11,13.25,9,12,8.23l0.4,1.19c-2,.92-3.28.79-4.66-0.42C-7.54,18.69,4.52,22.23,4.52,22.23,10.53,24.86,13.63,21.4,20.79,20.47Z"/></svg>