<svg id="Layer_1" data-name="Layer 1" xmlns="http://www.w3.org/2000/svg" viewBox="0 0 250.39 217.48"><defs><style>.cls-1{fill:#ffd939;}</style></defs><title>decor-stat</title><path class="cls-1" d="M73.25,25.25c-0.11-.42-0.16.34,0,0h0Z"/><path class="cls-1" d="M155.4,8.63s0,0,.08,0c0.06-2.27.11-4.23,0.17-5.71Z"/><path class="cls-1" d="M168.62,22.79c0,0.24.05,0.38,0.08,0.61C168.69,22,168.71,20.67,168.62,22.79Z"/><path class="cls-1" d="M125,29.79c-0.11-.13-0.18.38-0.22,1.11A5,5,0,0,1,125,29.79Z"/><path class="cls-1" d="M49,37.34l0.06-.2c0-.45-0.09-0.79-0.14-1.37Z"/><path class="cls-1" d="M49.31,33.46a8.88,8.88,0,0,1-.21,3.68c0.32,3.08.64,3.31,1,1.9C50.07,35.53,49.45,36.06,49.31,33.46Z"/><path class="cls-1" d="M5.11,47l0.13-1.42C5.19,46,5.15,46.51,5.11,47Z"/><path class="cls-1" d="M126.25,201.66c-0.07.31-.14,0.48-0.2,0.83C126.16,202.58,126.21,202.19,126.25,201.66Z"/><path class="cls-1" d="M12,50.52L12.12,45C12.06,47.28,12,49,12,50.52Z"/><path class="cls-1" d="M155.65,2.87l0.1-2.17C155.71,1.2,155.68,2,155.65,2.87Z"/><path class="cls-1" d="M180.83,26.39c0,1.69,0,3.06.06,4.22a0.06,0.06,0,0,1,0,0Z"/><path class="cls-1" d="M242.36,114.71c0-.69,0-1.41,0-2.17l-0.25,3.95A7.33,7.33,0,0,0,242.36,114.71Z"/><path class="cls-1" d="M197.57,50.45c0-.64.05-1.23,0.06-1.93-0.29-1.86-1-2.27-2-2.06l-0.06,6.82Z"/><path class="cls-1" d="M215.89,209.44l-1.79-13.72c5.73-6.31,8.4,7.44,13.31-3.63l-0.27,3c0.71,3.17,1.12-27.63,9,10v1.37c0.27-.23.27-3,0.82,0.68l-1.36-8.4c0.82-3.45,1.53-10,2.62-10.93a58.57,58.57,0,0,1,.33,6.53l2.67-2.29,0.82,8.86c0.82-4.81.44-23.51,2.63-13.09-0.82-13,1.08-7.78.81-14.38,0.11,1.61.36,4,.56,6.22,1.3-1.51,3.74-5.15,4.35-11.81,0,0-5.08-27.32-6.45-41.2,1.83,3.53.48-1.58,0.12-5.95l-0.12,3.23c-1.1-3.17-1.1-11.36-1.64-13.63,0,0.66,0,1.46,0,2.27l0.07-1.1a29.64,29.64,0,0,1,0,3.26c0,1.75,0,3.13-.34,2.65l0.06-.86c-0.46,1.19-1.25-.09-1.59-0.68V109c-0.81,13-5.46-19.88-6.55-20.31-1.09-8.63-2.45,2.13-3.82-2.19-2.18-2.2-1.09-10-2.18-15.88-1.37-4.3.28,8-.27,8.44L226,69.51c1-.81.44-4.94,0.26-7.58-1.42-1.16-3.65-13.71-4.08-.07-1.91-6.53-1.91-12-2.73-12.68a64,64,0,0,1,.82,7.51c-0.76-6-.37,1.48-0.05,2.83-1.17,5.93-6.05-24.89-6.3-9.89V46.89c-0.27,11.16.16,22-.65,28.16l-0.54-5-0.82,4.8a43.14,43.14,0,0,1-.28-8c-1.33,5.16-3.19-1-4.81-2.49l1.71,30.43c-1.36-7-3.82-21.3-4.09-11.5l-0.82-10.23c-2.73-19.52-1.91,8.48-3,2.6l-1.37-11.14,1.37,0.19a168.11,168.11,0,0,1-3-16.54c0,0.11,0,.19,0,0.3a11.25,11.25,0,0,1,.13,1.66l-0.19.27c-0.17,5.56-.88,9.37-1.84,9-1.37-1.57-2.43,6.64-4.62-5.15l-0.54,11.39-1.64-6.79V49.84c1.6,0.54,4.62-2.91,6.69-3.38l0-4.14c-1.22,0-2.61,4-3.42,3.12a75.54,75.54,0,0,1-.67-17.36L190.81,37c-4.08,1-4.11,1.45-8.37-8.81l0.37,4.55c-0.84,2.67-1.69,5.29-1.92-2.09-2.56-1.5-5.21-7.21-6.87-18.7L173.66,22.6c-0.54-.59-1.35-16.74-1.61-1.78l-1.15,4.72c-0.74-.82-1.19,5.29-2-0.85h0a0,0,0,0,0,0,0c-0.05-.38-0.11-0.78-0.16-1.26,0,0.32,0,.6,0,0.89-1.67-4.72,0,9.58-1.9,3.43-0.61-7.6-.68,13.56-1.61,11.13l-0.94-15.32c-1.69-8.79-2,6.58-4.43,6.63-1.18-5.46-1.74-18.54-1-30.15-1.07,14.05-.49,9.16-1.91,15.9a91.1,91.1,0,0,1,.25-12.19c-1.26-6.78-.78,5.22-1.73,4.87-0.28,10.89-.59,28.21-0.9,28.91l0.37,3.4c-1,5.81-2.11,8.53-3.28,3.07l0-5.48-1.25,2.77-0.08-7-1.78,2.17,0.24,1.88c-0.42.93-1.79,3.33-2.57-.32l0-3.89c-2.21-12.13-4,3.76-6.63,5L140,31.21c-0.88-7.9-.24,12.21-1.29,8.27l-0.05-9.76c-0.93,12.82-1.2-2.72-1.83-7.56l0.3,12.77-1.2-2.7c-1.32-4.23-.81-16.13-0.62-22.83l-0.9,10.07L134.25,8.2c-0.66,13.12-.66-2.1-1.81,4.93-0.09-4.26.2-6.71-.2-8.53l-1.9,15.91,1.15-7-0.14,16.48c-1.2,12.51-1.62-1.79-2.47,2.8l0.59-4.89c-1.39,4-1.47-3-2.25-6.65,0.24,3.06.62,7.61,0.05,9.77-0.41.91-.22-5.8-0.62-7.61-0.09,11-1.09,16.79-2,11.62,0-1.57,0-3.07.09-4.06-0.23,1.78-.35,4.6-0.75,2l0.24-12.2-0.77,11.62c-0.52-3.34-1.27,5.52-1.2-2.72l0.29-2.45-3.91-2.95-0.05-9.75c-0.39,13.43-2.13-5.11-2,11.66-0.74-9.14-2.91,6.47-2.47-12.45-2.57-1.46-4,16.73-7.08,7.53C105.9,5.09,102.85,10.3,100.84,8.6c-3.92,6.71-6.45,12.75-10.46,17.9-2.41-22.41-6,7.71-8.6-4.95l-0.71,8.9c-1.72-14.17-4.36,3.17-6.77-10.65a34.91,34.91,0,0,1-1,5.45c0.11,0.42.28,2.11,0.33,7.76-0.69-4-2.09,1-2-10.29l0.18-1.16c0.1-11.28-2.1,5.28-2.87-4.5l0.42,12.09-1.31-2,0.35-2.32c-5.68,26.84-8.25-11.52-13.58,13,0.71-13.19-1.05,6.93-1.12-7.49-1.35-18.14-2.49,3.91-3.6,8.75,0,0.71,0,1.54-.08,2.65L48.06,40c1.15-18.23-1.39,15.11-.33-0.39-5-13.63-11.59.26-17.41-6l0.26,4.69c-1.48-.9-3.31,4.8-4.43-2.7s-2.45,11.91-2.88,12.65c-1.23,8.08-2.34-8-1.82-7.15-1.31,2.23-2.55,18.89-4.37,11.74-0.62-15.46-5,15.17-5-2.25L12,52c-2.33-12.26-4.53,8.6-7-2.5,0,0,0-1.28.13-2.45L0,99.88,1.46,158l4.43,47.23L17.9,195l9.59,18.46,23.33-6.24,1.67-13.13C57.07,217,63,190.67,67.89,207L68,195.75c1.39-.66,1.3,6.33,1.64,8.31,13-2.5,26.29-17.55,37.94-3.31,1.12,7.46,4.54,3.07,5.42,11,3.79-13.81,7.8-13.68,11.59-12.25l-0.14,1.25,1.79-2.18a24.93,24.93,0,0,1,0,3.14c2-10,5.19-.11,7.65,4l-0.14,1.24c14.39,2,27.74-19,42-3.27,6.63,18.43,14.35-7,22,8.34C199.13,223.16,214.53,214.72,215.89,209.44Z"/><path class="cls-1" d="M238.55,194.31l-0.06.06C238.49,199.11,238.58,197.32,238.55,194.31Z"/><path class="cls-1" d="M206.75,64.29l0.1,0.12-0.38-6.71Z"/><path class="cls-1" d="M227.12,60.36c-0.92-1.49-1-.34-0.83,1.57C226.62,62.21,226.91,61.85,227.12,60.36Z"/><path class="cls-1" d="M246,185.25c0.48,0.38.3-2.46,0-5.62a7.29,7.29,0,0,1-.83.85C245.48,181.61,245.75,184.11,246,185.25Z"/><path class="cls-1" d="M244.07,120.67l0.15-3.86A11.62,11.62,0,0,0,244.07,120.67Z"/></svg>