<svg id="400cce01-6497-4384-aa45-a30c49830055" data-name="СтройМонтаж" xmlns="http://www.w3.org/2000/svg" viewBox="0 0 265.82 28.02">
  <title>logo</title>
  <g>
    <path d="M0,16.63C0,9.84,5.15,5.25,11.92,5.25a10.16,10.16,0,0,1,9.6,5.91l-4.88,2.31a5.29,5.29,0,0,0-4.72-3.2,6.08,6.08,0,0,0-6.14,6.37A6.08,6.08,0,0,0,11.92,23a5.29,5.29,0,0,0,4.72-3.2l4.88,2.31A10.23,10.23,0,0,1,11.92,28C5.15,28,0,23.4,0,16.63Z" fill="#008ee8"/>
    <path d="M28.88,27.63V10.56H22.7v-5h18v5H34.55V27.63H28.88Z" fill="#008ee8"/>
    <path d="M43.39,27.63v-22h11c5,0,7.66,3.33,7.66,7.33s-2.71,7.29-7.66,7.29H49.07v7.39H43.39ZM56.3,12.94a2.36,2.36,0,0,0-2.64-2.38H49.07v4.72h4.59A2.36,2.36,0,0,0,56.3,12.94Z" fill="#008ee8"/>
    <path d="M63.49,16.63c0-6.7,5-11.39,11.78-11.39S87,9.93,87,16.63,82,28,75.27,28,63.49,23.33,63.49,16.63Zm17.76,0c0-3.6-2.34-6.37-6-6.37s-6,2.77-6,6.37,2.34,6.37,6,6.37S81.25,20.2,81.25,16.63Z" fill="#008ee8"/>
    <path d="M89.89,27.63v-22h5.68v13l8.91-13h5.88v22h-5.71V14l-9.27,13.6H89.89ZM100.12,4.69a7.28,7.28,0,0,1-5.81-2.9L96.49,0a4.42,4.42,0,0,0,3.63,1.91A4.21,4.21,0,0,0,103.72,0l2.18,1.78A7.13,7.13,0,0,1,100.12,4.69Z" fill="#008ee8"/>
    <path d="M133.62,27.63V13.3L128,27.63h-2.51L120,13.3V27.63h-5.68v-22h7.89l4.59,11.95,4.62-11.95h7.89v22h-5.68Z"/>
    <path d="M142.13,16.63c0-6.7,5-11.39,11.78-11.39s11.75,4.69,11.75,11.39S160.65,28,153.91,28,142.13,23.33,142.13,16.63Zm17.76,0c0-3.6-2.34-6.37-6-6.37s-6,2.77-6,6.37,2.34,6.37,6,6.37S159.89,20.2,159.89,16.63Z"/>
    <path d="M183.35,27.63V18.78h-9.14v8.85h-5.68v-22h5.68v8.22h9.14V5.61H189v22h-5.68Z"/>
    <path d="M197.9,27.63V10.56h-6.17v-5h18v5h-6.14V27.63H197.9Z"/>
    <path d="M227.37,27.63l-1.09-3.17H217.6l-1.09,3.17h-6.44l8.28-22h7.13l8.32,22h-6.44Zm-5.45-16.4-2.81,8.28h5.61Z"/>
    <path d="M233.14,27.63l9-11.72L233.6,5.61h7l6.07,8.12V5.61h5.68V13.7l6-8.09h7l-8.52,10.3,9,11.72h-7L253,19.34l-0.73.92v7.36h-5.68V20.33l-0.76-1-5.81,8.28h-6.93Z"/>
  </g>
</svg>
