<svg id="Слой_1" data-name="Слой 1" xmlns="http://www.w3.org/2000/svg" xmlns:xlink="http://www.w3.org/1999/xlink" viewBox="0 0 1178.1 544.99">
  <defs>
    <style>
      .cls-1 {
        fill: #fff;
      }

      .cls-2 {
        fill: #003ca6;
      }

      .cls-3 {
        mask: url(#mask);
      }

      .cls-4 {
        fill: none;
      }

      .cls-5 {
        fill: #244a80;
      }

      .cls-6 {
        fill: #301866;
      }

      .cls-7 {
        fill: #6a51ad;
      }

      .cls-8 {
        fill: #2b5797;
      }

      .cls-9 {
        mask: url(#mask-2-2);
      }

      .cls-10 {
        mask: url(#mask-3);
      }

      .cls-11 {
        mask: url(#mask-4-2);
      }

      .cls-12 {
        mask: url(#mask-8-2);
      }

      .cls-13 {
        mask: url(#mask-9);
      }

      .cls-14 {
        mask: url(#mask-10-2);
      }

      .cls-15 {
        fill: #19b1aa;
      }

      .cls-16 {
        fill: #12726b;
      }

      .cls-17 {
        fill: #c9c9c9;
      }

      .cls-18 {
        fill: #ffc6ca;
      }

      .cls-19 {
        fill: #7ab0f6;
      }

      .cls-20 {
        fill: #003ba4;
      }

      .cls-21 {
        fill: #c1eaff;
      }

      .cls-22 {
        fill: #0f3872;
      }
    </style>
    <mask id="mask" x="1039.54" y="372.08" width="11.17" height="8.82" maskUnits="userSpaceOnUse">
      <g id="mask-2">
        <path id="path-1" class="cls-1" d="M1041.2,372.09c-3.44.21-.46,7.84-0.46,7.84,12.38,2.89,10.54-1.44,8.48-2.48s3.21-6-1.83-3.92c-3,1.23-3.41.41-4-.41a2,2,0,0,0-2-1h-0.27"/>
      </g>
    </mask>
    <mask id="mask-2-2" x="1060.73" y="54.25" width="117.37" height="229.86" maskUnits="userSpaceOnUse">
      <g id="mask-4">
        <polygon id="path-3" class="cls-1" points="1060.73 54.25 1178.1 54.25 1178.1 284.12 1060.73 284.12 1060.73 54.25"/>
      </g>
    </mask>
    <mask id="mask-3" x="579.31" y="67.16" width="120.27" height="222.39" maskUnits="userSpaceOnUse">
      <g id="mask-6">
        <path id="path-5" class="cls-1" d="M581.95,191.7a376.41,376.41,0,0,0-2.52,51.61l1.31,46.24a376.5,376.5,0,0,1,2.52-51.61c9.85-89,37.7-127.65,71.45-124.34,28.49,2.8,43.47,30.32,44.88,80.46l-1.31-46.24c-1.42-50.14-16.4-77.67-44.88-80.46q-2-.2-4-0.2c-32,0-58,39.08-67.5,124.54"/>
      </g>
    </mask>
    <mask id="mask-4-2" x="579.31" y="67.16" width="120.27" height="222.39" maskUnits="userSpaceOnUse">
      <g id="mask-8">
        <path id="path-7" class="cls-1" d="M581.95,191.7a376.41,376.41,0,0,0-2.52,51.61l1.31,46.24a376.5,376.5,0,0,1,2.52-51.61c9.85-89,37.7-127.65,71.45-124.34,28.49,2.8,43.47,30.32,44.88,80.46l-1.31-46.24c-1.42-50.14-16.4-77.67-44.88-80.46q-2-.2-4-0.2c-32,0-58,39.08-67.5,124.54"/>
      </g>
    </mask>
    <mask id="mask-8-2" x="579.31" y="67.16" width="120.27" height="222.39" maskUnits="userSpaceOnUse">
      <g id="mask-16">
        <path id="path-15" class="cls-1" d="M581.95,191.7a376.41,376.41,0,0,0-2.52,51.61l1.31,46.24a376.5,376.5,0,0,1,2.52-51.61c9.85-89,37.7-127.65,71.45-124.34,28.49,2.8,43.47,30.32,44.88,80.46l-1.31-46.24c-1.42-50.14-16.4-77.67-44.88-80.46q-2-.2-4-0.2c-32,0-58,39.08-67.5,124.54"/>
      </g>
    </mask>
    <mask id="mask-9" x="487.42" y="0" width="304" height="394.21" maskUnits="userSpaceOnUse">
      <g id="mask-18">
        <polygon id="path-17" class="cls-1" points="487.42 0 791.42 0 791.42 394.21 487.42 394.21 487.42 0"/>
      </g>
    </mask>
    <mask id="mask-10-2" x="487.55" y="162.45" width="305.18" height="277.93" maskUnits="userSpaceOnUse">
      <g id="mask-20">
        <path id="path-19" class="cls-1" d="M789.21,210C776.27,326.92,717.66,403.28,616.6,393.35c-87.83-8.63-126.6-77.42-129.06-164.29l1.3,46.17c2.45,86.87,41.23,155.66,129.06,164.29C719,449.45,777.58,373.09,790.52,256.2a345,345,0,0,0,2.09-47.58l-1.31-46.18A345,345,0,0,1,789.21,210"/>
      </g>
    </mask>
  </defs>
  <title>404</title>
  <g id="assets">
    <g id="_404" data-name="404">
      <g>
        <g id="Group-11">
          <path id="Fill-1" class="cls-2" d="M1011.86,423.13s8.64-5.36,9.29,0-9.29,0-9.29,0"/>
          <path id="Fill-3" class="cls-2" d="M1010.35,423.77s-14-3.22-9.07-7.29,9.07,7.29,9.07,7.29"/>
          <path id="Fill-5" class="cls-2" d="M1030.22,393.11s7.13-3.64,6.7.43-6.7-.43-6.7-0.43"/>
          <path id="Fill-7" class="cls-2" d="M1027.42,392.9s0-9-4.54-6.86,4.54,6.86,4.54,6.86"/>
          <path id="Fill-9" class="cls-2" d="M1011.46,429.5l-1.3-.11c0-.35,3.3-35.22,38.13-52.3l0.58,1.16c-34.15,16.75-37.38,50.9-37.41,51.24"/>
        </g>
        <g id="Group-14">
          <g class="cls-3">
            <path id="Fill-12" class="cls-4" d="M1041.2,372.09c-3.44.21-.46,7.84-0.46,7.84,12.38,2.89,10.54-1.44,8.48-2.48s3.21-6-1.83-3.92c-3,1.23-3.41.41-4-.41a2,2,0,0,0-2-1h-0.27"/>
          </g>
        </g>
        <g id="Group-54">
          <polygon id="Fill-15" class="cls-5" points="432.41 306.15 367.52 328.74 325.35 334.66 390.25 312.07 432.41 306.15"/>
          <polygon id="Fill-17" class="cls-5" points="272.46 94.3 207.57 116.89 205.94 117.12 270.83 94.53 272.46 94.3"/>
          <path id="Fill-19" class="cls-6" d="M283.41,167.57c-4.23-23.52-7.48-47.8-10.95-73.27l-64.89,22.59c3.47,25.47,6.72,49.75,10.95,73.27L234.13,277,299,254.39Z"/>
          <polygon id="Fill-21" class="cls-6" points="328.19 416.57 263.3 439.16 246.5 345.73 311.39 323.13 328.19 416.57"/>
          <polygon id="Fill-23" class="cls-6" points="407.05 405.5 342.16 428.1 263.3 439.16 328.19 416.57 407.05 405.5"/>
          <polygon id="Fill-25" class="cls-6" points="142.91 285.57 78.01 308.16 169.24 50.56 234.14 27.97 142.91 285.57"/>
          <polygon id="Fill-27" class="cls-6" points="153.64 345.27 88.75 367.87 78.01 308.16 142.91 285.57 153.64 345.27"/>
          <polygon id="Fill-29" class="cls-6" points="311.39 323.13 246.5 345.73 88.75 367.86 153.64 345.27 311.39 323.13"/>
          <path id="Fill-31" class="cls-7" d="M283.41,167.57c-4.23-23.52-7.48-47.8-10.95-73.27l-1.63.23c-6.94,26.93-12.69,51.24-20.28,77.65l-31.71,92.24-0.33,1.27L299,254.39Zm94.47,75.75L420,237.4l12.37,68.75-42.16,5.92,16.81,93.44-78.86,11.07-16.81-93.44L153.64,345.27l-10.74-59.71L234.14,28,336.56,13.59Z"/>
          <polygon id="Fill-33" class="cls-8" points="905.33 239.74 973.48 237 972.67 238.03 904.52 240.78 905.33 239.74"/>
          <polygon id="Fill-35" class="cls-6" points="904.52 240.78 972.67 238.03 1051.6 259.94 983.44 262.68 904.52 240.78"/>
          <path id="Fill-37" class="cls-6" d="M1018.19,104.86c-16.69,21.91-31.27,41.87-48.36,63.05l-64.51,71.83L973.48,237,1038,165.17c17.09-21.19,31.67-41.14,48.36-63.05Z"/>
          <polygon id="Fill-39" class="cls-6" points="1046.03 352.07 1114.18 349.32 1094.16 441.71 1026.01 444.45 1046.03 352.07"/>
          <polygon id="Fill-41" class="cls-6" points="1060.73 284.12 1128.88 281.37 1170.22 292.82 1102.07 295.57 1060.73 284.12"/>
          <polygon id="Fill-43" class="cls-6" points="1102.07 295.57 1170.22 292.82 1155.51 360.77 1087.36 363.52 1102.07 295.57"/>
          <g id="Group-47">
            <g class="cls-9">
              <polygon id="Fill-45" class="cls-6" points="1109.95 57 1178.1 54.25 1128.89 281.37 1060.73 284.12 1109.95 57"/>
            </g>
          </g>
          <polygon id="Fill-48" class="cls-6" points="1009.55 29.15 1077.7 26.4 1178.1 54.25 1109.95 57 1009.55 29.15"/>
          <path id="Fill-50" class="cls-7" d="M1002,176.83c5-23.24,11.27-46.78,17.78-71.53l-1.61-.44c-16.69,21.91-31.27,41.87-48.36,63.05l-64.51,71.83-0.81,1,78.93,21.9Zm58.7,107.29,41.33,11.45-14.71,68L1046,352.07l-20,92.39L948.69,423l20-92.39-154.6-42.9,12.8-59L1009.55,29.15,1109.95,57Z"/>
          <path id="Fill-52" class="cls-6" d="M698.29,147.86l1.3,46.08c-1.41-50-16.35-77.4-44.75-80.19-33.65-3.3-61.41,35.27-71.24,123.92a375,375,0,0,0-2.51,51.44L579.78,243a375.05,375.05,0,0,1,2.52-51.44c9.83-88.65,37.59-127.22,71.24-123.92,28.41,2.79,43.34,30.22,44.75,80.19"/>
        </g>
        <g id="Group-73">
          <g id="Group-57">
            <g class="cls-10">
              <path id="Fill-55" class="cls-6" d="M698.28,147.82l1.31,46.24c-1.42-50.14-16.4-77.67-44.88-80.46a38,38,0,0,0-16.35,1.89L637,69.25a37.94,37.94,0,0,1,16.35-1.89c28.49,2.8,43.47,30.32,44.88,80.46"/>
            </g>
          </g>
          <g id="Group-60">
            <g class="cls-11">
              <path id="Fill-58" class="cls-6" d="M637,69.25l1.31,46.24a40.28,40.28,0,0,0-7.33,3.43l-1.31-46.24A40.23,40.23,0,0,1,637,69.25"/>
            </g>
          </g>
          <g id="Group-63">
            <g class="cls-11">
              <path id="Fill-61" class="cls-6" d="M629.71,72.68L631,118.91a47.94,47.94,0,0,0-7,5.08l-1.31-46.24a48,48,0,0,1,7-5.08"/>
            </g>
          </g>
          <g id="Group-66">
            <g class="cls-11">
              <path id="Fill-64" class="cls-6" d="M622.73,77.75L624,124a63.21,63.21,0,0,0-8.11,8.61l-1.31-46.24a63.24,63.24,0,0,1,8.11-8.61"/>
            </g>
          </g>
          <g id="Group-69">
            <g class="cls-11">
              <path id="Fill-67" class="cls-6" d="M614.62,86.36l1.31,46.24a102.58,102.58,0,0,0-12.33,20.72l-1.31-46.24a102.58,102.58,0,0,1,12.33-20.72"/>
            </g>
          </g>
          <g id="Group-72">
            <g class="cls-12">
              <path id="Fill-70" class="cls-6" d="M602.29,107.08l1.31,46.24c-9.25,20.14-16.31,48.16-20.35,84.61a376.4,376.4,0,0,0-2.52,51.61l-1.31-46.24a376.42,376.42,0,0,1,2.52-51.62c4-36.46,11.1-64.47,20.35-84.61"/>
            </g>
          </g>
        </g>
        <g id="Group-79">
          <g id="Group-76">
            <g class="cls-13">
              <path id="Fill-74" class="cls-7" d="M625.87,326.34C662,329.89,686.41,288.56,696,202.05c9.32-84.16-4.76-130.47-42.13-134.14-33.69-3.31-61.48,35.34-71.31,124.17-9.64,87.09,7.8,130.77,43.32,134.26M662.55,0.85C768.5,11.26,800.74,106,789.21,210,776.27,326.92,717.66,403.28,616.6,393.35,513.69,383.24,478.13,290.53,489.43,182.93,501.66,72.46,559.64-9.27,662.55.85"/>
            </g>
          </g>
          <path id="Fill-77" class="cls-6" d="M791.3,162.46l1.3,46.17a345.06,345.06,0,0,1-2.09,47.57C777.58,373.09,719,449.45,617.91,439.52c-87.83-8.63-126.6-77.42-129.06-164.28l-1.31-46.17C490,315.93,528.77,384.72,616.6,393.35,717.66,403.28,776.27,326.92,789.21,210a345.06,345.06,0,0,0,2.09-47.57"/>
        </g>
        <g id="Group-98">
          <g id="Group-82">
            <g class="cls-14">
              <path id="Fill-80" class="cls-6" d="M791.3,162.45l1.3,46.17a345.09,345.09,0,0,1-2.09,47.58c-3.94,35.58-12.11,67.4-24.42,94.18l-1.3-46.18c12.31-26.78,20.48-58.6,24.42-94.18a345.1,345.1,0,0,0,2.09-47.58"/>
            </g>
          </g>
          <g id="Group-85">
            <g class="cls-14">
              <path id="Fill-83" class="cls-6" d="M764.79,304.21l1.3,46.17a187.42,187.42,0,0,1-22.9,37.95l-1.3-46.17a187.41,187.41,0,0,0,22.9-37.95"/>
            </g>
          </g>
          <g id="Group-88">
            <g class="cls-14">
              <path id="Fill-86" class="cls-6" d="M741.89,342.16l1.3,46.17a147,147,0,0,1-18.95,20l-1.3-46.17a147.06,147.06,0,0,0,18.95-20"/>
            </g>
          </g>
          <g id="Group-91">
            <g class="cls-14">
              <path id="Fill-89" class="cls-6" d="M722.95,362.12l1.3,46.17a130.7,130.7,0,0,1-19,13.77l-1.3-46.17a130.74,130.74,0,0,0,19-13.77"/>
            </g>
          </g>
          <g id="Group-94">
            <g class="cls-14">
              <path id="Fill-92" class="cls-6" d="M703.93,375.89l1.3,46.17a126.56,126.56,0,0,1-22.95,10.68L681,386.57a126.52,126.52,0,0,0,22.95-10.68"/>
            </g>
          </g>
          <g id="Group-97">
            <g class="cls-14">
              <path id="Fill-95" class="cls-6" d="M681,386.57l1.31,46.17c-19.07,6.66-40.55,9.12-64.38,6.77-87.83-8.63-126.6-77.42-129.06-164.29l-1.3-46.17C490,315.92,528.77,384.71,616.6,393.35c23.84,2.34,45.31-.12,64.38-6.77"/>
            </g>
          </g>
        </g>
        <g id="Group-193">
          <path id="Fill-99" class="cls-15" d="M807.89,474.38H796.7c-11.36,0-9.38-9.2-9.38-20.54v-0.36c0-11.35-2.34-20.55,9-20.55h11.55a20.56,20.56,0,0,1,20.57,20.55v0.36a20.56,20.56,0,0,1-20.57,20.54"/>
          <path id="Fill-101" class="cls-6" d="M783.35,453.65c0,11.45,7.51,20.73,16.78,20.73s16.78-9.28,16.78-20.73-7.51-20.73-16.78-20.73-16.78,9.28-16.78,20.73"/>
          <path id="Fill-103" class="cls-16" d="M779,453.65c0,11.45,7.51,20.73,16.78,20.73s16.78-9.28,16.78-20.73-7.51-20.73-16.78-20.73S779,442.21,779,453.65"/>
          <path id="Fill-105" class="cls-6" d="M775.59,463.21H794a3.06,3.06,0,1,0,0-6.13h-18.4a3.06,3.06,0,1,0,0,6.13"/>
          <path id="Fill-107" class="cls-6" d="M775.59,449.87H794a3.06,3.06,0,1,0,0-6.13h-18.4a3.06,3.06,0,1,0,0,6.13"/>
          <path id="Fill-109" class="cls-17" d="M820.89,454.43a1.16,1.16,0,0,1-.12-2.32A35.14,35.14,0,0,0,817,382H745.37a1.16,1.16,0,1,1,0-2.33H817a37.46,37.46,0,0,1,4,74.72h-0.13"/>
          <path id="Fill-111" class="cls-17" d="M751.86,380.67a5.77,5.77,0,1,0-5.77,5.77,5.77,5.77,0,0,0,5.77-5.77"/>
          <path id="Fill-113" class="cls-6" d="M903.37,529.85l-0.18,9.43s-15.32,6.94-16,5.52,3.74-8.9,7.84-10.14,2.67-5.69,2.67-5.69Z"/>
          <path id="Fill-115" class="cls-6" d="M949,521.13s5.88,6.76,5.17,9.79-12.47,10.85-12.47,10.85-4.45,1.25-1.6-5.87a66,66,0,0,0,3.74-12.63Z"/>
          <path id="Fill-117" class="cls-16" d="M896.6,440s-5.52,31.67-3.92,50.54,2.14,40.39,2.14,40.39l10,0.53s2.14-45.73,3.92-49.82,5-16.55,5-16.55l2.85,0.89s1.07,22.78,3.74,27.4,22.09,32.74,22.09,32.74l7.48-4.45s-16.39-34.7-15.86-37,0.53-39.15.53-39.15l-16.39-2Z"/>
          <path id="Fill-119" class="cls-18" d="M873.4,390.56l-0.64.34A2.08,2.08,0,0,1,870,390l-2.72-5.14a2.08,2.08,0,0,1,.87-2.8l0.64-.34a2.08,2.08,0,0,1,2.81.86l2.72,5.14a2.08,2.08,0,0,1-.87,2.8"/>
          <path id="Fill-121" class="cls-15" d="M907.49,368.89A44.09,44.09,0,0,0,890,399.32C887.71,419.78,874,386,874,386l-5.88,4.45s6.06,27,16.92,27.4,21.73-13,21.73-13Z"/>
          <path id="Fill-123" class="cls-15" d="M910.29,366.47s4.79,3.32,7.62,3.07,6.76-3.56,6.76-3.56a23.57,23.57,0,0,1,14.89,13.63l1.25,4.49-5,61.53c1.33,1.13-26.53,2.13-39.39-3.61-0.67-.3,0-0.89,0-0.89s4.63-54.63,4.63-58.72,1.5-15.7,9.21-15.94"/>
          <path id="Fill-125" class="cls-18" d="M913.73,366.47l0.12-3.56s-5.78-1.35-6.88-5.65-1.6-13.26-1.6-13.26l4.43-6,5.53-.49L921,343l3.81,4.17-0.61,4.91-3.44,7.24,0.12,6.63,5.53,1.35s0.37,6.63-8,5.89-8.73-5.65-8.73-5.65Z"/>
          <path id="Fill-127" class="cls-18" d="M899.26,411.59a2.23,2.23,0,0,0,.28,3.13l4.37,3.66a2.23,2.23,0,1,0,2.86-3.41l-4.37-3.66a2.24,2.24,0,0,0-3.14.28"/>
          <path id="Fill-129" class="cls-6" d="M919.75,360.33c-1.23-1.11,2.7-8.72,2.21-11.54,0,0-3.93.74-5.66-1.11s-8.24-2-6.64-6.51a6.61,6.61,0,0,0-3.56,6.63s-5.78-.61-4.3-2.82,5.29-13.87,14.75-12.52,12.05,8.46,11.68,15-6.15,12.77-6.15,12.77Z"/>
          <path id="Fill-131" class="cls-19" d="M937.91,378.54a10.42,10.42,0,0,0-8.57-1.88c-4.79,1.23-3,11.91-3,11.91s7.13,20.14,8.24,27.38c0.82,5.37-17.66-.13-28.35-3.52-1-.33-2.18,1.23-2.18,1.23s-1.2,4.91-1.16,5c5.84,6.5,36.08,24.24,41.71,5.47s0.23-31-4.33-42.4Z"/>
          <path id="Fill-133" class="cls-6" d="M950.87,488s0-4.62,0-4.63-2-.38-2.09-0.46L940,477.13a15.83,15.83,0,1,1,22.4-22.37L973,465.42l0.23,0.24A25,25,0,1,0,950.87,488"/>
          <polygon id="Fill-135" class="cls-6" points="941.76 438.98 924.9 455.82 878.39 409.36 895.25 392.52 941.76 438.98"/>
          <path id="Fill-137" class="cls-20" d="M929,443a5.85,5.85,0,0,1-8.27,0l-27.63-27.6a5.85,5.85,0,0,1,8.27-8.26L929,434.77a5.84,5.84,0,0,1,0,8.26"/>
          <path id="Fill-139" class="cls-20" d="M929,443.86a5.85,5.85,0,0,1-8.27,0l-27.63-27.6a5.85,5.85,0,0,1,8.27-8.26L929,435.6a5.84,5.84,0,0,1,0,8.26"/>
          <polygon id="Fill-141" class="cls-6" points="941.76 434.35 924.9 451.19 878.39 404.73 895.25 387.89 941.76 434.35"/>
          <path id="Fill-143" class="cls-20" d="M929,438.41a5.85,5.85,0,0,1-8.27,0l-27.63-27.6a5.85,5.85,0,0,1,8.27-8.26L929,430.14a5.84,5.84,0,0,1,0,8.26"/>
          <path id="Fill-145" class="cls-7" d="M929,439.23a5.85,5.85,0,0,1-8.27,0l-27.63-27.6a5.85,5.85,0,0,1,8.27-8.26L929,431a5.84,5.84,0,0,1,0,8.26"/>
          <path id="Fill-147" class="cls-6" d="M868.47,361l0.24,0.23,10.68,10.67A15.83,15.83,0,1,1,857,394.26l-10.68-10.67-0.23-.24a25,25,0,1,0,42.55-15.17c-5.48-5.48-20.17-11.82-20.17-11.82s0,4.63,0,4.63"/>
          <path id="Fill-149" class="cls-17" d="M868.47,356.36l0.24,0.23,10.68,10.67A15.83,15.83,0,1,1,857,389.63L846.31,379l-0.23-.24a25,25,0,1,0,22.39-22.36"/>
          <path id="Fill-151" class="cls-17" d="M950.87,483.39l-0.24-.23L940,472.5a15.83,15.83,0,0,1,22.4-22.37L973,460.79l0.23,0.24a25,25,0,1,0-22.39,22.36"/>
          <path id="Fill-153" class="cls-18" d="M899.53,411.32a2.23,2.23,0,0,0,.28,3.13l4.37,3.66a2.23,2.23,0,1,0,2.86-3.41L902.67,411a2.24,2.24,0,0,0-3.14.28"/>
          <path id="Fill-155" class="cls-15" d="M938.18,378.27a10.42,10.42,0,0,0-8.57-1.88c-4.79,1.23-3,11.91-3,11.91s7.13,20.14,8.24,27.38c0.82,5.37-17.66-.13-28.35-3.52-1-.33-2.18,1.23-2.18,1.23s-1.2,4.91-1.16,5c5.84,6.5,36.08,24.24,41.71,5.47s0.23-31-4.33-42.4Z"/>
          <path id="Fill-157" class="cls-21" d="M172.36,199.54a56.41,56.41,0,1,0-56.41,56.35,56.38,56.38,0,0,0,56.41-56.35"/>
          <path id="Fill-159" class="cls-18" d="M69.93,311.72l0.11-.06,0.17-.1,0.35-.22,0.72-.47c0.48-.33,1-0.68,1.45-1,1-.71,1.9-1.48,2.82-2.27a61.77,61.77,0,0,0,5.23-5.09,71.81,71.81,0,0,0,8.66-11.73,79,79,0,0,0,6.21-13.19,90.36,90.36,0,0,0,3.85-14.1h0a1.66,1.66,0,0,1,2-1.24,1.61,1.61,0,0,1,1.39,1.7,93.19,93.19,0,0,1-2.8,14.88,82.54,82.54,0,0,1-5.41,14.37,76.33,76.33,0,0,1-8.31,13.31,67.37,67.37,0,0,1-5.32,6c-1,1-1.95,1.91-3,2.82q-0.78.68-1.62,1.35c-0.29.22-.56,0.44-0.86,0.66l-0.45.33-0.24.17-0.3.2A4.37,4.37,0,0,1,68.83,317a3.58,3.58,0,0,1,1.1-5.24"/>
          <polygon id="Fill-161" class="cls-18" points="64.94 451.37 66.76 458.47 70.5 457.88 69.36 449.97 64.94 451.37"/>
          <path id="Fill-163" class="cls-15" d="M63.16,452.77l8.9-.73s2.46-56.5,1.34-67.05,0-31.26,0-31.26l-10,6.32-5,34.49-2.38,5.3s4.43,9.91,4.51,16.81-3.91,18.47,2.7,36.12"/>
          <path id="Fill-165" class="cls-22" d="M65.17,457l7.09,1s7.35,3.79,6.17,6.29S64.9,463.1,64.9,463.1s-0.52-5.64.27-6.13"/>
          <polygon id="Fill-167" class="cls-18" points="22.11 397.94 16.9 392.83 14.06 396.17 20.2 401.13 22.11 397.94"/>
          <path id="Fill-169" class="cls-18" d="M72.14,276s2.79,6.25,2.91,6.65c0.77,2.79,3.27,13.8-5.17,15l1.85,8.73,3.69,4.86A48.53,48.53,0,0,1,63,308.14l-6.15-21.92,5.13-5.57,7.12-4Z"/>
          <path id="Fill-171" class="cls-16" d="M66.9,306.91l6.38,0.74s9.24,14,8,18.1-7.15,21-7.21,26.6l-18.44-1.85s-1.75-26.62-1.34-33.91S58,306.46,58,306.46Z"/>
          <path id="Fill-173" class="cls-15" d="M74.11,352.36s-11.59,60.22-25.43,69.82C32.51,433.39,13.2,402.88,13.2,402.88l11.68-9.42S39.41,418.09,44.19,406s-0.76-34.92,2.31-41.17,9.16-14.34,9.16-14.34Z"/>
          <path id="Fill-175" class="cls-22" d="M18.73,392.33l-4.91,5.2s-7.36,3.77-8.71,1.36,8.79-10.34,8.79-10.34,4.89,2.85,4.84,3.79"/>
          <path id="Fill-177" class="cls-22" d="M75.27,273.75s3.18,5.74-6.47,6.46S61.15,284,61.15,284s12.51,15.31-1.74,20.15c-8.07,2.74-19.66-9-14.59-20.37s-0.19-9.88,10-11.88,10.22-6.41,20.45,1.88"/>
          <path id="Fill-179" class="cls-22" d="M58.17,274.17c0-.63,5-13.34-4.59-11s-21.7,10.42-15.23,14.38,11.89,4.59,14,3.13,5.84-6.46,5.84-6.46"/>
          <path id="Fill-181" class="cls-18" d="M55.3,315.9s0-.08,0-0.13l0-.19,0.05-.41c0-.28.06-0.57,0.09-0.86,0.05-.58.09-1.18,0.12-1.77,0.06-1.2.06-2.41,0-3.62a61.61,61.61,0,0,0-.62-7.26,71.73,71.73,0,0,0-3.58-14.13,79,79,0,0,0-6.26-13.16,90.42,90.42,0,0,0-8.46-11.92h0a1.66,1.66,0,0,1,.28-2.3,1.62,1.62,0,0,1,2.2,0,93.45,93.45,0,0,1,9.74,11.61A82.69,82.69,0,0,1,56.63,285a76.26,76.26,0,0,1,5,14.86,67.07,67.07,0,0,1,1.29,7.94c0.14,1.35.24,2.71,0.28,4.1,0,0.69,0,1.39,0,2.1,0,0.36,0,.71,0,1.08l0,0.56,0,0.3,0,0.36a4.36,4.36,0,0,1-4.46,3.72,3.58,3.58,0,0,1-3.36-4.18"/>
          <path id="Fill-183" class="cls-7" d="M61.28,193.63A54,54,0,1,1,108,253.9a53.94,53.94,0,0,1-46.71-60.27m-10.4-1.32a64,64,0,0,0,7.85,39.85l-7.7,6L8,271.4C4.63,274-1.08,282.57,1.52,285.92s12.14,0.5,15.49-2.09l50.84-39.31a64.36,64.36,0,1,0-17-52.2"/>
          <path id="Fill-185" class="cls-6" d="M1.61,286a7.68,7.68,0,0,0,10.77,1.37l41.06-31.75A7.67,7.67,0,1,0,44,243.53L3,275.28A7.66,7.66,0,0,0,1.61,286"/>
          <path id="Fill-187" class="cls-18" d="M55.3,315.9s0-.08,0-0.13l0-.19,0.05-.41c0-.28.06-0.57,0.09-0.86,0.05-.58.09-1.18,0.12-1.77,0.06-1.2.06-2.41,0-3.62a61.61,61.61,0,0,0-.62-7.26,71.73,71.73,0,0,0-3.58-14.13,79,79,0,0,0-6.26-13.16,90.42,90.42,0,0,0-8.46-11.92h0a1.66,1.66,0,0,1,.28-2.3,1.62,1.62,0,0,1,2.2,0,93.45,93.45,0,0,1,9.74,11.61A82.69,82.69,0,0,1,56.63,285a76.26,76.26,0,0,1,5,14.86,67.07,67.07,0,0,1,1.29,7.94c0.14,1.35.24,2.71,0.28,4.1,0,0.69,0,1.39,0,2.1,0,0.36,0,.71,0,1.08l0,0.56,0,0.3,0,0.36a4.36,4.36,0,0,1-4.46,3.72,3.58,3.58,0,0,1-3.36-4.18"/>
          <path id="Fill-189" class="cls-1" d="M106.57,167.85a11,11,0,1,1,11,11,11,11,0,0,1-11-11"/>
          <path id="Fill-191" class="cls-1" d="M134.58,181.77a5.87,5.87,0,1,1,5.87,5.86,5.87,5.87,0,0,1-5.87-5.86"/>
        </g>
      </g>
    </g>
  </g>
</svg>
