<svg xmlns="http://www.w3.org/2000/svg" width="66" height="66" viewBox="0 0 66 66">
    <defs>
        <linearGradient id="a" x1="0%" y1="50%" y2="50%">
            <stop offset="0%" stop-color="#8799AD"/>
            <stop offset="49.947%" stop-color="#364758"/>
            <stop offset="49.947%" stop-color="#142435"/>
            <stop offset="100%" stop-color="#425264"/>
        </linearGradient>
    </defs>
    <path fill="url(#a)" fill-rule="evenodd" d="M234.75 120.515V113.5a6.753 6.753 0 0 0-4.5-6.366V93.25h-4.5v13.884a6.753 6.753 0 0 0-4.5 6.366v7.015a4.502 4.502 0 0 1-7.272-5.228 4.482 4.482 0 0 1 2.417-2c.152-.02.301-.063.442-.129l.006-.001v-.001a1.5 1.5 0 1 0-1.998-1.998l-.002-.001-.001.006c-.066.14-.11.29-.13.442a4.5 4.5 0 1 1-3.406-5.9 1.502 1.502 0 0 0 2.024-1.774 1.5 1.5 0 0 0-2.305-.844v-.001l-.002.002c-.128.09-.24.197-.332.318a4.5 4.5 0 1 1 0-6.813c.093.122.204.23.332.319l.002.002a1.5 1.5 0 1 0 .729-2.727v-.001c-.156.013-.306.05-.448.11a4.5 4.5 0 1 1 3.406-5.9c.02.15.064.3.13.441l.001.006h.001a1.5 1.5 0 1 0 1.998-1.998l.001-.002-.006-.001a1.497 1.497 0 0 0-.442-.13 4.5 4.5 0 1 1 5.9-3.406 1.502 1.502 0 0 0 1.774 2.024 1.5 1.5 0 0 0 .844-2.305h.001l-.002-.002a1.497 1.497 0 0 0-.318-.332 4.5 4.5 0 1 1 6.813 0c-.122.093-.23.204-.319.332l-.002.002a1.5 1.5 0 1 0 2.618.281 4.5 4.5 0 1 1 5.9 3.406c-.15.02-.3.064-.441.13l-.006.001v.001a1.5 1.5 0 1 0 1.998 1.998l.002.001.001-.006c.066-.14.11-.29.13-.442a4.5 4.5 0 1 1 3.406 5.9 1.502 1.502 0 0 0-2.024 1.774 1.5 1.5 0 0 0 2.305.844v.001l.002-.002c.128-.09.24-.197.332-.318a4.5 4.5 0 1 1 0 6.813 1.497 1.497 0 0 0-.332-.319l-.002-.002a1.5 1.5 0 1 0-.281 2.618 4.5 4.5 0 1 1-3.406 5.9c-.02-.15-.064-.3-.13-.441l-.001-.006h-.001a1.5 1.5 0 1 0-1.998 1.998l-.001.002.006.001c.14.066.29.11.442.13a4.5 4.5 0 1 1-4.855 7.228zM228 109a4.5 4.5 0 0 1 4.5 4.5V133h-9v-19.5a4.5 4.5 0 0 1 4.5-4.5zm6.406-32.907a3 3 0 1 1 1.553-5.795 3 3 0 0 1-1.553 5.795zM245.5 82.5a3 3 0 1 1 4.243-4.243A3 3 0 0 1 245.5 82.5zm-39.245 39.245a3 3 0 1 1 4.243-4.243 3 3 0 0 1-4.243 4.243zm45.65-28.15a3 3 0 1 1 5.796-1.553 3 3 0 0 1-5.795 1.553zm-53.608 14.365a3 3 0 1 1 5.795-1.553 3 3 0 0 1-5.795 1.553zm53.609-1.553a3 3 0 1 1 5.795 1.553 3 3 0 0 1-5.795-1.553zm-53.61-14.365a3 3 0 1 1 5.796 1.553 3 3 0 0 1-5.795-1.553zm47.204 25.46a3 3 0 1 1 4.243 4.243 3 3 0 0 1-4.243-4.243zm-39.245-39.245A3 3 0 1 1 210.5 82.5a3 3 0 0 1-4.243-4.243zm13.785-7.958a3 3 0 1 1 1.553 5.795 3 3 0 0 1-1.553-5.795zM228 70a1.5 1.5 0 1 1 0-3 1.5 1.5 0 0 1 0 3zm15 4.02a1.5 1.5 0 1 1 1.5-2.599 1.5 1.5 0 0 1-1.5 2.598zM253.98 85a1.5 1.5 0 1 1 2.599-1.5 1.5 1.5 0 0 1-2.598 1.5zm-54.559 31.5a1.5 1.5 0 1 1 2.598-1.5 1.5 1.5 0 0 1-2.598 1.5zM258 100a1.5 1.5 0 1 1 3 0 1.5 1.5 0 0 1-3 0zm-63 0a1.5 1.5 0 1 1 3 0 1.5 1.5 0 0 1-3 0zm58.98 15a1.5 1.5 0 1 1 2.599 1.5 1.5 1.5 0 0 1-2.598-1.5zm-54.559-31.5a1.5 1.5 0 1 1 2.598 1.5 1.5 1.5 0 0 1-2.598-1.5zM211.5 71.421a1.5 1.5 0 1 1 1.5 2.598 1.5 1.5 0 0 1-1.5-2.598z" transform="translate(-195 -67)"/>
</svg>
