<?xml version="1.0" encoding="utf-8"?><svg id="Слой_1" xmlns="http://www.w3.org/2000/svg" viewBox="0 0 276 363"><style>.st0{fill:#19354d}</style><path class="st0" d="M122 233.6H76.7v-77.4h17v-3.8h8.3l1.4-2.7.5-1H113.9l.5 1 1.4 2.7h8.3v3.8h16.8v35.9h-3.8V160h-13.2V165.7H97.5v-3.8h22.7V156.2h-6.9l-.5-1-1.4-2.7h-5.2l-1.4 2.7-.5 1h-6.9v3.8H80.5v69.9H122v3.7zm25-23.9l-10.6 10.6-1.3 1.3-1.3-1.3-6.4-6.4 2.7-2.7 5 5 9.3-9.3 2.6 2.8zm3.5-8.3c3.7 3.7 5.5 8.5 5.5 13.3s-1.8 9.7-5.5 13.4c-3.7 3.7-8.5 5.5-13.4 5.5-4.8 0-9.7-1.8-13.3-5.5-3.7-3.7-5.5-8.5-5.5-13.3s1.8-9.7 5.5-13.3c3.7-3.7 8.5-5.5 13.4-5.5 4.7-.2 9.6 1.7 13.3 5.4zm1.7 13.3c0-3.9-1.5-7.7-4.4-10.7-2.9-2.9-6.8-4.4-10.7-4.4s-7.7 1.5-10.7 4.4c-2.9 2.9-4.4 6.8-4.4 10.7s1.5 7.7 4.4 10.7c2.9 2.9 6.8 4.4 10.7 4.4s7.7-1.5 10.7-4.4c2.9-2.9 4.4-6.8 4.4-10.7zM88 209.1h17v3.8H88v-3.8zm0-7.6h24.5v3.8H88v-3.8zm0-11.3h41.5v3.8H88v-3.8zm0-15.1h41.5v3.8H88v-3.8zm0 7.5h41.5v3.8H88v-3.8zM223.2 296.9v3.8l10.6 1.1 1.3-1.3 2.7.8-.2.2-2.5 2.5-.4.4-.6-.1-12.3-1.2-1.1-.1v-6l2.5-.1zm-21-18.5c0-4.4 1.8-8.4 4.7-11.3 2.6-2.6 6.2-4.4 10.1-4.7v-2.5c-4.6.3-8.8 2.3-11.9 5.4-3.3 3.3-5.4 8-5.4 13.1s2.1 9.7 5.4 13.1c3.3 3.3 8 5.4 13.1 5.4v2.5c-2.6 0-5.1-.5-7.4-1.3v10h-2.5V297c-1.8-1-3.5-2.2-5-3.7-3.8-3.8-6.1-9-6.1-14.8s2.3-11 6.1-14.8c3.5-3.5 8.3-5.8 13.6-6.1v-2.5h2.5v23.4H217v-6c-1.1.2-2.2.8-3.1 1.7-1.2 1.2-1.8 2.8-1.8 4.4s.6 3.2 1.8 4.4c1.2 1.2 2.8 1.8 4.4 1.8 1.6 0 3.2-.6 4.4-1.8 1.2-1.2 1.8-2.8 1.8-4.4s-.6-3.2-1.8-4.4c-.2-.2-.4-.4-.7-.6v-2.9c.9.4 1.7 1 2.4 1.7 1.7 1.7 2.5 3.9 2.5 6.1s-.8 4.4-2.5 6.1c-1.4 1.4-3.1 2.2-4.9 2.4v4.1l16 4.5V292.4l.8-.3 2.9-1v-1.2l-4.7-7.1-.6-.8.7-.7 2.1-2.1v-.7c0-5.1-2.1-9.7-5.4-13.1-.3-.3-.7-.6-1-.9.4-.3.8-.7 1.2-1.1l.6-.6.9.9c3.8 3.8 6.1 9 6.1 14.8v1.7l-.4.4-1.8 1.8 4.4 6.6.2.3v3.8l-.8.3-2.9 1v2.1l2.8.8-.7 2.4-2.1-.6-2.5-.7-17.6-4.9-.9-.3V287c-1.8-.3-3.5-1.1-4.9-2.4-1.7-1.7-2.5-3.9-2.5-6.1s.8-4.4 2.5-6.1c1.4-1.4 3.1-2.2 4.9-2.4v-5c-3.3.3-6.2 1.7-8.4 3.9-2.5 2.5-4 5.8-4 9.6h-2.2v-.1zm30.8-24.7c0 3.1-1.2 5.8-3.3 7.9-2 2-4.8 3.3-7.9 3.3v-2.5c2.4 0 4.5-1 6.1-2.5 1.6-1.6 2.5-3.7 2.5-6.1l2.6-.1zm-4.9 0c0 1.7-.7 3.2-1.8 4.4-1.2 1.2-2.7 1.8-4.4 1.8v-2.4c1 0 1.9-.4 2.6-1.1.7-.7 1.1-1.6 1.1-2.6l2.5-.1zM205.8 86.7h6.8v-5.5H220.8v5.5h18.9v-5.5H247.9v5.5h8.2V111h-2.7V97.5h-46v29.8h31.1v2.7h-33.9V86.7h1.2zm52.4 34.8l-6.8 6.8-1 1-1-1-4.1-4.1 1.9-1.9 3.1 3.1 5.8-5.8 2.1 1.9zm2.2-5.5c2.4 2.4 3.6 5.5 3.6 8.6s-1.2 6.2-3.6 8.6c-2.4 2.4-5.5 3.6-8.6 3.6s-6.2-1.2-8.6-3.6c-2.4-2.4-3.6-5.5-3.6-8.6s1.2-6.2 3.6-8.6c2.4-2.4 5.5-3.6 8.6-3.6s6.3 1.2 8.6 3.6zm.9 8.6c0-2.4-.9-4.8-2.8-6.7-1.8-1.8-4.3-2.8-6.7-2.8s-4.8.9-6.7 2.8c-1.8 1.8-2.8 4.3-2.8 6.7 0 2.4.9 4.8 2.8 6.7 1.8 1.8 4.3 2.8 6.7 2.8s4.8-.9 6.7-2.8c1.9-1.9 2.8-4.3 2.8-6.7zm-23-2.7h-6.8v-2.7h6.8v2.7zm-9.5 0H222v-2.7h6.8v2.7zm-9.4 0h-6.8v-2.7h6.8v2.7zm18.9-5.5h-6.8v-2.7h6.8v2.7zm-9.5 0H222v-2.7h6.8v2.7zm-9.4 0h-6.8v-2.7h6.8v2.7zm28.4-5.4H241v-2.7h6.8v2.7zm-9.5 0h-6.8v-2.7h6.8v2.7zm-9.5 0H222v-2.7h6.8v2.7zm19-5.4h-35.2v-2.7h35.2v2.7zm-40.6-10.8h46v-5.4h-5.4v2.7h-2.7V84h-2.7v5.3h-21.7V92H218v-8h-2.7v5.3h-8.2l.1 5.5zM52.2 114.2H11.6V106l.5-.2 3.9-1.5 2.4-8.1.2-.6H26V89.7h23.6v1.7h-22V97.3h-7.8l-2 6.8H26V99h1.7v11.8H26v-5.1h-9.1l-3.5 1.4v5.3h39v1.8h-.2zm-14.4-5H48v1.7H37.8v-1.7zm5 6.7h7.6v1.7H47c0 1.2-.5 2.2-1.2 3-.8.8-1.8 1.2-3 1.2s-2.2-.5-3-1.2c-.8-.8-1.2-1.8-1.2-3H23.4c0 1.2-.5 2.2-1.2 3-.8.8-1.8 1.2-3 1.2s-2.2-.5-3-1.2c-.8-.8-1.2-1.8-1.2-3h-3.4v-1.7h5.1v1.7c0 .7.3 1.3.7 1.8.5.5 1.1.7 1.8.7s1.3-.3 1.8-.7c.5-.5.7-1.1.7-1.8h-2.5v-1.7h21.1v1.7c0 .7.3 1.3.7 1.8.5.5 1.1.7 1.8.7s1.3-.3 1.8-.7c.5-.5.7-1.1.7-1.8h-2.5v-1.7zM36.9 99h11.8v1.7H36.9V99zm2.6-3.4H53v1.7H39.5v-1.7zM54.9 292.4c7.4 0 14.2 2.8 19.3 7.3L77 297l-2.2-2.2 2.4-2.4 6.8 6.8-2.4 2.4-2.2-2.2-2.7 2.8c4.6 5.1 7.3 11.9 7.3 19.3 0 8-3.3 15.3-8.5 20.5-5.3 5.3-12.5 8.5-20.5 8.5s-15.3-3.3-20.5-8.5c-5.3-5.3-8.5-12.5-8.5-20.5s3.3-15.3 8.5-20.5c4.5-4.5 10.5-7.5 17.1-8.3V289h-6.8v-10.2H67V289h-8.5v-3.4h5.1v-3.4H48.1v3.4h6.8v6.8zm0 51.3c-6.1 0-11.7-2.5-15.7-6.5s-6.5-9.6-6.5-15.7 2.5-11.7 6.5-15.7 9.6-6.5 15.7-6.5c1.9 0 3.9.3 5.7.8 1.9.5 3.7 1.2 5.4 2.2l-1.7 3c-1.4-.8-2.9-1.4-4.5-1.9-1.6-.4-3.2-.6-4.9-.6-5.2 0-9.9 2.1-13.3 5.5s-5.5 8.1-5.5 13.3c0 5.2 2.1 9.9 5.5 13.3s8.1 5.5 13.3 5.5v3.3zm3.5-28.1l11-11 2.4 2.4-11 11c.6 1.1.9 2.3.9 3.5 0 1.7-.7 3.5-2 4.8-1.3 1.3-3.1 2-4.8 2s-3.5-.7-4.8-2c-1.3-1.3-2-3.1-2-4.8 0-1.7.7-3.5 2-4.8 1.3-1.3 3.1-2 4.8-2 1.2-.1 2.4.2 3.5.9zm-1.1 3.4c-.7-.7-1.5-1-2.4-1s-1.8.3-2.4 1c-.7.7-1 1.5-1 2.4s.3 1.8 1 2.4c.7.7 1.5 1 2.4 1s1.8-.3 2.4-1c.7-.7 1-1.5 1-2.4 0-.8-.3-1.7-1-2.4zM73 303.3c-4.6-4.6-11-7.5-18.1-7.5s-13.5 2.9-18.1 7.5-7.5 11-7.5 18.1 2.9 13.5 7.5 18.1 11 7.5 18.1 7.5 13.5-2.9 18.1-7.5 7.5-11 7.5-18.1c0-7-2.8-13.4-7.5-18.1zM108.1 21.5c.9-2.2 2.3-4.2 4-5.9 3.3-3.3 7.8-5.3 12.8-5.3 5 0 9.6 2 12.8 5.3 3.3 3.3 5.3 7.8 5.3 12.8s-2 9.6-5.3 12.8c-1.7 1.7-3.7 3-5.9 4v-1.9c1.8-.8 3.3-1.9 4.7-3.3 3-3 4.8-7.1 4.8-11.6s-1.8-8.6-4.8-11.6-7.1-4.8-11.6-4.8-8.6 1.8-11.6 4.8c-1.4 1.4-2.5 2.9-3.3 4.7h-1.9zm12.6 9.2c-.4.4-.6.9-.6 1.5h6.1V33.9h-7.8v-1.7c0-1 .4-2 1.1-2.7l4.3-4.3c.4-.4.6-1 .6-1.5 0-1.2-1-2.2-2.2-2.2-.6 0-1.1.2-1.5.6s-.6.9-.6 1.5h-1.7c0-1.1.4-2 1.1-2.8.7-.7 1.7-1.1 2.8-1.1 2.1 0 3.9 1.7 3.9 3.9 0 1-.4 2-1.1 2.7l-4.4 4.4zm9.8 3.2v-3.5h-5.2v-2.1l.2-.3 8.6-8.9 1.2 1.2-8.1 8.3h3.1V27h1.7v1.7h1.7v1.7H132v3.5h-1.5zm-5.7 9.2c-4.1 0-7.7-1.6-10.4-4.3-2.7-2.7-4.3-6.3-4.3-10.4h1.7c0 .8.1 1.5.2 2.3l1.4-.9L112 25h-3l-.5 1.1v2.4c0 4.5 1.8 8.6 4.8 11.6s7.1 4.8 11.6 4.8h2.4l1.1-.5v-3.1l-4.8-1.4-.9 1.4c.7.1 1.5.2 2.3.2v1.6h-.2zm-12.3-10.6c.6 1.9 1.7 3.7 3.1 5.1 1.4 1.4 3.2 2.5 5.1 3.1l1.6-2.4.3-.5.6.2 6.1 1.7.6.2v5.5l-.5.2-1.7.9-.2.1H124.7c-5 0-9.6-2-12.8-5.3-3.3-3.3-5.3-7.8-5.3-12.8V25.7l.1-.2.9-1.7.2-.5h5.5l.2.6 1.7 6.1.2.6-.5.3-2.4 1.6z"/></svg>