<svg id="Режим_изоляции" data-name="Режим изоляции" xmlns="http://www.w3.org/2000/svg" viewBox="0 0 94.48 76.42">
  <defs>
    <style>
      .cls-1 {
        fill: #2597d3;
      }
    </style>
  </defs>
  <title>ny-pattern</title>
  <path class="cls-1" d="M90.7,69.77a25,25,0,0,0-4.82-3.52,0.48,0.48,0,0,1-.1-0.08l-0.06-.05,0,0a0.48,0.48,0,0,1,.14-0.8c0.84-.36,2.24-0.08,3.13-0.07l2.63,0.06c-1.07-1.51-2.21-3-3.38-4.41a10.38,10.38,0,0,1-2.12-3.54,0.51,0.51,0,0,1,.6-0.64,8.76,8.76,0,0,1,3,.11c-1-1-2.17-1.94-3.13-3-1.16-1.34-2.28-2.68-3.54-3.92-2.31,1.94-4.33,4.22-6.72,6.07a13.18,13.18,0,0,0,3.35.29,0.6,0.6,0,0,1,.29,0,0.56,0.56,0,0,1,.47.83c-1.87,3.28-5.13,5.61-7.51,8.56a25.62,25.62,0,0,0,2.82-.13c1.11,0,2.21.09,3.31,0a0.71,0.71,0,0,1,.39,1c-1.93,2.87-5,4.87-7.51,7.3,1.31,0.09,2.59-.36,3.91-0.28,1.64,0.1,3.27.07,4.91,0.07a0.5,0.5,0,0,1,.51.56,0.51,0.51,0,0,1,.11.32c0,0.37,0,.74,0,1.11a3.46,3.46,0,0,0,0,.55l0,0.08a15.72,15.72,0,0,0,4.21-.49h0.07a12.07,12.07,0,0,1,0-1.61,0.56,0.56,0,0,1,.37-1c1.36,0,2.68-.41,4-0.48s2.7,0,4-.14A25.82,25.82,0,0,0,90.7,69.77Z" transform="translate(0.36 0.17)"/>
  <path class="cls-1" d="M40.7,69.77a25,25,0,0,0-4.82-3.52,0.43,0.43,0,0,1-.1-0.08l-0.07-.05,0,0a0.48,0.48,0,0,1,.14-0.8c0.85-.36,2.24-0.08,3.13-0.07l2.63,0.06c-1.08-1.51-2.21-3-3.38-4.41a10.38,10.38,0,0,1-2.12-3.54,0.51,0.51,0,0,1,.6-0.64,8.76,8.76,0,0,1,3,.11c-1-1-2.17-1.94-3.13-3-1.16-1.34-2.28-2.68-3.54-3.92-2.31,1.94-4.33,4.22-6.72,6.07a13.18,13.18,0,0,0,3.34.29,0.6,0.6,0,0,1,.29,0,0.56,0.56,0,0,1,.47.83c-1.87,3.28-5.13,5.61-7.51,8.56a25.66,25.66,0,0,0,2.82-.13c1.11,0,2.21.09,3.31,0a0.49,0.49,0,0,1,.48.69,0.51,0.51,0,0,1-.08.32c-1.93,2.87-5,4.87-7.51,7.3,1.31,0.09,2.58-.36,3.91-0.28,1.64,0.1,3.27.07,4.91,0.07a0.5,0.5,0,0,1,.51.56,0.53,0.53,0,0,1,.12.32c0,0.37,0,.74,0,1.11a3.46,3.46,0,0,0,0,.55,0.3,0.3,0,0,0,0,.08,15.71,15.71,0,0,0,4.21-.49h0.07a11.56,11.56,0,0,1,0-1.61,0.55,0.55,0,0,1,.36-1c1.36,0,2.67-.41,4-0.48s2.7,0,4-.14A25.72,25.72,0,0,0,40.7,69.77Z" transform="translate(0.36 0.17)"/>
  <path class="cls-1" d="M57.15,16.53c-1.93,2.86-5,4.87-7.51,7.3,1.31,0.09,2.58-.36,3.91-0.28,1.64,0.1,3.27.07,4.91,0.07a0.5,0.5,0,0,1,.51.56,0.52,0.52,0,0,1,.12.32c0,0.37,0,.74,0,1.11a3.7,3.7,0,0,0,0,.55,0.42,0.42,0,0,0,0,.08,15.8,15.8,0,0,0,4.21-.49h0.07a11.81,11.81,0,0,1,0-1.61,0.55,0.55,0,0,1,.37-1c1.35,0,2.67-.42,4-0.48s2.7,0,4-.14a25.85,25.85,0,0,0-3.42-2.78,24.87,24.87,0,0,0-4.81-3.51,0.47,0.47,0,0,1-.1-0.08l-0.06-.05,0,0a0.48,0.48,0,0,1,.14-0.81c0.85-.36,2.24-0.08,3.13-0.07l2.63,0.06c-1.07-1.51-2.21-3-3.38-4.41a10.35,10.35,0,0,1-2.12-3.54,0.51,0.51,0,0,1,.59-0.64,8.81,8.81,0,0,1,3,.1c-1-1-2.17-1.94-3.13-3C63.13,2.41,62,1.07,60.75-.17,58.44,1.77,56.42,4.05,54,5.9a13.19,13.19,0,0,0,3.35.3,0.52,0.52,0,0,1,.29,0,0.56,0.56,0,0,1,.47.83c-1.87,3.28-5.13,5.61-7.51,8.56a25.28,25.28,0,0,0,2.82-.13c1.1,0,2.2.09,3.31,0a0.49,0.49,0,0,1,.47.69A0.47,0.47,0,0,1,57.15,16.53Z" transform="translate(0.36 0.17)"/>
  <path class="cls-1" d="M7.15,16.53c-1.93,2.86-5,4.87-7.51,7.3,1.31,0.09,2.58-.36,3.91-0.28,1.64,0.1,3.27.07,4.91,0.07a0.5,0.5,0,0,1,.51.56,0.53,0.53,0,0,1,.12.32c0,0.37,0,.74,0,1.11a3.93,3.93,0,0,0,0,.55,0.42,0.42,0,0,0,0,.08,15.81,15.81,0,0,0,4.21-.49h0.07a11.81,11.81,0,0,1,0-1.61,0.55,0.55,0,0,1,.36-1c1.36,0,2.68-.42,4-0.48s2.69,0,4-.14a25.85,25.85,0,0,0-3.42-2.78,24.83,24.83,0,0,0-4.82-3.51,0.54,0.54,0,0,1-.1-0.08l-0.06-.05,0,0a0.48,0.48,0,0,1,.14-0.81c0.84-.36,2.24-0.08,3.13-0.07l2.63,0.06c-1.08-1.51-2.21-3-3.38-4.41a10.35,10.35,0,0,1-2.12-3.54,0.51,0.51,0,0,1,.6-0.64,8.8,8.8,0,0,1,3,.1c-1-1-2.17-1.94-3.13-3C13.13,2.41,12,1.07,10.75-.17,8.44,1.77,6.42,4.05,4,5.9a13.19,13.19,0,0,0,3.35.3,0.52,0.52,0,0,1,.29,0,0.56,0.56,0,0,1,.47.83C6.27,10.34,3,12.68.63,15.62a25.32,25.32,0,0,0,2.82-.13c1.1,0,2.2.09,3.31,0a0.49,0.49,0,0,1,.47.69A0.48,0.48,0,0,1,7.15,16.53Z" transform="translate(0.36 0.17)"/>
</svg>
