<?xml version="1.0" encoding="utf-8"?>
<svg version="1.1" id="Слой_1" xmlns="http://www.w3.org/2000/svg" xmlns:xlink="http://www.w3.org/1999/xlink" x="0px" y="0px" viewBox="0 0 512 512" style="enable-background:new 0 0 512 512;" xml:space="preserve">
<style type="text/css">
	.st0{fill:#FFFFFF;}
	.tr{fill: transparent}
</style>
<g>
	<rect class="tr" x="0" y="0" width="512" height="512"/>
	<path class="st0" d="M355.7,96.2l-21.2,21.2c-2.8,2.8-2.8,7.4-0.1,10.2c0.7,0.7,1.6,1.3,2.5,1.6l88.9,36.5c2.6,1,5.6,0.4,7.7-1.7
		c2.1-2.1,2.7-5.2,1.7-7.7l-36.5-88.9c-0.4-0.9-0.9-1.8-1.6-2.5c-2.8-2.8-7.3-2.8-10.1,0l-21.2,21.2v0L279.8,0h-20.2L355.7,96.2z"/>
	<path class="st0" d="M177.6,95.7c-2.1-2.1-5.2-2.7-7.7-1.7l-88.9,36.5c-0.9,0.4-1.8,0.9-2.5,1.6c-2.8,2.8-2.8,7.3,0,10.2l21.2,21.2
		L0,263.2v20.2l109.8-109.8l21.2,21.2c2.8,2.8,7.4,2.8,10.2,0c0.7-0.7,1.3-1.6,1.6-2.5l36.5-88.9C180.3,100.9,179.6,97.8,177.6,95.7
		z"/>
	<path class="st0" d="M208.4,398.2c2.8-2.8,2.8-7.4,0-10.2c-0.7-0.7-1.6-1.2-2.5-1.6L117.1,350c-2.6-1-5.6-0.4-7.7,1.7
		c-2.1,2.1-2.7,5.2-1.7,7.7l36.5,88.9c0.4,0.9,0.9,1.8,1.6,2.5c2.8,2.8,7.3,2.8,10.2,0l21.2-21.2l82.5,82.5h20.2l-92.6-92.6
		L208.4,398.2z"/>
	<path class="st0" d="M433.1,342.1l-21.2-21.2c-2.8-2.8-7.4-2.8-10.2,0c-0.7,0.7-1.3,1.6-1.6,2.5l-36.5,88.9c-1,2.5-0.4,5.6,1.7,7.7
		c2.1,2.1,5.2,2.7,7.7,1.7l88.9-36.4c0.9-0.4,1.8-0.9,2.5-1.6c2.8-2.8,2.8-7.3,0-10.2l-21.2-21.2l68.8-68.8v-20.2L433.1,342.1z"/>
</g>
</svg>
