<svg id="Layer_10" data-name="Layer 10" xmlns="http://www.w3.org/2000/svg" xmlns:xlink="http://www.w3.org/1999/xlink" viewBox="0 0 225.34 207.46"><defs><style>.cls-1{fill:none;}.cls-2{fill:url(#linear-gradient);}.cls-3{fill:url(#linear-gradient-2);}.cls-4{fill:url(#linear-gradient-3);}.cls-5{fill:#cd1c4a;}.cls-6{fill:#fff;}.cls-7{fill:url(#linear-gradient-4);}.cls-8{fill:#d1d2db;}.cls-9{fill:#e6e6ed;}.cls-10{fill:url(#linear-gradient-5);}.cls-11{fill:#f2f2f2;}.cls-12{fill:#214b88;}.cls-13{clip-path:url(#clip-path);}.cls-14{fill:#078247;}.cls-15{fill:url(#Безымянный_градиент_8);}.cls-16{fill:#363b8d;}.cls-17{fill:#054e7f;}.cls-18{fill:url(#Безымянный_градиент_8-2);}.cls-19{opacity:0.95;}.cls-20{fill:url(#Безымянный_градиент_8-3);}.cls-21{fill:url(#Безымянный_градиент_8-4);}.cls-22{fill:url(#Безымянный_градиент_8-5);}.cls-23{fill:url(#Безымянный_градиент_8-6);}.cls-24{fill:url(#Безымянный_градиент_8-7);}.cls-25{fill:url(#Безымянный_градиент_8-8);}.cls-26{fill:url(#Безымянный_градиент_8-9);}.cls-27{fill:url(#Безымянный_градиент_8-10);}.cls-28{fill:url(#Безымянный_градиент_8-11);}.cls-29{fill:url(#Безымянный_градиент_8-12);}.cls-30{fill:url(#Безымянный_градиент_8-13);}.cls-31{fill:url(#Безымянный_градиент_8-14);}.cls-32{fill:url(#Безымянный_градиент_8-15);}.cls-33{fill:url(#Безымянный_градиент_8-16);}.cls-34{fill:url(#Безымянный_градиент_8-17);}.cls-35{fill:url(#Безымянный_градиент_8-18);}.cls-36{fill:url(#Безымянный_градиент_8-19);}.cls-37{fill:url(#Безымянный_градиент_8-20);}.cls-38{fill:url(#Безымянный_градиент_8-21);}.cls-39{fill:url(#Безымянный_градиент_8-22);}.cls-40{fill:url(#Безымянный_градиент_8-23);}.cls-41{fill:url(#Безымянный_градиент_8-24);}.cls-42{fill:url(#Безымянный_градиент_8-25);}.cls-43{fill:url(#Безымянный_градиент_8-26);}.cls-44{fill:url(#Безымянный_градиент_8-27);}.cls-45{fill:url(#Безымянный_градиент_8-28);}.cls-46{fill:url(#Безымянный_градиент_8-29);}.cls-47{fill:url(#Безымянный_градиент_8-30);}.cls-48{fill:url(#Безымянный_градиент_8-31);}.cls-49{fill:url(#Безымянный_градиент_8-32);}.cls-50{fill:url(#Безымянный_градиент_8-33);}.cls-51{fill:url(#Безымянный_градиент_8-34);}.cls-52{fill:url(#Безымянный_градиент_8-35);}.cls-53{fill:url(#Безымянный_градиент_8-36);}.cls-54{fill:url(#Безымянный_градиент_8-37);}.cls-55{fill:url(#Безымянный_градиент_8-38);}.cls-56{fill:url(#Безымянный_градиент_8-39);}.cls-57{fill:url(#Безымянный_градиент_8-40);}.cls-58{fill:url(#Безымянный_градиент_8-41);}.cls-59{fill:url(#Безымянный_градиент_8-42);}.cls-60{fill:url(#Безымянный_градиент_8-43);}.cls-61{fill:url(#Безымянный_градиент_8-44);}.cls-62{fill:url(#Безымянный_градиент_8-45);}.cls-63{fill:url(#Безымянный_градиент_8-46);}.cls-64{fill:url(#Безымянный_градиент_8-47);}.cls-65{fill:url(#Безымянный_градиент_8-48);}.cls-66{fill:url(#Безымянный_градиент_8-49);}.cls-67{fill:url(#Безымянный_градиент_8-50);}.cls-68{fill:url(#Безымянный_градиент_8-51);}.cls-69{fill:url(#Безымянный_градиент_8-52);}.cls-70{fill:url(#Безымянный_градиент_8-53);}.cls-71{fill:url(#Безымянный_градиент_8-54);}.cls-72{fill:url(#Безымянный_градиент_8-55);}.cls-73{fill:url(#Безымянный_градиент_8-56);}.cls-74{fill:url(#Безымянный_градиент_8-57);}.cls-75{fill:url(#Безымянный_градиент_8-58);}.cls-76{fill:url(#Безымянный_градиент_8-59);}.cls-77{fill:#efefef;}.cls-78{fill:#c3c4c9;}.cls-79{fill:url(#linear-gradient-6);}.cls-80{fill:url(#linear-gradient-7);}.cls-81{fill:#00376a;}.cls-82{fill:#135ba3;}.cls-83{fill:#2061af;}.cls-84{fill:#f6dbab;}.cls-85{fill:#e8f5fe;}.cls-86{fill:#396a97;}.cls-87{fill:#244c8a;}.cls-88{fill:#ebca95;}.cls-89{fill:url(#linear-gradient-8);}.cls-90{fill:url(#linear-gradient-9);}.cls-91{fill:#dedffb;}.cls-92{fill:#f4f3fb;}.cls-93{fill:#f4f4fc;}.cls-94,.cls-96,.cls-97,.cls-98,.cls-99{opacity:0.5;}.cls-94{fill:url(#Безымянный_градиент_8-60);}.cls-95{clip-path:url(#clip-path-2);}.cls-96{fill:url(#Безымянный_градиент_8-61);}.cls-97{fill:url(#Безымянный_градиент_8-62);}.cls-98{fill:url(#Безымянный_градиент_8-63);}.cls-99{fill:url(#Безымянный_градиент_8-64);}</style><linearGradient id="linear-gradient" x1="6.11" y1="85.78" x2="125.82" y2="85.78" gradientUnits="userSpaceOnUse"><stop offset="0" stop-color="#f4f3fb"/><stop offset="1" stop-color="#dedffb"/></linearGradient><linearGradient id="linear-gradient-2" x1="0" y1="148.87" x2="69.28" y2="148.87" xlink:href="#linear-gradient"/><linearGradient id="linear-gradient-3" x1="22.44" y1="192.96" x2="68.31" y2="192.96" xlink:href="#linear-gradient"/><linearGradient id="linear-gradient-4" x1="125.05" y1="86.36" x2="103.68" y2="86.36" gradientTransform="translate(133.11 -55.72) rotate(60.46)" xlink:href="#linear-gradient"/><linearGradient id="linear-gradient-5" x1="13.75" y1="16.83" x2="70.85" y2="16.83" gradientUnits="userSpaceOnUse"><stop offset="0" stop-color="#f4f3fb"/><stop offset="0.42" stop-color="#f4f3fb"/><stop offset="0.55" stop-color="#dfe2fb"/><stop offset="1" stop-color="#dedffb"/></linearGradient><clipPath id="clip-path"><polygon class="cls-1" points="52.59 51.9 68.37 43 68.37 64.43 52.59 73.52 52.59 51.9"/></clipPath><linearGradient id="Безымянный_градиент_8" x1="52.01" y1="57.97" x2="67.8" y2="57.97" gradientUnits="userSpaceOnUse"><stop offset="0" stop-color="#0fce64"/><stop offset="1" stop-color="#0fab64"/></linearGradient><linearGradient id="Безымянный_градиент_8-2" x1="144.86" y1="59.14" x2="225.34" y2="59.14" xlink:href="#Безымянный_градиент_8"/><linearGradient id="Безымянный_градиент_8-3" x1="143.46" y1="59.73" x2="224.18" y2="59.73" xlink:href="#Безымянный_градиент_8"/><linearGradient id="Безымянный_градиент_8-4" x1="148.58" y1="19.87" x2="168.72" y2="19.87" xlink:href="#Безымянный_градиент_8"/><linearGradient id="Безымянный_градиент_8-5" x1="170.22" y1="40.55" x2="218.23" y2="40.55" xlink:href="#Безымянный_градиент_8"/><linearGradient id="Безымянный_градиент_8-6" x1="157.94" y1="29.58" x2="159.28" y2="29.58" xlink:href="#Безымянный_градиент_8"/><linearGradient id="Безымянный_градиент_8-7" x1="148.39" y1="25.68" x2="155.1" y2="25.68" xlink:href="#Безымянный_градиент_8"/><linearGradient id="Безымянный_градиент_8-8" x1="160.09" y1="36.8" x2="161.44" y2="36.8" xlink:href="#Безымянный_градиент_8"/><linearGradient id="Безымянный_градиент_8-9" x1="148.39" y1="28.68" x2="155.1" y2="28.68" xlink:href="#Безымянный_градиент_8"/><linearGradient id="Безымянный_градиент_8-10" x1="157.94" y1="35.59" x2="159.28" y2="35.59" xlink:href="#Безымянный_градиент_8"/><linearGradient id="Безымянный_градиент_8-11" x1="148.39" y1="31.68" x2="155.1" y2="31.68" xlink:href="#Безымянный_градиент_8"/><linearGradient id="Безымянный_градиент_8-12" x1="179.77" y1="40.96" x2="181.11" y2="40.96" xlink:href="#Безымянный_градиент_8"/><linearGradient id="Безымянный_градиент_8-13" x1="170.22" y1="37.06" x2="176.93" y2="37.06" xlink:href="#Безымянный_градиент_8"/><linearGradient id="Безымянный_градиент_8-14" x1="181.92" y1="48.18" x2="183.27" y2="48.18" xlink:href="#Безымянный_градиент_8"/><linearGradient id="Безымянный_градиент_8-15" x1="170.22" y1="40.06" x2="176.93" y2="40.06" xlink:href="#Безымянный_градиент_8"/><linearGradient id="Безымянный_градиент_8-16" x1="179.77" y1="46.97" x2="181.11" y2="46.97" xlink:href="#Безымянный_градиент_8"/><linearGradient id="Безымянный_градиент_8-17" x1="170.22" y1="43.07" x2="176.93" y2="43.07" xlink:href="#Безымянный_градиент_8"/><linearGradient id="Безымянный_градиент_8-18" x1="203.77" y1="53.29" x2="205.12" y2="53.29" xlink:href="#Безымянный_градиент_8"/><linearGradient id="Безымянный_градиент_8-19" x1="194.23" y1="49.38" x2="200.93" y2="49.38" xlink:href="#Безымянный_градиент_8"/><linearGradient id="Безымянный_градиент_8-20" x1="205.93" y1="60.5" x2="207.27" y2="60.5" xlink:href="#Безымянный_градиент_8"/><linearGradient id="Безымянный_градиент_8-21" x1="194.23" y1="52.39" x2="200.93" y2="52.39" xlink:href="#Безымянный_градиент_8"/><linearGradient id="Безымянный_градиент_8-22" x1="203.77" y1="59.29" x2="205.12" y2="59.29" xlink:href="#Безымянный_градиент_8"/><linearGradient id="Безымянный_градиент_8-23" x1="194.23" y1="55.39" x2="200.93" y2="55.39" xlink:href="#Безымянный_градиент_8"/><linearGradient id="Безымянный_градиент_8-24" x1="157.94" y1="46.88" x2="159.28" y2="46.88" xlink:href="#Безымянный_градиент_8"/><linearGradient id="Безымянный_градиент_8-25" x1="148.39" y1="42.98" x2="155.1" y2="42.98" xlink:href="#Безымянный_градиент_8"/><linearGradient id="Безымянный_градиент_8-26" x1="160.09" y1="54.1" x2="161.44" y2="54.1" xlink:href="#Безымянный_градиент_8"/><linearGradient id="Безымянный_градиент_8-27" x1="148.39" y1="45.98" x2="155.1" y2="45.98" xlink:href="#Безымянный_градиент_8"/><linearGradient id="Безымянный_градиент_8-28" x1="157.94" y1="52.89" x2="159.28" y2="52.89" xlink:href="#Безымянный_градиент_8"/><linearGradient id="Безымянный_градиент_8-29" x1="148.39" y1="48.98" x2="155.1" y2="48.98" xlink:href="#Безымянный_градиент_8"/><linearGradient id="Безымянный_градиент_8-30" x1="179.77" y1="58.26" x2="181.11" y2="58.26" xlink:href="#Безымянный_градиент_8"/><linearGradient id="Безымянный_градиент_8-31" x1="170.22" y1="54.36" x2="176.93" y2="54.36" xlink:href="#Безымянный_градиент_8"/><linearGradient id="Безымянный_градиент_8-32" x1="181.92" y1="65.48" x2="183.27" y2="65.48" xlink:href="#Безымянный_градиент_8"/><linearGradient id="Безымянный_градиент_8-33" x1="170.22" y1="57.36" x2="176.93" y2="57.36" xlink:href="#Безымянный_градиент_8"/><linearGradient id="Безымянный_градиент_8-34" x1="179.77" y1="64.27" x2="181.11" y2="64.27" xlink:href="#Безымянный_градиент_8"/><linearGradient id="Безымянный_градиент_8-35" x1="170.22" y1="60.37" x2="176.93" y2="60.37" xlink:href="#Безымянный_градиент_8"/><linearGradient id="Безымянный_градиент_8-36" x1="203.77" y1="70.59" x2="205.12" y2="70.59" xlink:href="#Безымянный_градиент_8"/><linearGradient id="Безымянный_градиент_8-37" x1="194.23" y1="66.68" x2="200.93" y2="66.68" xlink:href="#Безымянный_градиент_8"/><linearGradient id="Безымянный_градиент_8-38" x1="205.93" y1="77.8" x2="207.27" y2="77.8" xlink:href="#Безымянный_градиент_8"/><linearGradient id="Безымянный_градиент_8-39" x1="194.23" y1="69.69" x2="200.93" y2="69.69" xlink:href="#Безымянный_градиент_8"/><linearGradient id="Безымянный_градиент_8-40" x1="203.77" y1="76.59" x2="205.12" y2="76.59" xlink:href="#Безымянный_градиент_8"/><linearGradient id="Безымянный_градиент_8-41" x1="194.23" y1="72.69" x2="200.93" y2="72.69" xlink:href="#Безымянный_градиент_8"/><linearGradient id="Безымянный_градиент_8-42" x1="157.94" y1="63.22" x2="159.28" y2="63.22" xlink:href="#Безымянный_градиент_8"/><linearGradient id="Безымянный_градиент_8-43" x1="148.39" y1="59.32" x2="155.1" y2="59.32" xlink:href="#Безымянный_градиент_8"/><linearGradient id="Безымянный_градиент_8-44" x1="160.09" y1="70.44" x2="161.44" y2="70.44" xlink:href="#Безымянный_градиент_8"/><linearGradient id="Безымянный_градиент_8-45" x1="148.39" y1="62.32" x2="155.1" y2="62.32" xlink:href="#Безымянный_градиент_8"/><linearGradient id="Безымянный_градиент_8-46" x1="157.94" y1="69.23" x2="159.28" y2="69.23" xlink:href="#Безымянный_градиент_8"/><linearGradient id="Безымянный_градиент_8-47" x1="148.39" y1="65.32" x2="155.1" y2="65.32" xlink:href="#Безымянный_градиент_8"/><linearGradient id="Безымянный_градиент_8-48" x1="179.77" y1="74.6" x2="181.11" y2="74.6" xlink:href="#Безымянный_градиент_8"/><linearGradient id="Безымянный_градиент_8-49" x1="170.22" y1="70.7" x2="176.93" y2="70.7" xlink:href="#Безымянный_градиент_8"/><linearGradient id="Безымянный_градиент_8-50" x1="181.92" y1="81.82" x2="183.27" y2="81.82" xlink:href="#Безымянный_градиент_8"/><linearGradient id="Безымянный_градиент_8-51" x1="170.22" y1="73.7" x2="176.93" y2="73.7" xlink:href="#Безымянный_градиент_8"/><linearGradient id="Безымянный_градиент_8-52" x1="179.77" y1="80.61" x2="181.11" y2="80.61" xlink:href="#Безымянный_градиент_8"/><linearGradient id="Безымянный_градиент_8-53" x1="170.22" y1="76.71" x2="176.93" y2="76.71" xlink:href="#Безымянный_градиент_8"/><linearGradient id="Безымянный_градиент_8-54" x1="203.77" y1="86.93" x2="205.12" y2="86.93" xlink:href="#Безымянный_градиент_8"/><linearGradient id="Безымянный_градиент_8-55" x1="194.23" y1="83.02" x2="200.93" y2="83.02" xlink:href="#Безымянный_градиент_8"/><linearGradient id="Безымянный_градиент_8-56" x1="205.93" y1="94.14" x2="207.27" y2="94.14" xlink:href="#Безымянный_градиент_8"/><linearGradient id="Безымянный_градиент_8-57" x1="194.23" y1="86.03" x2="200.93" y2="86.03" xlink:href="#Безымянный_градиент_8"/><linearGradient id="Безымянный_градиент_8-58" x1="203.77" y1="92.93" x2="205.12" y2="92.93" xlink:href="#Безымянный_градиент_8"/><linearGradient id="Безымянный_градиент_8-59" x1="194.23" y1="89.03" x2="200.93" y2="89.03" xlink:href="#Безымянный_градиент_8"/><linearGradient id="linear-gradient-6" x1="111.92" y1="162.24" x2="143.3" y2="162.24" gradientUnits="userSpaceOnUse"><stop offset="0" stop-color="#f5f7f6"/><stop offset="1" stop-color="#d9d9d9"/></linearGradient><linearGradient id="linear-gradient-7" x1="75.47" y1="148.71" x2="103.15" y2="148.71" xlink:href="#linear-gradient-6"/><linearGradient id="linear-gradient-8" x1="89.91" y1="96.61" x2="92.82" y2="101.65" gradientTransform="matrix(-1, 0, 0, 1, 274.13, 0)" gradientUnits="userSpaceOnUse"><stop offset="0" stop-color="#fff" stop-opacity="0"/><stop offset="1" stop-color="#0fce64" stop-opacity="0.7"/></linearGradient><linearGradient id="linear-gradient-9" x1="84.74" y1="47.65" x2="125.74" y2="47.65" xlink:href="#linear-gradient-5"/><linearGradient id="Безымянный_градиент_8-60" x1="92.6" y1="35.09" x2="118.64" y2="35.09" xlink:href="#Безымянный_градиент_8"/><clipPath id="clip-path-2"><polygon class="cls-1" points="105.68 38.3 118.64 45.82 105.62 53.1 92.6 45.82 105.68 38.3"/></clipPath><linearGradient id="Безымянный_градиент_8-61" x1="92.6" y1="47.66" x2="118.64" y2="47.66" xlink:href="#Безымянный_градиент_8"/><linearGradient id="Безымянный_градиент_8-62" x1="92.6" y1="45.7" x2="118.64" y2="45.7" xlink:href="#Безымянный_градиент_8"/><linearGradient id="Безымянный_градиент_8-63" x1="105.62" y1="44.14" x2="118.64" y2="44.14" xlink:href="#Безымянный_градиент_8"/><linearGradient id="Безымянный_градиент_8-64" x1="92.6" y1="44.23" x2="105.62" y2="44.23" xlink:href="#Безымянный_градиент_8"/></defs><title>broker-model</title><polygon class="cls-2" points="45.82 115.31 45.56 115.15 6.11 90.9 24 79.75 24.53 80.6 8.01 90.89 45.83 114.14 123.8 68.14 103.81 57.13 104.29 56.25 125.81 68.11 45.82 115.31"/><polygon class="cls-3" points="61.38 183.44 60.89 182.57 67.25 178.96 0 140.74 45.57 114.3 46.08 115.16 2.01 140.73 69.28 178.96 61.38 183.44"/><path class="cls-4" d="M45.38,207.46c-12.65,0-22.93-6.5-22.93-14.5s10.29-14.5,22.93-14.5S68.31,185,68.31,193,58,207.46,45.38,207.46Zm0-28c-12.09,0-21.93,6.06-21.93,13.5s9.84,13.5,21.93,13.5,21.93-6.06,21.93-13.5S57.47,179.46,45.38,179.46Z"/><ellipse class="cls-5" cx="45.83" cy="192.3" rx="12.47" ry="7.78"/><ellipse class="cls-6" cx="45.83" cy="192.3" rx="6.24" ry="3.89"/><rect class="cls-7" x="113.87" y="74.36" width="1" height="24" transform="translate(-17.15 143.28) rotate(-60.46)"/><path class="cls-8" d="M48.65,33.86L48.19,96.28a1.21,1.21,0,0,0,.34.86,1.92,1.92,0,0,1,.61.35A1.21,1.21,0,0,0,50,97.36L69.76,85.87A2.2,2.2,0,0,0,70.85,84V21Z"/><path class="cls-9" d="M12.79,13.76c-0.09,2.41.75,1.68,1.68,1.68a1.68,1.68,0,0,0,1.68-1.68c0-.93-1-2.28-1.68-1.89S12.79,12.84,12.79,13.76Z"/><path class="cls-10" d="M14.24,13.69l34.9,19.85a1,1,0,0,0,1,0L70.37,21.83a1,1,0,0,0,0-1.67l-34.9-20a1,1,0,0,0-1,0L14.23,12A1,1,0,0,0,14.24,13.69Z"/><path class="cls-11" d="M49.14,97.49L13.33,77.14a1.08,1.08,0,0,1-.55-0.94V14.59a1.08,1.08,0,0,1,1.62-.94L49.07,33.37a1.08,1.08,0,0,1,.55.95Z"/><polygon class="cls-12" points="17.09 11.43 48.86 29.6 67.32 19.18 35.27 0.71 17.09 11.43"/><g class="cls-13"><polygon class="cls-14" points="52.59 51.9 68.37 43 68.37 64.43 52.59 73.52 52.59 51.9"/><polygon class="cls-15" points="52.01 51.61 67.8 42.71 67.8 64.14 52.01 73.23 52.01 51.61"/></g><polygon class="cls-6" points="59.02 52.47 59.02 55.94 59.95 55.33 59.95 52.03 59.02 52.47"/><polygon class="cls-6" points="59.02 56.41 59.02 57.77 59.95 57.17 59.95 55.84 59.02 56.41"/><polygon class="cls-6" points="61.14 51.55 61.14 55.02 62.07 54.41 62.07 51.11 61.14 51.55"/><polygon class="cls-6" points="61.14 55.49 61.14 56.85 62.07 56.28 62.07 54.86 61.14 55.49"/><polygon class="cls-6" points="59.02 58.17 59.02 59.54 59.95 58.95 59.95 57.54 59.02 58.17"/><polygon class="cls-6" points="61.14 57.26 61.14 58.62 62.07 58.05 62.07 56.69 61.14 57.26"/><polygon class="cls-6" points="61.14 59 61.14 60.36 62.07 59.79 62.07 58.43 61.14 59"/><polygon class="cls-6" points="61.14 62.09 61.14 63.45 62.07 62.88 62.07 61.52 61.14 62.09"/><polygon class="cls-6" points="61.14 63.86 61.14 65.22 62.07 64.65 62.07 63.29 61.14 63.86"/><path class="cls-16" d="M52.59,73.81L61.85,79a0.52,0.52,0,0,0,.51,0l14.81-8.38a0.52,0.52,0,0,0,0-.9l-8.8-5Z"/><polygon class="cls-16" points="52.59 73.81 52.59 73.52 52.89 73.69 52.81 73.94 52.59 73.81"/><path class="cls-8" d="M52.59,73.52l9.26,5.24a0.52,0.52,0,0,0,.51,0l14.81-8.38a0.52,0.52,0,0,0,0-.9l-8.8-5Z"/><polygon class="cls-6" points="55.08 72.53 59.7 75.23 71.67 68.32 66.97 65.6 55.08 72.53"/><path class="cls-16" d="M57.09,72.86l-0.61.35a0.16,0.16,0,0,1-.14,0l-0.58-.34s0-.06,0-0.08l0.61-.35a0.16,0.16,0,0,1,.14,0l0.58,0.34S57.13,72.83,57.09,72.86Z"/><path class="cls-16" d="M57.91,72.38l-0.61.35a0.16,0.16,0,0,1-.14,0l-0.58-.34s0-.06,0-0.08L57.17,72a0.16,0.16,0,0,1,.14,0L57.9,72.3S57.95,72.36,57.91,72.38Z"/><path class="cls-16" d="M58.73,71.91l-0.61.35a0.16,0.16,0,0,1-.14,0l-0.58-.34s0-.06,0-0.08L58,71.48a0.16,0.16,0,0,1,.14,0l0.58,0.34S58.77,71.89,58.73,71.91Z"/><path class="cls-16" d="M59.55,71.43l-0.61.35a0.16,0.16,0,0,1-.14,0l-0.58-.34s0-.06,0-0.08L58.82,71A0.16,0.16,0,0,1,59,71l0.58,0.34S59.59,71.41,59.55,71.43Z"/><path class="cls-16" d="M60.37,71l-0.61.35a0.16,0.16,0,0,1-.14,0L59,71s0-.06,0-0.08l0.61-.35a0.16,0.16,0,0,1,.14,0l0.58,0.34S60.41,70.94,60.37,71Z"/><path class="cls-16" d="M61.2,70.48l-0.61.35a0.16,0.16,0,0,1-.14,0l-0.58-.34s0-.06,0-0.08l0.61-.35a0.16,0.16,0,0,1,.14,0l0.58,0.34S61.23,70.46,61.2,70.48Z"/><path class="cls-16" d="M62,70l-0.61.35a0.16,0.16,0,0,1-.14,0L60.68,70s0-.06,0-0.08l0.61-.35a0.16,0.16,0,0,1,.14,0L62,69.93S62.05,70,62,70Z"/><path class="cls-16" d="M62.84,69.54l-0.61.35a0.16,0.16,0,0,1-.14,0l-0.58-.34s0-.06,0-0.08l0.61-.35a0.16,0.16,0,0,1,.14,0l0.58,0.34S62.88,69.51,62.84,69.54Z"/><path class="cls-16" d="M63.66,69.06l-0.61.35a0.16,0.16,0,0,1-.14,0l-0.58-.34s0-.06,0-0.08l0.61-.35a0.16,0.16,0,0,1,.14,0L63.65,69S63.7,69,63.66,69.06Z"/><path class="cls-16" d="M64.48,68.59l-0.61.35a0.16,0.16,0,0,1-.14,0l-0.58-.34s0-.06,0-0.08l0.61-.35a0.16,0.16,0,0,1,.14,0l0.58,0.34S64.52,68.57,64.48,68.59Z"/><path class="cls-16" d="M65.3,68.11l-0.61.35a0.16,0.16,0,0,1-.14,0L64,68.12s0-.06,0-0.08l0.61-.35a0.16,0.16,0,0,1,.14,0L65.29,68S65.34,68.09,65.3,68.11Z"/><path class="cls-16" d="M66.12,67.64L65.52,68a0.16,0.16,0,0,1-.14,0l-0.58-.34s0-.06,0-0.08l0.61-.35a0.16,0.16,0,0,1,.14,0l0.58,0.34S66.16,67.62,66.12,67.64Z"/><path class="cls-16" d="M66.95,67.16l-0.61.35a0.16,0.16,0,0,1-.14,0l-0.58-.34s0-.06,0-0.08l0.61-.35a0.16,0.16,0,0,1,.14,0l0.58,0.34S67,67.14,66.95,67.16Z"/><path class="cls-16" d="M68.14,66.48l-1,.56A0.16,0.16,0,0,1,67,67l-0.58-.34s0-.06,0-0.08l1-.56a0.16,0.16,0,0,1,.14,0l0.58,0.34S68.18,66.45,68.14,66.48Z"/><path class="cls-16" d="M67.61,66.87l0.61-.35a0.16,0.16,0,0,1,.14,0l0.58,0.34s0,0.06,0,.08l-0.61.35a0.16,0.16,0,0,1-.14,0L67.62,67S67.57,66.89,67.61,66.87Z"/><path class="cls-16" d="M66.79,67.35L67.4,67a0.16,0.16,0,0,1,.14,0l0.58,0.34s0,0.06,0,.08l-0.61.35a0.16,0.16,0,0,1-.14,0l-0.58-.34S66.75,67.37,66.79,67.35Z"/><path class="cls-16" d="M66,67.82l0.61-.35a0.16,0.16,0,0,1,.14,0l0.58,0.34s0,0.06,0,.08l-0.61.35a0.16,0.16,0,0,1-.14,0L66,67.9S65.93,67.84,66,67.82Z"/><path class="cls-16" d="M65.15,68.29l0.61-.35a0.16,0.16,0,0,1,.14,0l0.58,0.34s0,0.06,0,.08l-0.61.35a0.16,0.16,0,0,1-.14,0l-0.58-.34S65.11,68.32,65.15,68.29Z"/><path class="cls-16" d="M64.33,68.77l0.61-.35a0.16,0.16,0,0,1,.14,0l0.58,0.34s0,0.06,0,.08l-0.61.35a0.16,0.16,0,0,1-.14,0l-0.58-.34S64.29,68.79,64.33,68.77Z"/><path class="cls-16" d="M63.5,69.24l0.61-.35a0.16,0.16,0,0,1,.14,0l0.58,0.34s0,0.06,0,.08l-0.61.35a0.16,0.16,0,0,1-.14,0l-0.58-.34S63.47,69.26,63.5,69.24Z"/><path class="cls-16" d="M62.68,69.72l0.61-.35a0.16,0.16,0,0,1,.14,0L64,69.71s0,0.06,0,.08l-0.61.35a0.16,0.16,0,0,1-.14,0l-0.58-.34S62.65,69.74,62.68,69.72Z"/><path class="cls-16" d="M61.86,70.19l0.61-.35a0.16,0.16,0,0,1,.14,0l0.58,0.34s0,0.06,0,.08l-0.61.35a0.16,0.16,0,0,1-.14,0l-0.58-.34S61.82,70.21,61.86,70.19Z"/><path class="cls-16" d="M61,70.67l0.61-.35a0.16,0.16,0,0,1,.14,0l0.58,0.34s0,0.06,0,.08l-0.61.35a0.16,0.16,0,0,1-.14,0L61,70.75S61,70.69,61,70.67Z"/><path class="cls-16" d="M60.22,71.14l0.61-.35a0.16,0.16,0,0,1,.14,0l0.58,0.34s0,0.06,0,.08L61,71.57a0.16,0.16,0,0,1-.14,0l-0.58-.34S60.18,71.16,60.22,71.14Z"/><path class="cls-16" d="M59.4,71.61L60,71.26a0.16,0.16,0,0,1,.14,0l0.58,0.34s0,0.06,0,.08L60.13,72A0.16,0.16,0,0,1,60,72l-0.58-.34S59.36,71.64,59.4,71.61Z"/><path class="cls-16" d="M58.57,72.09l0.61-.35a0.16,0.16,0,0,1,.14,0l0.58,0.34s0,0.06,0,.08l-0.61.35a0.16,0.16,0,0,1-.14,0l-0.58-.34S58.54,72.11,58.57,72.09Z"/><path class="cls-16" d="M57.75,72.56l0.61-.35a0.16,0.16,0,0,1,.14,0l0.58,0.34s0,0.06,0,.08L58.49,73a0.16,0.16,0,0,1-.14,0l-0.58-.34S57.72,72.58,57.75,72.56Z"/><path class="cls-16" d="M56.56,73.25l1-.56a0.16,0.16,0,0,1,.14,0L58.27,73s0,0.06,0,.08l-1,.56a0.16,0.16,0,0,1-.14,0l-0.58-.34S56.52,73.27,56.56,73.25Z"/><path class="cls-16" d="M67.83,67.69L69,67a0.16,0.16,0,0,1,.14,0l0.58,0.34s0,0.06,0,.08l-1.2.69a0.16,0.16,0,0,1-.14,0l-0.58-.34S67.8,67.71,67.83,67.69Z"/><path class="cls-16" d="M57.38,73.72l1.2-.69a0.16,0.16,0,0,1,.14,0l0.58,0.34s0,0.06,0,.08l-1.2.69a0.16,0.16,0,0,1-.14,0l-0.58-.34S57.35,73.74,57.38,73.72Z"/><path class="cls-16" d="M67,68.16l0.61-.35a0.16,0.16,0,0,1,.14,0l0.58,0.34s0,0.06,0,.08l-0.61.35a0.16,0.16,0,0,1-.14,0L67,68.24S67,68.18,67,68.16Z"/><path class="cls-16" d="M66.19,68.63l0.61-.35a0.16,0.16,0,0,1,.14,0l0.58,0.34s0,0.06,0,.08l-0.61.35a0.16,0.16,0,0,1-.14,0l-0.58-.34S66.15,68.66,66.19,68.63Z"/><path class="cls-16" d="M65.37,69.11L66,68.76a0.16,0.16,0,0,1,.14,0L66.7,69.1s0,0.06,0,.08l-0.61.35a0.16,0.16,0,0,1-.14,0l-0.58-.34S65.33,69.13,65.37,69.11Z"/><path class="cls-16" d="M64.55,69.58l0.61-.35a0.16,0.16,0,0,1,.14,0l0.58,0.34s0,0.06,0,.08L65.29,70a0.16,0.16,0,0,1-.14,0l-0.58-.34S64.51,69.6,64.55,69.58Z"/><path class="cls-16" d="M63.73,70.06l0.61-.35a0.16,0.16,0,0,1,.14,0L65.06,70s0,0.06,0,.08l-0.61.35a0.16,0.16,0,0,1-.14,0l-0.58-.34S63.69,70.08,63.73,70.06Z"/><path class="cls-16" d="M62.91,70.53l0.61-.35a0.16,0.16,0,0,1,.14,0l0.58,0.34s0,0.06,0,.08L63.64,71a0.16,0.16,0,0,1-.14,0l-0.58-.34S62.87,70.55,62.91,70.53Z"/><path class="cls-16" d="M62.08,71l0.61-.35a0.16,0.16,0,0,1,.14,0L63.42,71s0,0.06,0,.08l-0.61.35a0.16,0.16,0,0,1-.14,0l-0.58-.34S62,71,62.08,71Z"/><path class="cls-16" d="M61.26,71.48l0.61-.35a0.16,0.16,0,0,1,.14,0l0.58,0.34s0,0.06,0,.08L62,71.91a0.16,0.16,0,0,1-.14,0l-0.58-.34S61.23,71.5,61.26,71.48Z"/><path class="cls-16" d="M60.44,72L61,71.6a0.16,0.16,0,0,1,.14,0l0.58,0.34s0,0.06,0,.08l-0.61.35a0.16,0.16,0,0,1-.14,0L60.45,72S60.4,72,60.44,72Z"/><path class="cls-16" d="M59.62,72.43l0.61-.35a0.16,0.16,0,0,1,.14,0L61,72.42s0,0.06,0,.08l-0.61.35a0.16,0.16,0,0,1-.14,0l-0.58-.34S59.58,72.45,59.62,72.43Z"/><path class="cls-16" d="M58.8,72.9l0.61-.35a0.16,0.16,0,0,1,.14,0l0.58,0.34s0,0.06,0,.08l-0.61.35a0.16,0.16,0,0,1-.14,0L58.81,73S58.76,72.92,58.8,72.9Z"/><path class="cls-16" d="M68.24,68.39l1.61-.93a0.16,0.16,0,0,1,.14,0l0.58,0.34s0,0.06,0,.08L69,68.82a0.16,0.16,0,0,1-.14,0l-0.58-.34S68.21,68.41,68.24,68.39Z"/><path class="cls-16" d="M67.42,68.87L68,68.52a0.16,0.16,0,0,1,.14,0l0.58,0.34s0,0.06,0,.08l-0.61.35a0.16,0.16,0,0,1-.14,0l-0.58-.34S67.38,68.89,67.42,68.87Z"/><path class="cls-16" d="M66.6,69.34L67.21,69a0.16,0.16,0,0,1,.14,0l0.58,0.34s0,0.06,0,.08l-0.61.35a0.16,0.16,0,0,1-.14,0l-0.58-.34S66.56,69.36,66.6,69.34Z"/><path class="cls-16" d="M65.78,69.81l0.61-.35a0.16,0.16,0,0,1,.14,0l0.58,0.34s0,0.06,0,.08l-0.61.35a0.16,0.16,0,0,1-.14,0l-0.58-.34S65.74,69.84,65.78,69.81Z"/><path class="cls-16" d="M65,70.29l0.61-.35a0.16,0.16,0,0,1,.14,0l0.58,0.34s0,0.06,0,.08l-0.61.35a0.16,0.16,0,0,1-.14,0L65,70.37S64.92,70.31,65,70.29Z"/><path class="cls-16" d="M64.14,70.76l0.61-.35a0.16,0.16,0,0,1,.14,0l0.58,0.34s0,0.06,0,.08l-0.61.35a0.16,0.16,0,0,1-.14,0l-0.58-.34S64.1,70.78,64.14,70.76Z"/><path class="cls-16" d="M63.31,71.24l0.61-.35a0.16,0.16,0,0,1,.14,0l0.58,0.34s0,0.06,0,.08l-0.61.35a0.16,0.16,0,0,1-.14,0l-0.58-.34S63.28,71.26,63.31,71.24Z"/><path class="cls-16" d="M62.49,71.71l0.61-.35a0.16,0.16,0,0,1,.14,0l0.58,0.34s0,0.06,0,.08l-0.61.35a0.16,0.16,0,0,1-.14,0L62.5,71.8S62.46,71.73,62.49,71.71Z"/><path class="cls-16" d="M61.67,72.19l0.61-.35a0.16,0.16,0,0,1,.14,0L63,72.18s0,0.06,0,.08l-0.61.35a0.16,0.16,0,0,1-.14,0l-0.58-.34S61.63,72.21,61.67,72.19Z"/><path class="cls-16" d="M60.85,72.66l0.61-.35a0.16,0.16,0,0,1,.14,0l0.58,0.34s0,0.06,0,.08l-0.61.35a0.16,0.16,0,0,1-.14,0l-0.58-.34S60.81,72.68,60.85,72.66Z"/><path class="cls-16" d="M60,73.13l0.61-.35a0.16,0.16,0,0,1,.14,0l0.58,0.34s0,0.06,0,.08l-0.61.35a0.16,0.16,0,0,1-.14,0L60,73.22S60,73.16,60,73.13Z"/><path class="cls-16" d="M58.2,74.19l1.61-.93a0.16,0.16,0,0,1,.14,0l0.58,0.34s0,0.06,0,.08l-1.61.93a0.16,0.16,0,0,1-.14,0l-0.58-.34S58.16,74.21,58.2,74.19Z"/><path class="cls-16" d="M62.49,72.66l3.89-2.25a0.16,0.16,0,0,1,.14,0l0.58,0.34s0,0.06,0,.08l-3.89,2.25a0.16,0.16,0,0,1-.14,0l-0.58-.34S62.45,72.68,62.49,72.66Z"/><path class="cls-16" d="M67.6,69.71l0.61-.35a0.16,0.16,0,0,1,.14,0l0.58,0.34s0,0.06,0,.08l-0.61.35a0.16,0.16,0,0,1-.14,0l-0.58-.34S67.56,69.73,67.6,69.71Z"/><path class="cls-16" d="M66.6,70.29l0.79-.45a0.16,0.16,0,0,1,.14,0l0.58,0.34s0,0.06,0,.08l-0.79.45a0.16,0.16,0,0,1-.14,0l-0.58-.34S66.56,70.31,66.6,70.29Z"/><path class="cls-16" d="M61.27,73.36l-0.61.35s0,0.06,0,.08l0.58,0.34a0.16,0.16,0,0,0,.14,0L62,73.78s0-.06,0-0.08l-0.58-.34A0.16,0.16,0,0,0,61.27,73.36Z"/><path class="cls-16" d="M62.27,72.78l-0.79.45s0,0.06,0,.08l0.58,0.34a0.16,0.16,0,0,0,.14,0L63,73.21s0-.06,0-0.08l-0.58-.34A0.16,0.16,0,0,0,62.27,72.78Z"/><path class="cls-16" d="M70.06,68.29l0.61-.35a0.16,0.16,0,0,1,.14,0l0.58,0.34s0,0.06,0,.08l-0.61.35a0.16,0.16,0,0,1-.14,0l-0.58-.34S70,68.31,70.06,68.29Z"/><path class="cls-16" d="M69.24,68.76l0.61-.35a0.16,0.16,0,0,1,.14,0l0.58,0.34s0,0.06,0,.08L70,69.19a0.16,0.16,0,0,1-.14,0l-0.58-.34S69.2,68.78,69.24,68.76Z"/><path class="cls-16" d="M68.42,69.23L69,68.88a0.16,0.16,0,0,1,.14,0l0.58,0.34s0,0.06,0,.08l-0.61.35a0.16,0.16,0,0,1-.14,0l-0.58-.34S68.38,69.26,68.42,69.23Z"/><path class="cls-16" d="M59,74.66l1.43-.83a0.16,0.16,0,0,1,.14,0l0.58,0.34s0,0.06,0,.08l-1.43.83a0.16,0.16,0,0,1-.14,0L59,74.75S59,74.68,59,74.66Z"/><path class="cls-16" d="M56.27,72.38l-0.61.35a0.16,0.16,0,0,1-.14,0l-0.29-.17s0-.06,0-0.08l0.61-.35a0.16,0.16,0,0,1,.14,0l0.29,0.17S56.31,72.36,56.27,72.38Z"/><path class="cls-16" d="M57.09,71.91l-0.61.35a0.16,0.16,0,0,1-.14,0l-0.29-.17S56,72,56,72l0.61-.35a0.16,0.16,0,0,1,.14,0l0.29,0.17S57.13,71.89,57.09,71.91Z"/><path class="cls-16" d="M57.92,71.44l-0.61.35a0.16,0.16,0,0,1-.14,0l-0.29-.17s0-.06,0-0.08l0.61-.35a0.16,0.16,0,0,1,.14,0l0.29,0.17S58,71.41,57.92,71.44Z"/><path class="cls-16" d="M58.74,71l-0.61.35a0.16,0.16,0,0,1-.14,0l-0.29-.17s0-.06,0-0.08l0.61-.35a0.16,0.16,0,0,1,.14,0l0.29,0.17S58.77,70.94,58.74,71Z"/><path class="cls-16" d="M59.56,70.49L59,70.84a0.16,0.16,0,0,1-.14,0l-0.29-.17s0-.06,0-0.08l0.61-.35a0.16,0.16,0,0,1,.14,0l0.29,0.17S59.6,70.47,59.56,70.49Z"/><path class="cls-16" d="M60.38,70l-0.61.35a0.16,0.16,0,0,1-.14,0l-0.29-.17s0-.06,0-0.08l0.61-.35a0.16,0.16,0,0,1,.14,0l0.29,0.17S60.42,70,60.38,70Z"/><path class="cls-16" d="M61.2,69.54l-0.61.35a0.16,0.16,0,0,1-.14,0l-0.29-.17s0-.06,0-0.08l0.61-.35a0.16,0.16,0,0,1,.14,0l0.29,0.17S61.24,69.52,61.2,69.54Z"/><path class="cls-16" d="M62,69.06l-0.61.35a0.16,0.16,0,0,1-.14,0L61,69.24s0-.06,0-0.08l0.61-.35a0.16,0.16,0,0,1,.14,0L62,69S62.06,69,62,69.06Z"/><path class="cls-16" d="M62.84,68.59l-0.61.35a0.16,0.16,0,0,1-.14,0l-0.29-.17s0-.06,0-0.08l0.61-.35a0.16,0.16,0,0,1,.14,0l0.29,0.17S62.88,68.57,62.84,68.59Z"/><path class="cls-16" d="M63.67,68.12l-0.61.35a0.16,0.16,0,0,1-.14,0l-0.29-.17s0-.06,0-0.08l0.61-.35a0.16,0.16,0,0,1,.14,0L63.66,68S63.7,68.09,63.67,68.12Z"/><path class="cls-16" d="M64.49,67.64L63.88,68a0.16,0.16,0,0,1-.14,0l-0.29-.17s0-.06,0-0.08L64,67.38a0.16,0.16,0,0,1,.14,0l0.29,0.17S64.52,67.62,64.49,67.64Z"/><path class="cls-16" d="M65.31,67.17l-0.61.35a0.16,0.16,0,0,1-.14,0l-0.29-.17s0-.06,0-0.08l0.61-.35a0.16,0.16,0,0,1,.14,0l0.29,0.17S65.35,67.15,65.31,67.17Z"/><path class="cls-16" d="M66.13,66.69L65.52,67a0.16,0.16,0,0,1-.14,0l-0.29-.17s0-.06,0-0.08l0.61-.35a0.16,0.16,0,0,1,.14,0l0.29,0.17S66.17,66.67,66.13,66.69Z"/><path class="cls-16" d="M67.32,66l-1,.56a0.16,0.16,0,0,1-.14,0l-0.29-.17s0-.06,0-0.08l1-.56a0.16,0.16,0,0,1,.14,0l0.29,0.17S67.36,66,67.32,66Z"/><path class="cls-6" d="M70.58,73.36a0.21,0.21,0,0,0-.19,0l-2,1.14a0.06,0.06,0,0,0,0,.11"/><polygon class="cls-17" points="67.32 19.18 67.32 20.04 48.86 30.46 17.09 12.29 17.09 11.43 48.86 29.6 67.32 19.18"/><polygon class="cls-5" points="17.4 25.87 17.4 27.06 20.83 28.99 20.82 27.84 17.4 25.87"/><polygon class="cls-5" points="21.22 28.07 21.22 29.21 22.55 29.98 22.55 28.85 21.22 28.07"/><polygon class="cls-5" points="22.94 29.08 22.94 30.22 24.26 30.99 24.26 29.86 22.94 29.08"/><polygon class="cls-5" points="17.4 27.59 17.4 28.78 20.83 30.72 20.82 29.56 17.4 27.59"/><polygon class="cls-5" points="21.22 29.8 21.22 30.93 22.55 31.7 22.55 30.57 21.22 29.8"/><polygon class="cls-5" points="22.94 30.81 22.94 31.94 24.26 32.71 24.26 31.58 22.94 30.81"/><polygon class="cls-5" points="17.4 43.09 17.4 44.28 20.83 46.22 20.82 45.06 17.4 43.09"/><polygon class="cls-5" points="21.22 45.3 21.22 46.43 22.55 47.2 22.55 46.07 21.22 45.3"/><polygon class="cls-5" points="22.94 46.3 22.94 47.44 24.26 48.21 24.26 47.08 22.94 46.3"/><polygon class="cls-5" points="17.4 44.82 17.4 46 20.83 47.94 20.82 46.78 17.4 44.82"/><polygon class="cls-5" points="21.22 47.02 21.22 48.15 22.55 48.93 22.55 47.79 21.22 47.02"/><polygon class="cls-5" points="22.94 48.03 22.94 49.16 24.26 49.94 24.26 48.8 22.94 48.03"/><polygon class="cls-5" points="34.62 42.52 34.62 43.7 38.05 45.64 38.04 44.49 34.62 42.52"/><polygon class="cls-5" points="38.44 44.72 38.44 45.86 39.77 46.63 39.77 45.5 38.44 44.72"/><polygon class="cls-5" points="40.16 45.73 40.16 46.87 41.49 47.64 41.48 46.51 40.16 45.73"/><polygon class="cls-5" points="34.62 44.24 34.62 45.43 38.05 47.36 38.04 46.21 34.62 44.24"/><polygon class="cls-5" points="38.44 46.44 38.44 47.58 39.77 48.35 39.77 47.22 38.44 46.44"/><polygon class="cls-5" points="40.16 47.45 40.16 48.59 41.49 49.36 41.48 48.23 40.16 47.45"/><polygon class="cls-5" points="17.4 29.32 17.4 30.5 20.83 32.44 20.82 31.29 17.4 29.32"/><polygon class="cls-5" points="21.22 31.52 21.22 32.65 22.55 33.43 22.55 32.29 21.22 31.52"/><polygon class="cls-5" points="22.94 32.53 22.94 33.66 24.26 34.44 24.26 33.3 22.94 32.53"/><polygon class="cls-5" points="17.4 51.7 17.4 52.89 20.83 54.83 20.82 53.67 17.4 51.7"/><polygon class="cls-5" points="21.22 53.91 21.22 55.04 22.55 55.81 22.55 54.68 21.22 53.91"/><polygon class="cls-5" points="22.94 54.91 22.94 56.05 24.26 56.82 24.26 55.69 22.94 54.91"/><polygon class="cls-5" points="17.4 53.43 17.4 54.61 20.83 56.55 20.82 55.4 17.4 53.43"/><polygon class="cls-5" points="21.22 55.63 21.22 56.76 22.55 57.54 22.55 56.4 21.22 55.63"/><polygon class="cls-5" points="22.94 56.64 22.94 57.77 24.26 58.55 24.26 57.41 22.94 56.64"/><polygon class="cls-5" points="17.4 68.93 17.4 70.11 20.83 72.05 20.82 70.89 17.4 68.93"/><polygon class="cls-5" points="21.22 71.13 21.22 72.26 22.55 73.04 22.55 71.9 21.22 71.13"/><polygon class="cls-5" points="22.94 72.14 22.94 73.27 24.26 74.05 24.26 72.91 22.94 72.14"/><polygon class="cls-5" points="17.4 70.65 17.4 71.83 20.83 73.77 20.82 72.62 17.4 70.65"/><polygon class="cls-5" points="21.22 72.85 21.22 73.98 22.55 74.76 22.55 73.63 21.22 72.85"/><polygon class="cls-5" points="22.94 73.86 22.94 74.99 24.26 75.77 24.26 74.63 22.94 73.86"/><polygon class="cls-5" points="34.62 68.35 34.62 69.54 38.05 71.47 38.04 70.32 34.62 68.35"/><polygon class="cls-5" points="38.44 70.55 38.44 71.69 39.77 72.46 39.77 71.33 38.44 70.55"/><polygon class="cls-5" points="40.16 71.56 40.16 72.7 41.49 73.47 41.48 72.34 40.16 71.56"/><polygon class="cls-5" points="34.62 70.07 34.62 71.26 38.05 73.19 38.04 72.04 34.62 70.07"/><polygon class="cls-5" points="38.44 72.28 38.44 73.41 39.77 74.18 39.77 73.05 38.44 72.28"/><polygon class="cls-5" points="40.16 73.28 40.16 74.42 41.49 75.19 41.48 74.06 40.16 73.28"/><polygon class="cls-5" points="17.4 55.15 17.4 56.33 20.83 58.27 20.82 57.12 17.4 55.15"/><polygon class="cls-5" points="21.22 57.35 21.22 58.48 22.55 59.26 22.55 58.13 21.22 57.35"/><polygon class="cls-5" points="22.94 58.36 22.94 59.49 24.26 60.27 24.26 59.13 22.94 58.36"/><path class="cls-6" d="M48.46,14.91L42,18.75a0.47,0.47,0,0,1-.49,0l-0.07,0a0.47,0.47,0,0,1,0-.8L47.81,14a0.47,0.47,0,0,1,.48,0l0.17,0.1A0.47,0.47,0,0,1,48.46,14.91Z"/><path class="cls-6" d="M45.59,13.42l-6.48,3.85a0.47,0.47,0,0,1-.49,0l-0.07,0a0.47,0.47,0,0,1,0-.8l6.38-3.9a0.47,0.47,0,0,1,.48,0l0.17,0.1A0.47,0.47,0,0,1,45.59,13.42Z"/><path class="cls-6" d="M43,11.75L36.5,15.6a0.47,0.47,0,0,1-.49,0l-0.07,0a0.47,0.47,0,0,1,0-.8l6.38-3.9a0.47,0.47,0,0,1,.48,0L43,10.94A0.47,0.47,0,0,1,43,11.75Z"/><g id="Layer_6" data-name="Layer 6"><path class="cls-18" d="M146.18,70.24l75.2,43.32a2.64,2.64,0,0,0,4-2.29V50.73A2.64,2.64,0,0,0,224,48.45L148.83,4.72a2.64,2.64,0,0,0-4,2.28V68A2.64,2.64,0,0,0,146.18,70.24Z"/><g class="cls-19"><path class="cls-6" d="M144.9,70.83l75.2,43.32a2.64,2.64,0,0,0,4-2.29V51.32A2.64,2.64,0,0,0,222.75,49L147.55,5.31a2.64,2.64,0,0,0-4,2.28V68.54A2.64,2.64,0,0,0,144.9,70.83Z"/><path class="cls-20" d="M221.42,114.63a2.76,2.76,0,0,1-1.38-.37l-75.2-43.32a2.77,2.77,0,0,1-1.38-2.4V7.59a2.76,2.76,0,0,1,4.15-2.39l75.2,43.73a2.77,2.77,0,0,1,1.38,2.39v60.54A2.77,2.77,0,0,1,221.42,114.63ZM146.22,5.07a2.52,2.52,0,0,0-2.52,2.52V68.54A2.52,2.52,0,0,0,145,70.72L220.16,114a2.51,2.51,0,0,0,3.77-2.18V51.32a2.52,2.52,0,0,0-1.25-2.17L147.49,5.42A2.51,2.51,0,0,0,146.22,5.07Z"/></g><path class="cls-21" d="M149.07,16.17l18.16,10.45a1,1,0,0,0,1.48-.86V24.58a1,1,0,0,0-.49-0.86l-18.16-10.6a1,1,0,0,0-1.49.86v1.33A1,1,0,0,0,149.07,16.17Z"/><path class="cls-22" d="M170.72,28.77l46,26.61a1,1,0,0,0,1.48-.86V53.34a1,1,0,0,0-.49-0.86l-46-26.76a1,1,0,0,0-1.49.86v1.33A1,1,0,0,0,170.72,28.77Z"/><path class="cls-12" d="M155.78,27.69v0.85a0.3,0.3,0,0,0,.15.26l0.75,0.44a0.3,0.3,0,0,0,.45-0.26V28.12a0.3,0.3,0,0,0-.15-0.26l-0.75-.43A0.3,0.3,0,0,0,155.78,27.69Z"/><path class="cls-23" d="M157.94,28.94v0.85a0.3,0.3,0,0,0,.15.26l0.75,0.44a0.3,0.3,0,0,0,.45-0.26V29.37a0.3,0.3,0,0,0-.15-0.26l-0.75-.43A0.3,0.3,0,0,0,157.94,28.94Z"/><path class="cls-24" d="M155.1,27.06v0.63a0.4,0.4,0,0,1-.6.35l-5.9-3.45a0.4,0.4,0,0,1-.2-0.35V23.67a0.4,0.4,0,0,1,.6-0.35l5.9,3.39A0.4,0.4,0,0,1,155.1,27.06Z"/><path class="cls-12" d="M155.78,30.69v0.85a0.3,0.3,0,0,0,.15.26l0.75,0.44a0.3,0.3,0,0,0,.45-0.26V31.12a0.3,0.3,0,0,0-.15-0.26l-0.75-.43A0.3,0.3,0,0,0,155.78,30.69Z"/><path class="cls-25" d="M160.09,36.15V37a0.3,0.3,0,0,0,.15.26L161,37.7a0.3,0.3,0,0,0,.45-0.26V36.58a0.3,0.3,0,0,0-.15-0.26l-0.75-.43A0.3,0.3,0,0,0,160.09,36.15Z"/><path class="cls-26" d="M155.1,30.06v0.63a0.4,0.4,0,0,1-.6.35l-5.9-3.45a0.4,0.4,0,0,1-.2-0.35V26.67a0.4,0.4,0,0,1,.6-0.35l5.9,3.39A0.4,0.4,0,0,1,155.1,30.06Z"/><path class="cls-12" d="M155.78,33.69v0.85a0.3,0.3,0,0,0,.15.26l0.75,0.44a0.3,0.3,0,0,0,.45-0.26V34.12a0.3,0.3,0,0,0-.15-0.26l-0.75-.43A0.3,0.3,0,0,0,155.78,33.69Z"/><path class="cls-27" d="M157.94,34.94v0.85a0.3,0.3,0,0,0,.15.26l0.75,0.44a0.3,0.3,0,0,0,.45-0.26V35.37a0.3,0.3,0,0,0-.15-0.26l-0.75-.43A0.3,0.3,0,0,0,157.94,34.94Z"/><path class="cls-28" d="M155.1,33.06V33.7a0.4,0.4,0,0,1-.6.35l-5.9-3.45a0.4,0.4,0,0,1-.2-0.35V29.67a0.4,0.4,0,0,1,.6-0.35l5.9,3.39A0.4,0.4,0,0,1,155.1,33.06Z"/><path class="cls-12" d="M177.61,39.07v0.85a0.3,0.3,0,0,0,.15.26l0.75,0.44a0.3,0.3,0,0,0,.45-0.26V39.5a0.3,0.3,0,0,0-.15-0.26l-0.75-.43A0.3,0.3,0,0,0,177.61,39.07Z"/><path class="cls-29" d="M179.77,40.32v0.85a0.3,0.3,0,0,0,.15.26l0.75,0.44a0.3,0.3,0,0,0,.45-0.26V40.75a0.3,0.3,0,0,0-.15-0.26l-0.75-.43A0.3,0.3,0,0,0,179.77,40.32Z"/><path class="cls-30" d="M176.93,38.44v0.63a0.4,0.4,0,0,1-.6.35L170.42,36a0.4,0.4,0,0,1-.2-0.35V35a0.4,0.4,0,0,1,.6-0.35l5.9,3.39A0.4,0.4,0,0,1,176.93,38.44Z"/><path class="cls-12" d="M177.61,42.07v0.85a0.3,0.3,0,0,0,.15.26l0.75,0.44a0.3,0.3,0,0,0,.45-0.26V42.5a0.3,0.3,0,0,0-.15-0.26l-0.75-.43A0.3,0.3,0,0,0,177.61,42.07Z"/><path class="cls-31" d="M181.92,47.53v0.85a0.3,0.3,0,0,0,.15.26l0.75,0.44a0.3,0.3,0,0,0,.45-0.26V48a0.3,0.3,0,0,0-.15-0.26l-0.75-.43A0.3,0.3,0,0,0,181.92,47.53Z"/><path class="cls-32" d="M176.93,41.44v0.63a0.4,0.4,0,0,1-.6.35L170.42,39a0.4,0.4,0,0,1-.2-0.35V38.05a0.4,0.4,0,0,1,.6-0.35l5.9,3.39A0.4,0.4,0,0,1,176.93,41.44Z"/><path class="cls-12" d="M177.61,45.07v0.85a0.3,0.3,0,0,0,.15.26l0.75,0.44a0.3,0.3,0,0,0,.45-0.26V45.5a0.3,0.3,0,0,0-.15-0.26l-0.75-.43A0.3,0.3,0,0,0,177.61,45.07Z"/><path class="cls-33" d="M179.77,46.33v0.85a0.3,0.3,0,0,0,.15.26l0.75,0.44a0.3,0.3,0,0,0,.45-0.26V46.76A0.3,0.3,0,0,0,181,46.5l-0.75-.43A0.3,0.3,0,0,0,179.77,46.33Z"/><path class="cls-34" d="M176.93,44.44v0.63a0.4,0.4,0,0,1-.6.35L170.42,42a0.4,0.4,0,0,1-.2-0.35V41.05a0.4,0.4,0,0,1,.6-0.35l5.9,3.39A0.4,0.4,0,0,1,176.93,44.44Z"/><path class="cls-12" d="M201.61,51.39v0.85a0.3,0.3,0,0,0,.15.26l0.75,0.44a0.3,0.3,0,0,0,.45-0.26V51.82a0.3,0.3,0,0,0-.15-0.26l-0.75-.43A0.3,0.3,0,0,0,201.61,51.39Z"/><path class="cls-35" d="M203.77,52.64v0.85a0.3,0.3,0,0,0,.15.26l0.75,0.44a0.3,0.3,0,0,0,.45-0.26V53.07a0.3,0.3,0,0,0-.15-0.26l-0.75-.43A0.3,0.3,0,0,0,203.77,52.64Z"/><path class="cls-36" d="M200.93,50.76v0.63a0.4,0.4,0,0,1-.6.35l-5.9-3.45a0.4,0.4,0,0,1-.2-0.35V47.37a0.4,0.4,0,0,1,.6-0.35l5.9,3.39A0.4,0.4,0,0,1,200.93,50.76Z"/><path class="cls-12" d="M201.61,54.39v0.85a0.3,0.3,0,0,0,.15.26l0.75,0.44a0.3,0.3,0,0,0,.45-0.26V54.82a0.3,0.3,0,0,0-.15-0.26l-0.75-.43A0.3,0.3,0,0,0,201.61,54.39Z"/><path class="cls-37" d="M205.93,59.86v0.85a0.3,0.3,0,0,0,.15.26l0.75,0.44a0.3,0.3,0,0,0,.45-0.26V60.29a0.3,0.3,0,0,0-.15-0.26l-0.75-.43A0.3,0.3,0,0,0,205.93,59.86Z"/><path class="cls-38" d="M200.93,53.76V54.4a0.4,0.4,0,0,1-.6.35l-5.9-3.45a0.4,0.4,0,0,1-.2-0.35V50.37a0.4,0.4,0,0,1,.6-0.35l5.9,3.39A0.4,0.4,0,0,1,200.93,53.76Z"/><path class="cls-12" d="M201.61,57.4v0.85a0.3,0.3,0,0,0,.15.26l0.75,0.44a0.3,0.3,0,0,0,.45-0.26V57.83a0.3,0.3,0,0,0-.15-0.26l-0.75-.43A0.3,0.3,0,0,0,201.61,57.4Z"/><path class="cls-39" d="M203.77,58.65V59.5a0.3,0.3,0,0,0,.15.26l0.75,0.44a0.3,0.3,0,0,0,.45-0.26V59.08a0.3,0.3,0,0,0-.15-0.26l-0.75-.43A0.3,0.3,0,0,0,203.77,58.65Z"/><path class="cls-40" d="M200.93,56.77V57.4a0.4,0.4,0,0,1-.6.35l-5.9-3.45a0.4,0.4,0,0,1-.2-0.35V53.38a0.4,0.4,0,0,1,.6-0.35l5.9,3.39A0.4,0.4,0,0,1,200.93,56.77Z"/><path class="cls-12" d="M155.78,45v0.85a0.3,0.3,0,0,0,.15.26l0.75,0.44a0.3,0.3,0,0,0,.45-0.26V45.42a0.3,0.3,0,0,0-.15-0.26l-0.75-.43A0.3,0.3,0,0,0,155.78,45Z"/><path class="cls-41" d="M157.94,46.24v0.85a0.3,0.3,0,0,0,.15.26l0.75,0.44a0.3,0.3,0,0,0,.45-0.26V46.67a0.3,0.3,0,0,0-.15-0.26L158.38,46A0.3,0.3,0,0,0,157.94,46.24Z"/><path class="cls-42" d="M155.1,44.36V45a0.4,0.4,0,0,1-.6.35l-5.9-3.45a0.4,0.4,0,0,1-.2-0.35V41a0.4,0.4,0,0,1,.6-0.35L154.9,44A0.4,0.4,0,0,1,155.1,44.36Z"/><path class="cls-12" d="M155.78,48v0.85a0.3,0.3,0,0,0,.15.26l0.75,0.44a0.3,0.3,0,0,0,.45-0.26V48.42a0.3,0.3,0,0,0-.15-0.26l-0.75-.43A0.3,0.3,0,0,0,155.78,48Z"/><path class="cls-43" d="M160.09,53.45V54.3a0.3,0.3,0,0,0,.15.26L161,55a0.3,0.3,0,0,0,.45-0.26V53.88a0.3,0.3,0,0,0-.15-0.26l-0.75-.43A0.3,0.3,0,0,0,160.09,53.45Z"/><path class="cls-44" d="M155.1,47.36V48a0.4,0.4,0,0,1-.6.35l-5.9-3.45a0.4,0.4,0,0,1-.2-0.35V44a0.4,0.4,0,0,1,.6-0.35L154.9,47A0.4,0.4,0,0,1,155.1,47.36Z"/><path class="cls-12" d="M155.78,51v0.85a0.3,0.3,0,0,0,.15.26l0.75,0.44a0.3,0.3,0,0,0,.45-0.26V51.42a0.3,0.3,0,0,0-.15-0.26l-0.75-.43A0.3,0.3,0,0,0,155.78,51Z"/><path class="cls-45" d="M157.94,52.24v0.85a0.3,0.3,0,0,0,.15.26l0.75,0.44a0.3,0.3,0,0,0,.45-0.26V52.67a0.3,0.3,0,0,0-.15-0.26L158.38,52A0.3,0.3,0,0,0,157.94,52.24Z"/><path class="cls-46" d="M155.1,50.36V51a0.4,0.4,0,0,1-.6.35l-5.9-3.45a0.4,0.4,0,0,1-.2-0.35V47a0.4,0.4,0,0,1,.6-0.35L154.9,50A0.4,0.4,0,0,1,155.1,50.36Z"/><path class="cls-12" d="M177.61,56.37v0.85a0.3,0.3,0,0,0,.15.26l0.75,0.44a0.3,0.3,0,0,0,.45-0.26V56.8a0.3,0.3,0,0,0-.15-0.26l-0.75-.43A0.3,0.3,0,0,0,177.61,56.37Z"/><path class="cls-47" d="M179.77,57.62v0.85a0.3,0.3,0,0,0,.15.26l0.75,0.44a0.3,0.3,0,0,0,.45-0.26V58.05a0.3,0.3,0,0,0-.15-0.26l-0.75-.43A0.3,0.3,0,0,0,179.77,57.62Z"/><path class="cls-48" d="M176.93,55.74v0.63a0.4,0.4,0,0,1-.6.35l-5.9-3.45a0.4,0.4,0,0,1-.2-0.35V52.35a0.4,0.4,0,0,1,.6-0.35l5.9,3.39A0.4,0.4,0,0,1,176.93,55.74Z"/><path class="cls-12" d="M177.61,59.37v0.85a0.3,0.3,0,0,0,.15.26l0.75,0.44a0.3,0.3,0,0,0,.45-0.26V59.8a0.3,0.3,0,0,0-.15-0.26l-0.75-.43A0.3,0.3,0,0,0,177.61,59.37Z"/><path class="cls-49" d="M181.92,64.84v0.85a0.3,0.3,0,0,0,.15.26l0.75,0.44a0.3,0.3,0,0,0,.45-0.26V65.27a0.3,0.3,0,0,0-.15-0.26l-0.75-.43A0.3,0.3,0,0,0,181.92,64.84Z"/><path class="cls-50" d="M176.93,58.74v0.63a0.4,0.4,0,0,1-.6.35l-5.9-3.45a0.4,0.4,0,0,1-.2-0.35V55.35a0.4,0.4,0,0,1,.6-0.35l5.9,3.39A0.4,0.4,0,0,1,176.93,58.74Z"/><path class="cls-12" d="M177.61,62.38v0.85a0.3,0.3,0,0,0,.15.26l0.75,0.44a0.3,0.3,0,0,0,.45-0.26V62.81a0.3,0.3,0,0,0-.15-0.26l-0.75-.43A0.3,0.3,0,0,0,177.61,62.38Z"/><path class="cls-51" d="M179.77,63.63v0.85a0.3,0.3,0,0,0,.15.26l0.75,0.44a0.3,0.3,0,0,0,.45-0.26V64.06A0.3,0.3,0,0,0,181,63.8l-0.75-.43A0.3,0.3,0,0,0,179.77,63.63Z"/><path class="cls-52" d="M176.93,61.75v0.63a0.4,0.4,0,0,1-.6.35l-5.9-3.45a0.4,0.4,0,0,1-.2-0.35V58.35a0.4,0.4,0,0,1,.6-0.35l5.9,3.39A0.4,0.4,0,0,1,176.93,61.75Z"/><path class="cls-12" d="M201.61,68.69v0.85a0.3,0.3,0,0,0,.15.26l0.75,0.44A0.3,0.3,0,0,0,203,70V69.12a0.3,0.3,0,0,0-.15-0.26l-0.75-.43A0.3,0.3,0,0,0,201.61,68.69Z"/><path class="cls-53" d="M203.77,69.94v0.85a0.3,0.3,0,0,0,.15.26l0.75,0.44a0.3,0.3,0,0,0,.45-0.26V70.37a0.3,0.3,0,0,0-.15-0.26l-0.75-.43A0.3,0.3,0,0,0,203.77,69.94Z"/><path class="cls-54" d="M200.93,68.06V68.7a0.4,0.4,0,0,1-.6.35l-5.9-3.45a0.4,0.4,0,0,1-.2-0.35V64.67a0.4,0.4,0,0,1,.6-0.35l5.9,3.39A0.4,0.4,0,0,1,200.93,68.06Z"/><path class="cls-12" d="M201.61,71.69v0.85a0.3,0.3,0,0,0,.15.26l0.75,0.44A0.3,0.3,0,0,0,203,73V72.13a0.3,0.3,0,0,0-.15-0.26l-0.75-.43A0.3,0.3,0,0,0,201.61,71.69Z"/><path class="cls-55" d="M205.93,77.16V78a0.3,0.3,0,0,0,.15.26l0.75,0.44a0.3,0.3,0,0,0,.45-0.26V77.59a0.3,0.3,0,0,0-.15-0.26l-0.75-.43A0.3,0.3,0,0,0,205.93,77.16Z"/><path class="cls-56" d="M200.93,71.07V71.7a0.4,0.4,0,0,1-.6.35l-5.9-3.45a0.4,0.4,0,0,1-.2-0.35V67.67a0.4,0.4,0,0,1,.6-0.35l5.9,3.39A0.4,0.4,0,0,1,200.93,71.07Z"/><path class="cls-12" d="M201.61,74.7v0.85a0.3,0.3,0,0,0,.15.26l0.75,0.44A0.3,0.3,0,0,0,203,76V75.13a0.3,0.3,0,0,0-.15-0.26l-0.75-.43A0.3,0.3,0,0,0,201.61,74.7Z"/><path class="cls-57" d="M203.77,75.95V76.8a0.3,0.3,0,0,0,.15.26l0.75,0.44a0.3,0.3,0,0,0,.45-0.26V76.38a0.3,0.3,0,0,0-.15-0.26l-0.75-.43A0.3,0.3,0,0,0,203.77,75.95Z"/><path class="cls-58" d="M200.93,74.07V74.7a0.4,0.4,0,0,1-.6.35l-5.9-3.45a0.4,0.4,0,0,1-.2-0.35V70.68a0.4,0.4,0,0,1,.6-0.35l5.9,3.39A0.4,0.4,0,0,1,200.93,74.07Z"/><path class="cls-12" d="M155.78,61.33v0.85a0.3,0.3,0,0,0,.15.26l0.75,0.44a0.3,0.3,0,0,0,.45-0.26V61.76A0.3,0.3,0,0,0,157,61.5l-0.75-.43A0.3,0.3,0,0,0,155.78,61.33Z"/><path class="cls-59" d="M157.94,62.58v0.85a0.3,0.3,0,0,0,.15.26l0.75,0.44a0.3,0.3,0,0,0,.45-0.26V63a0.3,0.3,0,0,0-.15-0.26l-0.75-.43A0.3,0.3,0,0,0,157.94,62.58Z"/><path class="cls-60" d="M155.1,60.7v0.63a0.4,0.4,0,0,1-.6.35l-5.9-3.45a0.4,0.4,0,0,1-.2-0.35V57.31A0.4,0.4,0,0,1,149,57l5.9,3.39A0.4,0.4,0,0,1,155.1,60.7Z"/><path class="cls-12" d="M155.78,64.33v0.85a0.3,0.3,0,0,0,.15.26l0.75,0.44a0.3,0.3,0,0,0,.45-0.26V64.76A0.3,0.3,0,0,0,157,64.5l-0.75-.43A0.3,0.3,0,0,0,155.78,64.33Z"/><path class="cls-61" d="M160.09,69.79v0.85a0.3,0.3,0,0,0,.15.26L161,71.34a0.3,0.3,0,0,0,.45-0.26V70.22a0.3,0.3,0,0,0-.15-0.26l-0.75-.43A0.3,0.3,0,0,0,160.09,69.79Z"/><path class="cls-62" d="M155.1,63.7v0.63a0.4,0.4,0,0,1-.6.35l-5.9-3.45a0.4,0.4,0,0,1-.2-0.35V60.31A0.4,0.4,0,0,1,149,60l5.9,3.39A0.4,0.4,0,0,1,155.1,63.7Z"/><path class="cls-12" d="M155.78,67.33v0.85a0.3,0.3,0,0,0,.15.26l0.75,0.44a0.3,0.3,0,0,0,.45-0.26V67.76a0.3,0.3,0,0,0-.15-0.26l-0.75-.43A0.3,0.3,0,0,0,155.78,67.33Z"/><path class="cls-63" d="M157.94,68.58v0.85a0.3,0.3,0,0,0,.15.26l0.75,0.44a0.3,0.3,0,0,0,.45-0.26V69a0.3,0.3,0,0,0-.15-0.26l-0.75-.43A0.3,0.3,0,0,0,157.94,68.58Z"/><path class="cls-64" d="M155.1,66.7v0.63a0.4,0.4,0,0,1-.6.35l-5.9-3.45a0.4,0.4,0,0,1-.2-0.35V63.31A0.4,0.4,0,0,1,149,63l5.9,3.39A0.4,0.4,0,0,1,155.1,66.7Z"/><path class="cls-12" d="M177.61,72.71v0.85a0.3,0.3,0,0,0,.15.26l0.75,0.44A0.3,0.3,0,0,0,179,74V73.14a0.3,0.3,0,0,0-.15-0.26l-0.75-.43A0.3,0.3,0,0,0,177.61,72.71Z"/><path class="cls-65" d="M179.77,74v0.85a0.3,0.3,0,0,0,.15.26l0.75,0.44a0.3,0.3,0,0,0,.45-0.26V74.39a0.3,0.3,0,0,0-.15-0.26l-0.75-.43A0.3,0.3,0,0,0,179.77,74Z"/><path class="cls-66" d="M176.93,72.08v0.63a0.4,0.4,0,0,1-.6.35l-5.9-3.45a0.4,0.4,0,0,1-.2-0.35V68.69a0.4,0.4,0,0,1,.6-0.35l5.9,3.39A0.4,0.4,0,0,1,176.93,72.08Z"/><path class="cls-12" d="M177.61,75.71v0.85a0.3,0.3,0,0,0,.15.26l0.75,0.44A0.3,0.3,0,0,0,179,77V76.14a0.3,0.3,0,0,0-.15-0.26l-0.75-.43A0.3,0.3,0,0,0,177.61,75.71Z"/><path class="cls-67" d="M181.92,81.18V82a0.3,0.3,0,0,0,.15.26l0.75,0.44a0.3,0.3,0,0,0,.45-0.26V81.61a0.3,0.3,0,0,0-.15-0.26l-0.75-.43A0.3,0.3,0,0,0,181.92,81.18Z"/><path class="cls-68" d="M176.93,75.08v0.63a0.4,0.4,0,0,1-.6.35l-5.9-3.45a0.4,0.4,0,0,1-.2-0.35V71.69a0.4,0.4,0,0,1,.6-0.35l5.9,3.39A0.4,0.4,0,0,1,176.93,75.08Z"/><path class="cls-12" d="M177.61,78.72v0.85a0.3,0.3,0,0,0,.15.26l0.75,0.44A0.3,0.3,0,0,0,179,80V79.15a0.3,0.3,0,0,0-.15-0.26l-0.75-.43A0.3,0.3,0,0,0,177.61,78.72Z"/><path class="cls-69" d="M179.77,80v0.85a0.3,0.3,0,0,0,.15.26l0.75,0.44a0.3,0.3,0,0,0,.45-0.26V80.4a0.3,0.3,0,0,0-.15-0.26l-0.75-.43A0.3,0.3,0,0,0,179.77,80Z"/><path class="cls-70" d="M176.93,78.09v0.63a0.4,0.4,0,0,1-.6.35l-5.9-3.45a0.4,0.4,0,0,1-.2-0.35V74.69a0.4,0.4,0,0,1,.6-0.35l5.9,3.39A0.4,0.4,0,0,1,176.93,78.09Z"/><path class="cls-12" d="M201.61,85v0.85a0.3,0.3,0,0,0,.15.26l0.75,0.44a0.3,0.3,0,0,0,.45-0.26V85.46a0.3,0.3,0,0,0-.15-0.26l-0.75-.43A0.3,0.3,0,0,0,201.61,85Z"/><path class="cls-71" d="M203.77,86.28v0.85a0.3,0.3,0,0,0,.15.26l0.75,0.44a0.3,0.3,0,0,0,.45-0.26V86.71a0.3,0.3,0,0,0-.15-0.26L204.22,86A0.3,0.3,0,0,0,203.77,86.28Z"/><path class="cls-72" d="M200.93,84.4V85a0.4,0.4,0,0,1-.6.35l-5.9-3.45a0.4,0.4,0,0,1-.2-0.35V81a0.4,0.4,0,0,1,.6-0.35l5.9,3.39A0.4,0.4,0,0,1,200.93,84.4Z"/><path class="cls-12" d="M201.61,88v0.85a0.3,0.3,0,0,0,.15.26l0.75,0.44a0.3,0.3,0,0,0,.45-0.26V88.47a0.3,0.3,0,0,0-.15-0.26l-0.75-.43A0.3,0.3,0,0,0,201.61,88Z"/><path class="cls-73" d="M205.93,93.5v0.85a0.3,0.3,0,0,0,.15.26L206.82,95a0.3,0.3,0,0,0,.45-0.26V93.93a0.3,0.3,0,0,0-.15-0.26l-0.75-.43A0.3,0.3,0,0,0,205.93,93.5Z"/><path class="cls-74" d="M200.93,87.41V88a0.4,0.4,0,0,1-.6.35l-5.9-3.45a0.4,0.4,0,0,1-.2-0.35V84a0.4,0.4,0,0,1,.6-0.35l5.9,3.39A0.4,0.4,0,0,1,200.93,87.41Z"/><path class="cls-12" d="M201.61,91v0.85a0.3,0.3,0,0,0,.15.26l0.75,0.44a0.3,0.3,0,0,0,.45-0.26V91.47a0.3,0.3,0,0,0-.15-0.26l-0.75-.43A0.3,0.3,0,0,0,201.61,91Z"/><path class="cls-75" d="M203.77,92.29v0.85a0.3,0.3,0,0,0,.15.26l0.75,0.44a0.3,0.3,0,0,0,.45-0.26V92.72a0.3,0.3,0,0,0-.15-0.26L204.22,92A0.3,0.3,0,0,0,203.77,92.29Z"/><path class="cls-76" d="M200.93,90.41V91a0.4,0.4,0,0,1-.6.35l-5.9-3.45a0.4,0.4,0,0,1-.2-0.35V87a0.4,0.4,0,0,1,.6-0.35l5.9,3.39A0.4,0.4,0,0,1,200.93,90.41Z"/></g><g id="Layer_2" data-name="Layer 2"><path class="cls-77" d="M202.45,160.87L162.33,185a3.46,3.46,0,0,1-3.53,0l-80.67-47a3.46,3.46,0,0,1,0-6l42.26-23.8a3.46,3.46,0,0,1,3.47,0l78.54,46.64A3.46,3.46,0,0,1,202.45,160.87Z"/><path class="cls-8" d="M109,112l66.46,40a5.53,5.53,0,0,0,5.54.1l38.51-21.34a5.53,5.53,0,0,0,.12-9.61L150.89,80.71a5.53,5.53,0,0,0-5.65,0L109,102.47A5.53,5.53,0,0,0,109,112Z"/><path class="cls-11" d="M109,109.4l66.46,40a5.53,5.53,0,0,0,5.54.1l38.51-21.34a5.53,5.53,0,0,0,.12-9.61L150.89,78.15a5.53,5.53,0,0,0-5.65,0L109,99.91A5.53,5.53,0,0,0,109,109.4Z"/><polygon class="cls-6" points="159.02 113.77 158.48 116.8 162.03 118.5 163.4 117.73 163.4 114.32 160.47 112.17 159.02 113.77"/><polygon class="cls-6" points="154.74 107.36 152.75 108.59 151.8 111.54 156.34 113.65 157.31 113.2 158.03 108.76 154.74 107.36"/><path class="cls-78" d="M131.68,180.91l-8.17-11.66L93.37,153.44l-0.07,0L75.47,143.12s11.06,9.08,11.47,9.23c1.19,0.77,2.42,1.52,3.65,2.25l23.88,16.25Z"/><path class="cls-79" d="M142.08,156.46a2.11,2.11,0,0,1,1.22,1.86v1.22L129.21,168l-12.47-.5-4.82-5.15,5.81-2.23,5.2,3.67,15.53-6.63Z"/><path class="cls-8" d="M142.08,156.46c-6.12,3.06-12.44,8.36-16.21,8.36s-4.59-9.59-4.59-9.59l13.46-3.77Z"/><path class="cls-8" d="M143.3,158.32L142.08,175l-8.9,5.49c-4.13,2.52-9.43-8.31-13.38-10.51L99.74,157.2l3.42-2.75L121,165.82c3,1.77,7.07,1.4,10.16-.17C133.85,164.25,138.54,161.31,143.3,158.32Z"/><polygon class="cls-80" points="78.58 140.22 103.15 154.44 99.74 157.2 75.47 142.87 78.58 140.22"/><polygon class="cls-81" points="105.73 141.06 96.83 137.38 78.17 118.5 82.73 134.16 88.78 144.28 105.73 141.06"/><path class="cls-81" d="M152.8,108.59s0.84-11.32,3.9-11.32,4.05,3.21,4.05,5.35-2.14,7.34-2.14,7.34,0.73,2.87-.08,3.67l-1.15,1.15s-1.14-.43-0.61-2.06a10.79,10.79,0,0,0,.54-3A6.84,6.84,0,0,0,152.8,108.59Z"/><path class="cls-81" d="M159,113.77a4.62,4.62,0,0,1,3.93.61c-0.47,3.06-1.17,5.13-2.7,6.42a8.09,8.09,0,0,0,1.91.84,5.6,5.6,0,0,0,2.68,0,21.48,21.48,0,0,0,.54-3.52,15.38,15.38,0,0,0-.42-2.94l0.88-3.1s1.47-8.49-1.67-9.49S159,113.77,159,113.77Z"/><path class="cls-82" d="M113.65,146.47a107.49,107.49,0,0,1,11.56-10.15c9.62-6.45,33.62-20.75,33.62-20.75,2.24-.13,3.37,2.19,3.77,6.12l-34.36,25.49-9,8.06Z"/><path class="cls-83" d="M114.35,162.24a14.37,14.37,0,0,0,9.2,3c6.12,0,15.69-20.88,19.18-28.49,6.42-9.59,13.21-16.91,15.75-22.43-1.52-2.31-4.64-5-6.79-4.24-4,10.1-13.11,17.62-15.75,21.17s-13.72,18.29-13.72,18.29Z"/><path class="cls-84" d="M98.55,122.57l-0.25.29H98.24c0,0.8-5.47.52-5.63,1.41-0.1.64,1.67,1.89,3,3.25a0.88,0.88,0,0,0-1.09,1.19c0.23,0.61.37,1.8,0.71,2.54l-0.09,0c-0.34.76-.7,1.88-1.06,2.78l-0.11.3a3.85,3.85,0,0,1-2.49.79l-1-.09a8.06,8.06,0,0,1-2.84-1.4s0.1,0.58.1,0.58c0.49,2.44,5.88,4.13,8.31,1.81h0c0-.37.19-1.24,0.19-1.24s0-.45,0-0.68l0-.28h0c0-.54.07-1.09,0.08-1.6a5.91,5.91,0,0,0,.23.57v0a0.19,0.19,0,0,1,0,.06,1.5,1.5,0,0,0,.55.48,1.39,1.39,0,0,0,1.14.22,4.09,4.09,0,0,0,.28-1.38c0.12-1.16.17-2.73,0.28-3.69a7,7,0,0,0,.1-2.34c-0.31-1.29-.55-1.31-0.17-2.38A12.43,12.43,0,0,0,98.55,122.57Zm-2.07,7.73-0.1.08c-0.09-.87-0.22-1.84-0.35-2.46a3.93,3.93,0,0,1,1.1,1.87Z"/><path class="cls-81" d="M85.77,124.51s-2.23-6.35-2.75-7.65-2.45-4.28-4.89-4.28-2.65,1.58-2.65,3.21,2.45,10.67,3,13.21c0.79,3.92,4.08,12.63,8.15,15.85l16.58,9.6,10-9.35s5.78-5.89,4.82-9.44c-0.75-2.74-8.84-3.66-8.84-3.66l-12.6-1.25-0.63,3.32s14.85,3.2,14.32,4.07-8,.34-10,0.65-6.33,2-11.92-.68S87,131.68,87,131.68Z"/><path class="cls-85" d="M96.07,136l0.45,0.9s-1,3.59-5.5,2.19c-3.54-1.11-3.66-1.51-3.66-1.51-1.19-.74-0.2-2.1.48-3.11a5.45,5.45,0,0,0,3,2C92.14,136.86,96.07,136,96.07,136Z"/><path class="cls-86" d="M95.17,131.28l0.09,0c-0.34-.74-0.48-1.93-0.71-2.54a0.91,0.91,0,0,1,1.43-1,22.81,22.81,0,0,1,.4,2.72l0.1-.08,0.65-.51a10.37,10.37,0,0,1,.73-4.59L93,124.53l-6.71-.14,0,4.53,1.42,5.58,5.76,1.16S95.11,131.41,95.17,131.28Z"/><polygon class="cls-87" points="96.13 124.96 98 124.49 98.33 122.84 98.55 122.57 98.65 120.11 97.23 117.65 89.99 118.64 86.44 121.59 86.29 124.39 88.71 126.32 96.13 124.96"/><path class="cls-88" d="M94.85,130.69L94,130.54,91.21,129H89.9a2.87,2.87,0,0,0-2.28-1.39L87.46,127a4.28,4.28,0,0,1-.18-0.77,0.94,0.94,0,0,0-.89-0.71,2.57,2.57,0,0,0-1.31,1,10,10,0,0,0,0,2,4.28,4.28,0,0,0,2.59,5l1.49,0.48a11.51,11.51,0,0,0,2.92.66,1.94,1.94,0,0,0,1.6-.79l1.2-.28v-2.83Z"/><polygon class="cls-89" points="222.21 124.57 143.3 79.7 143.3 73.72 222.16 118.52 222.21 124.57"/><path class="cls-12" d="M117.56,149.47L115,144.36c2.85-3.21,5.44-6.93,4.52-9.12-1.86-4.43-24.7-4.52-24.7-4.52v2.8c6.35,3.66,15.81,3.06,16.07,4.41s-2.78.92-7.21,2.09c-5.42,1.43-3.87,2.69-10.33,2.36-4.69-.38-5.82-1.8-5.82-1.8a9.42,9.42,0,0,1-2.65-3c-1.41-2.46-.11-5.28-0.73-6.48a35.79,35.79,0,0,0-3.5-5.35c-0.83-1.15-4.61-6.67-4.61-6.67,1,8.06,5.85,22.25,10.52,25.78l16.58,9.6h0s8.77,7.94,12.06,7.94c2.68,0,7.61.27,9.71-4.24C126.68,154.7,117.56,149.47,117.56,149.47Z"/><path class="cls-12" d="M86.29,125.46l-1.67,1.11c-7.73-2.77-11.88-11.79-8.26-13.64S85.14,116.77,86.29,125.46Z"/></g><path class="cls-5" d="M105.36,67.8a4.17,4.17,0,0,1-2.06-.54L85.1,56.66a1,1,0,0,1,0-1.7l19.65-11.35a1,1,0,0,1,1,0L125.4,55a0.9,0.9,0,0,1,.46.75,1.41,1.41,0,0,1-.69,1.18L106.81,67.51A3.46,3.46,0,0,1,105.36,67.8ZM85.23,56.45L103.42,67a3.75,3.75,0,0,0,3.27.24L125,56.71a1.17,1.17,0,0,0,.58-1,0.65,0.65,0,0,0-.34-0.55L105.61,43.84a0.73,0.73,0,0,0-.73,0L85.23,55.18A0.73,0.73,0,0,0,85.23,56.45Z"/><path class="cls-90" d="M85.17,48.55l18.19,10.6a3.87,3.87,0,0,0,3.38.25L125.1,48.82c0.81-.57.81-1.39,0.24-1.72L105.68,35.73a0.86,0.86,0,0,0-.86,0L85.17,47.07A0.85,0.85,0,0,0,85.17,48.55Z"/><polygon class="cls-91" points="125.74 45.2 125.74 47.8 124.71 49.04 124.22 45.96 125.74 45.2"/><polygon class="cls-92" points="84.74 45.19 84.74 47.88 85.79 48.19 87.6 46.1 84.74 45.19"/><path class="cls-93" d="M85.17,45.9l18.18,10.6a3.61,3.61,0,0,0,3.62,0l18.34-10.58a0.86,0.86,0,0,0,0-1.48L105.66,33.07a0.86,0.86,0,0,0-.86,0L85.17,44.42A0.86,0.86,0,0,0,85.17,45.9Z"/><polygon class="cls-94" points="105.68 27.66 118.64 35.18 105.68 42.52 92.6 35.37 105.68 27.66"/><g class="cls-95"><polygon class="cls-96" points="105.71 40.32 118.64 47.66 105.68 54.99 92.6 47.84 105.71 40.32"/><polygon class="cls-97" points="105.71 38.3 118.64 45.82 105.62 53.1 92.6 45.82 105.71 38.3"/></g><polygon class="cls-98" points="105.62 53.1 105.68 42.52 118.64 35.18 118.64 45.82 105.62 53.1"/><polygon class="cls-99" points="92.6 35.37 92.6 45.82 105.62 53.1 105.62 42.52 92.6 35.37"/></svg>