<svg id="Layer_2" data-name="Layer 2" xmlns="http://www.w3.org/2000/svg" xmlns:xlink="http://www.w3.org/1999/xlink" viewBox="0 0 223.53 204.99"><defs><style>.cls-1{fill:#d3d5e2;}.cls-2{fill:#f4f3fb;}.cls-3{fill:#dedffb;}.cls-4{fill:url(#linear-gradient);}.cls-5{fill:#f4f4fc;}.cls-6{fill:#f6dbab;}.cls-7{fill:url(#Безымянный_градиент_141);}.cls-8{fill:url(#Безымянный_градиент_141-2);}.cls-9{fill:#ff9f50;}.cls-10{fill:#dfbaa3;}.cls-11{fill:#1e3962;}.cls-12{fill:#5f70bd;}.cls-13{fill:#203760;}.cls-14{fill:#295488;}.cls-15{fill:#0a9352;}.cls-16{fill:url(#Безымянный_градиент_8);}.cls-17{fill:#0a1928;}.cls-18{fill:url(#Безымянный_градиент_14);}.cls-19{fill:url(#Безымянный_градиент_14-2);}.cls-20{fill:#2a5589;}.cls-21{fill:#fff;}.cls-22{fill:#ff6470;}.cls-23{fill:url(#Безымянный_градиент_8-2);}.cls-24{fill:#dda84b;}.cls-25{fill:#83cca4;}.cls-26{fill:#98e5bd;}.cls-27{fill:url(#Безымянный_градиент_8-3);}.cls-28{fill:#ddff4d;}.cls-29{fill:url(#Безымянный_градиент_14-3);}.cls-30{fill:url(#Безымянный_градиент_14-4);}.cls-31{fill:url(#Безымянный_градиент_141-3);}.cls-32{fill:url(#Безымянный_градиент_141-4);}.cls-33{fill:url(#Безымянный_градиент_8-4);}</style><linearGradient id="linear-gradient" y1="119.38" x2="223.53" y2="119.38" gradientUnits="userSpaceOnUse"><stop offset="0" stop-color="#f4f3fb"/><stop offset="0.42" stop-color="#f4f3fb"/><stop offset="0.55" stop-color="#dfe2fb"/><stop offset="1" stop-color="#dedffb"/></linearGradient><linearGradient id="Безымянный_градиент_141" x1="101.25" y1="23.41" x2="103.95" y2="23.41" gradientUnits="userSpaceOnUse"><stop offset="0" stop-color="#5f70bd"/><stop offset="1" stop-color="#ebecf0"/></linearGradient><linearGradient id="Безымянный_градиент_141-2" x1="102.8" y1="21.4" x2="117.06" y2="21.4" xlink:href="#Безымянный_градиент_141"/><linearGradient id="Безымянный_градиент_8" x1="143.91" y1="45.27" x2="158.16" y2="45.27" gradientUnits="userSpaceOnUse"><stop offset="0" stop-color="#0fce64"/><stop offset="1" stop-color="#0fab64"/></linearGradient><linearGradient id="Безымянный_градиент_14" x1="183.09" y1="71.28" x2="185.73" y2="71.28" gradientUnits="userSpaceOnUse"><stop offset="0" stop-color="#ff4071"/><stop offset="1" stop-color="#cd1c4a"/></linearGradient><linearGradient id="Безымянный_градиент_14-2" x1="184.59" y1="70.33" x2="198.84" y2="70.33" xlink:href="#Безымянный_градиент_14"/><linearGradient id="Безымянный_градиент_8-2" x1="62.71" y1="45.96" x2="76.97" y2="45.96" xlink:href="#Безымянный_градиент_8"/><linearGradient id="Безымянный_градиент_8-3" x1="142.89" y1="92.92" x2="157.15" y2="92.92" xlink:href="#Безымянный_градиент_8"/><linearGradient id="Безымянный_градиент_14-3" x1="25.16" y1="67.33" x2="27.86" y2="67.33" xlink:href="#Безымянный_градиент_14"/><linearGradient id="Безымянный_градиент_14-4" x1="26.71" y1="65.32" x2="40.97" y2="65.32" xlink:href="#Безымянный_градиент_14"/><linearGradient id="Безымянный_градиент_141-3" x1="66.41" y1="91.93" x2="69.11" y2="91.93" xlink:href="#Безымянный_градиент_141"/><linearGradient id="Безымянный_градиент_141-4" x1="67.97" y1="89.91" x2="82.22" y2="89.91" xlink:href="#Безымянный_градиент_141"/><linearGradient id="Безымянный_градиент_8-4" x1="106.2" y1="113.41" x2="120.46" y2="113.41" xlink:href="#Безымянный_градиент_8"/></defs><title>clients-model</title><path class="cls-1" d="M2.32,144.34l99.2,57.79c6.1,3.55,13.63,3.57,18.45,1.34L220,145.78c4.4-3.09,4.41-7.57,1.3-9.37l-107.19-62a4.67,4.67,0,0,0-4.67,0L2.33,136.27A4.66,4.66,0,0,0,2.32,144.34Z"/><polygon class="cls-2" points="0 112.86 0 121.03 5.94 124.49 8.56 116.83 0 112.86"/><polygon class="cls-3" points="223.48 120.83 223.53 112.81 216.56 115.53 219.1 121.53 223.48 120.83"/><path class="cls-4" d="M2.32,124.34l99.2,57.79c6.1,3.55,13.63,3.57,18.45,1.34L220,125.78c4.4-3.09,4.41-7.57,1.3-9.37l-107.19-62a4.67,4.67,0,0,0-4.67,0L2.33,116.27A4.66,4.66,0,0,0,2.32,124.34Z"/><path class="cls-5" d="M2.31,116.84l99.14,57.79a19.67,19.67,0,0,0,19.73,0L221.2,117a4.66,4.66,0,0,0,0-8.07l-107.13-62a4.66,4.66,0,0,0-4.67,0L2.33,108.77A4.66,4.66,0,0,0,2.31,116.84Z"/><path class="cls-6" d="M101.6,29.89s-0.15,1.19-.26,1.66a2.69,2.69,0,0,0,.3,2.17,1.65,1.65,0,0,0,1.27.49c0.3-.11-0.1-1.06-0.13-1.5a1.56,1.56,0,0,1,.19-1.21,2.8,2.8,0,0,0,.12.38c0.08,0.26.14,0.53,0.2,0.79a0.1,0.1,0,0,0,0,.06,0.07,0.07,0,0,0,.08,0,1,1,0,0,0,.23-1.05,21.42,21.42,0,0,1-.2-2.26Z"/><path class="cls-7" d="M103.12,16.63l-1.88,13a3.26,3.26,0,0,0,1.15.54,9.62,9.62,0,0,0,1.29-.2l0.26-5.26Z"/><path class="cls-8" d="M110.95,7.08v4l4.9,3.82,1.21,11.72v8.41a4,4,0,0,1-1.55.65,2.69,2.69,0,0,1-1.3-.55L114,26.55l-0.75-4.07-0.54,2.14L113,30.48A5.66,5.66,0,0,1,108,32c-3.38-.43-4.38-2.61-4.38-2.61L102.8,18.72l0.64-8.36,3.16-.21Z"/><polygon class="cls-9" points="103.87 2.41 105.27 3.59 108.22 3.59 108.75 3.59 109.66 4.72 109.66 6.06 109.98 6.54 110.95 7.08 111.35 6.67 111.38 5.52 111.81 4.74 111.54 1.34 108.16 0 103.87 2.41"/><polygon class="cls-10" points="105.81 10.2 107.09 12.56 110.95 11.11 110.95 7.08 105.81 10.2"/><polygon class="cls-6" points="104.95 3.32 104.95 7.8 106.05 10.85 107.47 11.36 110.66 9.3 110.52 8.31 110.95 7.08 110.79 6.99 111.11 6.67 111.14 5.55 110.55 5.92 110.52 6.14 109.67 6.09 109.66 4.72 108.75 3.59 105.27 3.59 104.95 3.32"/><path class="cls-11" d="M107.08,12.56c0,0.11,1,1.82,1,1.82l-1.11.86v12.9l-1.14,1.36-1.11-2.64,1.39-12.4-0.36-1.07Z"/><polygon class="cls-12" points="112.79 17.26 113.29 22.65 112.36 17.26 112.79 17.26"/><path class="cls-13" d="M112.43,68.56l-0.24,5a0.57,0.57,0,0,0,.64.67c0.75,0,1.74-1.93,1.74-1.93V69.07l-0.4-.67Z"/><polygon class="cls-14" points="113.04 30.48 114.06 33.8 114.06 37.18 113.79 37.79 114.97 68.54 113.47 69.72 112.39 56.16 110.69 34.93 111.17 31.5 113.04 30.48"/><path class="cls-13" d="M106.71,65.37l0.44,0.32v1.18a25.13,25.13,0,0,1-3.83,2,3.73,3.73,0,0,1-2.49-.21c-0.53-.42,3.46-3.24,3.46-3.24h2.43Z"/><path class="cls-11" d="M103.66,29.37L104,64.73l0.7,1,0.38-31.52,3.22,4.93L112,68.32l1.5,1.39-2.79-34.79,0.48-3.43a13.32,13.32,0,0,1-4.18-.43A11.07,11.07,0,0,1,103.66,29.37Z"/><polygon class="cls-14" points="105.06 34.18 108.27 39.11 107.31 49.13 107.74 53.05 107.04 65.32 104.68 65.7 105.06 34.18"/><path class="cls-6" d="M116.81,35.23s0.15,2.44-.23,2.74-1.94,1.14-1.94,1.14l-0.25-.58,0.61-.36,0-.68-0.87.41-0.18-.62,0.59-1.2,0-.71a2.85,2.85,0,0,0,1.08.33A4.61,4.61,0,0,0,116.81,35.23Z"/><path class="cls-6" d="M142.71,53.77s-0.15,1.19-.26,1.66a2.69,2.69,0,0,0,.3,2.17,1.65,1.65,0,0,0,1.27.49c0.3-.11-0.1-1.06-0.13-1.5a1.56,1.56,0,0,1,.19-1.21,2.8,2.8,0,0,0,.12.38c0.08,0.26.14,0.53,0.2,0.79a0.1,0.1,0,0,0,0,.06,0.07,0.07,0,0,0,.08,0,1,1,0,0,0,.23-1.05,21.42,21.42,0,0,1-.2-2.26Z"/><path class="cls-15" d="M144.23,40.51l-1.88,13a3.26,3.26,0,0,0,1.15.54,9.62,9.62,0,0,0,1.29-.2l0.26-5.26Z"/><path class="cls-16" d="M152.05,31v4l4.9,3.82,1.21,11.72v8.41a4,4,0,0,1-1.55.65,2.69,2.69,0,0,1-1.3-.55l-0.2-8.62-0.75-4.07-0.54,2.14,0.33,5.86a5.66,5.66,0,0,1-5,1.49c-3.38-.43-4.38-2.61-4.38-2.61L143.91,42.6l0.64-8.36,3.16-.21Z"/><polygon class="cls-17" points="144.98 26.29 146.37 27.47 149.32 27.47 149.85 27.47 150.77 28.59 150.77 29.93 151.09 30.42 152.05 30.95 152.45 30.54 152.48 29.4 152.91 28.62 152.64 25.22 149.27 23.88 144.98 26.29"/><polygon class="cls-10" points="146.91 34.08 148.2 36.44 152.05 34.99 152.05 30.95 146.91 34.08"/><polygon class="cls-6" points="146.05 27.2 146.05 31.68 147.15 34.73 148.57 35.24 151.76 33.18 151.62 32.19 152.05 30.95 151.9 30.87 152.21 30.55 152.24 29.43 151.65 29.8 151.62 30.02 150.77 29.97 150.77 28.59 149.85 27.47 146.37 27.47 146.05 27.2"/><path class="cls-11" d="M148.18,36.44c0,0.11,1,1.82,1,1.82l-1.11.86V52l-1.14,1.36-1.11-2.64,1.39-12.4-0.36-1.07Z"/><polygon class="cls-15" points="153.89 41.14 154.39 46.53 153.47 41.14 153.89 41.14"/><path class="cls-13" d="M153.53,92.44l-0.24,5a0.57,0.57,0,0,0,.64.67c0.75,0,1.74-1.93,1.74-1.93V93l-0.4-.67Z"/><polygon class="cls-14" points="154.15 54.36 155.17 57.68 155.17 61.06 154.89 61.67 156.08 92.42 154.58 93.59 153.49 80.04 151.79 58.81 152.27 55.38 154.15 54.36"/><path class="cls-13" d="M147.81,89.25l0.44,0.32v1.18a25.13,25.13,0,0,1-3.83,2,3.73,3.73,0,0,1-2.49-.21c-0.53-.42,3.46-3.24,3.46-3.24h2.43Z"/><path class="cls-11" d="M144.77,53.24l0.32,35.37,0.7,1,0.38-31.52L149.38,63l3.7,29.21,1.5,1.39-2.79-34.79,0.48-3.43a13.32,13.32,0,0,1-4.18-.43A11.07,11.07,0,0,1,144.77,53.24Z"/><polygon class="cls-14" points="146.16 58.06 149.38 62.99 148.41 73.01 148.84 76.92 148.14 89.2 145.79 89.57 146.16 58.06"/><path class="cls-6" d="M157.91,59.1s0.15,2.44-.23,2.74S155.74,63,155.74,63l-0.25-.58,0.61-.36,0-.68-0.87.41L155,61.16l0.59-1.2,0-.71a2.85,2.85,0,0,0,1.08.33A4.61,4.61,0,0,0,157.91,59.1Z"/><path class="cls-6" d="M183.84,78.38a0.7,0.7,0,0,0-.52.58c-0.05.39-.13,0.92-0.2,1.2a2.69,2.69,0,0,0,.3,2.17,1.65,1.65,0,0,0,1.27.49c0.3-.11-0.1-1.06-0.13-1.5a1.56,1.56,0,0,1,.19-1.21,2.8,2.8,0,0,0,.12.38c0.08,0.26.14,0.53,0.2,0.79a0.1,0.1,0,0,0,0,.06,0.07,0.07,0,0,0,.08,0,1,1,0,0,0,.23-1.05,10,10,0,0,1-.15-1.42,0.7,0.7,0,0,0-.87-0.63Z"/><path class="cls-18" d="M184.86,63.81l-1.76,14a0.69,0.69,0,0,0,.34.7,1.89,1.89,0,0,0,.74.28,5.2,5.2,0,0,0,.74-0.09,0.7,0.7,0,0,0,.58-0.65l0.23-4.66a0.7,0.7,0,0,0,0-.11l-0.24-2.39C185.4,70.09,185,63,184.86,63.81Z"/><path class="cls-19" d="M192.73,57v2.35a0.7,0.7,0,0,0,.27.55l4.39,3.43a0.7,0.7,0,0,1,.26.48l1.18,11.39a0.7,0.7,0,0,1,0,.07v8a0.69,0.69,0,0,1-.35.61,2.85,2.85,0,0,1-1.2.43,2.22,2.22,0,0,1-1-.32,0.7,0.7,0,0,1-.35-0.59l-0.19-8.2a0.7,0.7,0,0,0,0-.11l-0.74-4-0.51,2a0.7,0.7,0,0,0,0,.21l0.3,5.44a0.7,0.7,0,0,1-.24.57,5.92,5.92,0,0,1-4.74,1.24,5.6,5.6,0,0,1-4.3-2.46,0.67,0.67,0,0,1-.09-0.29l-0.85-10.44a0.7,0.7,0,0,1,0-.11l0.59-7.7a0.7,0.7,0,0,1,.65-0.64l2.36-.16a0.7,0.7,0,0,0,.36-0.13l3.08-2.18A0.7,0.7,0,0,1,192.73,57Z"/><path class="cls-20" d="M186.42,51.67L186.86,52a0.7,0.7,0,0,0,.45.17h3.23l0.76,0.93a0.7,0.7,0,0,1,.16.44v1.09l0.32,0.48,1,0.54,0.4-.41,0-1a0.7,0.7,0,0,1,.09-0.32l0.25-.45a0.7,0.7,0,0,0,.08-0.39l-0.22-2.76a0.7,0.7,0,0,0-.44-0.59l-2.66-1.06a0.7,0.7,0,0,0-.6,0l-3.12,1.76A0.7,0.7,0,0,0,186.42,51.67Z"/><path class="cls-10" d="M187.91,59.4l0.67,1.24a0.7,0.7,0,0,0,.86.32l2.83-1.06a0.7,0.7,0,0,0,.45-0.65V56.93a0.7,0.7,0,0,0-1.06-.6l-3.51,2.13A0.7,0.7,0,0,0,187.91,59.4Z"/><path class="cls-6" d="M186.73,51.93v4.36a0.7,0.7,0,0,0,0,.24l0.95,2.63a0.7,0.7,0,0,0,.42.42l0.79,0.28a0.7,0.7,0,0,0,.62-0.07l2.53-1.64a0.7,0.7,0,0,0,.31-0.68l-0.05-.39a0.7,0.7,0,0,1,0-.32l0.37-1.08-0.16-.09,0.32-.32,0-1.13-0.59.38,0,0.21-0.85,0V53.57a0.7,0.7,0,0,0-.16-0.44l-0.55-.68a0.7,0.7,0,0,0-.54-0.26h-3.15Z"/><path class="cls-21" d="M189.2,61.82l0.35,0.65a0.7,0.7,0,0,1-.19.88l-0.37.29a0.7,0.7,0,0,0-.27.55v12.3a0.7,0.7,0,0,1-.16.45l-0.24.29a0.7,0.7,0,0,1-1.18-.18l-0.6-1.42a0.7,0.7,0,0,1,0-.35l1.36-12.07a0.7,0.7,0,0,0,0-.3l-0.13-.4a0.7,0.7,0,0,1,.3-0.82l0.24-.15A0.7,0.7,0,0,1,189.2,61.82Z"/><polygon class="cls-22" points="194.57 65.87 195.07 71.26 194.14 65.87 194.57 65.87"/><path class="cls-13" d="M194.81,117.12a0.7,0.7,0,0,0-.63.66L194,122.19a0.57,0.57,0,0,0,.64.67c0.62,0,1.4-1.31,1.66-1.77a0.68,0.68,0,0,0,.09-0.33v-2.87a0.7,0.7,0,0,0-.1-0.36L196,117Z"/><path class="cls-14" d="M195.08,79.91l0.74,2.41a0.7,0.7,0,0,1,0,.2v3.27l-0.28.61,1.17,30.39a0.7,0.7,0,0,1-.27.58l-0.2.15a0.7,0.7,0,0,1-1.13-.49l-1-12.25-1.7-21.16a0.7,0.7,0,0,1,0-.15l0.42-3a0.7,0.7,0,0,1,.36-0.52l0.82-.44A0.7,0.7,0,0,1,195.08,79.91Z"/><path class="cls-13" d="M188.49,114l0.44,0.32v0.78a0.7,0.7,0,0,1-.34.6,20.39,20.39,0,0,1-3.49,1.75,3.73,3.73,0,0,1-2.49-.21c-0.46-.37,2.5-2.55,3.27-3.11a0.69,0.69,0,0,1,.41-0.13h2.2Z"/><path class="cls-11" d="M185.46,79.29l0.31,33.83a0.7,0.7,0,0,0,.13.4l0.57,0.78,0.35-29.22a0.7,0.7,0,0,1,1.28-.37L190,87.59a0.7,0.7,0,0,1,.11.29l3.65,28.8a0.7,0.7,0,0,0,.22.42h0a0.7,0.7,0,0,0,1.17-.57l-2.64-32.92a0.7,0.7,0,0,1,0-.15l0.36-2.54a0.7,0.7,0,0,0-.69-0.8,12.33,12.33,0,0,1-3.37-.45,10.91,10.91,0,0,1-2.27-1A0.7,0.7,0,0,0,185.46,79.29Z"/><path class="cls-14" d="M188.1,84.72l1.83,2.8A0.7,0.7,0,0,1,190,88l-0.93,9.71a0.7,0.7,0,0,0,0,.14l0.41,3.78a0.7,0.7,0,0,1,0,.12l-0.66,11.65a0.7,0.7,0,0,1-.59.65l-1,.16a0.7,0.7,0,0,1-.81-0.7l0.34-28.39A0.7,0.7,0,0,1,188.1,84.72Z"/><path class="cls-6" d="M197.7,84.23a0.7,0.7,0,0,1,.92.66,3.24,3.24,0,0,1-.26,1.68c-0.38.3-1.94,1.14-1.94,1.14l-0.25-.58,0.61-.36,0-.68-0.87.41-0.18-.62,0.59-1.2,0-.71a2.85,2.85,0,0,0,1.08.33A1.45,1.45,0,0,0,197.7,84.23Z"/><path class="cls-6" d="M61.51,54.45s-0.15,1.19-.26,1.66a2.69,2.69,0,0,0,.3,2.17,1.65,1.65,0,0,0,1.27.49c0.3-.11-0.1-1.06-0.13-1.5a1.56,1.56,0,0,1,.19-1.21,2.8,2.8,0,0,0,.12.38c0.08,0.26.14,0.53,0.2,0.79a0.1,0.1,0,0,0,0,.06,0.07,0.07,0,0,0,.08,0,1,1,0,0,0,.23-1.05,21.42,21.42,0,0,1-.2-2.26Z"/><path class="cls-15" d="M63,41.2l-1.88,13a3.26,3.26,0,0,0,1.15.54,9.62,9.62,0,0,0,1.29-.2l0.26-5.26Z"/><path class="cls-23" d="M70.86,31.64v4l4.9,3.82L77,51.22v8.41a4,4,0,0,1-1.55.65,2.69,2.69,0,0,1-1.3-.55l-0.2-8.62L73.16,47l-0.54,2.14L73,55a5.66,5.66,0,0,1-5,1.49c-3.38-.43-4.38-2.61-4.38-2.61L62.71,43.29l0.64-8.36,3.16-.21Z"/><polygon class="cls-24" points="63.78 26.98 65.18 28.16 68.13 28.16 68.66 28.16 69.57 29.28 69.57 30.62 69.89 31.11 70.86 31.64 71.26 31.23 71.29 30.09 71.72 29.31 71.45 25.91 68.07 24.57 63.78 26.98"/><polygon class="cls-10" points="65.72 34.77 67 37.12 70.86 35.68 70.86 31.64 65.72 34.77"/><polygon class="cls-6" points="64.86 27.89 64.86 32.36 65.95 35.42 67.38 35.93 70.56 33.87 70.43 32.87 70.86 31.64 70.7 31.55 71.02 31.24 71.05 30.11 70.46 30.49 70.43 30.7 69.58 30.66 69.57 29.28 68.66 28.16 65.18 28.16 64.86 27.89"/><path class="cls-11" d="M67,37.12c0,0.11,1,1.82,1,1.82l-1.11.86V52.7L65.7,54.06l-1.11-2.64L66,39l-0.36-1.07Z"/><polygon class="cls-15" points="72.7 41.83 73.2 47.22 72.27 41.83 72.7 41.83"/><path class="cls-13" d="M72.34,93.13l-0.24,5a0.57,0.57,0,0,0,.64.67c0.75,0,1.74-1.93,1.74-1.93V93.64L74.08,93Z"/><polygon class="cls-14" points="72.95 55.05 73.97 58.37 73.97 61.75 73.7 62.35 74.88 93.1 73.38 94.28 72.3 80.73 70.59 59.49 71.08 56.06 72.95 55.05"/><path class="cls-13" d="M66.62,89.94l0.44,0.32v1.18a25.13,25.13,0,0,1-3.83,2,3.73,3.73,0,0,1-2.49-.21c-0.53-.42,3.46-3.24,3.46-3.24h2.43Z"/><path class="cls-11" d="M63.57,53.93L63.9,89.3l0.7,1L65,58.74l3.22,4.93,3.7,29.21,1.5,1.39L70.6,59.5l0.48-3.43a13.32,13.32,0,0,1-4.18-.43A11.07,11.07,0,0,1,63.57,53.93Z"/><polygon class="cls-14" points="64.97 58.74 68.18 63.68 67.22 73.7 67.65 77.61 66.95 89.89 64.59 90.26 64.97 58.74"/><path class="cls-6" d="M76.72,59.79s0.15,2.44-.23,2.74-1.94,1.14-1.94,1.14l-0.25-.58,0.61-.36,0-.68L74,62.47l-0.18-.62,0.59-1.2,0-.71a2.85,2.85,0,0,0,1.08.33A4.61,4.61,0,0,0,76.72,59.79Z"/><path class="cls-6" d="M101,78.08s-0.15,1.19-.26,1.66a2.69,2.69,0,0,0,.3,2.17,1.65,1.65,0,0,0,1.27.49c0.3-.11-0.1-1.06-0.13-1.5a1.56,1.56,0,0,1,.19-1.21,2.8,2.8,0,0,0,.12.38c0.08,0.26.14,0.53,0.2,0.79a0.1,0.1,0,0,0,0,.06,0.07,0.07,0,0,0,.08,0,1,1,0,0,0,.23-1.05,21.42,21.42,0,0,1-.2-2.26Z"/><path class="cls-25" d="M102.56,64.83l-1.88,13a3.26,3.26,0,0,0,1.15.54,9.62,9.62,0,0,0,1.29-.2l0.26-5.26Z"/><path class="cls-26" d="M110.38,55.27v4l4.9,3.82,1.21,11.72v8.41a4,4,0,0,1-1.55.65,2.69,2.69,0,0,1-1.3-.55l-0.2-8.62-0.75-4.07-0.54,2.14,0.33,5.86a5.66,5.66,0,0,1-5,1.49c-3.38-.43-4.38-2.61-4.38-2.61l-0.86-10.64,0.64-8.36,3.16-.21Z"/><polygon class="cls-17" points="103.31 50.61 104.7 51.79 107.65 51.79 108.18 51.79 109.09 52.91 109.09 54.25 109.42 54.73 110.38 55.27 110.78 54.86 110.81 53.72 111.24 52.94 110.97 49.53 107.59 48.2 103.31 50.61"/><polygon class="cls-10" points="105.24 58.4 106.53 60.75 110.38 59.31 110.38 55.27 105.24 58.4"/><polygon class="cls-6" points="104.38 51.51 104.38 55.99 105.48 59.05 106.9 59.56 110.09 57.49 109.95 56.5 110.38 55.27 110.23 55.18 110.54 54.87 110.57 53.74 109.98 54.12 109.95 54.33 109.1 54.29 109.09 52.91 108.18 51.79 104.7 51.79 104.38 51.51"/><path class="cls-11" d="M106.51,60.75c0,0.11,1,1.82,1,1.82l-1.11.86v12.9l-1.14,1.36L104.11,75l1.39-12.4-0.36-1.07Z"/><polygon class="cls-25" points="112.22 65.45 112.72 70.84 111.79 65.45 112.22 65.45"/><path class="cls-13" d="M111.86,116.76l-0.24,5a0.57,0.57,0,0,0,.64.67c0.75,0,1.74-1.93,1.74-1.93v-3.24l-0.4-.67Z"/><polygon class="cls-14" points="112.47 78.68 113.49 82 113.49 85.38 113.22 85.98 114.41 116.73 112.9 117.91 111.82 104.36 110.12 83.13 110.6 79.69 112.47 78.68"/><path class="cls-13" d="M106.14,113.57l0.44,0.32v1.18a25.13,25.13,0,0,1-3.83,2,3.73,3.73,0,0,1-2.49-.21c-0.53-.42,3.46-3.24,3.46-3.24h2.43Z"/><path class="cls-11" d="M103.1,77.56l0.32,35.37,0.7,1,0.38-31.52,3.22,4.93,3.7,29.21,1.5,1.39-2.79-34.79,0.48-3.43a13.32,13.32,0,0,1-4.18-.43A11.07,11.07,0,0,1,103.1,77.56Z"/><polygon class="cls-14" points="104.49 82.37 107.7 87.31 106.74 97.33 107.17 101.24 106.47 113.52 104.11 113.89 104.49 82.37"/><path class="cls-6" d="M116.24,83.42s0.15,2.44-.23,2.74-1.94,1.14-1.94,1.14l-0.25-.58,0.61-.36,0-.68-0.87.41-0.18-.62,0.59-1.2,0-.71a2.85,2.85,0,0,0,1.08.33A4.61,4.61,0,0,0,116.24,83.42Z"/><path class="cls-6" d="M141.69,101.41s-0.15,1.19-.26,1.66a2.69,2.69,0,0,0,.3,2.17,1.65,1.65,0,0,0,1.27.49c0.3-.11-0.1-1.06-0.13-1.5a1.56,1.56,0,0,1,.19-1.21,2.8,2.8,0,0,0,.12.38c0.08,0.26.14,0.53,0.2,0.79a0.1,0.1,0,0,0,0,.06,0.07,0.07,0,0,0,.08,0,1,1,0,0,0,.23-1.05,21.42,21.42,0,0,1-.2-2.26Z"/><path class="cls-15" d="M143.21,88.16l-1.88,13a3.26,3.26,0,0,0,1.15.54,9.62,9.62,0,0,0,1.29-.2L144,96.26Z"/><path class="cls-27" d="M151,78.6v4l4.9,3.82,1.21,11.72v8.41a4,4,0,0,1-1.55.65,2.69,2.69,0,0,1-1.3-.55l-0.2-8.62L153.34,94l-0.54,2.14,0.33,5.86a5.66,5.66,0,0,1-5,1.49c-3.38-.43-4.38-2.61-4.38-2.61l-0.86-10.64,0.64-8.36,3.16-.21Z"/><polygon class="cls-28" points="143.96 73.94 145.36 75.11 148.31 75.11 148.84 75.11 149.75 76.24 149.75 77.58 150.07 78.06 151.04 78.6 151.44 78.19 151.47 77.04 151.9 76.27 151.63 72.86 148.25 71.52 143.96 73.94"/><polygon class="cls-10" points="145.9 81.73 147.18 84.08 151.04 82.64 151.04 78.6 145.9 81.73"/><polygon class="cls-6" points="145.04 74.84 145.04 79.32 146.13 82.38 147.56 82.89 150.75 80.82 150.61 79.83 151.04 78.6 150.88 78.51 151.2 78.2 151.23 77.07 150.64 77.45 150.61 77.66 149.76 77.61 149.75 76.24 148.84 75.11 145.36 75.11 145.04 74.84"/><path class="cls-21" d="M147.17,84.08c0,0.11,1,1.82,1,1.82l-1.11.86v12.9L145.88,101l-1.11-2.64L146.17,86l-0.36-1.07Z"/><polygon class="cls-15" points="152.88 88.78 153.38 94.17 152.45 88.78 152.88 88.78"/><path class="cls-13" d="M152.52,140.09l-0.24,5a0.57,0.57,0,0,0,.64.67c0.75,0,1.74-1.93,1.74-1.93V140.6l-0.4-.67Z"/><polygon class="cls-14" points="153.13 102 154.15 105.33 154.15 108.7 153.88 109.31 155.06 140.06 153.56 141.24 152.48 127.69 150.78 106.45 151.26 103.02 153.13 102"/><path class="cls-13" d="M146.8,136.9l0.44,0.32v1.18a25.13,25.13,0,0,1-3.83,2,3.73,3.73,0,0,1-2.49-.21c-0.53-.42,3.46-3.24,3.46-3.24h2.43Z"/><path class="cls-11" d="M143.75,100.89l0.32,35.37,0.7,1,0.38-31.52,3.22,4.93,3.7,29.21,1.5,1.39-2.79-34.79,0.48-3.43a13.32,13.32,0,0,1-4.18-.43A11.07,11.07,0,0,1,143.75,100.89Z"/><polygon class="cls-14" points="145.15 105.7 148.36 110.63 147.4 120.66 147.83 124.57 147.13 136.84 144.77 137.22 145.15 105.7"/><path class="cls-6" d="M156.9,106.75s0.15,2.44-.23,2.74-1.94,1.14-1.94,1.14l-0.25-.58,0.61-.36,0-.68-0.87.41-0.18-.62,0.59-1.2,0-.71a2.85,2.85,0,0,0,1.08.33A4.61,4.61,0,0,0,156.9,106.75Z"/><path class="cls-6" d="M25.52,73.81s-0.15,1.19-.26,1.66a2.69,2.69,0,0,0,.3,2.17,1.65,1.65,0,0,0,1.27.49c0.3-.11-0.1-1.06-0.13-1.5a1.56,1.56,0,0,1,.19-1.21,2.8,2.8,0,0,0,.12.38c0.08,0.26.14,0.53,0.2,0.79a0.1,0.1,0,0,0,0,.06,0.07,0.07,0,0,0,.08,0,1,1,0,0,0,.23-1.05,21.42,21.42,0,0,1-.2-2.26Z"/><path class="cls-29" d="M27,60.55l-1.88,13a3.26,3.26,0,0,0,1.15.54,9.62,9.62,0,0,0,1.29-.2l0.26-5.26Z"/><path class="cls-30" d="M34.86,51v4l4.9,3.82L41,70.58V79a4,4,0,0,1-1.55.65,2.69,2.69,0,0,1-1.3-.55l-0.2-8.62L37.17,66.4l-0.54,2.14L37,74.4a5.66,5.66,0,0,1-5,1.49c-3.38-.43-4.38-2.61-4.38-2.61L26.71,62.64l0.64-8.36,3.16-.21Z"/><polygon class="cls-20" points="27.79 46.33 29.18 47.51 32.13 47.51 32.66 47.51 33.58 48.64 33.58 49.98 33.9 50.46 34.86 51 35.26 50.59 35.29 49.44 35.72 48.66 35.45 45.26 32.08 43.92 27.79 46.33"/><polygon class="cls-10" points="29.72 54.12 31.01 56.48 34.86 55.03 34.86 51 29.72 54.12"/><polygon class="cls-6" points="28.86 47.24 28.86 51.72 29.96 54.77 31.38 55.28 34.57 53.22 34.43 52.23 34.86 51 34.71 50.91 35.02 50.59 35.05 49.47 34.46 49.84 34.43 50.06 33.58 50.01 33.58 48.64 32.66 47.51 29.18 47.51 28.86 47.24"/><path class="cls-11" d="M31,56.48c0,0.11,1,1.82,1,1.82l-1.11.86v12.9L29.7,73.42l-1.11-2.64L30,58.37,29.63,57.3Z"/><polygon class="cls-22" points="36.7 61.18 37.2 66.57 36.27 61.18 36.7 61.18"/><path class="cls-13" d="M36.34,112.48l-0.24,5a0.57,0.57,0,0,0,.64.67c0.75,0,1.74-1.93,1.74-1.93V113l-0.4-.67Z"/><polygon class="cls-14" points="36.96 74.4 37.98 77.72 37.98 81.1 37.7 81.71 38.89 112.46 37.38 113.64 36.3 100.08 34.6 78.85 35.08 75.42 36.96 74.4"/><path class="cls-13" d="M30.62,109.29l0.44,0.32v1.18a25.13,25.13,0,0,1-3.83,2,3.73,3.73,0,0,1-2.49-.21c-0.53-.42,3.46-3.24,3.46-3.24h2.43Z"/><path class="cls-11" d="M27.58,73.29l0.32,35.37,0.7,1L29,78.1,32.19,83l3.7,29.21,1.5,1.39L34.6,78.85l0.48-3.43A13.32,13.32,0,0,1,30.9,75,11.07,11.07,0,0,1,27.58,73.29Z"/><polygon class="cls-14" points="28.97 78.1 32.19 83.03 31.22 93.05 31.65 96.97 30.95 109.24 28.59 109.62 28.97 78.1"/><path class="cls-6" d="M40.72,79.15s0.15,2.44-.23,2.74S38.55,83,38.55,83l-0.25-.58,0.61-.36,0-.68L38,81.82l-0.18-.62L38.43,80l0-.71a2.85,2.85,0,0,0,1.08.33A4.61,4.61,0,0,0,40.72,79.15Z"/><path class="cls-6" d="M66.77,98.4s-0.15,1.19-.26,1.66a2.69,2.69,0,0,0,.3,2.17,1.65,1.65,0,0,0,1.27.49c0.3-.11-0.1-1.06-0.13-1.5a1.56,1.56,0,0,1,.19-1.21,2.8,2.8,0,0,0,.12.38c0.08,0.26.14,0.53,0.2,0.79a0.1,0.1,0,0,0,0,.06,0.07,0.07,0,0,0,.08,0,1,1,0,0,0,.23-1.05,21.42,21.42,0,0,1-.2-2.26Z"/><path class="cls-31" d="M68.29,85.15l-1.88,13a3.26,3.26,0,0,0,1.15.54,9.62,9.62,0,0,0,1.29-.2l0.26-5.26Z"/><path class="cls-32" d="M76.11,75.59v4L81,83.45l1.21,11.72v8.41a4,4,0,0,1-1.55.65,2.69,2.69,0,0,1-1.3-.55l-0.2-8.62L78.42,91l-0.54,2.14L78.21,99a5.66,5.66,0,0,1-5,1.49c-3.38-.43-4.38-2.61-4.38-2.61L68,87.24l0.64-8.36,3.16-.21Z"/><polygon class="cls-24" points="69.04 70.92 70.43 72.1 73.38 72.1 73.92 72.1 74.83 73.23 74.83 74.57 75.15 75.05 76.11 75.59 76.51 75.18 76.54 74.03 76.97 73.26 76.7 69.85 73.33 68.51 69.04 70.92"/><polygon class="cls-10" points="70.97 78.71 72.26 81.07 76.11 79.63 76.11 75.59 70.97 78.71"/><polygon class="cls-6" points="70.11 71.83 70.11 76.31 71.21 79.37 72.63 79.88 75.82 77.81 75.68 76.82 76.11 75.59 75.96 75.5 76.27 75.19 76.3 74.06 75.71 74.44 75.68 74.65 74.83 74.6 74.83 73.23 73.92 72.1 70.43 72.1 70.11 71.83"/><path class="cls-11" d="M72.24,81.07c0,0.11,1,1.82,1,1.82l-1.11.86v12.9L71,98l-1.11-2.64L71.24,83l-0.36-1.07Z"/><polygon class="cls-12" points="77.95 85.77 78.45 91.16 77.53 85.77 77.95 85.77"/><path class="cls-13" d="M77.59,137.08l-0.24,5a0.57,0.57,0,0,0,.64.67c0.75,0,1.74-1.93,1.74-1.93v-3.24l-0.4-.67Z"/><polygon class="cls-14" points="78.21 98.99 79.23 102.32 79.23 105.69 78.95 106.3 80.14 137.05 78.64 138.23 77.55 124.68 75.85 103.44 76.33 100.01 78.21 98.99"/><path class="cls-13" d="M71.87,133.89l0.44,0.32v1.18a25.13,25.13,0,0,1-3.83,2,3.73,3.73,0,0,1-2.49-.21c-0.53-.42,3.46-3.24,3.46-3.24h2.43Z"/><path class="cls-11" d="M68.83,97.88l0.32,35.37,0.7,1,0.38-31.52,3.22,4.93,3.7,29.21,1.5,1.39-2.79-34.79L76.33,100a13.32,13.32,0,0,1-4.18-.43A11.07,11.07,0,0,1,68.83,97.88Z"/><polygon class="cls-14" points="70.22 102.69 73.44 107.62 72.47 117.65 72.9 121.56 72.2 133.83 69.85 134.21 70.22 102.69"/><path class="cls-6" d="M82,103.74s0.15,2.44-.23,2.74-1.94,1.14-1.94,1.14L79.55,107l0.61-.36,0-.68-0.87.41-0.18-.62,0.59-1.2,0-.71a2.85,2.85,0,0,0,1.08.33A4.61,4.61,0,0,0,82,103.74Z"/><path class="cls-6" d="M105,121.9s-0.15,1.19-.26,1.66a2.69,2.69,0,0,0,.3,2.17,1.65,1.65,0,0,0,1.27.49c0.3-.11-0.1-1.06-0.13-1.5a1.56,1.56,0,0,1,.19-1.21,2.8,2.8,0,0,0,.12.38c0.08,0.26.14,0.53,0.2,0.79a0.1,0.1,0,0,0,0,.06,0.07,0.07,0,0,0,.08,0,1,1,0,0,0,.23-1.05,21.42,21.42,0,0,1-.2-2.26Z"/><path class="cls-15" d="M106.53,108.65l-1.88,13a3.26,3.26,0,0,0,1.15.54,9.62,9.62,0,0,0,1.29-.2l0.26-5.26Z"/><path class="cls-33" d="M114.35,99.09v4l4.9,3.82,1.21,11.72v8.41a4,4,0,0,1-1.55.65,2.69,2.69,0,0,1-1.3-.55l-0.2-8.62-0.75-4.07-0.54,2.14,0.33,5.86a5.66,5.66,0,0,1-5,1.49c-3.38-.43-4.38-2.61-4.38-2.61l-0.86-10.64,0.64-8.36,3.16-.21Z"/><polygon class="cls-17" points="107.28 94.42 108.67 95.6 111.62 95.6 112.15 95.6 113.07 96.73 113.07 98.07 113.39 98.55 114.35 99.09 114.75 98.68 114.78 97.53 115.21 96.76 114.94 93.35 111.56 92.01 107.28 94.42"/><polygon class="cls-10" points="109.21 102.22 110.5 104.57 114.35 103.13 114.35 99.09 109.21 102.22"/><polygon class="cls-6" points="108.35 95.33 108.35 99.81 109.45 102.87 110.87 103.38 114.06 101.31 113.92 100.32 114.35 99.09 114.2 99 114.51 98.69 114.54 97.56 113.95 97.94 113.92 98.15 113.07 98.1 113.07 96.73 112.15 95.6 108.67 95.6 108.35 95.33"/><path class="cls-21" d="M110.48,104.57c0,0.11,1,1.82,1,1.82l-1.11.86v12.9l-1.14,1.36-1.11-2.64,1.39-12.4-0.36-1.07Z"/><polygon class="cls-15" points="116.19 109.27 116.69 114.66 115.76 109.27 116.19 109.27"/><path class="cls-13" d="M115.83,160.58l-0.24,5a0.57,0.57,0,0,0,.64.67c0.75,0,1.74-1.93,1.74-1.93v-3.24l-0.4-.67Z"/><polygon class="cls-14" points="116.45 122.49 117.47 125.82 117.47 129.19 117.19 129.8 118.38 160.55 116.88 161.73 115.79 148.18 114.09 126.94 114.57 123.51 116.45 122.49"/><path class="cls-13" d="M110.11,157.39l0.44,0.32v1.18a25.13,25.13,0,0,1-3.83,2,3.73,3.73,0,0,1-2.49-.21c-0.53-.42,3.46-3.24,3.46-3.24h2.43Z"/><path class="cls-11" d="M107.07,121.38l0.32,35.37,0.7,1,0.38-31.52,3.22,4.93,3.7,29.21,1.5,1.39-2.79-34.79,0.48-3.43a13.32,13.32,0,0,1-4.18-.43A11.07,11.07,0,0,1,107.07,121.38Z"/><polygon class="cls-14" points="108.46 126.19 111.68 131.12 110.71 141.15 111.14 145.06 110.44 157.33 108.08 157.71 108.46 126.19"/><path class="cls-6" d="M120.21,127.24s0.15,2.44-.23,2.74-1.94,1.14-1.94,1.14l-0.25-.58,0.61-.36,0-.68-0.87.41-0.18-.62,0.59-1.2,0-.71a2.85,2.85,0,0,0,1.08.33A4.61,4.61,0,0,0,120.21,127.24Z"/></svg>