<svg id="Layer_10" data-name="Layer 10" xmlns="http://www.w3.org/2000/svg" xmlns:xlink="http://www.w3.org/1999/xlink" viewBox="0 0 202.57 248.96"><defs><style>.cls-1{fill:url(#Безымянный_градиент_8);}.cls-2{fill:#fff;}.cls-3{fill:url(#Безымянный_градиент_8-2);}.cls-4{fill:#214b88;}.cls-5{fill:url(#Безымянный_градиент_8-3);}.cls-6{fill:url(#Безымянный_градиент_8-4);}.cls-7{fill:url(#Безымянный_градиент_8-5);}.cls-8{fill:url(#Безымянный_градиент_8-6);}.cls-9{fill:url(#Безымянный_градиент_8-7);}.cls-10{fill:url(#Безымянный_градиент_8-8);}.cls-11{fill:url(#Безымянный_градиент_8-9);}.cls-12{fill:url(#Безымянный_градиент_8-10);}.cls-13{fill:url(#Безымянный_градиент_8-11);}.cls-14{fill:url(#Безымянный_градиент_8-12);}.cls-15{fill:url(#Безымянный_градиент_8-13);}.cls-16{fill:url(#Безымянный_градиент_8-14);}.cls-17{fill:url(#Безымянный_градиент_94);}.cls-18{fill:url(#linear-gradient);}.cls-19{fill:url(#linear-gradient-2);}.cls-20{fill:url(#Безымянный_градиент_8-15);}.cls-21{fill:url(#Безымянный_градиент_8-16);}.cls-22,.cls-33{opacity:0.5;}.cls-22{fill:url(#linear-gradient-3);}.cls-23{fill:#03376b;}.cls-24{fill:#00376a;}.cls-25{fill:#214b89;}.cls-26{fill:#9a6136;}.cls-27{fill:url(#Безымянный_градиент_14);}.cls-28{fill:url(#Безымянный_градиент_14-2);}.cls-29{fill:#d6e1e5;}.cls-30{fill:#884a22;}.cls-31{fill:#222;}.cls-32{fill:url(#Безымянный_градиент_14-3);}.cls-33{fill:url(#linear-gradient-4);}.cls-34{fill:#223a66;}.cls-35{fill:#f6dbab;}.cls-36{fill:#295588;}.cls-37{fill:#1c355e;}.cls-38{fill:#0a9352;}.cls-39{fill:#295488;}.cls-40{fill:#eaa542;}.cls-41{fill:url(#Безымянный_градиент_8-17);}.cls-42{fill:url(#linear-gradient-5);}.cls-43{fill:#dedffb;}.cls-44{fill:#f2f2f2;}.cls-45{fill:url(#linear-gradient-6);}.cls-46{fill:url(#linear-gradient-7);}.cls-47{fill:url(#Безымянный_градиент_8-18);}.cls-48{fill:#a9abeb;}.cls-49{fill:url(#linear-gradient-8);}.cls-50{fill:url(#linear-gradient-9);}.cls-51{fill:url(#linear-gradient-10);}.cls-52{fill:url(#linear-gradient-11);}.cls-53{fill:url(#Безымянный_градиент_8-19);}.cls-54{fill:url(#linear-gradient-12);}</style><linearGradient id="Безымянный_градиент_8" x1="237.86" y1="71.39" x2="342.75" y2="71.39" gradientTransform="matrix(-1, 0, 0, 1, 348.15, 0)" gradientUnits="userSpaceOnUse"><stop offset="0" stop-color="#0fce64"/><stop offset="1" stop-color="#0fab64"/></linearGradient><linearGradient id="Безымянный_градиент_8-2" x1="234.07" y1="72.17" x2="339.21" y2="72.17" xlink:href="#Безымянный_градиент_8"/><linearGradient id="Безымянный_градиент_8-3" x1="259.24" y1="45.19" x2="260.99" y2="45.19" xlink:href="#Безымянный_градиент_8"/><linearGradient id="Безымянный_градиент_8-4" x1="246.79" y1="40.1" x2="255.53" y2="40.1" xlink:href="#Безымянный_градиент_8"/><linearGradient id="Безымянный_градиент_8-5" x1="262.04" y1="54.59" x2="263.79" y2="54.59" xlink:href="#Безымянный_градиент_8"/><linearGradient id="Безымянный_градиент_8-6" x1="246.79" y1="44.01" x2="255.53" y2="44.01" xlink:href="#Безымянный_градиент_8"/><linearGradient id="Безымянный_градиент_8-7" x1="259.24" y1="53.01" x2="260.99" y2="53.01" xlink:href="#Безымянный_градиент_8"/><linearGradient id="Безымянный_градиент_8-8" x1="246.79" y1="47.93" x2="255.53" y2="47.93" xlink:href="#Безымянный_градиент_8"/><linearGradient id="Безымянный_градиент_8-9" x1="259.24" y1="67.74" x2="260.99" y2="67.74" xlink:href="#Безымянный_градиент_8"/><linearGradient id="Безымянный_градиент_8-10" x1="246.79" y1="62.65" x2="255.53" y2="62.65" xlink:href="#Безымянный_градиент_8"/><linearGradient id="Безымянный_градиент_8-11" x1="262.04" y1="77.14" x2="263.79" y2="77.14" xlink:href="#Безымянный_градиент_8"/><linearGradient id="Безымянный_градиент_8-12" x1="246.79" y1="66.56" x2="255.53" y2="66.56" xlink:href="#Безымянный_градиент_8"/><linearGradient id="Безымянный_градиент_8-13" x1="259.24" y1="75.56" x2="260.99" y2="75.56" xlink:href="#Безымянный_градиент_8"/><linearGradient id="Безымянный_градиент_8-14" x1="246.79" y1="70.48" x2="255.53" y2="70.48" xlink:href="#Безымянный_градиент_8"/><linearGradient id="Безымянный_градиент_94" x1="23.35" y1="81.14" x2="72.43" y2="81.14" gradientUnits="userSpaceOnUse"><stop offset="0" stop-color="#00376a"/><stop offset="1" stop-color="#214b88"/></linearGradient><linearGradient id="linear-gradient" x1="48.26" y1="202.85" x2="33.67" y2="202.85" gradientUnits="userSpaceOnUse"><stop offset="0" stop-color="#f4f3fb"/><stop offset="1" stop-color="#dedffb"/></linearGradient><linearGradient id="linear-gradient-2" x1="3.69" y1="178.9" x2="162.43" y2="178.9" xlink:href="#linear-gradient"/><linearGradient id="Безымянный_градиент_8-15" x1="0.97" y1="210.68" x2="40.37" y2="210.68" gradientTransform="matrix(1, 0, 0, 1, 0, 0)" xlink:href="#Безымянный_градиент_8"/><linearGradient id="Безымянный_градиент_8-16" x1="151.13" y1="226.55" x2="190.53" y2="226.55" gradientTransform="matrix(1, 0, 0, 1, 0, 0)" xlink:href="#Безымянный_градиент_8"/><linearGradient id="linear-gradient-3" x1="22.77" y1="168.55" x2="53.58" y2="137.75" gradientTransform="matrix(-1, 0, 0, 1, 212.51, 0)" gradientUnits="userSpaceOnUse"><stop offset="0" stop-color="#f5f7f6"/><stop offset="1" stop-color="#d9d9d9"/></linearGradient><linearGradient id="Безымянный_градиент_14" x1="142.43" y1="72.56" x2="156.13" y2="72.56" gradientUnits="userSpaceOnUse"><stop offset="0" stop-color="#ff4071"/><stop offset="1" stop-color="#cd1c4a"/></linearGradient><linearGradient id="Безымянный_градиент_14-2" x1="150.47" y1="77" x2="172.9" y2="77" xlink:href="#Безымянный_градиент_14"/><linearGradient id="Безымянный_градиент_14-3" x1="155.88" y1="70.05" x2="170.16" y2="84.33" xlink:href="#Безымянный_градиент_14"/><linearGradient id="linear-gradient-4" x1="135.6" y1="177.83" x2="79.13" y2="177.83" xlink:href="#linear-gradient-3"/><linearGradient id="Безымянный_градиент_8-17" x1="105.15" y1="94.96" x2="138.71" y2="94.96" gradientTransform="matrix(1, 0, 0, 1, 0, 0)" xlink:href="#Безымянный_градиент_8"/><linearGradient id="linear-gradient-5" x1="0.4" y1="155.93" x2="4.09" y2="155.93" xlink:href="#linear-gradient"/><linearGradient id="linear-gradient-6" x1="20.51" y1="183.51" x2="40.94" y2="183.51" xlink:href="#linear-gradient"/><linearGradient id="linear-gradient-7" x1="0" y1="183.64" x2="20.73" y2="183.64" xlink:href="#linear-gradient"/><linearGradient id="Безымянный_градиент_8-18" x1="1.27" y1="183.9" x2="19.45" y2="183.9" gradientTransform="matrix(1, 0, 0, 1, 0, 0)" xlink:href="#Безымянный_градиент_8"/><linearGradient id="linear-gradient-8" x1="6.2" y1="153.89" x2="35.26" y2="153.89" gradientUnits="userSpaceOnUse"><stop offset="0" stop-color="#d5d0fb"/><stop offset="1" stop-color="#a9abeb"/></linearGradient><linearGradient id="linear-gradient-9" x1="151.78" y1="173.22" x2="155.46" y2="173.22" xlink:href="#linear-gradient"/><linearGradient id="linear-gradient-10" x1="171.89" y1="200.8" x2="192.32" y2="200.8" xlink:href="#linear-gradient"/><linearGradient id="linear-gradient-11" x1="151.38" y1="200.94" x2="172.1" y2="200.94" xlink:href="#linear-gradient"/><linearGradient id="Безымянный_градиент_8-19" x1="152.65" y1="201.19" x2="170.83" y2="201.19" gradientTransform="matrix(1, 0, 0, 1, 0, 0)" xlink:href="#Безымянный_градиент_8"/><linearGradient id="linear-gradient-12" x1="157.57" y1="171.18" x2="186.63" y2="171.18" xlink:href="#linear-gradient-8"/></defs><title>introduction_broker-model</title><g id="Layer_7" data-name="Layer 7"><path class="cls-1" d="M108.57,85.87l-98,56.46a3.44,3.44,0,0,1-5.16-3V60.44a3.44,3.44,0,0,1,1.71-3l98-57a3.44,3.44,0,0,1,5.17,3V82.88A3.44,3.44,0,0,1,108.57,85.87Z"/><path class="cls-2" d="M112.24,86.64l-98,56.46a3.44,3.44,0,0,1-5.16-3V61.21a3.44,3.44,0,0,1,1.71-3l98-57a3.44,3.44,0,0,1,5.17,3V83.66A3.44,3.44,0,0,1,112.24,86.64Z"/><path class="cls-3" d="M12.51,143.69a3.58,3.58,0,0,1-3.57-3.57V61.21a3.58,3.58,0,0,1,1.77-3.08l98-57a3.57,3.57,0,0,1,5.36,3.08V83.66a3.58,3.58,0,0,1-1.79,3.09l-98,56.46A3.56,3.56,0,0,1,12.51,143.69Zm98-142.79a3.31,3.31,0,0,0-1.67.45l-98,57A3.33,3.33,0,0,0,9.2,61.21v78.91a3.32,3.32,0,0,0,5,2.87l98-56.46a3.33,3.33,0,0,0,1.66-2.87V4.22A3.33,3.33,0,0,0,110.52.9Z"/><path class="cls-4" d="M91.73,42.72v1.11a0.39,0.39,0,0,1-.19.33l-1,.57A0.39,0.39,0,0,1,90,44.39V43.28a0.39,0.39,0,0,1,.19-0.34l1-.56A0.39,0.39,0,0,1,91.73,42.72Z"/><path class="cls-5" d="M88.92,44.35v1.11a0.39,0.39,0,0,1-.19.33l-1,.57A0.39,0.39,0,0,1,87.17,46V44.91a0.39,0.39,0,0,1,.19-0.34l1-.56A0.39,0.39,0,0,1,88.92,44.35Z"/><path class="cls-6" d="M92.62,41.9v0.83a0.52,0.52,0,0,0,.79.45l7.69-4.49a0.52,0.52,0,0,0,.26-0.45V37.48a0.52,0.52,0,0,0-.78-0.45l-7.69,4.42A0.52,0.52,0,0,0,92.62,41.9Z"/><path class="cls-4" d="M91.73,46.63v1.11a0.39,0.39,0,0,1-.19.33l-1,.57A0.39,0.39,0,0,1,90,48.31V47.19a0.39,0.39,0,0,1,.19-0.34l1-.56A0.39,0.39,0,0,1,91.73,46.63Z"/><path class="cls-7" d="M86.11,53.75v1.11a0.39,0.39,0,0,1-.19.33l-1,.57a0.39,0.39,0,0,1-.58-0.33V54.31A0.39,0.39,0,0,1,84.55,54l1-.56A0.39,0.39,0,0,1,86.11,53.75Z"/><path class="cls-8" d="M92.62,45.81v0.83a0.52,0.52,0,0,0,.79.45l7.69-4.49a0.52,0.52,0,0,0,.26-0.45V41.39a0.52,0.52,0,0,0-.78-0.45l-7.69,4.42A0.52,0.52,0,0,0,92.62,45.81Z"/><path class="cls-4" d="M91.73,50.55v1.11a0.39,0.39,0,0,1-.19.33l-1,.57A0.39,0.39,0,0,1,90,52.22V51.11a0.39,0.39,0,0,1,.19-0.34l1-.56A0.39,0.39,0,0,1,91.73,50.55Z"/><path class="cls-9" d="M88.92,52.18v1.11a0.39,0.39,0,0,1-.19.33l-1,.57a0.39,0.39,0,0,1-.58-0.33V52.74a0.39,0.39,0,0,1,.19-0.34l1-.56A0.39,0.39,0,0,1,88.92,52.18Z"/><path class="cls-10" d="M92.62,49.73v0.83a0.52,0.52,0,0,0,.79.45l7.69-4.49a0.52,0.52,0,0,0,.26-0.45V45.3a0.52,0.52,0,0,0-.78-0.45l-7.69,4.42A0.52,0.52,0,0,0,92.62,49.73Z"/><path class="cls-4" d="M91.73,65.27v1.11a0.39,0.39,0,0,1-.19.33l-1,.57A0.39,0.39,0,0,1,90,66.94V65.83a0.39,0.39,0,0,1,.19-0.34l1-.56A0.39,0.39,0,0,1,91.73,65.27Z"/><path class="cls-11" d="M88.92,66.9V68a0.39,0.39,0,0,1-.19.33l-1,.57a0.39,0.39,0,0,1-.58-0.33V67.46a0.39,0.39,0,0,1,.19-0.34l1-.56A0.39,0.39,0,0,1,88.92,66.9Z"/><path class="cls-12" d="M92.62,64.45v0.83a0.52,0.52,0,0,0,.79.45l7.69-4.49a0.52,0.52,0,0,0,.26-0.45V60a0.52,0.52,0,0,0-.78-0.45L92.88,64A0.52,0.52,0,0,0,92.62,64.45Z"/><path class="cls-4" d="M91.73,69.18v1.11a0.39,0.39,0,0,1-.19.33l-1,.57A0.39,0.39,0,0,1,90,70.86V69.74a0.39,0.39,0,0,1,.19-0.34l1-.56A0.39,0.39,0,0,1,91.73,69.18Z"/><path class="cls-13" d="M86.11,76.3v1.11a0.39,0.39,0,0,1-.19.33l-1,.57A0.39,0.39,0,0,1,84.36,78V76.86a0.39,0.39,0,0,1,.19-0.34l1-.56A0.39,0.39,0,0,1,86.11,76.3Z"/><path class="cls-14" d="M92.62,68.36v0.83a0.52,0.52,0,0,0,.79.45l7.69-4.49a0.52,0.52,0,0,0,.26-0.45V63.94a0.52,0.52,0,0,0-.78-0.45l-7.69,4.42A0.52,0.52,0,0,0,92.62,68.36Z"/><path class="cls-4" d="M91.73,73.09V74.2a0.39,0.39,0,0,1-.19.33l-1,.57A0.39,0.39,0,0,1,90,74.77V73.66a0.39,0.39,0,0,1,.19-0.34l1-.56A0.39,0.39,0,0,1,91.73,73.09Z"/><path class="cls-15" d="M88.92,74.73v1.11a0.39,0.39,0,0,1-.19.33l-1,.57a0.39,0.39,0,0,1-.58-0.33V75.29A0.39,0.39,0,0,1,87.36,75l1-.56A0.39,0.39,0,0,1,88.92,74.73Z"/><path class="cls-16" d="M92.62,72.27V73.1a0.52,0.52,0,0,0,.79.45l7.69-4.49a0.52,0.52,0,0,0,.26-0.45V67.85a0.52,0.52,0,0,0-.78-0.45l-7.69,4.42A0.52,0.52,0,0,0,92.62,72.27Z"/><path class="cls-17" d="M23.35,68.87l0.46,50.76a1.87,1.87,0,0,0,2.79,1.62l44.69-25a2.25,2.25,0,0,0,1.15-2V42.54A1.75,1.75,0,0,0,69.82,41L24.69,66.56A2.64,2.64,0,0,0,23.35,68.87Z"/><path class="cls-2" d="M32.24,107.24L31.8,107,48.43,75l0.24,0.27c1.55,1.74,4,4.42,4.72,5.19,0.55-1.32,3-7,14.11-31.9L68,48.8C63.18,59.57,54.13,80,53.74,81v0.13l-0.16.06c-0.21.08-.26,0.1-5-5.24Z"/><polygon class="cls-2" points="30.71 109.63 31.11 105.35 32.12 106.94 33.99 106.85 30.71 109.63"/><path class="cls-2" d="M48.59,77.25a0.85,0.85,0,0,1-.79-0.33,1.53,1.53,0,0,1-.32-0.78,2,2,0,0,1,0-.68,1.78,1.78,0,0,1,.43-0.86,1,1,0,0,1,.72-0.33,1,1,0,0,1,.82.59,1.92,1.92,0,0,1,0,1.48A1.28,1.28,0,0,1,48.59,77.25Z"/><path class="cls-2" d="M30.74,111a0.85,0.85,0,0,1-.79-0.33,1.53,1.53,0,0,1-.32-0.78,2,2,0,0,1,0-.68,1.78,1.78,0,0,1,.43-0.86,1,1,0,0,1,.72-0.33,1,1,0,0,1,.82.59,1.92,1.92,0,0,1,0,1.48A1.28,1.28,0,0,1,30.74,111Z"/><path class="cls-2" d="M53.63,82.4a0.85,0.85,0,0,1-.79-0.33,1.53,1.53,0,0,1-.32-0.78,2,2,0,0,1,0-.68A1.78,1.78,0,0,1,53,79.76a1,1,0,0,1,.72-0.33,1,1,0,0,1,.82.59,1.92,1.92,0,0,1,0,1.48A1.28,1.28,0,0,1,53.63,82.4Z"/><path class="cls-2" d="M48.56,76.39a0.13,0.13,0,0,1-.12-0.12v-0.5a0.13,0.13,0,0,1,.25,0v0.5A0.13,0.13,0,0,1,48.56,76.39Z"/><path class="cls-2" d="M48.56,100.79a0.13,0.13,0,0,1-.12-0.12v-1a0.12,0.12,0,1,1,.25,0v1A0.13,0.13,0,0,1,48.56,100.79Zm0-3a0.13,0.13,0,0,1-.12-0.12v-1a0.13,0.13,0,0,1,.25,0v1A0.13,0.13,0,0,1,48.56,97.74Zm0-3a0.13,0.13,0,0,1-.12-0.12v-1a0.12,0.12,0,1,1,.25,0v1A0.13,0.13,0,0,1,48.56,94.69Zm0-3a0.13,0.13,0,0,1-.12-0.12v-1a0.13,0.13,0,0,1,.25,0v1A0.13,0.13,0,0,1,48.56,91.64Zm0-3a0.13,0.13,0,0,1-.12-0.12v-1a0.12,0.12,0,1,1,.25,0v1A0.13,0.13,0,0,1,48.56,88.59Zm0-3a0.13,0.13,0,0,1-.12-0.12v-1a0.13,0.13,0,0,1,.25,0v1A0.13,0.13,0,0,1,48.56,85.54Zm0-3a0.13,0.13,0,0,1-.12-0.12v-1a0.13,0.13,0,0,1,.25,0v1A0.13,0.13,0,0,1,48.56,82.49Zm0-3a0.13,0.13,0,0,1-.12-0.12v-1a0.13,0.13,0,0,1,.25,0v1A0.13,0.13,0,0,1,48.56,79.44Z"/><path class="cls-2" d="M48.56,103.32a0.13,0.13,0,0,1-.12-0.12v-0.5a0.13,0.13,0,0,1,.25,0v0.5A0.13,0.13,0,0,1,48.56,103.32Z"/><path class="cls-2" d="M30.71,113.7a0.13,0.13,0,0,1-.12-0.12v-1a0.12,0.12,0,0,1,.25,0v1A0.13,0.13,0,0,1,30.71,113.7Zm0-3a0.13,0.13,0,0,1-.12-0.12v-0.51a0.13,0.13,0,0,1,.25,0v0.51A0.13,0.13,0,0,1,30.71,110.7Z"/><path class="cls-2" d="M53.6,100.86a0.13,0.13,0,0,1-.12-0.12v-1a0.12,0.12,0,0,1,.25,0v1A0.13,0.13,0,0,1,53.6,100.86Zm0-3a0.13,0.13,0,0,1-.12-0.12v-1a0.12,0.12,0,0,1,.25,0v1A0.13,0.13,0,0,1,53.6,97.86Zm0-3a0.13,0.13,0,0,1-.12-0.12v-1a0.12,0.12,0,0,1,.25,0v1A0.13,0.13,0,0,1,53.6,94.86Zm0-3a0.13,0.13,0,0,1-.12-0.12v-1a0.12,0.12,0,0,1,.25,0v1A0.13,0.13,0,0,1,53.6,91.86Zm0-3a0.13,0.13,0,0,1-.12-0.12v-1a0.12,0.12,0,0,1,.25,0v1A0.13,0.13,0,0,1,53.6,88.86Zm0-3a0.13,0.13,0,0,1-.12-0.12v-1a0.12,0.12,0,0,1,.25,0v1A0.13,0.13,0,0,1,53.6,85.86Zm0-3a0.13,0.13,0,0,1-.12-0.12v-1a0.12,0.12,0,0,1,.25,0v1A0.13,0.13,0,0,1,53.6,82.86Z"/><polygon class="cls-2" points="26.37 70.85 26.37 72.77 38.54 65.65 38.54 63.81 26.37 70.85"/><polygon class="cls-2" points="26.37 75.33 26.37 77.25 38.54 70.13 38.54 68.29 26.37 75.33"/></g><path class="cls-18" d="M34.17,207.4a0.5,0.5,0,0,1-.26-0.93l13.59-8.09a0.5,0.5,0,1,1,.51.86l-13.59,8.09A0.5,0.5,0,0,1,34.17,207.4Z"/><polygon class="cls-19" points="136.87 248.96 71.71 213 3.69 174.33 4.44 173.9 73.02 134.11 73.02 108.84 74.02 108.84 74.02 134.69 5.7 174.32 72.2 212.13 136.84 247.8 161.91 232.43 162.43 233.28 136.87 248.96"/><path class="cls-2" d="M1.43,211.22l18.1,10.64a2.09,2.09,0,0,0,2.11,0L39.9,211.24a0.68,0.68,0,0,0,0-1.18L20.37,199.29a0.68,0.68,0,0,0-.67,0L1.43,210A0.68,0.68,0,0,0,1.43,211.22Z"/><path class="cls-20" d="M20.6,222.27a2.21,2.21,0,0,1-1.12-.31L1.37,211.33a0.8,0.8,0,0,1,0-1.38l18.27-10.75a0.8,0.8,0,0,1,.79,0L40,209.95a0.8,0.8,0,0,1,0,1.4L21.71,222A2.21,2.21,0,0,1,20.6,222.27ZM20,199.33a0.55,0.55,0,0,0-.28.08L1.49,210.16a0.55,0.55,0,0,0,0,1h0l18.1,10.64a2,2,0,0,0,2,0l18.26-10.63a0.55,0.55,0,0,0,0-1L20.31,199.39A0.55,0.55,0,0,0,20,199.33Z"/><path class="cls-2" d="M151.6,227.09l18.1,10.64a2.09,2.09,0,0,0,2.11,0l18.26-10.63a0.68,0.68,0,0,0,0-1.18l-19.52-10.77a0.68,0.68,0,0,0-.67,0l-18.27,10.75A0.68,0.68,0,0,0,151.6,227.09Z"/><path class="cls-21" d="M170.76,238.15a2.21,2.21,0,0,1-1.12-.3l-18.1-10.64a0.8,0.8,0,0,1,0-1.38l18.27-10.75a0.8,0.8,0,0,1,.79,0l19.52,10.77a0.8,0.8,0,0,1,0,1.4l-18.26,10.63A2.21,2.21,0,0,1,170.76,238.15Zm-0.55-22.95a0.55,0.55,0,0,0-.28.08L151.66,226a0.55,0.55,0,0,0,0,1h0l18.1,10.64a2,2,0,0,0,2,0L190,227a0.55,0.55,0,0,0,0-1l-19.52-10.77A0.55,0.55,0,0,0,170.21,215.2Z"/><ellipse class="cls-22" cx="174.34" cy="153.15" rx="28.23" ry="12.31"/><path class="cls-23" d="M167.48,154.31l0.12,1.52-0.12,2.42s-1.61,3-3.06,3-0.91-3-.91-3l0.69-4h3.29Z"/><path class="cls-23" d="M155.87,147.5l-2.63,3.56s-0.92,1.66-.13,2,3.38-.67,3.38-0.67l2-1.86,0.5-3-0.86-.55Z"/><polygon class="cls-24" points="151.94 87.03 156.12 89.58 165.5 92.09 166.22 91.85 168.66 90.69 171.98 95.94 168.98 120.56 167.48 154.57 165.8 154.57 164.19 154.57 162.34 123.46 161.4 99.98 160.31 117.07 159.67 135.42 157.1 148.47 155.44 147.94 153.61 115.16 150.75 92.53 151.94 87.03"/><polygon class="cls-25" points="171.85 97.02 164.41 103.07 165.8 154.57 167.48 154.57 168.85 121.37 171.85 97.02"/><polygon class="cls-25" points="157.29 104.91 160.55 113.29 160.31 117.07 160.08 133.22 159.33 147.63 157.1 148.47 156.12 116.61 157.29 104.91"/><path class="cls-26" d="M143.22,86.85l2.89,1.71s-2.58,5.12-3.36,5.47-1.46,0-2.94-.87-1-3-1-3Z"/><path class="cls-27" d="M150.63,56.88l-3.27,17.56-4.92,13a3,3,0,0,1,2.12.54,2.65,2.65,0,0,1,1,1.64l6.79-11.47,3.53-17.75s1.12-3.11-1.55-4.48S150.63,56.88,150.63,56.88Z"/><path class="cls-28" d="M162.87,55.93s2.84,1.43,6.2,2.71,2.62,6.26,2.62,6.26l-2.25,18.39,3.46,13A23.77,23.77,0,0,1,167,99.21c-4,1.38-7.68-3-7.68-3s-7-1.21-8.49-2.79,2.79-10.58,2.79-14.53-3.84-20.49-2.85-22.27a3.71,3.71,0,0,1,3-2.15C154.81,54.33,162.87,55.93,162.87,55.93Z"/><path class="cls-29" d="M162.82,55.42L165.09,57a8.62,8.62,0,0,0-2.54,3C161.69,61.82,158,73.11,158,73.11l-3-15.32c-0.91-1.5-.7-2,1.39-2.7Z"/><path class="cls-30" d="M165.31,44.57l-10.16-3.47-1.56,2.15,4.15,12.23v1.63a3.47,3.47,0,0,0,2.52,1c1.63,0,2.74-2.08,2.74-2.08V53.19l4.08-6.52Z"/><path class="cls-26" d="M153.13,42.76s-0.46,7.13,1,9.84c1.41,1.93,1.95,2.89,4.3,2.89s3-5.41,3-5.41L161,44.94C159.36,42.79,156.59,42,153.13,42.76Z"/><path class="cls-31" d="M153.13,42.76a9.51,9.51,0,0,1,10.38-6.13C168,38.19,168,43.79,167,47.11c0,0-3.34,6.09-3.76,5.44s3.36-4.73,1.84-6c-2.9-.74-3.16,3.82-3.62,3.56s-0.4-5.14-.4-5.14A9.67,9.67,0,0,0,153.13,42.76Z"/><circle class="cls-31" cx="165.91" cy="38.07" r="3.04"/><path class="cls-26" d="M158.19,96.09a24,24,0,0,0-1.11,2.65,3.77,3.77,0,0,1-2.88,2.67,5.9,5.9,0,0,1-3.3-.86c-0.55-.52,1.29-1.37,1.82-1.93,1.15-1.23.81-1.93,0.81-1.93a4.5,4.5,0,0,1-.65.38c-0.44.27-.84,0.57-1.26,0.86a0.2,0.2,0,0,1-.12,0,0.24,0.24,0,0,1-.17-0.09,1.27,1.27,0,0,1,.56-1.75,27.29,27.29,0,0,0,2.75-2.92Z"/><path class="cls-32" d="M165.95,60.21l-4,19.57-7.88,14A7.43,7.43,0,0,1,156.55,95,6.32,6.32,0,0,1,158,96.5l9.44-13.21,4.54-19s1.29-3.56-1.78-5.13S165.95,60.21,165.95,60.21Z"/><ellipse class="cls-33" cx="105.15" cy="177.83" rx="28.23" ry="12.31"/><path class="cls-34" d="M123.11,175.93s2.31-.65,3.33-0.16,0,2.28,0,2.28c-0.81,1.26-5.63,4.42-6.41,4.9a2.74,2.74,0,0,1-2.32.21,5.31,5.31,0,0,1-1.45-1.65l0.72-3.4Z"/><path class="cls-34" d="M112.79,169.9s2.31-.65,3.33-0.16,0,2.28,0,2.28c-0.81,1.26-5.63,4.42-6.41,4.9a2.74,2.74,0,0,1-2.32.21,5.31,5.31,0,0,1-1.45-1.65l0.72-3.4Z"/><path class="cls-35" d="M104.16,110.61s-0.42,2.15-.7,3a4.9,4.9,0,0,0,.27,4,3,3,0,0,0,2.24,1.05c0.56-.16,1-2.61,1.09-2.63a1.84,1.84,0,0,0,.55-1.88,39,39,0,0,1-.08-4.13Z"/><polygon class="cls-36" points="113.83 130.71 112.61 134.54 111.64 173.44 108.74 174.72 107.3 121.65 113.07 123.35 113.83 130.71"/><path class="cls-37" d="M104.89,110.89l0.83,1.44,0.57,28.44-0.39,33.08s-0.1.37,0.62,0.63a8.15,8.15,0,0,0,2.22.23l-0.05-27.8L107.55,122l3.86,4,5.2,21.93-0.37,31.43a3.4,3.4,0,0,0,2,1.46,7,7,0,0,0,2.33,0V118.08l0.77-1.6,0.47-2.17Z"/><path class="cls-38" d="M105.85,78.52S103.09,97,103.09,97.16s0.27,14.07.27,14.07l2.86,0.1L107,112.8l14.42,2.36,0.69-.12,0.56-.72-4-24.15Z"/><polygon class="cls-39" points="121.82 114.32 119.92 119.53 120.42 180.83 122.79 178.91 123.39 128.16 123.51 114.05 121.82 114.32"/><polygon class="cls-35" points="111.28 69.59 111.56 73.77 118.74 76.44 119.03 65.96 118.63 64.47 117.07 64.41 116.86 66.47 117.96 66.58 117.93 67.55 114.65 69.84 111.28 69.59"/><path class="cls-35" d="M137.83,95.31s2-.82,2.88-1a4.9,4.9,0,0,0,3.19-2.4,3,3,0,0,0-.34-2.45c-0.44-.38-1.6,1.09-2.26,1.53-1.44,1-2.1.76-2.1,0.76a5.28,5.28,0,0,0,.49-0.53c0.35-.35.72-0.68,1.08-1a0.19,0.19,0,0,0,.07-0.1,0.12,0.12,0,0,0-.07-0.12,1.84,1.84,0,0,0-1.88.56c-0.37.43-3.21,2.53-3.21,2.53Z"/><polygon class="cls-35" points="121.48 57.88 121.86 64.28 121.71 68.49 120.82 68.76 119.21 67.4 117.37 60.86 121.48 57.88"/><polygon class="cls-40" points="111.28 69.59 108.33 59.26 110.13 55.48 112.59 55.05 115.6 54.51 123.04 56.02 122.99 57.19 119.28 60.9 119.36 64.02 120.64 68.04 121.67 68.41 121.12 74.81 118.86 72.95 119.03 65.96 118.63 64.47 117.07 64.41 116.86 66.47 117.96 66.58 117.93 67.55 114.65 69.84 111.28 69.59"/><path class="cls-41" d="M138,92.8a2.28,2.28,0,0,0-2.3-1.31s-3.48,2-5.12,1.31c-1.44-.59-2.53-9.87-4.55-12.61h0a2.06,2.06,0,0,0-.7-0.65c-3.16-2.83-3.83-2.34-6.63-3.53l-7.19-2.25-0.73,1.12-5,3.64-0.7,12L106.73,99l-1.51,12.84a9.47,9.47,0,0,0,6.23,4.2c2.33,0.41,13.3-1.13,13.3-1.13l-1.68-14.32,1.87-4.52a8.19,8.19,0,0,0,1.92,3.09c1.93,1.11,11.55-3,11.55-3C138.79,94.69,138.94,94.38,138,92.8Z"/><path class="cls-42" d="M0.41,156.61c0.06,1.09.95,1.29,1.92,1.29a1.88,1.88,0,0,0,1.76-2c0-1.09-1.9-2.37-2.73-1.83a2.42,2.42,0,0,0-.79,1.07A3.59,3.59,0,0,0,.41,156.61Z"/><path class="cls-43" d="M40.94,156.13c0,0.63-.54.72-1.11,0.72a2.24,2.24,0,0,1-1.47-1.77,1.18,1.18,0,0,1,1-1.17,1.8,1.8,0,0,1,1.34.94A2.33,2.33,0,0,1,40.94,156.13Z"/><path class="cls-44" d="M1.43,155.22l19.16,11.26L39.9,155.24a0.68,0.68,0,0,0,0-1.18L20.37,143.29a0.68,0.68,0,0,0-.67,0L1.43,154A0.68,0.68,0,0,0,1.43,155.22Z"/><path class="cls-45" d="M20.68,211.8l-0.17-45.46,19.26-11a0.78,0.78,0,0,1,1.17.68v43.4a0.78,0.78,0,0,1-.38.67Z"/><path class="cls-46" d="M0.41,156.64L0,199.4a1.17,1.17,0,0,0,.59,1L20.68,211.8l0-44.78a1.17,1.17,0,0,0-.59-1l-18-10.37A1.17,1.17,0,0,0,.41,156.64Z"/><path class="cls-47" d="M1.63,160.65L1.27,198.17a1,1,0,0,0,.52.9L17.58,208a1.23,1.23,0,0,0,1.84-1.07l0-37.17a1,1,0,0,0-.51-0.89l-15.77-9.1A1,1,0,0,0,1.63,160.65Z"/><polyline class="cls-48" points="6.2 153.97 6.2 154.67 21.03 163.08 35.26 154.16 35.26 153.46 21.03 162.39 6.2 153.97"/><path class="cls-49" d="M6.2,154C6.46,154,21,162.39,21,162.39l14.23-8.93-14.53-8.08Z"/><path class="cls-2" d="M27.74,153.59L20.25,158a0.54,0.54,0,0,1-.57,0l-0.08,0a0.54,0.54,0,0,1,0-.92L27,152.54a0.54,0.54,0,0,1,.56,0l0.2,0.12A0.54,0.54,0,0,1,27.74,153.59Z"/><path class="cls-2" d="M24.42,151.87l-7.49,4.45a0.54,0.54,0,0,1-.57,0l-0.08,0a0.54,0.54,0,0,1,0-.92l7.37-4.51a0.54,0.54,0,0,1,.56,0l0.2,0.12A0.54,0.54,0,0,1,24.42,151.87Z"/><path class="cls-2" d="M21.41,149.94l-7.49,4.45a0.54,0.54,0,0,1-.57,0l-0.08,0a0.54,0.54,0,0,1,0-.92l7.37-4.51a0.54,0.54,0,0,1,.56,0L21.4,149A0.54,0.54,0,0,1,21.41,149.94Z"/><polygon class="cls-2" points="4.03 166.07 4.03 167.86 9.2 170.78 9.19 169.04 4.03 166.07"/><polygon class="cls-2" points="10.79 170.02 10.79 171.73 12.79 172.9 12.79 171.19 10.79 170.02"/><polygon class="cls-2" points="14.38 172.08 14.38 173.79 16.37 174.96 16.37 173.25 14.38 172.08"/><polygon class="cls-2" points="4.03 173.01 4.03 174.8 9.2 177.72 9.19 175.98 4.03 173.01"/><polygon class="cls-2" points="10.79 176.96 10.79 178.67 12.79 179.84 12.79 178.13 10.79 176.96"/><polygon class="cls-2" points="14.38 179.02 14.38 180.73 16.37 181.9 16.37 180.19 14.38 179.02"/><polygon class="cls-2" points="4.03 179.95 4.03 181.74 9.2 184.66 9.19 182.92 4.03 179.95"/><polygon class="cls-2" points="10.79 183.9 10.79 185.61 12.79 186.78 12.79 185.07 10.79 183.9"/><polygon class="cls-2" points="14.38 185.96 14.38 187.67 16.37 188.84 16.37 187.13 14.38 185.96"/><polygon class="cls-2" points="4.03 186.89 4.03 188.68 9.2 191.6 9.19 189.86 4.03 186.89"/><polygon class="cls-2" points="10.79 190.84 10.79 192.55 12.79 193.72 12.79 192.01 10.79 190.84"/><polygon class="cls-2" points="14.38 192.9 14.38 194.61 16.37 195.78 16.37 194.07 14.38 192.9"/><polygon class="cls-2" points="4.03 193.83 4.03 195.62 9.2 198.54 9.19 196.8 4.03 193.83"/><polygon class="cls-2" points="10.79 197.78 10.79 199.49 12.79 200.66 12.79 198.95 10.79 197.78"/><polygon class="cls-2" points="14.38 199.84 14.38 201.55 16.37 202.72 16.37 201.01 14.38 199.84"/><polygon class="cls-2" points="22.35 172.37 39.65 162.6 39.65 163.48 22.35 173.16 22.35 172.37"/><polygon class="cls-2" points="22.35 182.37 39.65 172.6 39.65 173.48 22.35 183.16 22.35 182.37"/><polygon class="cls-2" points="22.35 192.37 39.65 182.6 39.65 183.48 22.35 193.16 22.35 192.37"/><polygon class="cls-2" points="22.35 202.37 39.65 192.6 39.65 193.48 22.35 203.16 22.35 202.37"/><polygon class="cls-2" points="22.35 197.37 39.65 187.6 39.65 188.48 22.35 198.16 22.35 197.37"/><polygon class="cls-2" points="22.35 187.37 39.65 177.6 39.65 178.48 22.35 188.16 22.35 187.37"/><polygon class="cls-2" points="22.35 177.37 39.65 167.6 39.65 168.48 22.35 178.16 22.35 177.37"/><path class="cls-50" d="M151.79,173.9c0.06,1.09.95,1.29,1.92,1.29a1.88,1.88,0,0,0,1.76-2c0-1.09-1.9-2.37-2.73-1.83a2.42,2.42,0,0,0-.79,1.07A3.59,3.59,0,0,0,151.79,173.9Z"/><path class="cls-43" d="M192.32,173.42c0,0.63-.54.72-1.11,0.72a2.24,2.24,0,0,1-1.47-1.77,1.18,1.18,0,0,1,1-1.17,1.8,1.8,0,0,1,1.34.94A2.33,2.33,0,0,1,192.32,173.42Z"/><path class="cls-44" d="M152.81,172.51L172,183.77l19.31-11.24a0.68,0.68,0,0,0,0-1.18l-19.52-10.77a0.68,0.68,0,0,0-.67,0l-18.27,10.75A0.68,0.68,0,0,0,152.81,172.51Z"/><path class="cls-51" d="M172.06,229.1l-0.17-45.46,19.26-11a0.78,0.78,0,0,1,1.17.68v43.4a0.78,0.78,0,0,1-.38.67Z"/><path class="cls-52" d="M151.79,173.93l-0.41,42.76a1.17,1.17,0,0,0,.59,1l20.09,11.37,0-44.78a1.17,1.17,0,0,0-.59-1l-18-10.37A1.17,1.17,0,0,0,151.79,173.93Z"/><path class="cls-53" d="M153,177.94l-0.36,37.52a1,1,0,0,0,.52.9L169,225.3a1.23,1.23,0,0,0,1.84-1.07l0-37.17a1,1,0,0,0-.51-0.89l-15.77-9.1A1,1,0,0,0,153,177.94Z"/><polyline class="cls-48" points="157.57 171.27 157.57 171.96 172.41 180.38 186.63 171.45 186.63 170.76 172.41 179.68 157.57 171.27"/><path class="cls-54" d="M157.57,171.27c0.26,0,14.83,8.41,14.83,8.41l14.23-8.93-14.53-8.08Z"/><path class="cls-2" d="M179.12,170.88l-7.49,4.45a0.54,0.54,0,0,1-.57,0l-0.08,0a0.54,0.54,0,0,1,0-.92l7.37-4.51a0.54,0.54,0,0,1,.56,0l0.2,0.12A0.54,0.54,0,0,1,179.12,170.88Z"/><path class="cls-2" d="M175.8,169.16l-7.49,4.45a0.54,0.54,0,0,1-.57,0l-0.08,0a0.54,0.54,0,0,1,0-.92l7.37-4.51a0.54,0.54,0,0,1,.56,0l0.2,0.12A0.54,0.54,0,0,1,175.8,169.16Z"/><path class="cls-2" d="M172.78,167.24l-7.49,4.45a0.54,0.54,0,0,1-.57,0l-0.08,0a0.54,0.54,0,0,1,0-.92l7.37-4.51a0.54,0.54,0,0,1,.56,0l0.2,0.12A0.54,0.54,0,0,1,172.78,167.24Z"/><polygon class="cls-2" points="155.41 183.37 155.41 185.15 160.58 188.07 160.57 186.33 155.41 183.37"/><polygon class="cls-2" points="162.17 187.31 162.17 189.03 164.17 190.19 164.17 188.48 162.17 187.31"/><polygon class="cls-2" points="165.76 189.38 165.76 191.09 167.75 192.25 167.75 190.55 165.76 189.38"/><polygon class="cls-2" points="155.41 190.31 155.41 192.09 160.58 195.01 160.57 193.27 155.41 190.31"/><polygon class="cls-2" points="162.17 194.25 162.17 195.96 164.17 197.13 164.17 195.42 162.17 194.25"/><polygon class="cls-2" points="165.76 196.32 165.76 198.03 167.75 199.19 167.75 197.49 165.76 196.32"/><polygon class="cls-2" points="155.41 197.25 155.41 199.03 160.58 201.95 160.57 200.21 155.41 197.25"/><polygon class="cls-2" points="162.17 201.19 162.17 202.9 164.17 204.07 164.17 202.36 162.17 201.19"/><polygon class="cls-2" points="165.76 203.26 165.76 204.97 167.75 206.13 167.75 204.43 165.76 203.26"/><polygon class="cls-2" points="155.41 204.19 155.41 205.97 160.58 208.89 160.57 207.15 155.41 204.19"/><polygon class="cls-2" points="162.17 208.13 162.17 209.84 164.17 211.01 164.17 209.3 162.17 208.13"/><polygon class="cls-2" points="165.76 210.2 165.76 211.91 167.75 213.07 167.75 211.37 165.76 210.2"/><polygon class="cls-2" points="155.41 211.13 155.41 212.91 160.58 215.83 160.57 214.09 155.41 211.13"/><polygon class="cls-2" points="162.17 215.07 162.17 216.78 164.17 217.95 164.17 216.24 162.17 215.07"/><polygon class="cls-2" points="165.76 217.14 165.76 218.85 167.75 220.01 167.75 218.31 165.76 217.14"/><polygon class="cls-2" points="173.73 189.66 191.03 179.9 191.03 180.77 173.73 190.46 173.73 189.66"/><polygon class="cls-2" points="173.73 199.66 191.03 189.9 191.03 190.77 173.73 200.46 173.73 199.66"/><polygon class="cls-2" points="173.73 209.66 191.03 199.9 191.03 200.77 173.73 210.46 173.73 209.66"/><polygon class="cls-2" points="173.73 219.66 191.03 209.9 191.03 210.77 173.73 220.46 173.73 219.66"/><polygon class="cls-2" points="173.73 214.66 191.03 204.9 191.03 205.77 173.73 215.46 173.73 214.66"/><polygon class="cls-2" points="173.73 204.66 191.03 194.9 191.03 195.77 173.73 205.46 173.73 204.66"/><polygon class="cls-2" points="173.73 194.66 191.03 184.9 191.03 185.77 173.73 195.46 173.73 194.66"/></svg>