<svg id="Layer_2" data-name="Layer 2" xmlns="http://www.w3.org/2000/svg" xmlns:xlink="http://www.w3.org/1999/xlink" viewBox="0 0 194.01 180.7"><defs><style>.cls-2-1{fill:none;}.cls-2-2{fill:#bbb59b;}.cls-2-3{fill:url(#linear-gradient);}.cls-2-4{fill:#0a9352;}.cls-2-5{fill:url(#grad-2_8);}.cls-2-6{fill:#fff;}.cls-2-7{fill:#f0b229;}.cls-2-8{fill:#ebaf2a;}.cls-2-9{fill:#fbbb25;}.cls-2-10{clip-path:url(#clip-path);}.cls-2-11{fill:#e4b014;}.cls-2-12{fill:#f2c50a;}.cls-2-13{fill:#f5d445;}.cls-2-14,.cls-2-15,.cls-2-24,.cls-2-25,.cls-2-33,.cls-2-34,.cls-2-43,.cls-2-44{font-size:13.95px;font-family:Roboto Regular;}.cls-2-14{fill:#fcda49;}.cls-2-15{fill:#d1951e;}.cls-2-16{fill:#f3c45c;}.cls-2-17{fill:#f8d897;}.cls-2-18{fill:#cbcbcb;}.cls-2-19{fill:#d5d5d5;}.cls-2-20{clip-path:url(#clip-path-2);}.cls-2-21{fill:#b4b4b4;}.cls-2-22{fill:#c1c1c1;}.cls-2-23{fill:#dadad8;}.cls-2-24{fill:#adadad;}.cls-2-25{fill:#e0e0e0;}.cls-2-26{fill:#d7d7d7;}.cls-2-27{fill:#e3e3e3;}.cls-2-28{fill:#d8d8d8;}.cls-2-29{fill:#e2e3e2;}.cls-2-30{clip-path:url(#clip-path-3);}.cls-2-31,.cls-2-33{fill:#c2c2c0;}.cls-2-32{fill:#cececc;}.cls-2-34{fill:#e8e8e8;}.cls-2-35{fill:#e1e1e1;}.cls-2-36{fill:#ececec;}.cls-2-37{fill:#cbc6a9;}.cls-2-38{fill:#d5ceb1;}.cls-2-39{clip-path:url(#clip-path-4);}.cls-2-40,.cls-2-43{fill:#bab49b;}.cls-2-41{fill:#c1bba1;}.cls-2-42{fill:#d0cbb7;}.cls-2-44{fill:#f7efd0;}.cls-2-45{fill:#d8d3bf;}.cls-2-46{fill:#e5e1d5;}.cls-2-47,.cls-2-48,.cls-2-49,.cls-2-50{opacity:0.4;}.cls-2-47{fill:url(#linear-gradient-2);}.cls-2-48{fill:url(#linear-gradient-3);}.cls-2-49{fill:url(#linear-gradient-4);}.cls-2-50{fill:url(#linear-gradient-5);}</style><linearGradient id="linear-gradient" y1="122.57" x2="194.01" y2="122.57" gradientUnits="userSpaceOnUse"><stop offset="0" stop-color="#f4f3fb"/><stop offset="0.42" stop-color="#f4f3fb"/><stop offset="0.55" stop-color="#dfe2fb"/><stop offset="1" stop-color="#dedffb"/></linearGradient><linearGradient id="grad-2_8" x1="97.01" y1="40.45" x2="97.01" y2="156.7" gradientUnits="userSpaceOnUse"><stop offset="0" stop-color="#0fce64"/><stop offset="1" stop-color="#0fab64"/></linearGradient><clipPath id="clip-path"><path class="cls-2-1" d="M95.14,83.53L65.54,66.45a1.18,1.18,0,0,1,0-2L82,54.9a6,6,0,0,1,6,0l29.39,17a1.18,1.18,0,0,1,0,2l-16.2,9.6A6,6,0,0,1,95.14,83.53Z"/></clipPath><clipPath id="clip-path-2"><path class="cls-2-2" d="M55.93,106.32L26.33,89.24a1.18,1.18,0,0,1,0-2l16.45-9.51a6,6,0,0,1,6,0l29.39,17a1.18,1.18,0,0,1,0,2l-16.2,9.6A6,6,0,0,1,55.93,106.32Z"/></clipPath><clipPath id="clip-path-3"><path class="cls-2-1" d="M148.24,114.11L118.65,97a1.18,1.18,0,0,1,0-2l16.45-9.51a6,6,0,0,1,6,0l29.39,17a1.18,1.18,0,0,1,0,2l-16.2,9.6A6,6,0,0,1,148.24,114.11Z"/></clipPath><clipPath id="clip-path-4"><path class="cls-2-1" d="M108.68,136.92l-29.6-17.08a1.18,1.18,0,0,1,0-2l16.45-9.51a6,6,0,0,1,6,0l29.39,17a1.18,1.18,0,0,1,0,2l-16.2,9.6A6,6,0,0,1,108.68,136.92Z"/></clipPath><linearGradient id="linear-gradient-2" x1="92.04" x2="92.04" y2="88.9" gradientUnits="userSpaceOnUse"><stop offset="0" stop-color="#fff" stop-opacity="0"/><stop offset="0.15" stop-color="#fff" stop-opacity="0.02"/><stop offset="0.3" stop-color="#fff" stop-opacity="0.06"/><stop offset="0.45" stop-color="#fff" stop-opacity="0.14"/><stop offset="0.6" stop-color="#fff" stop-opacity="0.25"/><stop offset="0.75" stop-color="#fff" stop-opacity="0.39"/><stop offset="0.89" stop-color="#fff" stop-opacity="0.56"/><stop offset="1" stop-color="#fff" stop-opacity="0.7"/></linearGradient><linearGradient id="linear-gradient-3" x1="52.8" y1="22.79" x2="52.8" y2="111.69" xlink:href="#linear-gradient-2"/><linearGradient id="linear-gradient-4" x1="144.75" y1="30.6" x2="144.75" y2="119.5" xlink:href="#linear-gradient-2"/><linearGradient id="linear-gradient-5" x1="105.51" y1="53.39" x2="105.51" y2="142.29" xlink:href="#linear-gradient-2"/></defs><title>metals</title><path class="cls-2-3" d="M2.5,112.17L84,65.12a5,5,0,0,1,5,0L191.51,124.3a5,5,0,0,1,0,8.67L110,180a5,5,0,0,1-5,0L2.5,120.84A5,5,0,0,1,2.5,112.17Z"/><path class="cls-2-4" d="M2.5,92.17L84,45.12a5,5,0,0,1,5,0L191.51,104.3a5,5,0,0,1,0,8.67L110,160a5,5,0,0,1-5,0L2.5,100.84A5,5,0,0,1,2.5,92.17Z"/><polygon class="cls-2-4" points="0 92.46 0 96.56 1.66 97.42 2.81 94 0 92.46"/><polygon class="cls-2-4" points="194.01 104.39 194.01 108.89 191.62 111.1 191.48 106.25 194.01 104.39"/><path class="cls-2-5" d="M2.5,88.17L84,41.12a5,5,0,0,1,5,0L191.51,100.3a5,5,0,0,1,0,8.67L110,156a5,5,0,0,1-5,0L2.5,96.84A5,5,0,0,1,2.5,88.17Z"/><path class="cls-2-6" d="M106.36,150.55a4.71,4.71,0,0,1-2.35-.63L12.77,97.25a4.71,4.71,0,0,1,0-8.15L85.3,47.22a4.72,4.72,0,0,1,4.71,0L181.24,99.9a4.71,4.71,0,0,1,0,8.15l-72.52,41.87A4.71,4.71,0,0,1,106.36,150.55ZM87.65,47.09a4.21,4.21,0,0,0-2.1.56L13,89.53a4.21,4.21,0,0,0,0,7.29l91.23,52.67a4.21,4.21,0,0,0,4.21,0L181,107.62a4.21,4.21,0,0,0,0-7.29L89.76,47.66A4.21,4.21,0,0,0,87.65,47.09Z"/><path class="cls-2-4" d="M96.32,88.16L66.56,70.93a2.07,2.07,0,0,1,0-3.59L82.89,58a7.56,7.56,0,0,1,7.54,0l29.39,17a2.07,2.07,0,0,1,0,3.58l-16.24,9.49A7.23,7.23,0,0,1,96.32,88.16Z"/><polygon class="cls-2-7" points="119.1 73.09 119.1 76.69 116.88 78.51 117.86 74.2 119.1 73.09"/><polygon class="cls-2-7" points="63.78 65.16 63.78 69.03 65.69 70.1 66.03 67.3 63.78 65.16"/><path class="cls-2-8" d="M94.56,87.93L64.81,70.7a2.07,2.07,0,0,1,0-3.59L81.13,57.8a7.56,7.56,0,0,1,7.54,0l29.39,17a2.07,2.07,0,0,1,0,3.58l-16.24,9.49A7.23,7.23,0,0,1,94.56,87.93Z"/><path class="cls-2-9" d="M94.56,84.3L64.81,67.07a2.07,2.07,0,0,1,0-3.59l16.31-9.31a7.56,7.56,0,0,1,7.54,0l29.39,17a2.07,2.07,0,0,1,0,3.58l-16.24,9.49A7.23,7.23,0,0,1,94.56,84.3Z"/><g class="cls-2-10"><path class="cls-2-11" d="M95.14,83.53L65.54,66.45a1.18,1.18,0,0,1,0-2L82,54.9a6,6,0,0,1,6,0l29.39,17a1.18,1.18,0,0,1,0,2l-16.2,9.6A6,6,0,0,1,95.14,83.53Z"/><path class="cls-2-12" d="M95.14,83.9L65.54,66.82a1.18,1.18,0,0,1,0-2L82,55.27a6,6,0,0,1,6,0l29.39,17a1.18,1.18,0,0,1,0,2l-16.2,9.6A6,6,0,0,1,95.14,83.9Z"/><polygon class="cls-2-13" points="69.23 62.65 67.58 67.63 68.71 68.28 70.56 61.87 69.23 62.65"/><polygon class="cls-2-13" points="71.78 61.17 69.55 68.77 71.39 69.83 74.08 59.84 71.78 61.17"/></g><text class="cls-2-14" transform="matrix(0.75, -0.43, 0.87, 0.5, 88.37, 74.27)">A<tspan x="8.37" y="0">u</tspan></text><text class="cls-2-15" transform="matrix(0.75, -0.43, 0.87, 0.5, 88.37, 74.03)">A<tspan x="8.37" y="0">u</tspan></text><path class="cls-2-16" d="M101.71,88a7.23,7.23,0,0,1-7.1,0l0.1-3.57a7.3,7.3,0,0,0,7,0V88Z"/><polygon class="cls-2-17" points="96.04 84.94 96.04 88.55 96.32 88.65 96.32 85.03 96.04 84.94"/><path class="cls-2-16" d="M63.78,65.41V69a2,2,0,0,0,.75,1.48V66.88A2,2,0,0,1,63.78,65.41Z"/><path class="cls-2-4" d="M57.1,110.95L27.35,93.72a2.07,2.07,0,0,1,0-3.59l16.31-9.31a7.56,7.56,0,0,1,7.54,0l29.39,17a2.07,2.07,0,0,1,0,3.58l-16.24,9.49A7.23,7.23,0,0,1,57.1,110.95Z"/><polygon class="cls-2-18" points="79.88 95.87 79.88 99.48 77.67 101.29 78.65 96.99 79.88 95.87"/><polygon class="cls-2-18" points="24.57 87.95 24.57 91.81 26.48 92.88 26.82 90.08 24.57 87.95"/><path class="cls-2-18" d="M55.35,110.71L25.6,93.48a2.07,2.07,0,0,1,0-3.59l16.31-9.31a7.56,7.56,0,0,1,7.54,0l29.39,17a2.07,2.07,0,0,1,0,3.58L62.62,110.7A7.23,7.23,0,0,1,55.35,110.71Z"/><path class="cls-2-19" d="M55.35,107.09L25.6,89.86a2.07,2.07,0,0,1,0-3.59L41.92,77a7.56,7.56,0,0,1,7.54,0L78.85,94a2.07,2.07,0,0,1,0,3.58l-16.24,9.49A7.23,7.23,0,0,1,55.35,107.09Z"/><path class="cls-2-2" d="M55.93,106.32L26.33,89.24a1.18,1.18,0,0,1,0-2l16.45-9.51a6,6,0,0,1,6,0l29.39,17a1.18,1.18,0,0,1,0,2l-16.2,9.6A6,6,0,0,1,55.93,106.32Z"/><g class="cls-2-20"><path class="cls-2-21" d="M55.93,106.32L26.33,89.24a1.18,1.18,0,0,1,0-2l16.45-9.51a6,6,0,0,1,6,0l29.39,17a1.18,1.18,0,0,1,0,2l-16.2,9.6A6,6,0,0,1,55.93,106.32Z"/><path class="cls-2-22" d="M55.93,106.68L26.33,89.6a1.18,1.18,0,0,1,0-2l16.45-9.51a6,6,0,0,1,6,0L78.14,95a1.18,1.18,0,0,1,0,2l-16.2,9.6A6,6,0,0,1,55.93,106.68Z"/><polygon class="cls-2-23" points="30.01 85.43 28.37 90.42 29.49 91.07 31.35 84.66 30.01 85.43"/><polygon class="cls-2-23" points="32.57 83.95 30.34 91.55 32.18 92.62 34.86 82.63 32.57 83.95"/></g><text class="cls-2-24" transform="matrix(0.75, -0.43, 0.87, 0.5, 49.15, 97.06)">A<tspan x="8.37" y="0">g</tspan></text><text class="cls-2-25" transform="matrix(0.75, -0.43, 0.87, 0.5, 49.15, 96.81)">A<tspan x="8.37" y="0">g</tspan></text><path class="cls-2-26" d="M62.49,110.77a7.23,7.23,0,0,1-7.1,0l0.1-3.57a7.3,7.3,0,0,0,7,0v3.6Z"/><polygon class="cls-2-27" points="56.83 107.73 56.83 111.33 57.11 111.43 57.11 107.81 56.83 107.73"/><path class="cls-2-26" d="M24.57,88.19v3.62a2,2,0,0,0,.75,1.48V89.67A2,2,0,0,1,24.57,88.19Z"/><path class="cls-2-4" d="M149.42,118.73L119.67,101.5a2.07,2.07,0,0,1,0-3.59L136,88.6a7.56,7.56,0,0,1,7.54,0l29.39,17a2.07,2.07,0,0,1,0,3.58l-16.24,9.49A7.23,7.23,0,0,1,149.42,118.73Z"/><polygon class="cls-2-28" points="172.2 103.66 172.2 107.27 169.98 109.08 170.96 104.78 172.2 103.66"/><polygon class="cls-2-28" points="116.89 95.73 116.89 99.6 118.79 100.67 119.14 97.87 116.89 95.73"/><path class="cls-2-28" d="M147.67,118.5l-29.75-17.23a2.07,2.07,0,0,1,0-3.59l16.31-9.31a7.56,7.56,0,0,1,7.54,0l29.39,17a2.07,2.07,0,0,1,0,3.58l-16.24,9.49A7.23,7.23,0,0,1,147.67,118.5Z"/><path class="cls-2-29" d="M147.67,114.88L117.91,97.65a2.07,2.07,0,0,1,0-3.59l16.31-9.31a7.56,7.56,0,0,1,7.54,0l29.39,17a2.07,2.07,0,0,1,0,3.58l-16.24,9.49A7.23,7.23,0,0,1,147.67,114.88Z"/><g class="cls-2-30"><path class="cls-2-31" d="M148.24,114.11L118.65,97a1.18,1.18,0,0,1,0-2l16.45-9.51a6,6,0,0,1,6,0l29.39,17a1.18,1.18,0,0,1,0,2l-16.2,9.6A6,6,0,0,1,148.24,114.11Z"/><path class="cls-2-32" d="M148.24,114.47l-29.6-17.08a1.18,1.18,0,0,1,0-2l16.45-9.51a6,6,0,0,1,6,0l29.39,17a1.18,1.18,0,0,1,0,2l-16.2,9.6A6,6,0,0,1,148.24,114.47Z"/><polygon class="cls-2-23" points="122.33 93.22 120.68 98.2 121.81 98.85 123.67 92.45 122.33 93.22"/><polygon class="cls-2-23" points="124.89 91.74 122.66 99.34 124.5 100.4 127.18 90.41 124.89 91.74"/></g><text class="cls-2-33" transform="matrix(0.75, -0.43, 0.87, 0.5, 141.47, 104.84)">P<tspan x="7.07" y="0">d</tspan></text><text class="cls-2-34" transform="matrix(0.75, -0.43, 0.87, 0.5, 141.47, 104.6)">P<tspan x="7.07" y="0">d</tspan></text><path class="cls-2-35" d="M154.81,118.56a7.23,7.23,0,0,1-7.1,0l0.1-3.57a7.3,7.3,0,0,0,7,0v3.6Z"/><polygon class="cls-2-36" points="149.15 115.52 149.15 119.12 149.43 119.22 149.43 115.6 149.15 115.52"/><path class="cls-2-35" d="M116.88,96V99.6a2,2,0,0,0,.75,1.48V97.46A2,2,0,0,1,116.88,96Z"/><path class="cls-2-4" d="M109.85,141.55L80.1,124.32a2.07,2.07,0,0,1,0-3.59l16.31-9.31a7.56,7.56,0,0,1,7.54,0l29.39,17a2.07,2.07,0,0,1,0,3.58l-16.24,9.49A7.23,7.23,0,0,1,109.85,141.55Z"/><polygon class="cls-2-37" points="132.63 126.47 132.63 130.08 130.42 131.89 131.4 127.59 132.63 126.47"/><polygon class="cls-2-37" points="77.32 118.55 77.32 122.42 79.23 123.48 79.57 120.69 77.32 118.55"/><path class="cls-2-37" d="M108.1,141.31L78.35,124.08a2.07,2.07,0,0,1,0-3.59l16.31-9.31a7.56,7.56,0,0,1,7.54,0l29.39,17a2.07,2.07,0,0,1,0,3.58l-16.24,9.49A7.23,7.23,0,0,1,108.1,141.31Z"/><path class="cls-2-38" d="M108.1,137.69L78.35,120.46a2.07,2.07,0,0,1,0-3.59l16.31-9.31a7.56,7.56,0,0,1,7.54,0l29.39,17a2.07,2.07,0,0,1,0,3.58l-16.24,9.49A7.23,7.23,0,0,1,108.1,137.69Z"/><g class="cls-2-39"><path class="cls-2-40" d="M108.68,136.92l-29.6-17.08a1.18,1.18,0,0,1,0-2l16.45-9.51a6,6,0,0,1,6,0l29.39,17a1.18,1.18,0,0,1,0,2l-16.2,9.6A6,6,0,0,1,108.68,136.92Z"/><path class="cls-2-41" d="M108.68,137.28L79.08,120.2a1.18,1.18,0,0,1,0-2l16.45-9.51a6,6,0,0,1,6,0l29.39,17a1.18,1.18,0,0,1,0,2l-16.2,9.6A6,6,0,0,1,108.68,137.28Z"/><polygon class="cls-2-42" points="82.77 116.03 81.12 121.02 82.25 121.67 84.1 115.26 82.77 116.03"/><polygon class="cls-2-42" points="85.32 114.56 83.09 122.15 84.93 123.22 87.62 113.23 85.32 114.56"/></g><text class="cls-2-43" transform="matrix(0.75, -0.43, 0.87, 0.5, 101.9, 127.66)">P<tspan x="7.5" y="0">t</tspan></text><text class="cls-2-44" transform="matrix(0.75, -0.43, 0.87, 0.5, 101.9, 127.42)">P<tspan x="7.5" y="0">t</tspan></text><path class="cls-2-45" d="M115.24,141.37a7.23,7.23,0,0,1-7.1,0l0.1-3.57a7.3,7.3,0,0,0,7,0v3.6Z"/><polygon class="cls-2-46" points="109.58 138.33 109.58 141.94 109.86 142.03 109.86 138.41 109.58 138.33"/><path class="cls-2-45" d="M77.32,118.79v3.62a2,2,0,0,0,.75,1.48v-3.62A2,2,0,0,1,77.32,118.79Z"/><path class="cls-2-47" d="M63.8,69a2,2,0,0,0,.85,1.55s19.85,11.51,30,17.34a7.16,7.16,0,0,0,7.16,0l16.42-9.6a2.06,2.06,0,0,0,.92-1.61L120.27,0H64.18Z"/><path class="cls-2-48" d="M24.57,91.81a2,2,0,0,0,.85,1.55s19.85,11.51,30,17.34a7.16,7.16,0,0,0,7.16,0L79,101.15a2.06,2.06,0,0,0,.92-1.61L81,22.79H24.94Z"/><path class="cls-2-49" d="M116.51,99.63a2,2,0,0,0,.85,1.55s19.85,11.51,30,17.34a7.16,7.16,0,0,0,7.16,0L170.9,109a2.06,2.06,0,0,0,.92-1.61L173,30.6H116.89Z"/><path class="cls-2-50" d="M77.28,122.42a2,2,0,0,0,.85,1.55s19.85,11.51,30,17.34a7.16,7.16,0,0,0,7.16,0l16.42-9.6a2.06,2.06,0,0,0,.92-1.61l1.16-76.76H77.66Z"/></svg>