<svg id="Layer_1" data-name="Layer 1" xmlns="http://www.w3.org/2000/svg" xmlns:xlink="http://www.w3.org/1999/xlink" viewBox="0 0 229.87 224.95"><defs><style>.cls-1{fill:url(#linear-gradient);}.cls-2{fill:url(#linear-gradient-2);}.cls-3{fill:url(#linear-gradient-3);}.cls-4{fill:url(#linear-gradient-4);}.cls-5{fill:#bbe1d0;}.cls-6{fill:#f2f2f2;}.cls-7{fill:#f4f4fc;}.cls-8{fill:url(#linear-gradient-5);}.cls-9{fill:#d7ffec;}.cls-10{fill:url(#linear-gradient-6);}.cls-11{fill:url(#linear-gradient-7);}.cls-12{fill:url(#linear-gradient-8);}.cls-13{fill:url(#Безымянный_градиент_8);}.cls-14{fill:url(#Безымянный_градиент_8-2);}.cls-15{fill:url(#Безымянный_градиент_8-3);}.cls-16{fill:url(#Безымянный_градиент_8-4);}.cls-17{fill:url(#Безымянный_градиент_8-5);}.cls-18{fill:url(#Безымянный_градиент_8-6);}.cls-19{fill:url(#Безымянный_градиент_8-7);}.cls-20{fill:url(#Безымянный_градиент_8-8);}.cls-21{fill:url(#Безымянный_градиент_8-9);}.cls-22{fill:url(#Безымянный_градиент_8-10);}.cls-23{fill:url(#Безымянный_градиент_8-11);}.cls-24{fill:url(#Безымянный_градиент_8-12);}.cls-25{fill:url(#Безымянный_градиент_8-13);}.cls-26{fill:url(#Безымянный_градиент_8-14);}.cls-27{fill:url(#Безымянный_градиент_8-15);}.cls-28{fill:url(#Безымянный_градиент_8-16);}.cls-29{fill:url(#Безымянный_градиент_8-17);}.cls-30{fill:url(#Безымянный_градиент_8-18);}.cls-31{fill:url(#Безымянный_градиент_8-19);}.cls-32{fill:url(#Безымянный_градиент_8-20);}.cls-33{fill:url(#Безымянный_градиент_8-21);}.cls-34{fill:url(#Безымянный_градиент_8-22);}.cls-35{fill:url(#Безымянный_градиент_8-23);}.cls-36{fill:url(#Безымянный_градиент_8-24);}.cls-37{fill:url(#Безымянный_градиент_8-25);}.cls-38{fill:url(#Безымянный_градиент_8-26);}.cls-39{fill:url(#Безымянный_градиент_8-27);}.cls-40{fill:url(#Безымянный_градиент_8-28);}.cls-41{fill:url(#Безымянный_градиент_8-29);}.cls-42{fill:url(#Безымянный_градиент_8-30);}.cls-43{fill:url(#Безымянный_градиент_8-31);}.cls-44{fill:url(#Безымянный_градиент_8-32);}.cls-45{fill:url(#Безымянный_градиент_8-33);}.cls-46{fill:url(#Безымянный_градиент_8-34);}.cls-47{fill:url(#Безымянный_градиент_8-35);}.cls-48{fill:url(#Безымянный_градиент_8-36);}.cls-49{fill:url(#Безымянный_градиент_8-37);}.cls-50{fill:url(#Безымянный_градиент_8-38);}.cls-51{fill:url(#Безымянный_градиент_8-39);}.cls-52{fill:url(#Безымянный_градиент_8-40);}.cls-53{fill:url(#Безымянный_градиент_8-41);}.cls-54{fill:url(#Безымянный_градиент_8-42);}.cls-55{fill:url(#Безымянный_градиент_8-43);}.cls-56{fill:url(#Безымянный_градиент_8-44);}.cls-57{fill:url(#Безымянный_градиент_8-45);}.cls-58{fill:url(#Безымянный_градиент_8-46);}.cls-59{fill:url(#Безымянный_градиент_8-47);}.cls-60{fill:url(#Безымянный_градиент_8-48);}.cls-61{fill:url(#Безымянный_градиент_8-49);}.cls-62{fill:url(#Безымянный_градиент_8-50);}.cls-63{fill:url(#Безымянный_градиент_8-51);}.cls-64{fill:url(#Безымянный_градиент_8-52);}.cls-65{fill:url(#Безымянный_градиент_8-53);}.cls-66{fill:url(#Безымянный_градиент_8-54);}.cls-67{fill:url(#Безымянный_градиент_8-55);}.cls-68{fill:url(#Безымянный_градиент_8-56);}.cls-69{fill:url(#Безымянный_градиент_8-57);}.cls-70{fill:url(#Безымянный_градиент_8-58);}.cls-71{fill:url(#Безымянный_градиент_8-59);}.cls-72{fill:url(#Безымянный_градиент_8-60);}.cls-73{fill:url(#Безымянный_градиент_8-61);}.cls-74{fill:url(#Безымянный_градиент_8-62);}.cls-75{fill:url(#Безымянный_градиент_8-63);}.cls-76{fill:url(#Безымянный_градиент_8-64);}.cls-77{fill:url(#Безымянный_градиент_8-65);}.cls-78{fill:url(#Безымянный_градиент_8-66);}.cls-79{fill:url(#Безымянный_градиент_8-67);}.cls-80{fill:url(#Безымянный_градиент_8-68);}.cls-81{fill:url(#Безымянный_градиент_8-69);}.cls-82{fill:url(#Безымянный_градиент_8-70);}.cls-83{fill:url(#Безымянный_градиент_8-71);}.cls-84{fill:url(#Безымянный_градиент_8-72);}.cls-85{fill:url(#Безымянный_градиент_8-73);}.cls-86{fill:url(#Безымянный_градиент_8-74);}.cls-87{fill:url(#Безымянный_градиент_8-75);}.cls-88{fill:url(#Безымянный_градиент_8-76);}.cls-89{fill:url(#Безымянный_градиент_8-77);}.cls-90{fill:url(#Безымянный_градиент_8-78);}.cls-91{fill:url(#Безымянный_градиент_8-79);}.cls-92{fill:url(#Безымянный_градиент_8-80);}.cls-93{fill:url(#Безымянный_градиент_8-81);}.cls-94{fill:url(#Безымянный_градиент_8-82);}.cls-95{fill:url(#Безымянный_градиент_8-83);}.cls-96{fill:url(#Безымянный_градиент_8-84);}.cls-97{fill:url(#Безымянный_градиент_8-85);}.cls-98{fill:url(#Безымянный_градиент_8-86);}.cls-99{fill:url(#Безымянный_градиент_8-87);}.cls-100{fill:url(#Безымянный_градиент_8-88);}.cls-101{fill:url(#Безымянный_градиент_8-89);}.cls-102{fill:url(#Безымянный_градиент_8-90);}.cls-103{fill:url(#Безымянный_градиент_8-91);}.cls-104{fill:url(#Безымянный_градиент_8-92);}.cls-105{fill:url(#Безымянный_градиент_8-93);}.cls-106{fill:url(#Безымянный_градиент_8-94);}.cls-107{fill:url(#Безымянный_градиент_8-95);}.cls-108{fill:url(#Безымянный_градиент_8-96);}.cls-109{fill:url(#linear-gradient-9);}.cls-110{fill:url(#linear-gradient-10);}.cls-111{fill:url(#linear-gradient-11);}.cls-112{fill:url(#linear-gradient-12);}.cls-113{fill:url(#linear-gradient-13);}.cls-114{fill:url(#Безымянный_градиент_8-97);}.cls-115{fill:url(#Безымянный_градиент_8-98);}.cls-116{fill:url(#Безымянный_градиент_8-99);}.cls-117{fill:url(#Безымянный_градиент_8-100);}.cls-118{fill:url(#Безымянный_градиент_8-101);}.cls-119{fill:url(#Безымянный_градиент_8-102);}.cls-120{fill:url(#Безымянный_градиент_8-103);}.cls-121{fill:url(#Безымянный_градиент_8-104);}.cls-122{fill:url(#Безымянный_градиент_8-105);}.cls-123{fill:url(#Безымянный_градиент_8-106);}.cls-124{fill:url(#Безымянный_градиент_8-107);}.cls-125{fill:url(#Безымянный_градиент_8-108);}.cls-126{fill:url(#Безымянный_градиент_8-109);}.cls-127{fill:url(#Безымянный_градиент_8-110);}.cls-128{fill:url(#Безымянный_градиент_8-111);}.cls-129{fill:url(#Безымянный_градиент_8-112);}.cls-130{fill:url(#Безымянный_градиент_8-113);}.cls-131{fill:url(#Безымянный_градиент_8-114);}.cls-132{fill:url(#Безымянный_градиент_8-115);}.cls-133{fill:url(#Безымянный_градиент_8-116);}.cls-134{fill:url(#Безымянный_градиент_8-117);}.cls-135{fill:url(#Безымянный_градиент_8-118);}.cls-136{fill:url(#Безымянный_градиент_8-119);}.cls-137{fill:url(#Безымянный_градиент_8-120);}.cls-138{fill:url(#Безымянный_градиент_8-121);}.cls-139{fill:url(#Безымянный_градиент_8-122);}.cls-140{fill:url(#Безымянный_градиент_8-123);}.cls-141{fill:url(#Безымянный_градиент_8-124);}.cls-142{fill:url(#Безымянный_градиент_8-125);}.cls-143{fill:url(#Безымянный_градиент_8-126);}.cls-144{fill:url(#Безымянный_градиент_8-127);}.cls-145{fill:url(#Безымянный_градиент_8-128);}.cls-146{fill:url(#Безымянный_градиент_8-129);}.cls-147{fill:url(#Безымянный_градиент_8-130);}.cls-148{fill:url(#Безымянный_градиент_8-131);}.cls-149{fill:url(#Безымянный_градиент_8-132);}.cls-150{fill:url(#Безымянный_градиент_8-133);}.cls-151{fill:url(#Безымянный_градиент_8-134);}.cls-152{fill:url(#Безымянный_градиент_8-135);}.cls-153{fill:url(#Безымянный_градиент_8-136);}.cls-154{fill:url(#Безымянный_градиент_8-137);}.cls-155{fill:url(#Безымянный_градиент_8-138);}.cls-156{fill:url(#Безымянный_градиент_8-139);}.cls-157{fill:url(#Безымянный_градиент_8-140);}.cls-158{fill:url(#Безымянный_градиент_8-141);}.cls-159{fill:url(#Безымянный_градиент_8-142);}.cls-160{fill:url(#Безымянный_градиент_8-143);}.cls-161{fill:url(#Безымянный_градиент_8-144);}.cls-162{fill:url(#Безымянный_градиент_8-145);}.cls-163{fill:url(#Безымянный_градиент_8-146);}.cls-164{fill:url(#Безымянный_градиент_8-147);}.cls-165{fill:url(#Безымянный_градиент_8-148);}.cls-166{fill:url(#Безымянный_градиент_8-149);}.cls-167{fill:url(#Безымянный_градиент_8-150);}.cls-168{fill:url(#Безымянный_градиент_8-151);}.cls-169{fill:url(#Безымянный_градиент_8-152);}.cls-170{fill:url(#Безымянный_градиент_8-153);}.cls-171{fill:url(#Безымянный_градиент_8-154);}.cls-172{fill:url(#Безымянный_градиент_8-155);}.cls-173{fill:url(#Безымянный_градиент_8-156);}.cls-174{fill:url(#Безымянный_градиент_8-157);}.cls-175{fill:url(#Безымянный_градиент_8-158);}.cls-176{fill:url(#Безымянный_градиент_8-159);}.cls-177{fill:url(#Безымянный_градиент_8-160);}.cls-178{fill:url(#Безымянный_градиент_8-161);}.cls-179{fill:url(#Безымянный_градиент_8-162);}.cls-180{fill:url(#Безымянный_градиент_8-163);}.cls-181{fill:url(#Безымянный_градиент_8-164);}.cls-182{fill:url(#Безымянный_градиент_8-165);}.cls-183{fill:url(#Безымянный_градиент_8-166);}.cls-184{fill:url(#Безымянный_градиент_8-167);}.cls-185{fill:url(#Безымянный_градиент_8-168);}.cls-186{fill:url(#Безымянный_градиент_8-169);}.cls-187{fill:url(#Безымянный_градиент_8-170);}.cls-188{fill:url(#Безымянный_градиент_8-171);}.cls-189{fill:url(#Безымянный_градиент_8-172);}.cls-190{fill:url(#Безымянный_градиент_8-173);}.cls-191{fill:url(#Безымянный_градиент_8-174);}.cls-192{fill:url(#Безымянный_градиент_8-175);}.cls-193{fill:url(#Безымянный_градиент_8-176);}.cls-194{fill:url(#Безымянный_градиент_8-177);}.cls-195{fill:url(#Безымянный_градиент_8-178);}.cls-196{fill:url(#Безымянный_градиент_8-179);}.cls-197{fill:url(#Безымянный_градиент_8-180);}.cls-198{fill:url(#Безымянный_градиент_8-181);}.cls-199{fill:url(#Безымянный_градиент_8-182);}.cls-200{fill:url(#Безымянный_градиент_8-183);}.cls-201{fill:url(#Безымянный_градиент_8-184);}.cls-202{fill:url(#Безымянный_градиент_8-185);}.cls-203{fill:url(#Безымянный_градиент_8-186);}.cls-204{fill:url(#Безымянный_градиент_8-187);}.cls-205{fill:url(#Безымянный_градиент_8-188);}.cls-206{fill:url(#Безымянный_градиент_8-189);}.cls-207{fill:url(#Безымянный_градиент_8-190);}.cls-208{fill:url(#Безымянный_градиент_8-191);}.cls-209{fill:url(#Безымянный_градиент_8-192);}.cls-210{fill:#23e571;}.cls-211{fill:url(#Безымянный_градиент_8-193);}.cls-212{fill:#d3d5e2;}.cls-213{fill:url(#linear-gradient-14);}.cls-214{fill:#dedffb;}.cls-215{fill:#f4f3fb;}.cls-216{fill:#002e51;}.cls-217{fill:url(#Безымянный_градиент_94);}.cls-218{fill:url(#Безымянный_градиент_8-194);}.cls-219{fill:url(#Безымянный_градиент_8-195);}.cls-220{fill:url(#Безымянный_градиент_8-196);}.cls-221{fill:url(#Безымянный_градиент_8-197);}.cls-222{fill:url(#Безымянный_градиент_8-198);}.cls-223{fill:url(#Безымянный_градиент_8-199);}.cls-224{fill:url(#Безымянный_градиент_8-200);}.cls-225{fill:url(#Безымянный_градиент_8-201);}.cls-226{fill:url(#Безымянный_градиент_8-202);}.cls-227{fill:url(#Безымянный_градиент_8-203);}.cls-228{fill:url(#Безымянный_градиент_8-204);}.cls-229{fill:url(#Безымянный_градиент_8-205);}.cls-230{fill:url(#Безымянный_градиент_8-206);}.cls-231{fill:url(#Безымянный_градиент_8-207);}.cls-232{fill:url(#Безымянный_градиент_8-208);}.cls-233{fill:url(#Безымянный_градиент_8-209);}.cls-234{fill:url(#Безымянный_градиент_8-210);}.cls-235{fill:url(#Безымянный_градиент_8-211);}.cls-236{fill:url(#Безымянный_градиент_8-212);}.cls-237{fill:url(#Безымянный_градиент_8-213);}.cls-238{fill:url(#Безымянный_градиент_8-214);}.cls-239{fill:url(#Безымянный_градиент_8-215);}.cls-240{fill:url(#Безымянный_градиент_8-216);}.cls-241{fill:url(#Безымянный_градиент_8-217);}.cls-242{fill:url(#Безымянный_градиент_8-218);}.cls-243{fill:url(#Безымянный_градиент_8-219);}.cls-244{fill:url(#Безымянный_градиент_8-220);}.cls-245{fill:url(#Безымянный_градиент_8-221);}.cls-246{fill:url(#Безымянный_градиент_8-222);}.cls-247{fill:url(#Безымянный_градиент_8-223);}.cls-248{fill:url(#Безымянный_градиент_8-224);}.cls-249{fill:url(#Безымянный_градиент_8-225);}.cls-250{fill:url(#Безымянный_градиент_8-226);}.cls-251{fill:url(#Безымянный_градиент_8-227);}.cls-252{fill:url(#Безымянный_градиент_8-228);}.cls-253{fill:url(#Безымянный_градиент_8-229);}.cls-254{fill:url(#Безымянный_градиент_8-230);}.cls-255{fill:url(#Безымянный_градиент_8-231);}.cls-256{fill:url(#Безымянный_градиент_8-232);}.cls-257{fill:url(#Безымянный_градиент_8-233);}.cls-258{fill:url(#Безымянный_градиент_8-234);}.cls-259{fill:url(#Безымянный_градиент_8-235);}.cls-260{fill:url(#Безымянный_градиент_8-236);}.cls-261{fill:url(#Безымянный_градиент_8-237);}.cls-262{fill:url(#Безымянный_градиент_8-238);}.cls-263{fill:url(#Безымянный_градиент_8-239);}.cls-264{fill:url(#Безымянный_градиент_8-240);}.cls-265{fill:url(#Безымянный_градиент_8-241);}.cls-266{fill:url(#Безымянный_градиент_8-242);}.cls-267{fill:url(#Безымянный_градиент_8-243);}.cls-268{fill:url(#Безымянный_градиент_8-244);}.cls-269{fill:url(#Безымянный_градиент_8-245);}.cls-270{fill:url(#Безымянный_градиент_8-246);}.cls-271{fill:url(#Безымянный_градиент_8-247);}.cls-272{fill:url(#Безымянный_градиент_8-248);}.cls-273{fill:url(#Безымянный_градиент_8-249);}.cls-274{fill:url(#Безымянный_градиент_8-250);}.cls-275{fill:url(#Безымянный_градиент_8-251);}.cls-276{fill:url(#Безымянный_градиент_8-252);}.cls-277{fill:url(#Безымянный_градиент_8-253);}.cls-278{fill:url(#Безымянный_градиент_8-254);}.cls-279{fill:url(#Безымянный_градиент_8-255);}.cls-280{fill:url(#Безымянный_градиент_8-256);}.cls-281{fill:url(#Безымянный_градиент_8-257);}.cls-282{fill:url(#Безымянный_градиент_8-258);}.cls-283{fill:url(#Безымянный_градиент_8-259);}.cls-284{fill:url(#Безымянный_градиент_8-260);}.cls-285{fill:url(#Безымянный_градиент_8-261);}.cls-286{fill:url(#Безымянный_градиент_8-262);}.cls-287{fill:url(#Безымянный_градиент_8-263);}.cls-288{fill:url(#Безымянный_градиент_8-264);}.cls-289{fill:url(#Безымянный_градиент_8-265);}.cls-290{fill:url(#Безымянный_градиент_8-266);}.cls-291{fill:url(#Безымянный_градиент_8-267);}.cls-292{fill:url(#Безымянный_градиент_8-268);}.cls-293{fill:url(#Безымянный_градиент_8-269);}.cls-294{font-size:13.86px;fill:#fff;font-family:Circe Bold;font-weight:700;}.cls-295{letter-spacing:1.15px;}</style><linearGradient id="linear-gradient" x1="131.23" y1="128.57" x2="160.05" y2="128.57" gradientTransform="translate(87.09 -56.67) rotate(31.02)" gradientUnits="userSpaceOnUse"><stop offset="0" stop-color="#f4f3fb"/><stop offset="1" stop-color="#dedffb"/></linearGradient><linearGradient id="linear-gradient-2" x1="168.94" y1="151.1" x2="197.76" y2="151.1" gradientTransform="translate(104.09 -72.88) rotate(31.02)" xlink:href="#linear-gradient"/><linearGradient id="linear-gradient-3" x1="0" y1="114.79" x2="189.6" y2="114.79" gradientTransform="matrix(1, 0, 0, 1, 0, 0)" xlink:href="#linear-gradient"/><linearGradient id="linear-gradient-4" x1="149.35" y1="68.07" x2="153.21" y2="68.07" gradientTransform="matrix(1, 0, 0, 1, 0, 0)" xlink:href="#linear-gradient"/><linearGradient id="linear-gradient-5" x1="155.42" y1="70.53" x2="185.86" y2="70.53" gradientUnits="userSpaceOnUse"><stop offset="0" stop-color="#2dd678"/><stop offset="1" stop-color="#00f786"/></linearGradient><linearGradient id="linear-gradient-6" x1="169.2" y1="67.4" x2="178.27" y2="67.4" xlink:href="#linear-gradient-5"/><linearGradient id="linear-gradient-7" x1="165.73" y1="65.6" x2="174.79" y2="65.6" xlink:href="#linear-gradient-5"/><linearGradient id="linear-gradient-8" x1="162.57" y1="63.58" x2="171.63" y2="63.58" xlink:href="#linear-gradient-5"/><linearGradient id="Безымянный_градиент_8" x1="178.93" y1="78.92" x2="186.76" y2="78.92" gradientUnits="userSpaceOnUse"><stop offset="0" stop-color="#0fce64"/><stop offset="1" stop-color="#0fab64"/></linearGradient><linearGradient id="Безымянный_градиент_8-2" x1="176.33" y1="82.57" x2="176.71" y2="82.57" xlink:href="#Безымянный_градиент_8"/><linearGradient id="Безымянный_градиент_8-3" x1="177.24" y1="82.05" x2="177.62" y2="82.05" xlink:href="#Безымянный_градиент_8"/><linearGradient id="Безымянный_градиент_8-4" x1="178.15" y1="81.52" x2="178.53" y2="81.52" xlink:href="#Безымянный_градиент_8"/><linearGradient id="Безымянный_градиент_8-5" x1="178.93" y1="82.06" x2="186.76" y2="82.06" xlink:href="#Безымянный_градиент_8"/><linearGradient id="Безымянный_градиент_8-6" x1="176.33" y1="85.71" x2="176.71" y2="85.71" xlink:href="#Безымянный_градиент_8"/><linearGradient id="Безымянный_градиент_8-7" x1="177.24" y1="85.19" x2="177.62" y2="85.19" xlink:href="#Безымянный_градиент_8"/><linearGradient id="Безымянный_градиент_8-8" x1="178.15" y1="84.67" x2="178.53" y2="84.67" xlink:href="#Безымянный_градиент_8"/><linearGradient id="Безымянный_градиент_8-9" x1="178.93" y1="85.21" x2="186.76" y2="85.21" xlink:href="#Безымянный_градиент_8"/><linearGradient id="Безымянный_градиент_8-10" x1="176.33" y1="88.86" x2="176.71" y2="88.86" xlink:href="#Безымянный_градиент_8"/><linearGradient id="Безымянный_градиент_8-11" x1="177.24" y1="88.33" x2="177.62" y2="88.33" xlink:href="#Безымянный_градиент_8"/><linearGradient id="Безымянный_градиент_8-12" x1="178.15" y1="87.81" x2="178.53" y2="87.81" xlink:href="#Безымянный_градиент_8"/><linearGradient id="Безымянный_градиент_8-13" x1="178.93" y1="88.35" x2="186.76" y2="88.35" xlink:href="#Безымянный_градиент_8"/><linearGradient id="Безымянный_градиент_8-14" x1="176.33" y1="92" x2="176.71" y2="92" xlink:href="#Безымянный_градиент_8"/><linearGradient id="Безымянный_градиент_8-15" x1="177.24" y1="91.47" x2="177.62" y2="91.47" xlink:href="#Безымянный_градиент_8"/><linearGradient id="Безымянный_градиент_8-16" x1="178.15" y1="90.95" x2="178.53" y2="90.95" xlink:href="#Безымянный_градиент_8"/><linearGradient id="Безымянный_градиент_8-17" x1="178.93" y1="91.49" x2="186.76" y2="91.49" xlink:href="#Безымянный_градиент_8"/><linearGradient id="Безымянный_градиент_8-18" x1="176.33" y1="95.14" x2="176.71" y2="95.14" xlink:href="#Безымянный_градиент_8"/><linearGradient id="Безымянный_градиент_8-19" x1="177.24" y1="94.62" x2="177.62" y2="94.62" xlink:href="#Безымянный_градиент_8"/><linearGradient id="Безымянный_градиент_8-20" x1="178.15" y1="94.09" x2="178.53" y2="94.09" xlink:href="#Безымянный_градиент_8"/><linearGradient id="Безымянный_градиент_8-21" x1="178.93" y1="94.63" x2="186.76" y2="94.63" xlink:href="#Безымянный_градиент_8"/><linearGradient id="Безымянный_градиент_8-22" x1="176.33" y1="98.28" x2="176.71" y2="98.28" xlink:href="#Безымянный_градиент_8"/><linearGradient id="Безымянный_градиент_8-23" x1="177.24" y1="97.76" x2="177.62" y2="97.76" xlink:href="#Безымянный_градиент_8"/><linearGradient id="Безымянный_градиент_8-24" x1="178.15" y1="97.24" x2="178.53" y2="97.24" xlink:href="#Безымянный_градиент_8"/><linearGradient id="Безымянный_градиент_8-25" x1="178.93" y1="97.78" x2="186.76" y2="97.78" xlink:href="#Безымянный_градиент_8"/><linearGradient id="Безымянный_градиент_8-26" x1="176.33" y1="101.43" x2="176.71" y2="101.43" xlink:href="#Безымянный_градиент_8"/><linearGradient id="Безымянный_градиент_8-27" x1="177.24" y1="100.9" x2="177.62" y2="100.9" xlink:href="#Безымянный_градиент_8"/><linearGradient id="Безымянный_градиент_8-28" x1="178.15" y1="100.38" x2="178.53" y2="100.38" xlink:href="#Безымянный_градиент_8"/><linearGradient id="Безымянный_градиент_8-29" x1="178.93" y1="100.92" x2="186.76" y2="100.92" xlink:href="#Безымянный_градиент_8"/><linearGradient id="Безымянный_градиент_8-30" x1="176.33" y1="104.57" x2="176.71" y2="104.57" xlink:href="#Безымянный_градиент_8"/><linearGradient id="Безымянный_градиент_8-31" x1="177.24" y1="104.04" x2="177.62" y2="104.04" xlink:href="#Безымянный_градиент_8"/><linearGradient id="Безымянный_градиент_8-32" x1="178.15" y1="103.52" x2="178.53" y2="103.52" xlink:href="#Безымянный_градиент_8"/><linearGradient id="Безымянный_градиент_8-33" x1="178.93" y1="104.06" x2="186.76" y2="104.06" xlink:href="#Безымянный_градиент_8"/><linearGradient id="Безымянный_градиент_8-34" x1="176.33" y1="107.71" x2="176.71" y2="107.71" xlink:href="#Безымянный_градиент_8"/><linearGradient id="Безымянный_градиент_8-35" x1="177.24" y1="107.19" x2="177.62" y2="107.19" xlink:href="#Безымянный_градиент_8"/><linearGradient id="Безымянный_градиент_8-36" x1="178.15" y1="106.66" x2="178.53" y2="106.66" xlink:href="#Безымянный_градиент_8"/><linearGradient id="Безымянный_градиент_8-37" x1="178.93" y1="107.2" x2="186.76" y2="107.2" xlink:href="#Безымянный_градиент_8"/><linearGradient id="Безымянный_градиент_8-38" x1="176.33" y1="110.85" x2="176.71" y2="110.85" xlink:href="#Безымянный_градиент_8"/><linearGradient id="Безымянный_градиент_8-39" x1="177.24" y1="110.33" x2="177.62" y2="110.33" xlink:href="#Безымянный_градиент_8"/><linearGradient id="Безымянный_градиент_8-40" x1="178.15" y1="109.8" x2="178.53" y2="109.8" xlink:href="#Безымянный_градиент_8"/><linearGradient id="Безымянный_градиент_8-41" x1="178.93" y1="110.34" x2="186.76" y2="110.34" xlink:href="#Безымянный_градиент_8"/><linearGradient id="Безымянный_градиент_8-42" x1="176.33" y1="113.99" x2="176.71" y2="113.99" xlink:href="#Безымянный_градиент_8"/><linearGradient id="Безымянный_градиент_8-43" x1="177.24" y1="113.47" x2="177.62" y2="113.47" xlink:href="#Безымянный_градиент_8"/><linearGradient id="Безымянный_градиент_8-44" x1="178.15" y1="112.95" x2="178.53" y2="112.95" xlink:href="#Безымянный_градиент_8"/><linearGradient id="Безымянный_градиент_8-45" x1="178.93" y1="113.49" x2="186.76" y2="113.49" xlink:href="#Безымянный_градиент_8"/><linearGradient id="Безымянный_градиент_8-46" x1="176.33" y1="117.14" x2="176.71" y2="117.14" xlink:href="#Безымянный_градиент_8"/><linearGradient id="Безымянный_градиент_8-47" x1="177.24" y1="116.61" x2="177.62" y2="116.61" xlink:href="#Безымянный_градиент_8"/><linearGradient id="Безымянный_градиент_8-48" x1="178.15" y1="116.09" x2="178.53" y2="116.09" xlink:href="#Безымянный_градиент_8"/><linearGradient id="Безымянный_градиент_8-49" x1="154.58" y1="79.2" x2="162.4" y2="79.2" xlink:href="#Безымянный_градиент_8"/><linearGradient id="Безымянный_градиент_8-50" x1="164.62" y1="82.85" x2="165" y2="82.85" xlink:href="#Безымянный_градиент_8"/><linearGradient id="Безымянный_градиент_8-51" x1="163.72" y1="82.33" x2="164.09" y2="82.33" xlink:href="#Безымянный_градиент_8"/><linearGradient id="Безымянный_градиент_8-52" x1="162.81" y1="81.81" x2="163.19" y2="81.81" xlink:href="#Безымянный_градиент_8"/><linearGradient id="Безымянный_градиент_8-53" x1="154.58" y1="82.35" x2="162.4" y2="82.35" xlink:href="#Безымянный_градиент_8"/><linearGradient id="Безымянный_градиент_8-54" x1="164.62" y1="86" x2="165" y2="86" xlink:href="#Безымянный_градиент_8"/><linearGradient id="Безымянный_градиент_8-55" x1="163.72" y1="85.47" x2="164.09" y2="85.47" xlink:href="#Безымянный_градиент_8"/><linearGradient id="Безымянный_градиент_8-56" x1="162.81" y1="84.95" x2="163.19" y2="84.95" xlink:href="#Безымянный_градиент_8"/><linearGradient id="Безымянный_градиент_8-57" x1="154.58" y1="85.49" x2="162.4" y2="85.49" xlink:href="#Безымянный_градиент_8"/><linearGradient id="Безымянный_градиент_8-58" x1="164.62" y1="89.14" x2="165" y2="89.14" xlink:href="#Безымянный_градиент_8"/><linearGradient id="Безымянный_градиент_8-59" x1="163.72" y1="88.61" x2="164.09" y2="88.61" xlink:href="#Безымянный_градиент_8"/><linearGradient id="Безымянный_градиент_8-60" x1="162.81" y1="88.09" x2="163.19" y2="88.09" xlink:href="#Безымянный_градиент_8"/><linearGradient id="Безымянный_градиент_8-61" x1="154.58" y1="88.63" x2="162.4" y2="88.63" xlink:href="#Безымянный_градиент_8"/><linearGradient id="Безымянный_градиент_8-62" x1="164.62" y1="92.28" x2="165" y2="92.28" xlink:href="#Безымянный_градиент_8"/><linearGradient id="Безымянный_градиент_8-63" x1="163.72" y1="91.76" x2="164.09" y2="91.76" xlink:href="#Безымянный_градиент_8"/><linearGradient id="Безымянный_градиент_8-64" x1="162.81" y1="91.23" x2="163.19" y2="91.23" xlink:href="#Безымянный_градиент_8"/><linearGradient id="Безымянный_градиент_8-65" x1="154.58" y1="91.77" x2="162.4" y2="91.77" xlink:href="#Безымянный_градиент_8"/><linearGradient id="Безымянный_градиент_8-66" x1="164.62" y1="95.42" x2="165" y2="95.42" xlink:href="#Безымянный_градиент_8"/><linearGradient id="Безымянный_градиент_8-67" x1="163.72" y1="94.9" x2="164.09" y2="94.9" xlink:href="#Безымянный_градиент_8"/><linearGradient id="Безымянный_градиент_8-68" x1="162.81" y1="94.38" x2="163.19" y2="94.38" xlink:href="#Безымянный_градиент_8"/><linearGradient id="Безымянный_градиент_8-69" x1="154.58" y1="94.92" x2="162.4" y2="94.92" xlink:href="#Безымянный_градиент_8"/><linearGradient id="Безымянный_градиент_8-70" x1="164.62" y1="98.56" x2="165" y2="98.56" xlink:href="#Безымянный_градиент_8"/><linearGradient id="Безымянный_градиент_8-71" x1="163.72" y1="98.04" x2="164.09" y2="98.04" xlink:href="#Безымянный_градиент_8"/><linearGradient id="Безымянный_градиент_8-72" x1="162.81" y1="97.52" x2="163.19" y2="97.52" xlink:href="#Безымянный_градиент_8"/><linearGradient id="Безымянный_градиент_8-73" x1="154.58" y1="98.06" x2="162.4" y2="98.06" xlink:href="#Безымянный_градиент_8"/><linearGradient id="Безымянный_градиент_8-74" x1="164.62" y1="101.71" x2="165" y2="101.71" xlink:href="#Безымянный_градиент_8"/><linearGradient id="Безымянный_градиент_8-75" x1="163.72" y1="101.18" x2="164.09" y2="101.18" xlink:href="#Безымянный_градиент_8"/><linearGradient id="Безымянный_градиент_8-76" x1="162.81" y1="100.66" x2="163.19" y2="100.66" xlink:href="#Безымянный_градиент_8"/><linearGradient id="Безымянный_градиент_8-77" x1="154.58" y1="101.2" x2="162.4" y2="101.2" xlink:href="#Безымянный_градиент_8"/><linearGradient id="Безымянный_градиент_8-78" x1="164.62" y1="104.85" x2="165" y2="104.85" xlink:href="#Безымянный_градиент_8"/><linearGradient id="Безымянный_градиент_8-79" x1="163.72" y1="104.33" x2="164.09" y2="104.33" xlink:href="#Безымянный_градиент_8"/><linearGradient id="Безымянный_градиент_8-80" x1="162.81" y1="103.8" x2="163.19" y2="103.8" xlink:href="#Безымянный_градиент_8"/><linearGradient id="Безымянный_градиент_8-81" x1="154.58" y1="104.34" x2="162.4" y2="104.34" xlink:href="#Безымянный_градиент_8"/><linearGradient id="Безымянный_градиент_8-82" x1="164.62" y1="107.99" x2="165" y2="107.99" xlink:href="#Безымянный_градиент_8"/><linearGradient id="Безымянный_градиент_8-83" x1="163.72" y1="107.47" x2="164.09" y2="107.47" xlink:href="#Безымянный_градиент_8"/><linearGradient id="Безымянный_градиент_8-84" x1="162.81" y1="106.94" x2="163.19" y2="106.94" xlink:href="#Безымянный_градиент_8"/><linearGradient id="Безымянный_градиент_8-85" x1="154.58" y1="107.48" x2="162.4" y2="107.48" xlink:href="#Безымянный_градиент_8"/><linearGradient id="Безымянный_градиент_8-86" x1="164.62" y1="111.13" x2="165" y2="111.13" xlink:href="#Безымянный_градиент_8"/><linearGradient id="Безымянный_градиент_8-87" x1="163.72" y1="110.61" x2="164.09" y2="110.61" xlink:href="#Безымянный_градиент_8"/><linearGradient id="Безымянный_градиент_8-88" x1="162.81" y1="110.09" x2="163.19" y2="110.09" xlink:href="#Безымянный_градиент_8"/><linearGradient id="Безымянный_градиент_8-89" x1="154.58" y1="110.63" x2="162.4" y2="110.63" xlink:href="#Безымянный_градиент_8"/><linearGradient id="Безымянный_градиент_8-90" x1="164.62" y1="114.28" x2="165" y2="114.28" xlink:href="#Безымянный_градиент_8"/><linearGradient id="Безымянный_градиент_8-91" x1="163.72" y1="113.75" x2="164.09" y2="113.75" xlink:href="#Безымянный_градиент_8"/><linearGradient id="Безымянный_градиент_8-92" x1="162.81" y1="113.23" x2="163.19" y2="113.23" xlink:href="#Безымянный_градиент_8"/><linearGradient id="Безымянный_градиент_8-93" x1="154.58" y1="113.77" x2="162.4" y2="113.77" xlink:href="#Безымянный_градиент_8"/><linearGradient id="Безымянный_градиент_8-94" x1="164.62" y1="117.42" x2="165" y2="117.42" xlink:href="#Безымянный_градиент_8"/><linearGradient id="Безымянный_градиент_8-95" x1="163.72" y1="116.89" x2="164.09" y2="116.89" xlink:href="#Безымянный_градиент_8"/><linearGradient id="Безымянный_градиент_8-96" x1="162.81" y1="116.37" x2="163.19" y2="116.37" xlink:href="#Безымянный_градиент_8"/><linearGradient id="linear-gradient-9" x1="186.42" y1="91.04" x2="190.28" y2="91.04" gradientTransform="matrix(1, 0, 0, 1, 0, 0)" xlink:href="#linear-gradient"/><linearGradient id="linear-gradient-10" x1="192.49" y1="93.49" x2="222.93" y2="93.49" xlink:href="#linear-gradient-5"/><linearGradient id="linear-gradient-11" x1="206.26" y1="90.36" x2="215.33" y2="90.36" xlink:href="#linear-gradient-5"/><linearGradient id="linear-gradient-12" x1="202.79" y1="88.56" x2="211.86" y2="88.56" xlink:href="#linear-gradient-5"/><linearGradient id="linear-gradient-13" x1="199.63" y1="86.55" x2="208.7" y2="86.55" xlink:href="#linear-gradient-5"/><linearGradient id="Безымянный_градиент_8-97" x1="216" y1="101.89" x2="223.82" y2="101.89" xlink:href="#Безымянный_градиент_8"/><linearGradient id="Безымянный_градиент_8-98" x1="213.4" y1="105.54" x2="213.78" y2="105.54" xlink:href="#Безымянный_градиент_8"/><linearGradient id="Безымянный_градиент_8-99" x1="214.31" y1="105.01" x2="214.68" y2="105.01" xlink:href="#Безымянный_градиент_8"/><linearGradient id="Безымянный_градиент_8-100" x1="215.21" y1="104.49" x2="215.59" y2="104.49" xlink:href="#Безымянный_градиент_8"/><linearGradient id="Безымянный_градиент_8-101" x1="216" y1="105.03" x2="223.82" y2="105.03" xlink:href="#Безымянный_градиент_8"/><linearGradient id="Безымянный_градиент_8-102" x1="213.4" y1="108.68" x2="213.78" y2="108.68" xlink:href="#Безымянный_градиент_8"/><linearGradient id="Безымянный_градиент_8-103" x1="214.31" y1="108.16" x2="214.68" y2="108.16" xlink:href="#Безымянный_градиент_8"/><linearGradient id="Безымянный_градиент_8-104" x1="215.21" y1="107.63" x2="215.59" y2="107.63" xlink:href="#Безымянный_градиент_8"/><linearGradient id="Безымянный_градиент_8-105" x1="216" y1="108.17" x2="223.82" y2="108.17" xlink:href="#Безымянный_градиент_8"/><linearGradient id="Безымянный_градиент_8-106" x1="213.4" y1="111.82" x2="213.78" y2="111.82" xlink:href="#Безымянный_градиент_8"/><linearGradient id="Безымянный_градиент_8-107" x1="214.31" y1="111.3" x2="214.68" y2="111.3" xlink:href="#Безымянный_градиент_8"/><linearGradient id="Безымянный_градиент_8-108" x1="215.21" y1="110.78" x2="215.59" y2="110.78" xlink:href="#Безымянный_градиент_8"/><linearGradient id="Безымянный_градиент_8-109" x1="216" y1="111.32" x2="223.82" y2="111.32" xlink:href="#Безымянный_градиент_8"/><linearGradient id="Безымянный_градиент_8-110" x1="213.4" y1="114.97" x2="213.78" y2="114.97" xlink:href="#Безымянный_градиент_8"/><linearGradient id="Безымянный_градиент_8-111" x1="214.31" y1="114.44" x2="214.68" y2="114.44" xlink:href="#Безымянный_градиент_8"/><linearGradient id="Безымянный_градиент_8-112" x1="215.21" y1="113.92" x2="215.59" y2="113.92" xlink:href="#Безымянный_градиент_8"/><linearGradient id="Безымянный_градиент_8-113" x1="216" y1="114.46" x2="223.82" y2="114.46" xlink:href="#Безымянный_градиент_8"/><linearGradient id="Безымянный_градиент_8-114" x1="213.4" y1="118.11" x2="213.78" y2="118.11" xlink:href="#Безымянный_градиент_8"/><linearGradient id="Безымянный_градиент_8-115" x1="214.31" y1="117.58" x2="214.68" y2="117.58" xlink:href="#Безымянный_градиент_8"/><linearGradient id="Безымянный_градиент_8-116" x1="215.21" y1="117.06" x2="215.59" y2="117.06" xlink:href="#Безымянный_градиент_8"/><linearGradient id="Безымянный_градиент_8-117" x1="216" y1="117.6" x2="223.82" y2="117.6" xlink:href="#Безымянный_градиент_8"/><linearGradient id="Безымянный_градиент_8-118" x1="213.4" y1="121.25" x2="213.78" y2="121.25" xlink:href="#Безымянный_градиент_8"/><linearGradient id="Безымянный_градиент_8-119" x1="214.31" y1="120.73" x2="214.68" y2="120.73" xlink:href="#Безымянный_градиент_8"/><linearGradient id="Безымянный_градиент_8-120" x1="215.21" y1="120.2" x2="215.59" y2="120.2" xlink:href="#Безымянный_градиент_8"/><linearGradient id="Безымянный_градиент_8-121" x1="216" y1="120.74" x2="223.82" y2="120.74" xlink:href="#Безымянный_градиент_8"/><linearGradient id="Безымянный_градиент_8-122" x1="213.4" y1="124.39" x2="213.78" y2="124.39" xlink:href="#Безымянный_градиент_8"/><linearGradient id="Безымянный_градиент_8-123" x1="214.31" y1="123.87" x2="214.68" y2="123.87" xlink:href="#Безымянный_градиент_8"/><linearGradient id="Безымянный_градиент_8-124" x1="215.21" y1="123.34" x2="215.59" y2="123.34" xlink:href="#Безымянный_градиент_8"/><linearGradient id="Безымянный_градиент_8-125" x1="216" y1="123.88" x2="223.82" y2="123.88" xlink:href="#Безымянный_градиент_8"/><linearGradient id="Безымянный_градиент_8-126" x1="213.4" y1="127.53" x2="213.78" y2="127.53" xlink:href="#Безымянный_градиент_8"/><linearGradient id="Безымянный_градиент_8-127" x1="214.31" y1="127.01" x2="214.68" y2="127.01" xlink:href="#Безымянный_градиент_8"/><linearGradient id="Безымянный_градиент_8-128" x1="215.21" y1="126.49" x2="215.59" y2="126.49" xlink:href="#Безымянный_градиент_8"/><linearGradient id="Безымянный_градиент_8-129" x1="216" y1="127.03" x2="223.82" y2="127.03" xlink:href="#Безымянный_градиент_8"/><linearGradient id="Безымянный_градиент_8-130" x1="213.4" y1="130.68" x2="213.78" y2="130.68" xlink:href="#Безымянный_градиент_8"/><linearGradient id="Безымянный_градиент_8-131" x1="214.31" y1="130.15" x2="214.68" y2="130.15" xlink:href="#Безымянный_градиент_8"/><linearGradient id="Безымянный_градиент_8-132" x1="215.21" y1="129.63" x2="215.59" y2="129.63" xlink:href="#Безымянный_градиент_8"/><linearGradient id="Безымянный_градиент_8-133" x1="216" y1="130.17" x2="223.82" y2="130.17" xlink:href="#Безымянный_градиент_8"/><linearGradient id="Безымянный_градиент_8-134" x1="213.4" y1="133.82" x2="213.78" y2="133.82" xlink:href="#Безымянный_градиент_8"/><linearGradient id="Безымянный_градиент_8-135" x1="214.31" y1="133.3" x2="214.68" y2="133.3" xlink:href="#Безымянный_градиент_8"/><linearGradient id="Безымянный_градиент_8-136" x1="215.21" y1="132.77" x2="215.59" y2="132.77" xlink:href="#Безымянный_градиент_8"/><linearGradient id="Безымянный_градиент_8-137" x1="216" y1="133.31" x2="223.82" y2="133.31" xlink:href="#Безымянный_градиент_8"/><linearGradient id="Безымянный_градиент_8-138" x1="213.4" y1="136.96" x2="213.78" y2="136.96" xlink:href="#Безымянный_градиент_8"/><linearGradient id="Безымянный_градиент_8-139" x1="214.31" y1="136.44" x2="214.68" y2="136.44" xlink:href="#Безымянный_градиент_8"/><linearGradient id="Безымянный_градиент_8-140" x1="215.21" y1="135.91" x2="215.59" y2="135.91" xlink:href="#Безымянный_градиент_8"/><linearGradient id="Безымянный_градиент_8-141" x1="216" y1="136.45" x2="223.82" y2="136.45" xlink:href="#Безымянный_градиент_8"/><linearGradient id="Безымянный_градиент_8-142" x1="213.4" y1="140.1" x2="213.78" y2="140.1" xlink:href="#Безымянный_градиент_8"/><linearGradient id="Безымянный_градиент_8-143" x1="214.31" y1="139.58" x2="214.68" y2="139.58" xlink:href="#Безымянный_градиент_8"/><linearGradient id="Безымянный_градиент_8-144" x1="215.21" y1="139.06" x2="215.59" y2="139.06" xlink:href="#Безымянный_градиент_8"/><linearGradient id="Безымянный_градиент_8-145" x1="191.64" y1="102.17" x2="199.47" y2="102.17" xlink:href="#Безымянный_градиент_8"/><linearGradient id="Безымянный_градиент_8-146" x1="201.69" y1="105.82" x2="202.06" y2="105.82" xlink:href="#Безымянный_градиент_8"/><linearGradient id="Безымянный_градиент_8-147" x1="200.78" y1="105.3" x2="201.16" y2="105.3" xlink:href="#Безымянный_градиент_8"/><linearGradient id="Безымянный_градиент_8-148" x1="199.87" y1="104.77" x2="200.25" y2="104.77" xlink:href="#Безымянный_градиент_8"/><linearGradient id="Безымянный_градиент_8-149" x1="191.64" y1="105.31" x2="199.47" y2="105.31" xlink:href="#Безымянный_градиент_8"/><linearGradient id="Безымянный_градиент_8-150" x1="201.69" y1="108.96" x2="202.06" y2="108.96" xlink:href="#Безымянный_градиент_8"/><linearGradient id="Безымянный_градиент_8-151" x1="200.78" y1="108.44" x2="201.16" y2="108.44" xlink:href="#Безымянный_градиент_8"/><linearGradient id="Безымянный_градиент_8-152" x1="199.87" y1="107.91" x2="200.25" y2="107.91" xlink:href="#Безымянный_градиент_8"/><linearGradient id="Безымянный_градиент_8-153" x1="191.64" y1="108.46" x2="199.47" y2="108.46" xlink:href="#Безымянный_градиент_8"/><linearGradient id="Безымянный_градиент_8-154" x1="201.69" y1="112.1" x2="202.06" y2="112.1" xlink:href="#Безымянный_градиент_8"/><linearGradient id="Безымянный_градиент_8-155" x1="200.78" y1="111.58" x2="201.16" y2="111.58" xlink:href="#Безымянный_градиент_8"/><linearGradient id="Безымянный_градиент_8-156" x1="199.87" y1="111.06" x2="200.25" y2="111.06" xlink:href="#Безымянный_градиент_8"/><linearGradient id="Безымянный_градиент_8-157" x1="191.64" y1="111.6" x2="199.47" y2="111.6" xlink:href="#Безымянный_градиент_8"/><linearGradient id="Безымянный_градиент_8-158" x1="201.69" y1="115.25" x2="202.06" y2="115.25" xlink:href="#Безымянный_градиент_8"/><linearGradient id="Безымянный_градиент_8-159" x1="200.78" y1="114.72" x2="201.16" y2="114.72" xlink:href="#Безымянный_градиент_8"/><linearGradient id="Безымянный_градиент_8-160" x1="199.87" y1="114.2" x2="200.25" y2="114.2" xlink:href="#Безымянный_градиент_8"/><linearGradient id="Безымянный_градиент_8-161" x1="191.64" y1="114.74" x2="199.47" y2="114.74" xlink:href="#Безымянный_градиент_8"/><linearGradient id="Безымянный_градиент_8-162" x1="201.69" y1="118.39" x2="202.06" y2="118.39" xlink:href="#Безымянный_градиент_8"/><linearGradient id="Безымянный_градиент_8-163" x1="200.78" y1="117.87" x2="201.16" y2="117.87" xlink:href="#Безымянный_градиент_8"/><linearGradient id="Безымянный_градиент_8-164" x1="199.87" y1="117.34" x2="200.25" y2="117.34" xlink:href="#Безымянный_градиент_8"/><linearGradient id="Безымянный_градиент_8-165" x1="191.64" y1="117.88" x2="199.47" y2="117.88" xlink:href="#Безымянный_градиент_8"/><linearGradient id="Безымянный_градиент_8-166" x1="201.69" y1="121.53" x2="202.06" y2="121.53" xlink:href="#Безымянный_градиент_8"/><linearGradient id="Безымянный_градиент_8-167" x1="200.78" y1="121.01" x2="201.16" y2="121.01" xlink:href="#Безымянный_градиент_8"/><linearGradient id="Безымянный_градиент_8-168" x1="199.87" y1="120.48" x2="200.25" y2="120.48" xlink:href="#Безымянный_градиент_8"/><linearGradient id="Безымянный_градиент_8-169" x1="191.64" y1="121.02" x2="199.47" y2="121.02" xlink:href="#Безымянный_градиент_8"/><linearGradient id="Безымянный_градиент_8-170" x1="201.69" y1="124.67" x2="202.06" y2="124.67" xlink:href="#Безымянный_градиент_8"/><linearGradient id="Безымянный_градиент_8-171" x1="200.78" y1="124.15" x2="201.16" y2="124.15" xlink:href="#Безымянный_градиент_8"/><linearGradient id="Безымянный_градиент_8-172" x1="199.87" y1="123.63" x2="200.25" y2="123.63" xlink:href="#Безымянный_градиент_8"/><linearGradient id="Безымянный_градиент_8-173" x1="191.64" y1="124.17" x2="199.47" y2="124.17" xlink:href="#Безымянный_градиент_8"/><linearGradient id="Безымянный_градиент_8-174" x1="201.69" y1="127.82" x2="202.06" y2="127.82" xlink:href="#Безымянный_градиент_8"/><linearGradient id="Безымянный_градиент_8-175" x1="200.78" y1="127.29" x2="201.16" y2="127.29" xlink:href="#Безымянный_градиент_8"/><linearGradient id="Безымянный_градиент_8-176" x1="199.87" y1="126.77" x2="200.25" y2="126.77" xlink:href="#Безымянный_градиент_8"/><linearGradient id="Безымянный_градиент_8-177" x1="191.64" y1="127.31" x2="199.47" y2="127.31" xlink:href="#Безымянный_градиент_8"/><linearGradient id="Безымянный_градиент_8-178" x1="201.69" y1="130.96" x2="202.06" y2="130.96" xlink:href="#Безымянный_градиент_8"/><linearGradient id="Безымянный_градиент_8-179" x1="200.78" y1="130.43" x2="201.16" y2="130.43" xlink:href="#Безымянный_градиент_8"/><linearGradient id="Безымянный_градиент_8-180" x1="199.87" y1="129.91" x2="200.25" y2="129.91" xlink:href="#Безымянный_градиент_8"/><linearGradient id="Безымянный_градиент_8-181" x1="191.64" y1="130.45" x2="199.47" y2="130.45" xlink:href="#Безымянный_градиент_8"/><linearGradient id="Безымянный_градиент_8-182" x1="201.69" y1="134.1" x2="202.06" y2="134.1" xlink:href="#Безымянный_градиент_8"/><linearGradient id="Безымянный_градиент_8-183" x1="200.78" y1="133.58" x2="201.16" y2="133.58" xlink:href="#Безымянный_градиент_8"/><linearGradient id="Безымянный_градиент_8-184" x1="199.87" y1="133.05" x2="200.25" y2="133.05" xlink:href="#Безымянный_градиент_8"/><linearGradient id="Безымянный_градиент_8-185" x1="191.64" y1="133.59" x2="199.47" y2="133.59" xlink:href="#Безымянный_градиент_8"/><linearGradient id="Безымянный_градиент_8-186" x1="201.69" y1="137.24" x2="202.06" y2="137.24" xlink:href="#Безымянный_градиент_8"/><linearGradient id="Безымянный_градиент_8-187" x1="200.78" y1="136.72" x2="201.16" y2="136.72" xlink:href="#Безымянный_градиент_8"/><linearGradient id="Безымянный_градиент_8-188" x1="199.87" y1="136.2" x2="200.25" y2="136.2" xlink:href="#Безымянный_градиент_8"/><linearGradient id="Безымянный_градиент_8-189" x1="191.64" y1="136.74" x2="199.47" y2="136.74" xlink:href="#Безымянный_градиент_8"/><linearGradient id="Безымянный_градиент_8-190" x1="201.69" y1="140.38" x2="202.06" y2="140.38" xlink:href="#Безымянный_градиент_8"/><linearGradient id="Безымянный_градиент_8-191" x1="200.78" y1="139.86" x2="201.16" y2="139.86" xlink:href="#Безымянный_градиент_8"/><linearGradient id="Безымянный_градиент_8-192" x1="199.87" y1="139.34" x2="200.25" y2="139.34" xlink:href="#Безымянный_градиент_8"/><linearGradient id="Безымянный_градиент_8-193" x1="-98.76" y1="41.72" x2="-32.96" y2="41.72" gradientTransform="matrix(-1, 0, 0, 1, 122.14, 0)" xlink:href="#Безымянный_градиент_8"/><linearGradient id="linear-gradient-14" x1="35.19" y1="170.63" x2="189.35" y2="170.63" gradientUnits="userSpaceOnUse"><stop offset="0" stop-color="#f4f3fb"/><stop offset="0.42" stop-color="#f4f3fb"/><stop offset="0.55" stop-color="#dfe2fb"/><stop offset="1" stop-color="#dedffb"/></linearGradient><linearGradient id="Безымянный_градиент_94" x1="76.7" y1="175" x2="76.7" y2="56.97" gradientUnits="userSpaceOnUse"><stop offset="0" stop-color="#00376a"/><stop offset="1" stop-color="#214b88"/></linearGradient><linearGradient id="Безымянный_градиент_8-194" x1="69.23" y1="174.05" x2="137.98" y2="130.8" xlink:href="#Безымянный_градиент_8"/><linearGradient id="Безымянный_градиент_8-195" x1="69.34" y1="174.22" x2="138.09" y2="130.97" xlink:href="#Безымянный_градиент_8"/><linearGradient id="Безымянный_градиент_8-196" x1="69.45" y1="174.4" x2="138.2" y2="131.15" xlink:href="#Безымянный_градиент_8"/><linearGradient id="Безымянный_градиент_8-197" x1="69.56" y1="174.58" x2="138.31" y2="131.33" xlink:href="#Безымянный_градиент_8"/><linearGradient id="Безымянный_градиент_8-198" x1="69.68" y1="174.76" x2="138.43" y2="131.51" xlink:href="#Безымянный_градиент_8"/><linearGradient id="Безымянный_градиент_8-199" x1="69.79" y1="174.94" x2="138.54" y2="131.69" xlink:href="#Безымянный_градиент_8"/><linearGradient id="Безымянный_градиент_8-200" x1="69.9" y1="175.11" x2="138.65" y2="131.86" xlink:href="#Безымянный_градиент_8"/><linearGradient id="Безымянный_градиент_8-201" x1="70.01" y1="175.29" x2="138.76" y2="132.04" xlink:href="#Безымянный_градиент_8"/><linearGradient id="Безымянный_градиент_8-202" x1="70.12" y1="175.47" x2="138.87" y2="132.22" xlink:href="#Безымянный_градиент_8"/><linearGradient id="Безымянный_градиент_8-203" x1="70.24" y1="175.65" x2="138.99" y2="132.4" xlink:href="#Безымянный_градиент_8"/><linearGradient id="Безымянный_градиент_8-204" x1="70.35" y1="175.83" x2="139.1" y2="132.58" xlink:href="#Безымянный_градиент_8"/><linearGradient id="Безымянный_градиент_8-205" x1="70.46" y1="176.01" x2="139.21" y2="132.76" xlink:href="#Безымянный_градиент_8"/><linearGradient id="Безымянный_градиент_8-206" x1="70.57" y1="176.18" x2="139.32" y2="132.93" xlink:href="#Безымянный_градиент_8"/><linearGradient id="Безымянный_градиент_8-207" x1="70.71" y1="176.4" x2="139.46" y2="133.15" xlink:href="#Безымянный_градиент_8"/><linearGradient id="Безымянный_градиент_8-208" x1="73.24" y1="180.43" x2="141.99" y2="137.18" xlink:href="#Безымянный_градиент_8"/><linearGradient id="Безымянный_градиент_8-209" x1="73.13" y1="180.25" x2="141.88" y2="137" xlink:href="#Безымянный_градиент_8"/><linearGradient id="Безымянный_градиент_8-210" x1="73.02" y1="180.07" x2="141.77" y2="136.82" xlink:href="#Безымянный_градиент_8"/><linearGradient id="Безымянный_градиент_8-211" x1="72.91" y1="179.89" x2="141.66" y2="136.64" xlink:href="#Безымянный_градиент_8"/><linearGradient id="Безымянный_градиент_8-212" x1="72.79" y1="179.71" x2="141.54" y2="136.46" xlink:href="#Безымянный_градиент_8"/><linearGradient id="Безымянный_градиент_8-213" x1="72.68" y1="179.54" x2="141.43" y2="136.29" xlink:href="#Безымянный_градиент_8"/><linearGradient id="Безымянный_градиент_8-214" x1="72.57" y1="179.36" x2="141.32" y2="136.11" xlink:href="#Безымянный_градиент_8"/><linearGradient id="Безымянный_градиент_8-215" x1="72.46" y1="179.18" x2="141.21" y2="135.93" xlink:href="#Безымянный_градиент_8"/><linearGradient id="Безымянный_градиент_8-216" x1="72.34" y1="179" x2="141.09" y2="135.75" xlink:href="#Безымянный_градиент_8"/><linearGradient id="Безымянный_градиент_8-217" x1="72.23" y1="178.82" x2="140.98" y2="135.57" xlink:href="#Безымянный_градиент_8"/><linearGradient id="Безымянный_градиент_8-218" x1="72.12" y1="178.65" x2="140.87" y2="135.4" xlink:href="#Безымянный_градиент_8"/><linearGradient id="Безымянный_градиент_8-219" x1="72.01" y1="178.47" x2="140.76" y2="135.22" xlink:href="#Безымянный_градиент_8"/><linearGradient id="Безымянный_градиент_8-220" x1="71.9" y1="178.29" x2="140.65" y2="135.04" xlink:href="#Безымянный_градиент_8"/><linearGradient id="Безымянный_градиент_8-221" x1="71.76" y1="178.07" x2="140.51" y2="134.82" xlink:href="#Безымянный_градиент_8"/><linearGradient id="Безымянный_градиент_8-222" x1="75.71" y1="184.35" x2="144.46" y2="141.1" xlink:href="#Безымянный_градиент_8"/><linearGradient id="Безымянный_градиент_8-223" x1="74.28" y1="182.08" x2="143.03" y2="138.83" xlink:href="#Безымянный_градиент_8"/><linearGradient id="Безымянный_градиент_8-224" x1="75.56" y1="184.11" x2="144.31" y2="140.86" xlink:href="#Безымянный_градиент_8"/><linearGradient id="Безымянный_градиент_8-225" x1="75.44" y1="183.93" x2="144.19" y2="140.68" xlink:href="#Безымянный_градиент_8"/><linearGradient id="Безымянный_градиент_8-226" x1="75.33" y1="183.75" x2="144.08" y2="140.5" xlink:href="#Безымянный_градиент_8"/><linearGradient id="Безымянный_градиент_8-227" x1="75.22" y1="183.57" x2="143.97" y2="140.32" xlink:href="#Безымянный_градиент_8"/><linearGradient id="Безымянный_градиент_8-228" x1="75.11" y1="183.39" x2="143.86" y2="140.14" xlink:href="#Безымянный_градиент_8"/><linearGradient id="Безымянный_градиент_8-229" x1="74.99" y1="183.21" x2="143.74" y2="139.96" xlink:href="#Безымянный_градиент_8"/><linearGradient id="Безымянный_градиент_8-230" x1="74.88" y1="183.04" x2="143.63" y2="139.79" xlink:href="#Безымянный_градиент_8"/><linearGradient id="Безымянный_градиент_8-231" x1="74.77" y1="182.86" x2="143.52" y2="139.61" xlink:href="#Безымянный_градиент_8"/><linearGradient id="Безымянный_градиент_8-232" x1="74.66" y1="182.68" x2="143.41" y2="139.43" xlink:href="#Безымянный_градиент_8"/><linearGradient id="Безымянный_градиент_8-233" x1="74.55" y1="182.5" x2="143.3" y2="139.25" xlink:href="#Безымянный_градиент_8"/><linearGradient id="Безымянный_градиент_8-234" x1="74.43" y1="182.32" x2="143.18" y2="139.07" xlink:href="#Безымянный_градиент_8"/><linearGradient id="Безымянный_градиент_8-235" x1="78.19" y1="188.29" x2="146.94" y2="145.04" xlink:href="#Безымянный_градиент_8"/><linearGradient id="Безымянный_градиент_8-236" x1="78.01" y1="188" x2="146.76" y2="144.75" xlink:href="#Безымянный_градиент_8"/><linearGradient id="Безымянный_градиент_8-237" x1="77.89" y1="187.82" x2="146.64" y2="144.57" xlink:href="#Безымянный_градиент_8"/><linearGradient id="Безымянный_градиент_8-238" x1="77.78" y1="187.64" x2="146.53" y2="144.39" xlink:href="#Безымянный_градиент_8"/><linearGradient id="Безымянный_градиент_8-239" x1="77.67" y1="187.47" x2="146.42" y2="144.22" xlink:href="#Безымянный_градиент_8"/><linearGradient id="Безымянный_градиент_8-240" x1="77.56" y1="187.29" x2="146.31" y2="144.04" xlink:href="#Безымянный_градиент_8"/><linearGradient id="Безымянный_градиент_8-241" x1="77.45" y1="187.11" x2="146.2" y2="143.86" xlink:href="#Безымянный_градиент_8"/><linearGradient id="Безымянный_градиент_8-242" x1="77.33" y1="186.93" x2="146.08" y2="143.68" xlink:href="#Безымянный_градиент_8"/><linearGradient id="Безымянный_градиент_8-243" x1="77.22" y1="186.75" x2="145.97" y2="143.5" xlink:href="#Безымянный_градиент_8"/><linearGradient id="Безымянный_градиент_8-244" x1="77.11" y1="186.58" x2="145.86" y2="143.33" xlink:href="#Безымянный_градиент_8"/><linearGradient id="Безымянный_градиент_8-245" x1="77" y1="186.4" x2="145.75" y2="143.15" xlink:href="#Безымянный_градиент_8"/><linearGradient id="Безымянный_градиент_8-246" x1="76.82" y1="186.11" x2="145.57" y2="142.86" xlink:href="#Безымянный_градиент_8"/><linearGradient id="Безымянный_градиент_8-247" x1="79.95" y1="191.09" x2="148.7" y2="147.84" xlink:href="#Безымянный_градиент_8"/><linearGradient id="Безымянный_градиент_8-248" x1="80.43" y1="191.85" x2="149.18" y2="148.6" xlink:href="#Безымянный_градиент_8"/><linearGradient id="Безымянный_градиент_8-249" x1="80.3" y1="191.65" x2="149.05" y2="148.4" xlink:href="#Безымянный_градиент_8"/><linearGradient id="Безымянный_градиент_8-250" x1="79.48" y1="190.34" x2="148.23" y2="147.09" xlink:href="#Безымянный_градиент_8"/><linearGradient id="Безымянный_градиент_8-251" x1="79.6" y1="190.54" x2="148.35" y2="147.29" xlink:href="#Безымянный_градиент_8"/><linearGradient id="Безымянный_градиент_8-252" x1="80.76" y1="192.38" x2="149.51" y2="149.13" xlink:href="#Безымянный_градиент_8"/><linearGradient id="Безымянный_градиент_8-253" x1="80.65" y1="192.2" x2="149.4" y2="148.95" xlink:href="#Безымянный_градиент_8"/><linearGradient id="Безымянный_градиент_8-254" x1="80.54" y1="192.02" x2="149.29" y2="148.77" xlink:href="#Безымянный_градиент_8"/><linearGradient id="Безымянный_градиент_8-255" x1="79.31" y1="190.07" x2="148.06" y2="146.82" xlink:href="#Безымянный_градиент_8"/><linearGradient id="Безымянный_градиент_8-256" x1="67.17" y1="170.77" x2="135.92" y2="127.52" xlink:href="#Безымянный_градиент_8"/><linearGradient id="Безымянный_градиент_8-257" x1="67.28" y1="170.95" x2="136.03" y2="127.7" xlink:href="#Безымянный_градиент_8"/><linearGradient id="Безымянный_градиент_8-258" x1="67.39" y1="171.13" x2="136.14" y2="127.88" xlink:href="#Безымянный_градиент_8"/><linearGradient id="Безымянный_градиент_8-259" x1="67.51" y1="171.31" x2="136.26" y2="128.06" xlink:href="#Безымянный_градиент_8"/><linearGradient id="Безымянный_градиент_8-260" x1="67.62" y1="171.49" x2="136.37" y2="128.24" xlink:href="#Безымянный_градиент_8"/><linearGradient id="Безымянный_градиент_8-261" x1="67.73" y1="171.67" x2="136.48" y2="128.42" xlink:href="#Безымянный_градиент_8"/><linearGradient id="Безымянный_градиент_8-262" x1="67.84" y1="171.84" x2="136.59" y2="128.59" xlink:href="#Безымянный_градиент_8"/><linearGradient id="Безымянный_градиент_8-263" x1="67.95" y1="172.02" x2="136.7" y2="128.77" xlink:href="#Безымянный_градиент_8"/><linearGradient id="Безымянный_градиент_8-264" x1="68.07" y1="172.2" x2="136.82" y2="128.95" xlink:href="#Безымянный_градиент_8"/><linearGradient id="Безымянный_градиент_8-265" x1="68.18" y1="172.38" x2="136.93" y2="129.13" xlink:href="#Безымянный_градиент_8"/><linearGradient id="Безымянный_градиент_8-266" x1="68.29" y1="172.56" x2="137.04" y2="129.31" xlink:href="#Безымянный_градиент_8"/><linearGradient id="Безымянный_градиент_8-267" x1="68.4" y1="172.74" x2="137.15" y2="129.49" xlink:href="#Безымянный_градиент_8"/><linearGradient id="Безымянный_градиент_8-268" x1="68.51" y1="172.91" x2="137.26" y2="129.66" xlink:href="#Безымянный_градиент_8"/><linearGradient id="Безымянный_градиент_8-269" x1="68.65" y1="173.13" x2="137.4" y2="129.88" xlink:href="#Безымянный_градиент_8"/></defs><title>platform-model</title><rect class="cls-1" x="129.13" y="128.07" width="33.03" height="1" transform="translate(-45.43 93.44) rotate(-31.02)"/><rect class="cls-2" x="166.84" y="150.6" width="33.03" height="1" transform="translate(-51.64 116.1) rotate(-31.02)"/><polygon class="cls-3" points="49.03 224.95 0 196.32 0 68.74 0.25 68.6 111.3 4.62 189.6 50.27 189.1 51.13 111.29 5.78 1 69.32 1 195.75 49.02 223.79 89.12 199.28 89.64 200.13 49.03 224.95"/><path class="cls-4" d="M149.36,68.78c0.06,1.14,1,1.35,2,1.35a2,2,0,0,0,1.84-2.07c0-1.14-2-2.49-2.86-1.91a2.54,2.54,0,0,0-.82,1.12A3.76,3.76,0,0,0,149.36,68.78Z"/><path class="cls-5" d="M191.81,68.28c0,0.66-.56.76-1.17,0.76a2.35,2.35,0,0,1-1.54-1.86,1.24,1.24,0,0,1,1-1.23,1.88,1.88,0,0,1,1.4,1A2.44,2.44,0,0,1,191.81,68.28Z"/><path class="cls-6" d="M150.44,67.32l20.07,11.8,20.23-11.78a0.71,0.71,0,0,0,0-1.23L170.27,54.83a0.71,0.71,0,0,0-.7,0L150.43,66.1A0.71,0.71,0,0,0,150.44,67.32Z"/><path class="cls-5" d="M170.6,126.59L170.42,79l20.17-11.55a0.82,0.82,0,0,1,1.23.71v45.45a0.82,0.82,0,0,1-.4.7Z"/><path class="cls-7" d="M149.36,68.82l-0.43,44.79a1.23,1.23,0,0,0,.62,1.08l21,11.91,0-46.9a1.23,1.23,0,0,0-.61-1.06L151.2,67.77A1.23,1.23,0,0,0,149.36,68.82Z"/><polyline class="cls-8" points="155.43 66.02 155.43 66.75 170.96 75.56 185.86 66.22 185.86 65.49 170.96 74.84 155.43 66.02"/><path class="cls-9" d="M155.42,66C155.7,66,171,74.84,171,74.84l14.9-9.35L170.64,57Z"/><path class="cls-10" d="M178,65.62l-7.84,4.66a0.57,0.57,0,0,1-.59,0l-0.08-.05a0.57,0.57,0,0,1,0-1l7.72-4.72a0.57,0.57,0,0,1,.59,0L178,64.64A0.57,0.57,0,0,1,178,65.62Z"/><path class="cls-11" d="M174.52,63.82l-7.84,4.66a0.57,0.57,0,0,1-.59,0L166,68.42a0.57,0.57,0,0,1,0-1l7.72-4.72a0.57,0.57,0,0,1,.59,0l0.21,0.12A0.57,0.57,0,0,1,174.52,63.82Z"/><path class="cls-12" d="M171.36,61.8l-7.84,4.66a0.57,0.57,0,0,1-.59,0l-0.08-.05a0.57,0.57,0,0,1,0-1l7.72-4.72a0.57,0.57,0,0,1,.59,0l0.21,0.12A0.57,0.57,0,0,1,171.36,61.8Z"/><polygon class="cls-13" points="186.76 76.92 178.93 81.43 178.93 80.93 186.76 76.41 186.76 76.92"/><polygon class="cls-14" points="176.71 82.72 176.34 82.93 176.34 82.43 176.71 82.21 176.71 82.72"/><polygon class="cls-15" points="177.62 82.19 177.24 82.41 177.24 81.91 177.62 81.69 177.62 82.19"/><polygon class="cls-16" points="178.53 81.67 178.15 81.89 178.15 81.38 178.53 81.16 178.53 81.67"/><polygon class="cls-17" points="186.76 80.06 178.93 84.58 178.93 84.07 186.76 79.55 186.76 80.06"/><polygon class="cls-18" points="176.71 85.86 176.34 86.08 176.34 85.57 176.71 85.35 176.71 85.86"/><polygon class="cls-19" points="177.62 85.33 177.24 85.55 177.24 85.05 177.62 84.83 177.62 85.33"/><polygon class="cls-20" points="178.53 84.81 178.15 85.03 178.15 84.52 178.53 84.31 178.53 84.81"/><polygon class="cls-21" points="186.76 83.2 178.93 87.72 178.93 87.21 186.76 82.7 186.76 83.2"/><polygon class="cls-22" points="176.71 89 176.34 89.22 176.34 88.71 176.71 88.5 176.71 89"/><polygon class="cls-23" points="177.62 88.48 177.24 88.69 177.24 88.19 177.62 87.97 177.62 88.48"/><polygon class="cls-24" points="178.53 87.95 178.15 88.17 178.15 87.67 178.53 87.45 178.53 87.95"/><polygon class="cls-25" points="186.76 86.34 178.93 90.86 178.93 90.36 186.76 85.84 186.76 86.34"/><polygon class="cls-26" points="176.71 92.14 176.34 92.36 176.34 91.86 176.71 91.64 176.71 92.14"/><polygon class="cls-27" points="177.62 91.62 177.24 91.84 177.24 91.33 177.62 91.11 177.62 91.62"/><polygon class="cls-28" points="178.53 91.09 178.15 91.31 178.15 90.81 178.53 90.59 178.53 91.09"/><polygon class="cls-29" points="186.76 89.48 178.93 94 178.93 93.5 186.76 88.98 186.76 89.48"/><polygon class="cls-30" points="176.71 95.28 176.34 95.5 176.34 95 176.71 94.78 176.71 95.28"/><polygon class="cls-31" points="177.62 94.76 177.24 94.98 177.24 94.47 177.62 94.26 177.62 94.76"/><polygon class="cls-32" points="178.53 94.24 178.15 94.45 178.15 93.95 178.53 93.73 178.53 94.24"/><polygon class="cls-33" points="186.76 92.63 178.93 97.14 178.93 96.64 186.76 92.12 186.76 92.63"/><polygon class="cls-34" points="176.71 98.43 176.34 98.64 176.34 98.14 176.71 97.92 176.71 98.43"/><polygon class="cls-35" points="177.62 97.9 177.24 98.12 177.24 97.62 177.62 97.4 177.62 97.9"/><polygon class="cls-36" points="178.53 97.38 178.15 97.6 178.15 97.09 178.53 96.88 178.53 97.38"/><polygon class="cls-37" points="186.76 95.77 178.93 100.29 178.93 99.78 186.76 95.27 186.76 95.77"/><polygon class="cls-38" points="176.71 101.57 176.34 101.79 176.34 101.28 176.71 101.06 176.71 101.57"/><polygon class="cls-39" points="177.62 101.05 177.24 101.26 177.24 100.76 177.62 100.54 177.62 101.05"/><polygon class="cls-40" points="178.53 100.52 178.15 100.74 178.15 100.23 178.53 100.02 178.53 100.52"/><polygon class="cls-41" points="186.76 98.91 178.93 103.43 178.93 102.92 186.76 98.41 186.76 98.91"/><polygon class="cls-42" points="176.71 104.71 176.34 104.93 176.34 104.42 176.71 104.21 176.71 104.71"/><polygon class="cls-43" points="177.62 104.19 177.24 104.41 177.24 103.9 177.62 103.68 177.62 104.19"/><polygon class="cls-44" points="178.53 103.66 178.15 103.88 178.15 103.38 178.53 103.16 178.53 103.66"/><polygon class="cls-45" points="186.76 102.05 178.93 106.57 178.93 106.07 186.76 101.55 186.76 102.05"/><polygon class="cls-46" points="176.71 107.85 176.34 108.07 176.34 107.57 176.71 107.35 176.71 107.85"/><polygon class="cls-47" points="177.62 107.33 177.24 107.55 177.24 107.04 177.62 106.83 177.62 107.33"/><polygon class="cls-48" points="178.53 106.81 178.15 107.02 178.15 106.52 178.53 106.3 178.53 106.81"/><polygon class="cls-49" points="186.76 105.2 178.93 109.71 178.93 109.21 186.76 104.69 186.76 105.2"/><polygon class="cls-50" points="176.71 111 176.34 111.21 176.34 110.71 176.71 110.49 176.71 111"/><polygon class="cls-51" points="177.62 110.47 177.24 110.69 177.24 110.19 177.62 109.97 177.62 110.47"/><polygon class="cls-52" points="178.53 109.95 178.15 110.17 178.15 109.66 178.53 109.44 178.53 109.95"/><polygon class="cls-53" points="186.76 108.34 178.93 112.86 178.93 112.35 186.76 107.83 186.76 108.34"/><polygon class="cls-54" points="176.71 114.14 176.34 114.36 176.34 113.85 176.71 113.63 176.71 114.14"/><polygon class="cls-55" points="177.62 113.61 177.24 113.83 177.24 113.33 177.62 113.11 177.62 113.61"/><polygon class="cls-56" points="178.53 113.09 178.15 113.31 178.15 112.8 178.53 112.59 178.53 113.09"/><polygon class="cls-57" points="186.76 111.48 178.93 116 178.93 115.49 186.76 110.98 186.76 111.48"/><polygon class="cls-58" points="176.71 117.28 176.34 117.5 176.34 116.99 176.71 116.78 176.71 117.28"/><polygon class="cls-59" points="177.62 116.76 177.24 116.97 177.24 116.47 177.62 116.25 177.62 116.76"/><polygon class="cls-60" points="178.53 116.23 178.15 116.45 178.15 115.95 178.53 115.73 178.53 116.23"/><polygon class="cls-61" points="154.58 77.2 162.4 81.71 162.4 81.21 154.58 76.69 154.58 77.2"/><polygon class="cls-62" points="164.62 83 165 83.22 165 82.71 164.62 82.49 164.62 83"/><polygon class="cls-63" points="163.72 82.47 164.09 82.69 164.09 82.19 163.72 81.97 163.72 82.47"/><polygon class="cls-64" points="162.81 81.95 163.19 82.17 163.19 81.66 162.81 81.44 162.81 81.95"/><polygon class="cls-65" points="154.58 80.34 162.4 84.86 162.4 84.35 154.58 79.84 154.58 80.34"/><polygon class="cls-66" points="164.62 86.14 165 86.36 165 85.85 164.62 85.64 164.62 86.14"/><polygon class="cls-67" points="163.72 85.61 164.09 85.83 164.09 85.33 163.72 85.11 163.72 85.61"/><polygon class="cls-68" points="162.81 85.09 163.19 85.31 163.19 84.81 162.81 84.59 162.81 85.09"/><polygon class="cls-69" points="154.58 83.48 162.4 88 162.4 87.5 154.58 82.98 154.58 83.48"/><polygon class="cls-70" points="164.62 89.28 165 89.5 165 89 164.62 88.78 164.62 89.28"/><polygon class="cls-71" points="163.72 88.76 164.09 88.97 164.09 88.47 163.72 88.25 163.72 88.76"/><polygon class="cls-72" points="162.81 88.23 163.19 88.45 163.19 87.95 162.81 87.73 162.81 88.23"/><polygon class="cls-73" points="154.58 86.62 162.4 91.14 162.4 90.64 154.58 86.12 154.58 86.62"/><polygon class="cls-74" points="164.62 92.42 165 92.64 165 92.14 164.62 91.92 164.62 92.42"/><polygon class="cls-75" points="163.72 91.9 164.09 92.12 164.09 91.61 163.72 91.4 163.72 91.9"/><polygon class="cls-76" points="162.81 91.38 163.19 91.59 163.19 91.09 162.81 90.87 162.81 91.38"/><polygon class="cls-77" points="154.58 89.77 162.4 94.28 162.4 93.78 154.58 89.26 154.58 89.77"/><polygon class="cls-78" points="164.62 95.56 165 95.78 165 95.28 164.62 95.06 164.62 95.56"/><polygon class="cls-79" points="163.72 95.04 164.09 95.26 164.09 94.76 163.72 94.54 163.72 95.04"/><polygon class="cls-80" points="162.81 94.52 163.19 94.74 163.19 94.23 162.81 94.01 162.81 94.52"/><polygon class="cls-81" points="154.58 92.91 162.4 97.43 162.4 96.92 154.58 92.41 154.58 92.91"/><polygon class="cls-82" points="164.62 98.71 165 98.93 165 98.42 164.62 98.2 164.62 98.71"/><polygon class="cls-83" points="163.72 98.18 164.09 98.4 164.09 97.9 163.72 97.68 163.72 98.18"/><polygon class="cls-84" points="162.81 97.66 163.19 97.88 163.19 97.37 162.81 97.16 162.81 97.66"/><polygon class="cls-85" points="154.58 96.05 162.4 100.57 162.4 100.06 154.58 95.55 154.58 96.05"/><polygon class="cls-86" points="164.62 101.85 165 102.07 165 101.56 164.62 101.35 164.62 101.85"/><polygon class="cls-87" points="163.72 101.33 164.09 101.54 164.09 101.04 163.72 100.82 163.72 101.33"/><polygon class="cls-88" points="162.81 100.8 163.19 101.02 163.19 100.52 162.81 100.3 162.81 100.8"/><polygon class="cls-89" points="154.58 99.19 162.4 103.71 162.4 103.21 154.58 98.69 154.58 99.19"/><polygon class="cls-90" points="164.62 104.99 165 105.21 165 104.71 164.62 104.49 164.62 104.99"/><polygon class="cls-91" points="163.72 104.47 164.09 104.69 164.09 104.18 163.72 103.96 163.72 104.47"/><polygon class="cls-92" points="162.81 103.94 163.19 104.16 163.19 103.66 162.81 103.44 162.81 103.94"/><polygon class="cls-93" points="154.58 102.33 162.4 106.85 162.4 106.35 154.58 101.83 154.58 102.33"/><polygon class="cls-94" points="164.62 108.13 165 108.35 165 107.85 164.62 107.63 164.62 108.13"/><polygon class="cls-95" points="163.72 107.61 164.09 107.83 164.09 107.33 163.72 107.11 163.72 107.61"/><polygon class="cls-96" points="162.81 107.09 163.19 107.31 163.19 106.8 162.81 106.58 162.81 107.09"/><polygon class="cls-97" points="154.58 105.48 162.4 110 162.4 109.49 154.58 104.97 154.58 105.48"/><polygon class="cls-98" points="164.62 111.28 165 111.5 165 110.99 164.62 110.77 164.62 111.28"/><polygon class="cls-99" points="163.72 110.75 164.09 110.97 164.09 110.47 163.72 110.25 163.72 110.75"/><polygon class="cls-100" points="162.81 110.23 163.19 110.45 163.19 109.94 162.81 109.72 162.81 110.23"/><polygon class="cls-101" points="154.58 108.62 162.4 113.14 162.4 112.63 154.58 108.12 154.58 108.62"/><polygon class="cls-102" points="164.62 114.42 165 114.64 165 114.13 164.62 113.92 164.62 114.42"/><polygon class="cls-103" points="163.72 113.89 164.09 114.11 164.09 113.61 163.72 113.39 163.72 113.89"/><polygon class="cls-104" points="162.81 113.37 163.19 113.59 163.19 113.09 162.81 112.87 162.81 113.37"/><polygon class="cls-105" points="154.58 111.76 162.4 116.28 162.4 115.78 154.58 111.26 154.58 111.76"/><polygon class="cls-106" points="164.62 117.56 165 117.78 165 117.28 164.62 117.06 164.62 117.56"/><polygon class="cls-107" points="163.72 117.04 164.09 117.26 164.09 116.75 163.72 116.53 163.72 117.04"/><polygon class="cls-108" points="162.81 116.51 163.19 116.73 163.19 116.23 162.81 116.01 162.81 116.51"/><path class="cls-109" d="M186.43,91.75c0.06,1.14,1,1.35,2,1.35A2,2,0,0,0,190.28,91c0-1.14-2-2.49-2.86-1.91a2.54,2.54,0,0,0-.82,1.12A3.76,3.76,0,0,0,186.43,91.75Z"/><path class="cls-5" d="M228.88,91.24c0,0.66-.56.76-1.17,0.76a2.35,2.35,0,0,1-1.54-1.86,1.24,1.24,0,0,1,1-1.23,1.88,1.88,0,0,1,1.4,1A2.44,2.44,0,0,1,228.88,91.24Z"/><path class="cls-6" d="M187.5,90.29l20.07,11.8,20.23-11.78a0.71,0.71,0,0,0,0-1.23L207.33,77.79a0.71,0.71,0,0,0-.7,0L187.49,89.07A0.71,0.71,0,0,0,187.5,90.29Z"/><path class="cls-5" d="M207.66,149.56l-0.18-47.61,20.17-11.55a0.82,0.82,0,0,1,1.23.71v45.45a0.82,0.82,0,0,1-.4.7Z"/><path class="cls-7" d="M186.43,91.78L186,136.57a1.23,1.23,0,0,0,.62,1.08l21,11.91,0-46.9a1.23,1.23,0,0,0-.61-1.06L188.26,90.73A1.23,1.23,0,0,0,186.43,91.78Z"/><polyline class="cls-110" points="192.49 88.99 192.49 89.72 208.03 98.53 222.93 89.18 222.93 88.45 208.03 97.8 192.49 88.99"/><path class="cls-9" d="M192.49,89C192.76,89,208,97.8,208,97.8l14.9-9.35L207.71,80Z"/><path class="cls-111" d="M215.05,88.58l-7.84,4.66a0.57,0.57,0,0,1-.59,0l-0.08-.05a0.57,0.57,0,0,1,0-1l7.72-4.72a0.57,0.57,0,0,1,.59,0L215,87.6A0.57,0.57,0,0,1,215.05,88.58Z"/><path class="cls-112" d="M211.58,86.79l-7.84,4.66a0.57,0.57,0,0,1-.59,0l-0.08-.05a0.57,0.57,0,0,1,0-1l7.72-4.72a0.57,0.57,0,0,1,.59,0l0.21,0.12A0.57,0.57,0,0,1,211.58,86.79Z"/><path class="cls-113" d="M208.42,84.77l-7.84,4.66a0.57,0.57,0,0,1-.59,0l-0.08-.05a0.57,0.57,0,0,1,0-1l7.72-4.72a0.57,0.57,0,0,1,.59,0l0.21,0.12A0.57,0.57,0,0,1,208.42,84.77Z"/><polygon class="cls-114" points="223.82 99.88 216 104.4 216 103.9 223.82 99.38 223.82 99.88"/><polygon class="cls-115" points="213.78 105.68 213.4 105.9 213.4 105.4 213.78 105.18 213.78 105.68"/><polygon class="cls-116" points="214.68 105.16 214.31 105.38 214.31 104.87 214.68 104.65 214.68 105.16"/><polygon class="cls-117" points="215.59 104.63 215.21 104.85 215.21 104.35 215.59 104.13 215.59 104.63"/><polygon class="cls-118" points="223.82 103.03 216 107.54 216 107.04 223.82 102.52 223.82 103.03"/><polygon class="cls-119" points="213.78 108.82 213.4 109.04 213.4 108.54 213.78 108.32 213.78 108.82"/><polygon class="cls-120" points="214.68 108.3 214.31 108.52 214.31 108.01 214.68 107.8 214.68 108.3"/><polygon class="cls-121" points="215.59 107.78 215.21 107.99 215.21 107.49 215.59 107.27 215.59 107.78"/><polygon class="cls-122" points="223.82 106.17 216 110.68 216 110.18 223.82 105.66 223.82 106.17"/><polygon class="cls-123" points="213.78 111.97 213.4 112.18 213.4 111.68 213.78 111.46 213.78 111.97"/><polygon class="cls-124" points="214.68 111.44 214.31 111.66 214.31 111.16 214.68 110.94 214.68 111.44"/><polygon class="cls-125" points="215.59 110.92 215.21 111.14 215.21 110.63 215.59 110.42 215.59 110.92"/><polygon class="cls-126" points="223.82 109.31 216 113.83 216 113.32 223.82 108.81 223.82 109.31"/><polygon class="cls-127" points="213.78 115.11 213.4 115.33 213.4 114.82 213.78 114.6 213.78 115.11"/><polygon class="cls-128" points="214.68 114.58 214.31 114.8 214.31 114.3 214.68 114.08 214.68 114.58"/><polygon class="cls-129" points="215.59 114.06 215.21 114.28 215.21 113.78 215.59 113.56 215.59 114.06"/><polygon class="cls-130" points="223.82 112.45 216 116.97 216 116.46 223.82 111.95 223.82 112.45"/><polygon class="cls-131" points="213.78 118.25 213.4 118.47 213.4 117.97 213.78 117.75 213.78 118.25"/><polygon class="cls-132" points="214.68 117.73 214.31 117.94 214.31 117.44 214.68 117.22 214.68 117.73"/><polygon class="cls-133" points="215.59 117.2 215.21 117.42 215.21 116.92 215.59 116.7 215.59 117.2"/><polygon class="cls-134" points="223.82 115.59 216 120.11 216 119.61 223.82 115.09 223.82 115.59"/><polygon class="cls-135" points="213.78 121.39 213.4 121.61 213.4 121.11 213.78 120.89 213.78 121.39"/><polygon class="cls-136" points="214.68 120.87 214.31 121.09 214.31 120.58 214.68 120.36 214.68 120.87"/><polygon class="cls-137" points="215.59 120.34 215.21 120.56 215.21 120.06 215.59 119.84 215.59 120.34"/><polygon class="cls-138" points="223.82 118.74 216 123.25 216 122.75 223.82 118.23 223.82 118.74"/><polygon class="cls-139" points="213.78 124.53 213.4 124.75 213.4 124.25 213.78 124.03 213.78 124.53"/><polygon class="cls-140" points="214.68 124.01 214.31 124.23 214.31 123.72 214.68 123.51 214.68 124.01"/><polygon class="cls-141" points="215.59 123.49 215.21 123.71 215.21 123.2 215.59 122.98 215.59 123.49"/><polygon class="cls-142" points="223.82 121.88 216 126.39 216 125.89 223.82 121.37 223.82 121.88"/><polygon class="cls-143" points="213.78 127.68 213.4 127.89 213.4 127.39 213.78 127.17 213.78 127.68"/><polygon class="cls-144" points="214.68 127.15 214.31 127.37 214.31 126.87 214.68 126.65 214.68 127.15"/><polygon class="cls-145" points="215.59 126.63 215.21 126.85 215.21 126.34 215.59 126.13 215.59 126.63"/><polygon class="cls-146" points="223.82 125.02 216 129.54 216 129.03 223.82 124.52 223.82 125.02"/><polygon class="cls-147" points="213.78 130.82 213.4 131.04 213.4 130.53 213.78 130.31 213.78 130.82"/><polygon class="cls-148" points="214.68 130.3 214.31 130.51 214.31 130.01 214.68 129.79 214.68 130.3"/><polygon class="cls-149" points="215.59 129.77 215.21 129.99 215.21 129.49 215.59 129.27 215.59 129.77"/><polygon class="cls-150" points="223.82 128.16 216 132.68 216 132.18 223.82 127.66 223.82 128.16"/><polygon class="cls-151" points="213.78 133.96 213.4 134.18 213.4 133.68 213.78 133.46 213.78 133.96"/><polygon class="cls-152" points="214.68 133.44 214.31 133.66 214.31 133.15 214.68 132.93 214.68 133.44"/><polygon class="cls-153" points="215.59 132.91 215.21 133.13 215.21 132.63 215.59 132.41 215.59 132.91"/><polygon class="cls-154" points="223.82 131.31 216 135.82 216 135.32 223.82 130.8 223.82 131.31"/><polygon class="cls-155" points="213.78 137.1 213.4 137.32 213.4 136.82 213.78 136.6 213.78 137.1"/><polygon class="cls-156" points="214.68 136.58 214.31 136.8 214.31 136.29 214.68 136.08 214.68 136.58"/><polygon class="cls-157" points="215.59 136.06 215.21 136.28 215.21 135.77 215.59 135.55 215.59 136.06"/><polygon class="cls-158" points="223.82 134.45 216 138.96 216 138.46 223.82 133.94 223.82 134.45"/><polygon class="cls-159" points="213.78 140.25 213.4 140.46 213.4 139.96 213.78 139.74 213.78 140.25"/><polygon class="cls-160" points="214.68 139.72 214.31 139.94 214.31 139.44 214.68 139.22 214.68 139.72"/><polygon class="cls-161" points="215.59 139.2 215.21 139.42 215.21 138.91 215.59 138.69 215.59 139.2"/><polygon class="cls-162" points="191.64 100.16 199.47 104.68 199.47 104.18 191.64 99.66 191.64 100.16"/><polygon class="cls-163" points="201.69 105.96 202.06 106.18 202.06 105.68 201.69 105.46 201.69 105.96"/><polygon class="cls-164" points="200.78 105.44 201.16 105.66 201.16 105.15 200.78 104.94 200.78 105.44"/><polygon class="cls-165" points="199.87 104.92 200.25 105.13 200.25 104.63 199.87 104.41 199.87 104.92"/><polygon class="cls-166" points="191.64 103.31 199.47 107.82 199.47 107.32 191.64 102.8 191.64 103.31"/><polygon class="cls-167" points="201.69 109.11 202.06 109.32 202.06 108.82 201.69 108.6 201.69 109.11"/><polygon class="cls-168" points="200.78 108.58 201.16 108.8 201.16 108.3 200.78 108.08 200.78 108.58"/><polygon class="cls-169" points="199.87 108.06 200.25 108.28 200.25 107.77 199.87 107.55 199.87 108.06"/><polygon class="cls-170" points="191.64 106.45 199.47 110.97 199.47 110.46 191.64 105.94 191.64 106.45"/><polygon class="cls-171" points="201.69 112.25 202.06 112.47 202.06 111.96 201.69 111.74 201.69 112.25"/><polygon class="cls-172" points="200.78 111.72 201.16 111.94 201.16 111.44 200.78 111.22 200.78 111.72"/><polygon class="cls-173" points="199.87 111.2 200.25 111.42 200.25 110.91 199.87 110.7 199.87 111.2"/><polygon class="cls-174" points="191.64 109.59 199.47 114.11 199.47 113.6 191.64 109.09 191.64 109.59"/><polygon class="cls-175" points="201.69 115.39 202.06 115.61 202.06 115.1 201.69 114.89 201.69 115.39"/><polygon class="cls-176" points="200.78 114.87 201.16 115.08 201.16 114.58 200.78 114.36 200.78 114.87"/><polygon class="cls-177" points="199.87 114.34 200.25 114.56 200.25 114.06 199.87 113.84 199.87 114.34"/><polygon class="cls-178" points="191.64 112.73 199.47 117.25 199.47 116.75 191.64 112.23 191.64 112.73"/><polygon class="cls-179" points="201.69 118.53 202.06 118.75 202.06 118.25 201.69 118.03 201.69 118.53"/><polygon class="cls-180" points="200.78 118.01 201.16 118.23 201.16 117.72 200.78 117.5 200.78 118.01"/><polygon class="cls-181" points="199.87 117.48 200.25 117.7 200.25 117.2 199.87 116.98 199.87 117.48"/><polygon class="cls-182" points="191.64 115.88 199.47 120.39 199.47 119.89 191.64 115.37 191.64 115.88"/><polygon class="cls-183" points="201.69 121.67 202.06 121.89 202.06 121.39 201.69 121.17 201.69 121.67"/><polygon class="cls-184" points="200.78 121.15 201.16 121.37 201.16 120.86 200.78 120.65 200.78 121.15"/><polygon class="cls-185" points="199.87 120.63 200.25 120.84 200.25 120.34 199.87 120.12 199.87 120.63"/><polygon class="cls-186" points="191.64 119.02 199.47 123.53 199.47 123.03 191.64 118.51 191.64 119.02"/><polygon class="cls-187" points="201.69 124.82 202.06 125.03 202.06 124.53 201.69 124.31 201.69 124.82"/><polygon class="cls-188" points="200.78 124.29 201.16 124.51 201.16 124.01 200.78 123.79 200.78 124.29"/><polygon class="cls-189" points="199.87 123.77 200.25 123.99 200.25 123.48 199.87 123.27 199.87 123.77"/><polygon class="cls-190" points="191.64 122.16 199.47 126.68 199.47 126.17 191.64 121.66 191.64 122.16"/><polygon class="cls-191" points="201.69 127.96 202.06 128.18 202.06 127.67 201.69 127.45 201.69 127.96"/><polygon class="cls-192" points="200.78 127.44 201.16 127.65 201.16 127.15 200.78 126.93 200.78 127.44"/><polygon class="cls-193" points="199.87 126.91 200.25 127.13 200.25 126.63 199.87 126.41 199.87 126.91"/><polygon class="cls-194" points="191.64 125.3 199.47 129.82 199.47 129.31 191.64 124.8 191.64 125.3"/><polygon class="cls-195" points="201.69 131.1 202.06 131.32 202.06 130.81 201.69 130.6 201.69 131.1"/><polygon class="cls-196" points="200.78 130.58 201.16 130.79 201.16 130.29 200.78 130.07 200.78 130.58"/><polygon class="cls-197" points="199.87 130.05 200.25 130.27 200.25 129.77 199.87 129.55 199.87 130.05"/><polygon class="cls-198" points="191.64 128.44 199.47 132.96 199.47 132.46 191.64 127.94 191.64 128.44"/><polygon class="cls-199" points="201.69 134.24 202.06 134.46 202.06 133.96 201.69 133.74 201.69 134.24"/><polygon class="cls-200" points="200.78 133.72 201.16 133.94 201.16 133.43 200.78 133.22 200.78 133.72"/><polygon class="cls-201" points="199.87 133.2 200.25 133.41 200.25 132.91 199.87 132.69 199.87 133.2"/><polygon class="cls-202" points="191.64 131.59 199.47 136.1 199.47 135.6 191.64 131.08 191.64 131.59"/><polygon class="cls-203" points="201.69 137.38 202.06 137.6 202.06 137.1 201.69 136.88 201.69 137.38"/><polygon class="cls-204" points="200.78 136.86 201.16 137.08 201.16 136.58 200.78 136.36 200.78 136.86"/><polygon class="cls-205" points="199.87 136.34 200.25 136.56 200.25 136.05 199.87 135.83 199.87 136.34"/><polygon class="cls-206" points="191.64 134.73 199.47 139.25 199.47 138.74 191.64 134.22 191.64 134.73"/><polygon class="cls-207" points="201.69 140.53 202.06 140.75 202.06 140.24 201.69 140.02 201.69 140.53"/><polygon class="cls-208" points="200.78 140 201.16 140.22 201.16 139.72 200.78 139.5 200.78 140"/><polygon class="cls-209" points="199.87 139.48 200.25 139.7 200.25 139.19 199.87 138.98 199.87 139.48"/><path class="cls-210" d="M174.07,18.84a15.87,15.87,0,0,1,4,3.4,33.68,33.68,0,0,1-1.27-8.87C176.77,2.13,183.61-3,192,1.83c8.27,4.77,15,17.43,15.25,28.52a5,5,0,0,1,2.79.76c3.58,2.07,6.49,7.62,6.49,12.4,0,0.28,0,.55,0,0.82A8.25,8.25,0,0,1,220,45.48c5.46,3.16,9.89,11.62,9.89,18.91S225.44,75,220,71.86L174.07,45.48c-5.52-3.19-10-11.73-10-19.09S168.55,15.66,174.07,18.84Z"/><polygon class="cls-210" points="167.81 18.17 157.72 24.12 163.22 30.65 174.35 28.63 167.81 18.17"/><polygon class="cls-210" points="226.82 72.14 218.41 76.89 216.85 66.03 227.51 64.18 226.82 72.14"/><polygon class="cls-210" points="182.35 0.86 174.35 5.64 187.76 10.72 191.49 6.98 182.35 0.86"/><path class="cls-211" d="M165.1,24a15.87,15.87,0,0,1,4,3.4,33.68,33.68,0,0,1-1.27-8.87c0-11.24,6.83-16.41,15.26-11.54,8.27,4.77,15,17.43,15.25,28.52a5,5,0,0,1,2.79.76c3.58,2.07,6.49,7.62,6.49,12.4,0,0.28,0,.55,0,0.82A8.25,8.25,0,0,1,211,50.67c5.46,3.16,9.89,11.62,9.89,18.91s-4.43,10.64-9.89,7.48L165.1,50.68c-5.52-3.19-10-11.73-10-19.09S159.58,20.86,165.1,24Z"/><path class="cls-212" d="M129.13,133.41l59.54,33.81a1.34,1.34,0,0,1,0,2.32l-89.3,52.28a3.75,3.75,0,0,1-3.8,0l-60-35.88a0.76,0.76,0,0,1,0-1.31l89.83-51.21A3.75,3.75,0,0,1,129.13,133.41Z"/><path class="cls-213" d="M129.13,126.41l59.54,33.81a1.34,1.34,0,0,1,0,2.32l-89.3,52.28a3.75,3.75,0,0,1-3.8,0l-60-35.88a0.76,0.76,0,0,1,0-1.31l89.83-51.21A3.75,3.75,0,0,1,129.13,126.41Z"/><polygon class="cls-214" points="189.35 159.16 189.35 161.45 187.98 162.38 187.44 159.3 189.35 159.16"/><polygon class="cls-215" points="35.19 176.11 35.19 178.46 37.78 179.35 38.25 177.73 35.19 176.11"/><path class="cls-7" d="M129.13,124.24L188.67,158a1.34,1.34,0,0,1,0,2.32l-89.3,52.28a3.75,3.75,0,0,1-3.8,0l-60-35.88a0.76,0.76,0,0,1,0-1.31l89.83-51.21A3.75,3.75,0,0,1,129.13,124.24Z"/><path class="cls-216" d="M24.61,109.46L32,172.14a2.2,2.2,0,0,0,3.27,1.65L124.6,123a2.19,2.19,0,0,0,1.09-2.16L118.2,58a2.2,2.2,0,0,0-3.28-1.64l-89.22,51A2.19,2.19,0,0,0,24.61,109.46Z"/><path class="cls-217" d="M26.16,110.39l7.35,62.68a2.2,2.2,0,0,0,3.27,1.65l89.37-50.82a2.19,2.19,0,0,0,1.09-2.16l-7.5-62.83a2.2,2.2,0,0,0-3.28-1.64l-89.22,51A2.19,2.19,0,0,0,26.16,110.39Z"/><path class="cls-218" d="M70,176.19l-3.43,2a0.91,0.91,0,0,1-.82,0l-3.29-1.89c-0.24-.14-0.27-0.35-0.06-0.47l3.43-2a0.91,0.91,0,0,1,.82,0l3.29,1.89C70.13,175.86,70.16,176.07,70,176.19Z"/><path class="cls-219" d="M74.6,173.52l-3.43,2a0.91,0.91,0,0,1-.82,0l-3.29-1.89c-0.24-.14-0.27-0.35-0.06-0.47l3.43-2a0.91,0.91,0,0,1,.82,0L74.54,173C74.78,173.19,74.81,173.4,74.6,173.52Z"/><path class="cls-220" d="M79.24,170.84l-3.43,2a0.91,0.91,0,0,1-.82,0l-3.29-1.89c-0.24-.14-0.27-0.35-0.06-0.47l3.43-2a0.91,0.91,0,0,1,.82,0l3.29,1.89C79.43,170.51,79.45,170.72,79.24,170.84Z"/><path class="cls-221" d="M83.89,168.17l-3.43,2a0.91,0.91,0,0,1-.82,0l-3.29-1.89c-0.24-.14-0.27-0.35-0.06-0.47l3.43-2a0.91,0.91,0,0,1,.82,0l3.29,1.89C84.07,167.84,84.1,168,83.89,168.17Z"/><path class="cls-222" d="M88.53,165.5l-3.43,2a0.91,0.91,0,0,1-.82,0L81,165.55c-0.24-.14-0.27-0.35-0.06-0.47l3.43-2a0.91,0.91,0,0,1,.82,0L88.48,165C88.72,165.16,88.74,165.38,88.53,165.5Z"/><path class="cls-223" d="M93.18,162.82l-3.43,2a0.91,0.91,0,0,1-.82,0l-3.29-1.89c-0.24-.14-0.27-0.35-0.06-0.47l3.43-2a0.91,0.91,0,0,1,.82,0l3.29,1.89C93.36,162.49,93.39,162.7,93.18,162.82Z"/><path class="cls-224" d="M97.83,160.15l-3.43,2a0.91,0.91,0,0,1-.82,0l-3.29-1.89c-0.24-.14-0.27-0.35-0.06-0.47l3.43-2a0.91,0.91,0,0,1,.82,0l3.29,1.89C98,159.82,98,160,97.83,160.15Z"/><path class="cls-225" d="M102.47,157.48l-3.43,2a0.91,0.91,0,0,1-.82,0l-3.29-1.89c-0.24-.14-0.27-0.35-0.06-0.47l3.43-2a0.91,0.91,0,0,1,.82,0l3.29,1.89C102.65,157.14,102.68,157.35,102.47,157.48Z"/><path class="cls-226" d="M107.12,154.8l-3.43,2a0.91,0.91,0,0,1-.82,0l-3.29-1.89c-0.24-.14-0.27-0.35-0.06-0.47l3.43-2a0.91,0.91,0,0,1,.82,0l3.29,1.89C107.3,154.47,107.33,154.68,107.12,154.8Z"/><path class="cls-227" d="M111.76,152.13l-3.43,2a0.91,0.91,0,0,1-.82,0l-3.29-1.89c-0.24-.14-0.27-0.35-0.06-0.47l3.43-2a0.91,0.91,0,0,1,.82,0l3.29,1.89C111.95,151.8,112,152,111.76,152.13Z"/><path class="cls-228" d="M116.41,149.45l-3.43,2a0.91,0.91,0,0,1-.82,0l-3.29-1.89c-0.24-.14-0.27-0.35-0.06-0.47l3.43-2a0.91,0.91,0,0,1,.82,0l3.29,1.89C116.59,149.12,116.62,149.33,116.41,149.45Z"/><path class="cls-229" d="M121.05,146.78l-3.43,2a0.91,0.91,0,0,1-.82,0l-3.29-1.89c-0.24-.14-0.27-0.35-0.06-0.47l3.43-2a0.91,0.91,0,0,1,.82,0l3.29,1.89C121.24,146.45,121.26,146.66,121.05,146.78Z"/><path class="cls-230" d="M125.7,144.11l-3.43,2a0.91,0.91,0,0,1-.82,0l-3.29-1.89c-0.24-.14-0.27-0.35-0.06-0.47l3.43-2a0.91,0.91,0,0,1,.82,0l3.29,1.89C125.88,143.77,125.91,144,125.7,144.11Z"/><path class="cls-231" d="M132.45,140.22l-5.53,3.18a0.91,0.91,0,0,1-.82,0l-3.29-1.89c-0.24-.14-0.27-0.35-0.06-0.47l5.53-3.18a0.91,0.91,0,0,1,.82,0l3.29,1.89C132.63,139.89,132.65,140.1,132.45,140.22Z"/><path class="cls-232" d="M129.46,142.46l3.43-2a0.91,0.91,0,0,1,.82,0l3.29,1.89c0.24,0.14.27,0.35,0.06,0.47l-3.43,2a0.91,0.91,0,0,1-.82,0l-3.29-1.89C129.28,142.79,129.25,142.58,129.46,142.46Z"/><path class="cls-233" d="M124.81,145.13l3.43-2a0.91,0.91,0,0,1,.82,0l3.29,1.89c0.24,0.14.27,0.35,0.06,0.47l-3.43,2a0.91,0.91,0,0,1-.82,0l-3.29-1.89C124.63,145.46,124.61,145.25,124.81,145.13Z"/><path class="cls-234" d="M120.17,147.81l3.43-2a0.91,0.91,0,0,1,.82,0l3.29,1.89c0.24,0.14.27,0.35,0.06,0.47l-3.43,2a0.91,0.91,0,0,1-.82,0l-3.29-1.89C120,148.14,120,147.93,120.17,147.81Z"/><path class="cls-235" d="M115.52,150.48l3.43-2a0.91,0.91,0,0,1,.82,0l3.29,1.89c0.24,0.14.27,0.35,0.06,0.47l-3.43,2a0.91,0.91,0,0,1-.82,0L115.58,151C115.34,150.81,115.31,150.6,115.52,150.48Z"/><path class="cls-236" d="M110.88,153.15l3.43-2a0.91,0.91,0,0,1,.82,0l3.29,1.89c0.24,0.14.27,0.35,0.06,0.47l-3.43,2a0.91,0.91,0,0,1-.82,0l-3.29-1.89C110.69,153.49,110.67,153.27,110.88,153.15Z"/><path class="cls-237" d="M106.23,155.83l3.43-2a0.91,0.91,0,0,1,.82,0l3.29,1.89c0.24,0.14.27,0.35,0.06,0.47l-3.43,2a0.91,0.91,0,0,1-.82,0l-3.29-1.89C106,156.16,106,155.95,106.23,155.83Z"/><path class="cls-238" d="M101.59,158.5l3.43-2a0.91,0.91,0,0,1,.82,0l3.29,1.89c0.24,0.14.27,0.35,0.06,0.47l-3.43,2a0.91,0.91,0,0,1-.82,0L101.65,159C101.4,158.83,101.38,158.62,101.59,158.5Z"/><path class="cls-239" d="M96.94,161.18l3.43-2a0.91,0.91,0,0,1,.82,0l3.29,1.89c0.24,0.14.27,0.35,0.06,0.47l-3.43,2a0.91,0.91,0,0,1-.82,0L97,161.65C96.76,161.51,96.73,161.3,96.94,161.18Z"/><path class="cls-240" d="M92.29,163.85l3.43-2a0.91,0.91,0,0,1,.82,0l3.29,1.89c0.24,0.14.27,0.35,0.06,0.47l-3.43,2a0.91,0.91,0,0,1-.82,0l-3.29-1.89C92.11,164.18,92.08,164,92.29,163.85Z"/><path class="cls-241" d="M87.65,166.52l3.43-2a0.91,0.91,0,0,1,.82,0l3.29,1.89c0.24,0.14.27,0.35,0.06,0.47l-3.43,2a0.91,0.91,0,0,1-.82,0L87.71,167C87.47,166.85,87.44,166.64,87.65,166.52Z"/><path class="cls-242" d="M83,169.2l3.43-2a0.91,0.91,0,0,1,.82,0l3.29,1.89c0.24,0.14.27,0.35,0.06,0.47l-3.43,2a0.91,0.91,0,0,1-.82,0l-3.29-1.89C82.82,169.53,82.79,169.32,83,169.2Z"/><path class="cls-243" d="M78.36,171.87l3.43-2a0.91,0.91,0,0,1,.82,0l3.29,1.89c0.24,0.14.27,0.35,0.06,0.47l-3.43,2a0.91,0.91,0,0,1-.82,0l-3.29-1.89C78.17,172.2,78.15,172,78.36,171.87Z"/><path class="cls-244" d="M73.71,174.54l3.43-2a0.91,0.91,0,0,1,.82,0l3.29,1.89c0.24,0.14.27,0.35,0.06,0.47l-3.43,2a0.91,0.91,0,0,1-.82,0L73.77,175C73.53,174.88,73.5,174.66,73.71,174.54Z"/><path class="cls-245" d="M67,178.43l5.53-3.18a0.91,0.91,0,0,1,.82,0l3.29,1.89c0.24,0.14.27,0.35,0.06,0.47l-5.53,3.18a0.91,0.91,0,0,1-.82,0L67,178.9C66.78,178.76,66.76,178.55,67,178.43Z"/><path class="cls-246" d="M130.72,147l6.79-3.91a0.91,0.91,0,0,1,.82,0l3.29,1.89c0.24,0.14.27,0.35,0.06,0.47l-6.79,3.91a0.91,0.91,0,0,1-.82,0l-3.29-1.89C130.54,147.38,130.51,147.17,130.72,147Z"/><path class="cls-247" d="M71.62,181.06l6.79-3.91a0.91,0.91,0,0,1,.82,0l3.29,1.89c0.24,0.14.27,0.35,0.06,0.47l-6.79,3.91a0.91,0.91,0,0,1-.82,0l-3.29-1.89C71.44,181.39,71.41,181.18,71.62,181.06Z"/><path class="cls-248" d="M126.08,149.72l3.43-2a0.91,0.91,0,0,1,.82,0l3.29,1.89c0.24,0.14.27,0.35,0.06,0.47l-3.43,2a0.91,0.91,0,0,1-.82,0l-3.29-1.89C125.89,150.05,125.87,149.84,126.08,149.72Z"/><path class="cls-249" d="M121.43,152.39l3.43-2a0.91,0.91,0,0,1,.82,0l3.29,1.89c0.24,0.14.27,0.35,0.06,0.47l-3.43,2a0.91,0.91,0,0,1-.82,0l-3.29-1.89C121.25,152.73,121.22,152.51,121.43,152.39Z"/><path class="cls-250" d="M116.79,155.07l3.43-2a0.91,0.91,0,0,1,.82,0l3.29,1.89c0.24,0.14.27,0.35,0.06,0.47l-3.43,2a0.91,0.91,0,0,1-.82,0l-3.29-1.89C116.6,155.4,116.58,155.19,116.79,155.07Z"/><path class="cls-251" d="M112.14,157.74l3.43-2a0.91,0.91,0,0,1,.82,0l3.29,1.89c0.24,0.14.27,0.35,0.06,0.47l-3.43,2a0.91,0.91,0,0,1-.82,0l-3.29-1.89C112,158.07,111.93,157.86,112.14,157.74Z"/><path class="cls-252" d="M107.5,160.41l3.43-2a0.91,0.91,0,0,1,.82,0l3.29,1.89c0.24,0.14.27,0.35,0.06,0.47l-3.43,2a0.91,0.91,0,0,1-.82,0l-3.29-1.89C107.31,160.75,107.29,160.54,107.5,160.41Z"/><path class="cls-253" d="M102.85,163.09l3.43-2a0.91,0.91,0,0,1,.82,0l3.29,1.89c0.24,0.14.27,0.35,0.06,0.47l-3.43,2a0.91,0.91,0,0,1-.82,0l-3.29-1.89C102.67,163.42,102.64,163.21,102.85,163.09Z"/><path class="cls-254" d="M98.2,165.76l3.43-2a0.91,0.91,0,0,1,.82,0l3.29,1.89c0.24,0.14.27,0.35,0.06,0.47l-3.43,2a0.91,0.91,0,0,1-.82,0l-3.29-1.89C98,166.09,98,165.88,98.2,165.76Z"/><path class="cls-255" d="M93.56,168.44l3.43-2a0.91,0.91,0,0,1,.82,0l3.29,1.89c0.24,0.14.27,0.35,0.06,0.47l-3.43,2a0.91,0.91,0,0,1-.82,0l-3.29-1.89C93.37,168.77,93.35,168.56,93.56,168.44Z"/><path class="cls-256" d="M88.91,171.11l3.43-2a0.91,0.91,0,0,1,.82,0l3.29,1.89c0.24,0.14.27,0.35,0.06,0.47l-3.43,2a0.91,0.91,0,0,1-.82,0L89,171.58C88.73,171.44,88.7,171.23,88.91,171.11Z"/><path class="cls-257" d="M84.27,173.78l3.43-2a0.91,0.91,0,0,1,.82,0l3.29,1.89c0.24,0.14.27,0.35,0.06,0.47l-3.43,2a0.91,0.91,0,0,1-.82,0l-3.29-1.89C84.08,174.12,84.06,173.9,84.27,173.78Z"/><path class="cls-258" d="M79.62,176.46l3.43-2a0.91,0.91,0,0,1,.82,0l3.29,1.89c0.24,0.14.27,0.35,0.06,0.47l-3.43,2a0.91,0.91,0,0,1-.82,0l-3.29-1.89C79.44,176.79,79.41,176.58,79.62,176.46Z"/><path class="cls-259" d="M133,151l9.09-5.23a0.91,0.91,0,0,1,.82,0l3.29,1.89c0.24,0.14.27,0.35,0.06,0.47l-9.09,5.23a0.91,0.91,0,0,1-.82,0l-3.29-1.89C132.85,151.36,132.82,151.15,133,151Z"/><path class="cls-260" d="M128.39,153.7l3.43-2a0.91,0.91,0,0,1,.82,0l3.29,1.89c0.24,0.14.27,0.35,0.06,0.47l-3.43,2a0.91,0.91,0,0,1-.82,0l-3.29-1.89C128.21,154,128.18,153.83,128.39,153.7Z"/><path class="cls-261" d="M123.74,156.38l3.43-2a0.91,0.91,0,0,1,.82,0l3.29,1.89c0.24,0.14.27,0.35,0.06,0.47l-3.43,2a0.91,0.91,0,0,1-.82,0l-3.29-1.89C123.56,156.71,123.53,156.5,123.74,156.38Z"/><path class="cls-262" d="M119.1,159.05l3.43-2a0.91,0.91,0,0,1,.82,0l3.29,1.89c0.24,0.14.27,0.35,0.06,0.47l-3.43,2a0.91,0.91,0,0,1-.82,0l-3.29-1.89C118.91,159.38,118.89,159.17,119.1,159.05Z"/><path class="cls-263" d="M114.45,161.73l3.43-2a0.91,0.91,0,0,1,.82,0l3.29,1.89c0.24,0.14.27,0.35,0.06,0.47l-3.43,2a0.91,0.91,0,0,1-.82,0l-3.29-1.89C114.27,162.06,114.24,161.85,114.45,161.73Z"/><path class="cls-264" d="M109.81,164.4l3.43-2a0.91,0.91,0,0,1,.82,0l3.29,1.89c0.24,0.14.27,0.35,0.06,0.47l-3.43,2a0.91,0.91,0,0,1-.82,0l-3.29-1.89C109.62,164.73,109.6,164.52,109.81,164.4Z"/><path class="cls-265" d="M105.16,167.07l3.43-2a0.91,0.91,0,0,1,.82,0L112.7,167c0.24,0.14.27,0.35,0.06,0.47l-3.43,2a0.91,0.91,0,0,1-.82,0l-3.29-1.89C105,167.4,105,167.19,105.16,167.07Z"/><path class="cls-266" d="M100.51,169.75l3.43-2a0.91,0.91,0,0,1,.82,0l3.29,1.89c0.24,0.14.27,0.35,0.06,0.47l-3.43,2a0.91,0.91,0,0,1-.82,0l-3.29-1.89C100.33,170.08,100.3,169.87,100.51,169.75Z"/><path class="cls-267" d="M95.87,172.42l3.43-2a0.91,0.91,0,0,1,.82,0l3.29,1.89c0.24,0.14.27,0.35,0.06,0.47l-3.43,2a0.91,0.91,0,0,1-.82,0l-3.29-1.89C95.68,172.75,95.66,172.54,95.87,172.42Z"/><path class="cls-268" d="M91.22,175.09l3.43-2a0.91,0.91,0,0,1,.82,0L98.77,175c0.24,0.14.27,0.35,0.06,0.47l-3.43,2a0.91,0.91,0,0,1-.82,0l-3.29-1.89C91,175.43,91,175.22,91.22,175.09Z"/><path class="cls-269" d="M86.58,177.77l3.43-2a0.91,0.91,0,0,1,.82,0l3.29,1.89c0.24,0.14.27,0.35,0.06,0.47l-3.43,2a0.91,0.91,0,0,1-.82,0l-3.29-1.89C86.39,178.1,86.37,177.89,86.58,177.77Z"/><path class="cls-270" d="M76.24,183.72l9.13-5.25a0.91,0.91,0,0,1,.82,0l3.29,1.89c0.24,0.14.27,0.35,0.06,0.47l-9.13,5.25a0.91,0.91,0,0,1-.82,0l-3.29-1.89C76.05,184,76,183.84,76.24,183.72Z"/><path class="cls-271" d="M100.49,175.08l22-12.67a0.91,0.91,0,0,1,.82,0l3.29,1.89c0.24,0.14.27,0.35,0.06,0.47l-22,12.67a0.91,0.91,0,0,1-.82,0l-3.29-1.89C100.3,175.41,100.28,175.2,100.49,175.08Z"/><path class="cls-272" d="M129.37,158.45l3.43-2a0.91,0.91,0,0,1,.82,0l3.29,1.89c0.24,0.14.27,0.35,0.06,0.47l-3.43,2a0.91,0.91,0,0,1-.82,0l-3.29-1.89C129.19,158.78,129.16,158.57,129.37,158.45Z"/><path class="cls-273" d="M123.71,161.71l4.45-2.56a0.91,0.91,0,0,1,.82,0l3.29,1.89c0.24,0.14.27,0.35,0.06,0.47l-4.45,2.56a0.91,0.91,0,0,1-.82,0l-3.29-1.89C123.53,162,123.5,161.83,123.71,161.71Z"/><path class="cls-274" d="M93.61,179l-3.43,2c-0.21.12-.18,0.33,0.06,0.47l3.29,1.89a0.91,0.91,0,0,0,.82,0l3.43-2c0.21-.12.18-0.33-0.06-0.47l-3.29-1.89A0.91,0.91,0,0,0,93.61,179Z"/><path class="cls-275" d="M99.27,175.78l-4.45,2.56c-0.21.12-.18,0.33,0.06,0.47l3.29,1.89a0.91,0.91,0,0,0,.82,0l4.45-2.56c0.21-.12.18-0.33-0.06-0.47l-3.29-1.89A0.91,0.91,0,0,0,99.27,175.78Z"/><path class="cls-276" d="M143.31,150.43l3.43-2a0.91,0.91,0,0,1,.82,0l3.29,1.89c0.24,0.14.27,0.35,0.06,0.47l-3.43,2a0.91,0.91,0,0,1-.82,0l-3.29-1.89C143.13,150.76,143.1,150.55,143.31,150.43Z"/><path class="cls-277" d="M138.67,153.1l3.43-2a0.91,0.91,0,0,1,.82,0l3.29,1.89c0.24,0.14.27,0.35,0.06,0.47l-3.43,2a0.91,0.91,0,0,1-.82,0l-3.29-1.89C138.48,153.44,138.46,153.22,138.67,153.1Z"/><path class="cls-278" d="M134,155.78l3.43-2a0.91,0.91,0,0,1,.82,0l3.29,1.89c0.24,0.14.27,0.35,0.06,0.47l-3.43,2a0.91,0.91,0,0,1-.82,0l-3.29-1.89C133.84,156.11,133.81,155.9,134,155.78Z"/><path class="cls-279" d="M80.86,186.38L89,181.71a0.91,0.91,0,0,1,.82,0l3.29,1.89c0.24,0.14.27,0.35,0.06,0.47L85,188.77a0.91,0.91,0,0,1-.82,0l-3.29-1.89C80.67,186.71,80.65,186.5,80.86,186.38Z"/><path class="cls-280" d="M65.33,173.53l-3.43,2a0.91,0.91,0,0,1-.82,0l-1.64-.94c-0.24-.14-0.27-0.35-0.06-0.47l3.43-2a0.91,0.91,0,0,1,.82,0l1.64,0.94C65.52,173.2,65.54,173.41,65.33,173.53Z"/><path class="cls-281" d="M70,170.86l-3.43,2a0.91,0.91,0,0,1-.82,0l-1.64-.94c-0.24-.14-0.27-0.35-0.06-0.47l3.43-2a0.91,0.91,0,0,1,.82,0l1.64,0.94C70.16,170.53,70.19,170.74,70,170.86Z"/><path class="cls-282" d="M74.63,168.19l-3.43,2a0.91,0.91,0,0,1-.82,0l-1.64-.94c-0.24-.14-0.27-0.35-0.06-0.47l3.43-2a0.91,0.91,0,0,1,.82,0l1.64,0.94C74.81,167.85,74.84,168.07,74.63,168.19Z"/><path class="cls-283" d="M79.27,165.51l-3.43,2a0.91,0.91,0,0,1-.82,0l-1.64-.94c-0.24-.14-0.27-0.35-0.06-0.47l3.43-2a0.91,0.91,0,0,1,.82,0L79.21,165C79.46,165.18,79.48,165.39,79.27,165.51Z"/><path class="cls-284" d="M83.92,162.84l-3.43,2a0.91,0.91,0,0,1-.82,0L78,163.84c-0.24-.14-0.27-0.35-0.06-0.47l3.43-2a0.91,0.91,0,0,1,.82,0l1.64,0.94C84.1,162.51,84.13,162.72,83.92,162.84Z"/><path class="cls-285" d="M88.56,160.17l-3.43,2a0.91,0.91,0,0,1-.82,0l-1.64-.94c-0.24-.14-0.27-0.35-0.06-0.47l3.43-2a0.91,0.91,0,0,1,.82,0l1.64,0.94C88.75,159.83,88.77,160,88.56,160.17Z"/><path class="cls-286" d="M93.21,157.49l-3.43,2a0.91,0.91,0,0,1-.82,0l-1.64-.94c-0.24-.14-0.27-0.35-0.06-0.47l3.43-2a0.91,0.91,0,0,1,.82,0L93.15,157C93.39,157.16,93.42,157.37,93.21,157.49Z"/><path class="cls-287" d="M97.85,154.82l-3.43,2a0.91,0.91,0,0,1-.82,0L92,155.82c-0.24-.14-0.27-0.35-0.06-0.47l3.43-2a0.91,0.91,0,0,1,.82,0l1.64,0.94C98,154.49,98.06,154.7,97.85,154.82Z"/><path class="cls-288" d="M102.5,152.14l-3.43,2a0.91,0.91,0,0,1-.82,0l-1.64-.94c-0.24-.14-0.27-0.35-0.06-0.47l3.43-2a0.91,0.91,0,0,1,.82,0l1.64,0.94C102.68,151.81,102.71,152,102.5,152.14Z"/><path class="cls-289" d="M107.15,149.47l-3.43,2a0.91,0.91,0,0,1-.82,0l-1.64-.94c-0.24-.14-0.27-0.35-0.06-0.47l3.43-2a0.91,0.91,0,0,1,.82,0l1.64,0.94C107.33,149.14,107.36,149.35,107.15,149.47Z"/><path class="cls-290" d="M111.79,146.8l-3.43,2a0.91,0.91,0,0,1-.82,0l-1.64-.94c-0.24-.14-0.27-0.35-0.06-0.47l3.43-2a0.91,0.91,0,0,1,.82,0l1.64,0.94C112,146.47,112,146.68,111.79,146.8Z"/><path class="cls-291" d="M116.44,144.12l-3.43,2a0.91,0.91,0,0,1-.82,0l-1.64-.94c-0.24-.14-0.27-0.35-0.06-0.47l3.43-2a0.91,0.91,0,0,1,.82,0l1.64,0.94C116.62,143.79,116.65,144,116.44,144.12Z"/><path class="cls-292" d="M121.08,141.45l-3.43,2a0.91,0.91,0,0,1-.82,0l-1.64-.94c-0.24-.14-0.27-0.35-0.06-0.47l3.43-2a0.91,0.91,0,0,1,.82,0L121,141C121.27,141.12,121.29,141.33,121.08,141.45Z"/><path class="cls-293" d="M127.83,137.57l-5.53,3.18a0.91,0.91,0,0,1-.82,0l-1.64-.94c-0.24-.14-0.27-0.35-0.06-0.47l5.53-3.18a0.91,0.91,0,0,1,.82,0l1.64,0.94C128,137.24,128,137.45,127.83,137.57Z"/><text class="cls-294" transform="matrix(0.75, -0.43, 0, 1, 43.22, 130)">C<tspan x="8.44" y="0">O</tspan><tspan x="18.68" y="0">P</tspan><tspan class="cls-295" x="26.62" y="0">Y</tspan><tspan x="35.28" y="0">T</tspan><tspan x="42.86" y="0">R</tspan><tspan x="51.07" y="0">ADER </tspan><tspan x="8.59" y="16.63">PL</tspan><tspan x="23.89" y="16.63">A</tspan><tspan x="31.99" y="16.63">TFORM </tspan></text></svg>