<svg id="Layer_1" data-name="Layer 1" xmlns="http://www.w3.org/2000/svg" xmlns:xlink="http://www.w3.org/1999/xlink" viewBox="0 0 157.6 167.8">
  <defs>
    <style>
      .cls-1-1, .cls-1-2 {
        opacity: 0.5;
        isolation: isolate;
      }

      .cls-1-1 {
        fill: url(#grad-1);
      }

      .cls-1-2 {
        fill: url(#grad-1_2);
      }

      .cls-1-3 {
        fill: url(#grad-1_3);
      }

      .cls-1-4 {
        fill: #0a9352;
      }

      .cls-1-5 {
        fill: url(#grad-1_4);
      }

      .cls-1-6 {
        fill: url(#grad-1_5);
      }

      .cls-1-7 {
        fill: url(#grad-1_6);
      }

      .cls-1-8 {
        fill: url(#grad-1_7);
      }

      .cls-1-9 {
        fill: url(#grad-1_8);
      }

      .cls-1-10 {
        fill: url(#grad-1_9);
      }

      .cls-1-11 {
        fill: url(#grad-1_10);
      }

      .cls-1-12 {
        fill: url(#grad-1_11);
      }

      .cls-1-13 {
        fill: url(#grad-1_12);
      }

      .cls-1-14 {
        fill: url(#grad-1_13);
      }

      .cls-1-15 {
        fill: url(#grad-1_14);
      }

      .cls-1-16 {
        fill: url(#grad-1_15);
      }

      .cls-1-17 {
        fill: url(#grad-1_16);
      }

      .cls-1-18 {
        fill: url(#grad-1_17);
      }

      .cls-1-19 {
        fill: url(#grad-1_18);
      }
    </style>
    <linearGradient id="grad-1" data-name="Безымянный градиент" x1="38.1" y1="73.99" x2="157.6" y2="73.99" gradientTransform="matrix(1, 0, 0, -1, 0, 143.49)" gradientUnits="userSpaceOnUse">
      <stop offset="0" stop-color="#0fce64" stop-opacity="0.4"/>
      <stop offset="1" stop-color="#079656"/>
    </linearGradient>
    <linearGradient id="grad-1_2" data-name="Безымянный градиент 2" x1="29.1" y1="68.64" x2="148.4" y2="68.64" xlink:href="#grad-1"/>
    <linearGradient id="grad-1_3" data-name="Безымянный градиент 3" x1="100.7" y1="76.54" x2="68.94" y2="21.53" xlink:href="#grad-1"/>
    <linearGradient id="grad-1_4" data-name="Безымянный градиент 4" x1="133.75" y1="17.73" x2="133.75" y2="-13.1" gradientTransform="matrix(1, 0, 0, -1, 0, 143.49)" gradientUnits="userSpaceOnUse">
      <stop offset="0" stop-color="#0fce64"/>
      <stop offset="1" stop-color="#079656"/>
    </linearGradient>
    <linearGradient id="grad-1_5" data-name="Безымянный градиент 5" x1="127" y1="34.49" x2="127" y2="15.86" xlink:href="#grad-1_4"/>
    <linearGradient id="grad-1_6" data-name="Безымянный градиент 6" x1="80.7" y1="66.79" x2="111.17" y2="66.79" xlink:href="#grad-1_4"/>
    <linearGradient id="grad-1_7" data-name="Безымянный градиент 7" x1="101.26" y1="37.59" x2="131.96" y2="37.59" xlink:href="#grad-1_4"/>
    <linearGradient id="grad-1_8" data-name="Безымянный градиент 8" x1="34.6" y1="98.49" x2="70.9" y2="98.49" xlink:href="#grad-1_4"/>
    <linearGradient id="grad-1_9" data-name="Безымянный градиент 9" x1="93.38" y1="69.35" x2="66.56" y2="22.9" xlink:href="#grad-1_4"/>
    <linearGradient id="grad-1_10" data-name="Безымянный градиент 10" x1="65.9" y1="93.69" x2="65.9" y2="74.49" xlink:href="#grad-1_4"/>
    <linearGradient id="grad-1_11" data-name="Безымянный градиент 11" x1="106.2" y1="63.69" x2="106.2" y2="40.75" xlink:href="#grad-1_4"/>
    <linearGradient id="grad-1_12" data-name="Безымянный градиент 12" x1="74.1" y1="52.7" x2="49.65" y2="10.36" xlink:href="#grad-1"/>
    <linearGradient id="grad-1_13" data-name="Безымянный градиент 13" x1="114.45" y1="6.52" x2="114.45" y2="-24.31" xlink:href="#grad-1_4"/>
    <linearGradient id="grad-1_14" data-name="Безымянный градиент 14" x1="107.7" y1="23.29" x2="107.7" y2="4.66" xlink:href="#grad-1_4"/>
    <linearGradient id="grad-1_15" data-name="Безымянный градиент 15" x1="75.5" y1="28.14" x2="112.7" y2="28.14" xlink:href="#grad-1_4"/>
    <linearGradient id="grad-1_16" data-name="Безымянный градиент 16" x1="27.3" y1="66.89" x2="51.6" y2="66.89" xlink:href="#grad-1_4"/>
    <linearGradient id="grad-1_17" data-name="Безымянный градиент 17" x1="66.73" y1="45.42" x2="47.26" y2="11.7" xlink:href="#grad-1_4"/>
    <linearGradient id="grad-1_18" data-name="Безымянный градиент 18" x1="46.6" y1="65.66" x2="46.6" y2="40.26" xlink:href="#grad-1_4"/>
  </defs>
  <title>stock_indices</title>
  <g>
    <polygon class="cls-1-1" points="157.4 139 38.1 70.2 38.1 5.7 67.3 0 87.6 29.5 118.8 55.5 157.6 58.7 157.4 139"/>
    <polygon class="cls-1-2" points="148.4 145.3 29.1 76.4 29.1 4.4 39.8 15.7 58.3 22 76.3 44.5 111.3 54 148.3 83.7 148.4 145.3"/>
    <g>
      <polygon class="cls-1-3" points="138.5 151.1 138.5 125.8 131.8 122 132 109 111.1 97 111.2 79.8 90.6 67.8 90.8 74.6 70.9 63.3 70.9 49.8 44.5 34.5 45.3 62.5 29.3 52.6 19.3 58.3 19.3 93.3 129 156.6 138.5 151.1"/>
      <polygon class="cls-1-4" points="55.7 67.9 29.3 52.6 19.4 58.4 45.8 73.5 55.7 67.9"/>
      <polygon class="cls-1-5" points="129 156.6 138.5 151.1 138.5 125.8 129 131.4 129 156.6"/>
      <polygon class="cls-1-6" points="122 127.6 122.2 114.8 132 109 131.8 122 122 127.6"/>
      <polygon class="cls-1-4" points="80.7 80.4 60.9 69 70.9 63.1 90.8 74.6 80.7 80.4"/>
      <polygon class="cls-1-7" points="101.2 85.6 80.7 73.4 90.6 67.8 111.2 79.8 101.2 85.6"/>
      <polygon class="cls-1-8" points="132 109 111.1 97 101.3 102.7 122.2 114.8 132 109"/>
      <polygon class="cls-1-9" points="70.9 49.8 44.5 34.5 34.6 40.3 61.1 55.5 70.9 49.8"/>
      <polygon class="cls-1-10" points="122 127.6 122.2 114.9 101.3 102.7 101.2 85.6 80.7 73.4 80.7 80.4 60.9 69 61.1 55.5 34.6 40.3 34.7 67.1 19.3 58.3 19.3 93.3 129 156.6 129 131.6 122 127.6"/>
      <polygon class="cls-1-11" points="61.1 55.5 60.9 69 70.9 63.3 70.9 49.8 61.1 55.5"/>
      <polygon class="cls-1-4" points="122 127.6 129 131.6 138.5 125.8 131.8 122 122 127.6"/>
      <polygon class="cls-1-12" points="101.3 102.7 101.2 85.6 111.2 79.8 111.1 97 101.3 102.7"/>
    </g>
    <g>
      <polygon class="cls-1-13" points="119.2 162.3 119.2 137 112.5 133.2 112.7 120.2 85.3 104.6 85.3 116.6 51.6 97.5 51.6 77.8 37.1 69.5 37.2 79.4 9.8 63.7 0 69.5 0 101.1 109.7 167.8 119.2 162.3"/>
      <polygon class="cls-1-14" points="109.7 167.8 119.2 162.3 119.2 137 109.7 142.6 109.7 167.8"/>
      <polygon class="cls-1-15" points="102.7 138.9 102.8 126.1 112.7 120.2 112.5 133.2 102.7 138.9"/>
      <polygon class="cls-1-4" points="74.9 122.5 41.6 103.2 51.6 97.5 84.2 116.3 74.9 122.5"/>
      <polygon class="cls-1-16" points="112.7 120.2 85.3 104.6 75.5 110.4 102.8 126.1 112.7 120.2"/>
      <polygon class="cls-1-4" points="37.2 79.4 9.8 63.7 0 69.6 27.3 85.2 37.2 79.4"/>
      <polygon class="cls-1-17" points="51.6 77.8 37.1 69.5 27.3 75.3 41.8 83.7 51.6 77.8"/>
      <polygon class="cls-1-18" points="102.7 138.9 102.8 126.1 75.7 110.3 75.7 122.7 41.6 103.2 41.8 83.7 27.3 75.3 27.3 85.2 0 69.5 0 104.5 109.7 167.8 109.7 142.8 102.7 138.9"/>
      <polygon class="cls-1-19" points="41.8 83.7 41.6 103.2 51.6 97.5 51.6 77.8 41.8 83.7"/>
      <polygon class="cls-1-4" points="102.7 138.9 109.7 142.8 119.2 137 112.5 133.2 102.7 138.9"/>
    </g>
  </g>
</svg>
